<svg xmlns="http://www.w3.org/2000/svg" xmlns:xlink="http://www.w3.org/1999/xlink" width="175.536" height="126.687" viewBox="0 0 175.536 126.687"><defs><style>.a{fill:url(#a);}</style><linearGradient id="a" y1="0.5" x2="1" y2="0.5" gradientUnits="objectBoundingBox"><stop offset="0" stop-color="#d30019"/><stop offset="1" stop-color="#e3001b"/></linearGradient></defs><g transform="translate(-219.935 -2522.483)"><g transform="translate(267.581 2612.607)"><path class="a" d="M326.18,2692.291c-9.7,0-16.473,7.629-16.473,18.554,0,10.6,6.59,18.009,16.026,18.009,8.222,0,16.52-5.752,16.52-18.6C342.254,2699.508,335.794,2692.291,326.18,2692.291Zm-.2,31.042c-6.672,0-9.711-6.524-9.711-12.587,0-6.437,3.017-12.935,9.761-12.935,6.638,0,9.661,6.551,9.661,12.637C335.691,2716.862,332.689,2723.333,325.981,2723.333Z" transform="translate(-309.707 -2692.291)"/><path class="a" d="M377.722,2728.836h6.363V2713.71h12.6v-5.57h-12.6v-9.108h13.638v-5.618h-20Z" transform="translate(-341.624 -2692.818)"/><path class="a" d="M443.219,2699.032v-5.618h-20v35.422h6.364V2713.71h12.594v-5.57H429.583v-9.108Z" transform="translate(-362.974 -2692.818)"/></g><g transform="translate(219.935 2522.483)"><path class="a" d="M219.935,2584.981c0-3.16,1.985-6.5,5.864-10.2a2.652,2.652,0,0,1,1.717-.9c.452,0,.632.18.632.631a2.487,2.487,0,0,1-.9,1.625c-2.168,2.074-3.25,4.239-3.25,6.318,0,2.436,1.354,4.6,4.153,6.314a18.235,18.235,0,0,0,9.746,2.53c7.13,0,14.348-2.53,21.748-7.671,7.67-5.326,12.184-11.371,13.536-18.05a12.131,12.131,0,0,0,.182-1.8c0-3.07-1.9-5.325-5.594-6.86a24.442,24.442,0,0,0-8.934-1.354A27.347,27.347,0,0,0,248,2558.18l-9.475,4.6a1.156,1.156,0,0,1-.54.09c-.545,0-.813-.362-.813-1.084a1.879,1.879,0,0,1,1.17-1.894l10.652-13.446c.541-.634,1.895-1,4.06-1,1.173,0,1.8.181,1.8.542a.668.668,0,0,1-.181.361l-10.468,11.371q11.507-4.6,16.515-4.6c12.905,0,19.31,3.159,19.31,9.568a11.093,11.093,0,0,1-.54,3.248c-2.436,7.763-7.94,14.348-16.695,19.854A52.136,52.136,0,0,1,236.812,2594C226.975,2594.366,219.935,2590.845,219.935,2584.981Zm52.432-42.866a84.618,84.618,0,0,0-12.453-1.173c-3.882,0-6.95.812-9.206,2.526-.812.632-1.173-.812-.9-2.977q.138-1.762.814-2.166a9.341,9.341,0,0,1,4.6-1.808,48.539,48.539,0,0,1,4.963-.179c2.889,0,7.04.816,12.547,2.348s9.657,2.346,12.542,2.346a9.765,9.765,0,0,0,4.06-1.083c1.985-.991,2.981-2.166,2.981-3.7,0-.9.36-1.355,1.082-1.355s1.082.814,1.082,2.348q0,3.112-4.062,4.873a14.269,14.269,0,0,1-5.683,1.172A84.819,84.819,0,0,1,272.367,2542.115Z" transform="translate(-219.935 -2528.307)"/><path class="a" d="M390.093,2537.65a13.93,13.93,0,0,1,5.144,3.16,16.059,16.059,0,0,1,5.053,12.183,29.9,29.9,0,0,1-4.06,14.257,46.3,46.3,0,0,1-10.559,13.266c-10.468,9.295-20.847,13.9-31.044,13.9a21.174,21.174,0,0,1-3.428-.27c-4.965-.632-7.492-4.24-7.492-10.649,0-6.227,2.347-13.266,7.04-20.938a58.656,58.656,0,0,1,12.452-14.076,66.9,66.9,0,0,1,15.7-10.288.929.929,0,0,1-.361-.721c0-.816,2.166-1.265,5.143-1a21.731,21.731,0,0,1,6.948-.9c4.513,0,6.768.814,6.768,2.529-.09.813-.721.993-1.8.542A13.463,13.463,0,0,0,390.093,2537.65ZM366.63,2550.1a82.085,82.085,0,0,0-11.371,13.626c-4.962,7.672-7.4,14.709-7.4,21.208,0,4.6,1.447,6.951,4.423,7.218,8.574.724,18.231-3.7,29.15-13.266,9.383-8.209,14.077-17.234,14.077-26.891,0-4.6-.992-7.672-2.887-9.206a19.343,19.343,0,0,0-8.3-4.15C378.726,2540.358,372.857,2544.148,366.63,2550.1Z" transform="translate(-278.017 -2528.626)"/><path class="a" d="M503.62,2527.085c-8.214,9.478-17.057,20.577-26.711,33.481-11.373,15.253-17.96,25.36-19.854,30.412a9.444,9.444,0,0,0-.542,2.887,2.37,2.37,0,0,0,.991,2.258c.272.087.272.361,0,.811a2.154,2.154,0,0,1-1.893.9c-1,0-1.536-.9-1.536-2.619a26.917,26.917,0,0,1,1.986-8.752c1.535-4.243,7.671-13.72,18.321-28.339,9.837-13.625,17.868-23.823,23.914-30.683a72.322,72.322,0,0,1-10.827,4.062,46.552,46.552,0,0,1-10.922,2.077q.946,2.975-5.955,11.37c-4.783,5.867-8.845,8.754-12.184,8.754h-1.445a4.15,4.15,0,0,1-3.7-2.437,7.11,7.11,0,0,1-1.084-3.79q0-5.416,7.852-15.162c5.323-6.589,9.566-9.837,12.815-9.837q4.6,0,4.6,4.873a14.686,14.686,0,0,1-.453,3.25c.179.269,1.444.18,3.7-.092,6.135-.724,13.174-2.977,21.117-6.677a1.558,1.558,0,0,1,.449-.181,2.472,2.472,0,0,1,1.717.722C504.7,2525.01,504.612,2525.913,503.62,2527.085Zm-32.849,2.62c-2.075,0-4.963,2.436-8.845,7.4-3.789,4.875-5.594,8.574-5.506,11.1.092,1.9.815,2.8,2.169,2.8,2.525,0,5.864-2.35,9.927-7.131,3.88-4.6,5.865-7.942,5.865-10.017C473.386,2533.313,472.215,2531.959,470.771,2529.7Zm23.823,45.031q.948,2.977-5.956,11.372c-4.781,5.864-8.842,8.752-12.182,8.752h-1.445a4.148,4.148,0,0,1-3.7-2.436,7.113,7.113,0,0,1-1.082-3.791q0-5.416,7.849-15.163c5.326-6.585,9.567-9.837,12.817-9.837q4.6,0,4.6,4.875a14.762,14.762,0,0,1-.45,3.249c.089.27,1.624.181,1.624.992S495.948,2574.192,494.594,2574.735Zm-5.776-3.882c-2.076,0-4.962,2.437-8.843,7.4-3.792,4.873-5.6,8.574-5.5,11.1.091,1.894.812,2.8,2.165,2.8,2.526,0,5.866-2.346,9.927-7.13,3.88-4.6,5.867-7.939,5.867-10.016C491.437,2574.462,490.262,2573.109,488.818,2570.854Z" transform="translate(-328.918 -2522.483)"/></g></g></svg>