<svg xmlns="http://www.w3.org/2000/svg" xmlns:xlink="http://www.w3.org/1999/xlink" width="171.637" height="265.577" viewBox="0 0 171.637 265.577"><defs><style>.a{fill:none;stroke:rgba(255,255,255,0.77);stroke-width:0.5px;}.b{fill:#011e09;}.b,.c,.d,.e,.f,.g,.h,.i,.j,.k,.l,.m,.n,.o{fill-rule:evenodd;}.c{fill:#024917;}.d{fill:url(#a);}.e{fill:#c67500;}.f{fill:#f49a09;}.g{fill:url(#b);}.h{fill:url(#c);}.i{fill:#440236;}.j{fill:#dd6fc0;}.k{fill:#d142ab;}.l{fill:url(#d);}.m{fill:url(#e);}.n{fill:#117abc;}.o{fill:url(#f);}</style><radialGradient id="a" cx="0.5" cy="0.5" r="0.5" gradientUnits="objectBoundingBox"><stop offset="0" stop-color="#d382de"/><stop offset="1" stop-color="#7d1296"/></radialGradient><radialGradient id="b" cx="0.5" cy="0.5" r="0.5" gradientUnits="objectBoundingBox"><stop offset="0" stop-color="#aaecf8"/><stop offset="1" stop-color="#3c7dd6"/></radialGradient><radialGradient id="c" cx="0.5" cy="0.5" r="0.5" gradientUnits="objectBoundingBox"><stop offset="0" stop-color="#df8cfd"/><stop offset="1" stop-color="#731abf"/></radialGradient><radialGradient id="d" cx="0.5" cy="0.5" r="0.5" gradientUnits="objectBoundingBox"><stop offset="0" stop-color="#ffcbf2"/><stop offset="1" stop-color="#d355b2"/></radialGradient><radialGradient id="e" cx="0.5" cy="0.5" r="0.5" gradientUnits="objectBoundingBox"><stop offset="0" stop-color="#ffc6f0"/><stop offset="1" stop-color="#d142ab"/></radialGradient><radialGradient id="f" cx="0.5" cy="0.5" r="0.5" gradientUnits="objectBoundingBox"><stop offset="0" stop-color="#a1d9f2"/><stop offset="1" stop-color="#117cbf"/></radialGradient></defs><g transform="translate(-676 -395)"><path class="a" d="M1,0S-7.467,10.531-6.825,30.092-2.108,53.524,4.091,69.586,3.122,108.341,0,118" transform="translate(792.5 542.5)"/><path class="a" d="M-4.228,0S-.2,10.531-.508,30.092-2.75,53.524-5.7,69.586s.46,38.755,1.944,48.414" transform="translate(760.896 532.5)"/><path class="a" d="M-4.228,0S-.2,10.531-.508,30.092-2.75,53.524-5.7,69.586s.46,38.755,1.944,48.414" transform="translate(718.896 518.5)"/><path class="a" d="M-2.132,0S5.1,10.531,4.549,30.092.522,53.524-4.771,69.586-3.944,108.341-1.278,118" transform="translate(748.826 497.5)"/><path class="a" d="M-4.592,0S-7.035,10.531-6.849,30.092-5.488,53.524-3.7,69.586-3.979,108.341-4.88,118" transform="translate(782.96 497.5)"/><path class="a" d="M-4.5,0S-.883,7.15-1.158,20.431-3.17,36.341-5.816,47.246-5.4,73.559-4.07,80.117" transform="translate(732.896 573.5)"/><g transform="translate(181.843 341.874)"><path class="b" d="M566.769,131.568c1.555-.047,2.243,1.56,2.926,3.336.694,1.8-1.206,1.977-2.762,2.024s-3.285.1-2.88-1.852c.384-1.852,1.163-3.459,2.716-3.508Z"/><path class="c" d="M566.775,131.733c1.554-.047,2.311,1.4,2.781,2.925.477,1.559-1.08,1.808-2.635,1.856s-3.149-.045-2.77-1.631c.368-1.544,1.069-3.1,2.624-3.15Z"/><path class="b" d="M566.739,129.78A2.449,2.449,0,0,1,569.4,132c.04,1.266-1.1,1.8-2.536,1.845-1.425.043-2.608-.421-2.646-1.686a2.461,2.461,0,0,1,2.521-2.38Z"/><path class="c" d="M566.71,129.639c1.667-.051,3.031.891,3.067,2.116s-1.281,1.733-2.947,1.785c-1.65.049-3.016-.388-3.052-1.6s1.283-2.25,2.932-2.3Z"/><path class="b" d="M566.65,128.005c1.815-.056,3.3.883,3.339,2.108s-1.4,1.736-3.222,1.79c-1.8.055-3.29-.377-3.326-1.591s1.408-2.253,3.209-2.307Z"/><path class="d" d="M564.368,53.142c21.44-.656,36.318,19.009,31.044,39.438-4.2,16.258-18.081,38.666-28.648,38.989-10.526.321-25.65-20.99-30.908-36.945-6.618-20.157,6.94-40.824,28.512-41.482Z"/></g><g transform="translate(181.843 341.874)"><path class="e" d="M544.685,173.8c1.511-.362,2.513,1.071,3.544,2.671,1.042,1.622-.78,2.181-2.293,2.543s-3.194.768-3.2-1.226c0-1.892.432-3.624,1.945-3.988Z"/><path class="f" d="M544.716,173.874c1.567-.376,2.639.93,3.437,2.379.815,1.48-.715,2.059-2.281,2.436s-3.2.619-3.149-1.07c.046-1.643.428-3.37,1.993-3.745Z"/><path class="e" d="M544.286,172.055a2.454,2.454,0,0,1,3.06,1.632c.3,1.231-.708,1.987-2.112,2.324-1.384.332-2.635.119-2.932-1.113a2.46,2.46,0,0,1,1.984-2.843Z"/><path class="f" d="M544.235,171.922c1.62-.389,3.147.256,3.433,1.448s-.9,1.957-2.524,2.346c-1.6.386-3.031.235-3.313-.946s.8-2.462,2.4-2.848Z"/><path class="e" d="M543.859,170.33c1.77-.424,3.414.191,3.7,1.382s-1.022,1.986-2.79,2.411c-1.751.42-3.3.3-3.58-.88s.918-2.492,2.669-2.913Z"/><path class="g" d="M526.36,97.5c20.855-5.007,39.429,11.213,38.425,32.289-.8,16.774-9.825,41.539-20.1,44.007-10.239,2.458-29.387-15.326-37.786-29.876-10.584-18.386-1.519-41.382,19.466-46.42Z"/></g><g transform="translate(181.843 341.874)"><path class="e" d="M602.15,153.729c1.509.368,1.748,2.1,1.934,3.993.187,1.921-1.69,1.585-3.2,1.218s-3.192-.779-2.284-2.553c.859-1.682,2.04-3.026,3.55-2.658Z"/><path class="f" d="M602.143,153.81c1.567.38,1.923,2.032,1.972,3.686.049,1.688-1.577,1.505-3.142,1.126s-3.131-.912-2.315-2.39c.795-1.439,1.92-2.8,3.485-2.422Z"/><path class="e" d="M602.591,152a2.451,2.451,0,0,1,1.976,2.85c-.3,1.23-1.536,1.443-2.937,1.1-1.383-.336-2.4-1.1-2.1-2.326A2.46,2.46,0,0,1,602.591,152Z"/><path class="f" d="M602.6,151.854c1.622.393,2.687,1.665,2.4,2.855s-1.7,1.329-3.314.937-2.8-1.174-2.516-2.356,1.833-1.826,3.434-1.436Z"/><path class="e" d="M603,150.267c1.769.429,2.95,1.729,2.659,2.919s-1.815,1.3-3.581.87c-1.749-.423-3.069-1.239-2.783-2.417s1.958-1.8,3.705-1.372Z"/><path class="h" d="M620.685,77.486c20.838,5.069,29.958,27.98,19.44,46.272-8.37,14.557-27.709,32.469-37.981,29.97C591.913,151.241,583,126.674,582.172,109.9c-1.024-21.191,17.544-37.511,38.513-32.411Z"/></g><g transform="translate(181.843 341.874)"><path class="i" d="M576.114,188.119c1.554.075,2.113,1.731,2.653,3.554.548,1.85-1.358,1.877-2.912,1.8s-3.283-.158-2.724-2.073c.529-1.816,1.43-3.357,2.983-3.282Z"/><path class="j" d="M576.106,188.284c1.555.074,2.2,1.575,2.542,3.134.356,1.594-1.219,1.718-2.772,1.642s-3.137-.292-2.634-1.843c.489-1.511,1.311-3.009,2.864-2.933Z"/><path class="i" d="M576.227,186.333a2.451,2.451,0,0,1,2.477,2.426c-.06,1.263-1.234,1.707-2.675,1.637-1.424-.069-2.566-.625-2.5-1.889a2.461,2.461,0,0,1,2.7-2.174Z"/><path class="k" d="M576.209,186.192c1.663.08,2.949,1.127,2.891,2.351s-1.416,1.626-3.082,1.545c-1.646-.079-2.974-.624-2.915-1.836s1.457-2.141,3.106-2.06Z"/><path class="i" d="M576.274,184.557c1.817.088,3.224,1.14,3.164,2.364s-1.537,1.62-3.352,1.532-3.247-.636-3.189-1.849,1.578-2.134,3.377-2.047Z"/><path class="l" d="M579.906,109.746c21.42,1.038,34.705,21.813,27.835,41.765-5.468,15.876-21.072,37.119-31.632,36.609-10.518-.51-23.917-22.948-27.9-39.267-5.01-20.617,10.137-40.151,31.7-39.107Z"/></g><g transform="translate(181.843 341.874)"><path class="i" d="M545.433,229.788c1.407-.66,2.673.543,4,1.9,1.348,1.38-.326,2.293-1.736,2.952s-2.976,1.391-3.375-.562c-.381-1.853-.306-3.636,1.107-4.295Z"/><path class="k" d="M545.5,229.936c1.408-.658,2.678.37,3.711,1.587,1.059,1.242-.276,2.087-1.685,2.747s-2.91,1.2-3.187-.4c-.273-1.564-.247-3.272,1.161-3.932Z"/><path class="i" d="M544.7,228.157a2.452,2.452,0,0,1,3.325.987c.536,1.147-.3,2.087-1.6,2.7s-2.56.646-3.1-.5a2.46,2.46,0,0,1,1.373-3.184Z"/><path class="k" d="M544.613,228.04c1.512-.707,3.136-.382,3.656.729s-.493,2.1-2,2.805-2.923.837-3.436-.264.289-2.572,1.782-3.27Z"/><path class="i" d="M543.909,226.563c1.648-.771,3.383-.5,3.9.613s-.6,2.151-2.252,2.921c-1.63.763-3.167.953-3.684-.146s.4-2.625,2.032-3.388Z"/><path class="m" d="M512.19,158.711c19.43-9.084,40.877,3.086,44.117,23.935,2.58,16.594-1.3,42.666-10.88,47.143-9.54,4.461-31.864-9.125-43.005-21.7-14.056-15.893-9.781-40.238,9.768-49.38Z"/></g><g transform="translate(181.843 341.874)"><path class="b" d="M613.964,196.435c1.4.677,1.265,2.419,1.048,4.31-.218,1.916-1.983,1.2-3.384.516s-2.957-1.431-1.7-2.974c1.2-1.465,2.628-2.529,4.031-1.852Z"/><path class="n" d="M613.892,196.582c1.4.678,1.4,2.31,1.11,3.881-.3,1.6-1.793,1.1-3.192.425s-2.772-1.5-1.7-2.727c1.042-1.2,2.383-2.255,3.784-1.579Z"/><path class="b" d="M614.765,194.835a2.451,2.451,0,0,1,1.331,3.2c-.553,1.139-1.808,1.086-3.1.46s-2.116-1.579-1.566-2.718a2.461,2.461,0,0,1,3.338-.944Z"/><path class="n" d="M614.8,194.7c1.5.726,2.273,2.192,1.742,3.3s-1.941.941-3.442.217-2.494-1.739-1.965-2.832,2.178-1.4,3.665-.681Z"/><path class="b" d="M615.5,193.221c1.64.79,2.521,2.31,1.987,3.413s-2.046.889-3.683.1-2.742-1.857-2.214-2.95,2.29-1.345,3.91-.559Z"/><path class="o" d="M648.121,125.795c19.31,9.34,23.4,33.656,9.274,49.328-11.245,12.47-33.919,25.913-43.438,21.31-9.478-4.585-13.026-30.476-10.3-47.054,3.459-20.932,25.042-32.98,44.469-23.584Z"/></g></g></svg>