<svg xmlns="http://www.w3.org/2000/svg" width="118.149" height="79.447" viewBox="0 0 118.149 79.447"><defs><style>.a,.c{fill:#a3c6a0;}.b{fill:#147b18;}.c{stroke:rgba(0,0,0,0);stroke-miterlimit:10;}</style></defs><g transform="translate(-1452 -2555)"><path class="a" d="M38.486,79.375S11.3,68.338,0,45.055c0,0,22.7,8.264,39.28-4.488S72.407,0,72.407,0l45.742,20.689S88.5,53.053,71.717,67.1,38.486,79.375,38.486,79.375" transform="translate(1452 2555)"/><path class="b" d="M4.268,48.51S19.1,69.432,39.321,75.721c0,0,14.78,1.747,29.478-9.374,14.571-11.025,44.485-45.041,44.485-45.041L72.9,4.42S53.018,34.709,39.038,43.835C24.169,53.541,4.268,48.51,4.268,48.51" transform="translate(1452 2555)"/><path class="c" d="M33.88,61.473h0A3.958,3.958,0,0,0,33,59.512c-1.325-1.62-3.562-1.96-5.206-1.96a24.347,24.347,0,0,0-7.745,1.59A76.138,76.138,0,0,1,12.275,55C8.388,52.642,3.1,48.932,0,44.656H0a7.227,7.227,0,0,0,1.19.095,4.141,4.141,0,0,0,2.962-.984,2.941,2.941,0,0,0,.733-2.235h0A12.343,12.343,0,0,0,6.3,41.6a30.249,30.249,0,0,0,7.623-1.091,47.939,47.939,0,0,0,12.673-5.549,45.32,45.32,0,0,0,8.151-7.26c2.7-2.86,5.8-6.446,9.229-10.66C49.807,9.863,54.61,3.27,54.658,3.2a9.547,9.547,0,0,0,2.9.42A9.537,9.537,0,0,0,65.1,0L87.219,10.2a12.545,12.545,0,0,0-1.4,1.886,7.958,7.958,0,0,0-1.307,4.164,4.713,4.713,0,0,0,1.613,3.39l-.051.053c-2.465,2.523-24.309,24.84-32.3,31.409a66.328,66.328,0,0,1-10.713,7.589,23.232,23.232,0,0,1-9.18,2.784ZM23.011,55.289l-.057,1.49a6.817,6.817,0,0,0,2.259.361,5.185,5.185,0,0,0,1.757-.265,2.362,2.362,0,0,0,1.668-1.59,2.192,2.192,0,0,0-.927-1.975,5.632,5.632,0,0,0-3.7-1.445,3.912,3.912,0,0,0-1.336.218,1.668,1.668,0,0,0-.961.664l-.808-.964,3.009-1.106L22.377,49.3l-4.426,1.631,2.855,3.425h2.017a.772.772,0,0,1,.578-.81,1.668,1.668,0,0,1,.579-.095,2.458,2.458,0,0,1,1.558.568.937.937,0,0,1,.4.817c-.046.237-.253.431-.6.559a2.27,2.27,0,0,1-.8.127A6.669,6.669,0,0,1,23.011,55.289Zm2.241-11.306c-3.991,2.788-13.716,6.025-13.814,6.057l.956,1.06c3.884-.888,14.008-5.851,14.11-5.9Zm21.624-20.47a12.119,12.119,0,1,0,6.6,22.277l-2.93-4.853a2.613,2.613,0,0,1-1.539.536,2.49,2.49,0,0,1-1.415-.46.979.979,0,0,1,.21.73A1.768,1.768,0,0,1,46.87,42.9a.879.879,0,0,1-.475.147c-1.294,0-2.447-3.09-2.581-3.462a.08.08,0,0,1,0,.01,1.862,1.862,0,0,1-.429,1.176,1.162,1.162,0,0,1-.864.332A1.929,1.929,0,0,1,40.6,39.534a11,11,0,0,1-.735-4.1,9,9,0,0,1,.811-4.111,10.406,10.406,0,0,1,3.715-4.2,7.419,7.419,0,0,1,3.875-1.057,9.586,9.586,0,0,1,4.378,1.1.363.363,0,0,1,.18.255c.168.786-1.3,2.787-1.366,2.872h.008c.263.046,2.59.468,3.18,1.209a.3.3,0,0,1,.06.292c-.228.724-2.981,1.543-3.009,1.551.234.132,2.243,1.332,2.013,2.92a3.664,3.664,0,0,1-.561,1.752l5.061,1.916A12.127,12.127,0,0,0,46.876,23.513Zm8.578,20.68a15.909,15.909,0,0,1-1.836,1.5A11.716,11.716,0,0,0,55.454,44.193ZM68.8,6.136C66.078,10.351,56.88,20.8,56.787,20.907l1.807,1.685C60.8,20.94,71.871,7.6,71.983,7.469L68.8,6.136Zm4.462,2.818c-.736.736-8.119,9.879-8.194,9.971l1.393,1.188c.837-.838,8.459-10.178,8.536-10.273Zm-13.7,1.086h0a1.335,1.335,0,0,1,.718.2,1.05,1.05,0,0,1,.514.732,1.3,1.3,0,0,1-.361,1.017,3.026,3.026,0,0,1-1.966.857l.3,1.831h.05a4.958,4.958,0,0,0,3.321-1.589,3.738,3.738,0,0,0,1-2.866A2.507,2.507,0,0,0,61.929,8.46,3.438,3.438,0,0,0,60.066,7.9a3.517,3.517,0,0,0-2.628,1.208,2.5,2.5,0,0,0-.646,1.214L55.9,9.5l2.251-2.613-1.6-1.016L53.235,9.72l3.176,2.935,1.683-.857a1.35,1.35,0,0,1,.294-1.226A1.561,1.561,0,0,1,59.561,10.04Z" transform="translate(1467.025 2565.823)"/></g></svg>