<svg xmlns="http://www.w3.org/2000/svg" width="20.245" height="36.963" viewBox="0 0 20.245 36.963"><defs><style>.a{fill:#505282;}.b{fill:#41466d;}.c{fill:#f9e8ca;}.d{fill:#d69356;}.e{fill:#fff4e3;}.f{fill:#efd9b4;}.g{fill:#ddc29b;}</style></defs><g transform="translate(-143.385 -233.564)"><path class="a" d="M158.539,257.11c0-1.789,3-4.616,3.625-6.838s-.374-7.9-.374-7.9-5.4-1.254-8.247-1.076S144,244.225,144,244.225c.8,8.621,6.435,11.425,6.435,13.18s-5.56,5.621-6.982,9.353,20.442,5.121,20.176,2.188S158.539,259.338,158.539,257.11Z"/><path class="b" d="M160.229,261.2a9.39,9.39,0,0,1-1.69-4.094c0-1.789,3-4.616,3.625-6.838a6.829,6.829,0,0,1-5.688,4.088c-5.806.83-7.761-.711-10.336-3.064,1.89,3.368,4.293,4.963,4.293,6.109,0,.682-1.242,2.046-2.214,3.376,0,0,4.942-3.022,7.726-3.081C157.568,257.666,159.125,259.849,160.229,261.2Z"/><path class="c" d="M147.478,242.907s1.77,4.936,8.287,8.017c0,0,3.6-4.147,3.814-9.006,0,0-4.2-.934-6.036-.622C150.907,241.207,147.478,242.907,147.478,242.907Z"/><path class="d" d="M150.274,233.564s1.344,5.688-.789,8.532l5.125,2.222,3.24-2.731s-1.683.746-1.84-7.9Z"/><path class="e" d="M148.523,241.965l1.318-1.943,3.91,2.844-1.6,2.666Z"/><path class="e" d="M155.291,242.807l1.185,2.311,1.718-3.97-1.3-1.422Z"/><path class="f" d="M147.478,242.907l1.393-.6,3.28,3.224,1.6-2.666.859,1.452.681-1.511,1.185,2.31,1.5-3.472,1.6.273a10.047,10.047,0,0,1-.894,4.024l-2.357-.588-.421-.67-1.1,1.067-1.847-.937-.755,1.251-1.807-1.718-1.456,1.108A10.719,10.719,0,0,1,147.478,242.907Z"/><path class="g" d="M155.765,250.924s.031-.036.086-.1l-1.168-6.665-.073.162-.072-.123,1.183,6.707Z"/><path class="g" d="M154.454,246.839a.211.211,0,1,1-.211-.211A.21.21,0,0,1,154.454,246.839Z"/><path class="g" d="M154.888,248.561a.212.212,0,1,1-.211-.211A.211.211,0,0,1,154.888,248.561Z"/></g></svg>