<svg xmlns="http://www.w3.org/2000/svg" xmlns:xlink="http://www.w3.org/1999/xlink" width="127.179" height="95.927" viewBox="0 0 127.179 95.927"><defs><style>.a,.c,.d{stroke:#aeb0b3;stroke-width:0.5px;}.a{fill:url(#a);}.b{fill:url(#b);}.c{fill:url(#c);}.d{fill:url(#d);}.e{fill:url(#e);}.f{fill:url(#f);}</style><linearGradient id="a" x1="0.619" y1="-0.166" x2="0.442" y2="0.989" gradientUnits="objectBoundingBox"><stop offset="0.315" stop-color="#fff"/><stop offset="0.539" stop-color="#e9e9e9"/><stop offset="0.893" stop-color="#bfbfbf"/></linearGradient><linearGradient id="b" x1="0.347" y1="1.277" x2="0.641" y2="-0.012" gradientUnits="objectBoundingBox"><stop offset="0.315" stop-color="#fff"/><stop offset="0.832" stop-color="#e9e9e9"/><stop offset="0.899" stop-color="#e6e6e6"/></linearGradient><linearGradient id="c" x1="0.65" y1="0.029" x2="0.311" y2="1.096" gradientUnits="objectBoundingBox"><stop offset="0" stop-color="#fff"/><stop offset="0.315" stop-color="#fff"/><stop offset="0.498" stop-color="#d3d3d3"/><stop offset="0.702" stop-color="#b2afaf"/><stop offset="1" stop-color="#939393"/></linearGradient><linearGradient id="d" x1="0.737" y1="0.078" x2="0.27" y2="0.91" gradientUnits="objectBoundingBox"><stop offset="0.315" stop-color="#fff"/><stop offset="0.453" stop-color="#e9e9e9"/><stop offset="0.607" stop-color="#ccc"/></linearGradient><linearGradient id="e" x1="0.143" y1="1.196" x2="0.835" y2="-0.153" gradientUnits="objectBoundingBox"><stop offset="0.315" stop-color="#fff"/><stop offset="0.506" stop-color="#fafafa"/><stop offset="0.699" stop-color="#eee"/><stop offset="0.892" stop-color="#dadada"/><stop offset="1" stop-color="#ccc"/></linearGradient><linearGradient id="f" x1="0.106" y1="1.177" x2="1.139" y2="-0.597" gradientUnits="objectBoundingBox"><stop offset="0.152" stop-color="#fff"/><stop offset="0.505" stop-color="#e9e9e9"/><stop offset="0.899" stop-color="#ccc"/></linearGradient></defs><g transform="translate(-553.147 -460.24)"><path class="a" d="M676.566,507.589c-.141,5.641-8.221,10-18.049,9.734-6.047-.164-11.344-2.041-14.491-4.78-.36.068-.722.13-1.09.183,2.613,1.91,4.191,4.451,4.122,7.209-.141,5.641-7.108,10.027-15.559,9.8-5.676-.153-10.569-2.356-13.132-5.492-1.073,5.316-9.061,9.271-18.648,9.013-10.22-.277-18.386-5.239-18.239-11.082,0-.094.013-.187.02-.281a10.927,10.927,0,0,1-5.93-4.167,29.189,29.189,0,0,1-3.953.165c-12.185-.33-21.875-8.11-21.643-17.379.187-7.426,6.687-13.55,15.533-15.523A6.536,6.536,0,0,1,564,480.812c.143-5.675,8.825-10.073,19.586-10.044,1.277-7.754,11.166-13.583,23.018-13.263,8.322.225,15.524,3.427,19.388,8.021a32.019,32.019,0,0,1,10.358-1.374c12.185.33,21.9,6.969,21.706,14.828a9.417,9.417,0,0,1-.484,2.737c7.094,1.161,12.374,5.91,12.235,11.453a9,9,0,0,1-1.965,5.313C673.143,500.392,676.662,503.8,676.566,507.589Z" transform="translate(3.507 3)"/><path class="b" d="M673.915,507c-.124,4.99-7.527,8.835-16.535,8.588-5.543-.151-10.4-1.815-13.289-4.239-.329.059-.662.113-1,.16,2.4,1.692,3.846,3.94,3.787,6.377-.125,4.99-6.506,8.861-14.253,8.65-5.2-.14-9.69-2.093-12.043-4.871-.978,4.7-8.3,8.191-17.085,7.952-9.369-.256-16.858-4.651-16.729-9.818,0-.082.011-.164.017-.248a10.035,10.035,0,0,1-5.44-3.691,27.5,27.5,0,0,1-3.624.143c-11.169-.3-20.059-7.193-19.855-15.391.163-6.566,6.117-11.974,14.222-13.71a5.666,5.666,0,0,1-1.383-3.694c.125-5.019,8.079-8.9,17.943-8.862,1.164-6.856,10.223-12,21.088-11.705,7.629.208,14.233,3.047,17.778,7.112a30.309,30.309,0,0,1,9.494-1.2c11.17.3,20.086,6.184,19.912,13.133a8.074,8.074,0,0,1-.442,2.421c6.5,1.034,11.349,5.237,11.226,10.138a7.8,7.8,0,0,1-1.8,4.7C670.77,500.632,674,503.648,673.915,507Z" transform="translate(0.624 2.076)"/><path class="c" d="M648.558,529.36A8.844,8.844,0,1,0,657.4,520.5,8.852,8.852,0,0,0,648.558,529.36Z" transform="translate(-82.856 13.485)"/><path class="d" d="M668.846,539.709a2.5,2.5,0,1,0,2.5-2.608A2.554,2.554,0,0,0,668.846,539.709Z" transform="translate(-115.449 13.602)"/><path class="e" d="M652.24,531.336a6.914,6.914,0,1,0,6.912-6.723A6.82,6.82,0,0,0,652.24,531.336Z" transform="translate(-84.63 11.655)"/><path class="f" d="M672.256,542.134a1.511,1.511,0,1,0,1.51-1.592A1.552,1.552,0,0,0,672.256,542.134Z" transform="translate(-117.939 11.16)"/></g></svg>