<svg xmlns="http://www.w3.org/2000/svg" width="201.145" height="278.655" viewBox="0 0 201.145 278.655"><defs><style>.a{fill:#ff4fcb;}.b{fill:#ff37c1;}.c{fill:#ffac76;}.d{fill:#ffce78;}.e{fill:#ff965c;}.f{fill:#e63874;}.g{fill:#ff877b;}.h{fill:#e733a9;}.i{fill:#6b3e84;}.j{fill:#80519b;}</style></defs><g transform="translate(-255.327 -254.009)"><g transform="translate(263.993 293.822)"><path class="a" d="M634.358,645.141c-.056-.122-.119-.241-.174-.363-6.579-14.6-4.609-31.945-1.886-47.725-4.631-6.247-5.684-14.579-4.541-22.271a72.269,72.269,0,0,1,5.212-17.038l-.072.017c-.214.046-.431.084-.649.121a36.167,36.167,0,0,1-4.869,6.28c-4.192,4.361-9.26,7.776-14.409,10.952a231,231,0,0,1-24.214,13.211,61.558,61.558,0,0,1-4.153-31.952,30.994,30.994,0,0,1-6.911-2.837,53.223,53.223,0,0,1-20.185,33.638,15.575,15.575,0,0,0-3.284,21.57,26.356,26.356,0,0,0,10.236,8.442,59.712,59.712,0,0,0,17.878-3.114,80.349,80.349,0,0,0,44.561,4.351c-11.3,9.193-25.67,12.837-39.935,15.792-2.967.614-5.959,1.237-8.94,1.915,2.688,3.38,6.133,7.921,7.5,12.357a95.842,95.842,0,0,1,10.988,16.5A200.82,200.82,0,0,1,634.358,645.141Z" transform="translate(-509.738 -551.807)"/><path class="b" d="M721.867,595.018c-2.723,15.78-4.693,33.126,1.886,47.725.055.123.118.241.174.363q5.023-2.01,10.15-3.8a30.5,30.5,0,0,1-4-9.134c-2.185-8.783.191-18.06,3.531-26.472s7.672-16.508,9.627-25.345-1.763-21.809-7.763-28.585c-3.774,2.467-8.523,4.97-12.934,5.937a72.261,72.261,0,0,0-5.212,17.038C716.184,580.439,717.236,588.771,721.867,595.018Z" transform="translate(-599.307 -549.773)"/><path class="b" d="M759.182,781.637c8.111,6.341,16.879,11.865,24.481,18.808A87,87,0,0,1,803.555,827.5c-3.773-18.26-10.953-33.934-23.769-48.491a68.794,68.794,0,0,0-19.759-15.189q-7.378,2.155-14.565,4.719A83.04,83.04,0,0,0,759.182,781.637Z" transform="translate(-614.752 -665.522)"/><path class="a" d="M649.639,833.057A87,87,0,0,0,629.748,806c-7.6-6.943-16.37-12.467-24.482-18.807a83.039,83.039,0,0,1-13.719-13.1,205.778,205.778,0,0,0-46.224,23.015,95.842,95.842,0,0,0-12.461-18.246c-2.494,2.186-5.5,4.39-6.942,6.015A160.266,160.266,0,0,0,515.9,797.54c-6.353,8.788-12.029,18.041-18.076,27.037-10.011,14.9-21.7,29.624-36.987,38.586a115.134,115.134,0,0,0,14.28,12.215c9.687-5.173,17.378-13.853,23.754-22.936,7.5-10.691,13.745-22.337,22.474-32.053a329.06,329.06,0,0,1-25.185,67.258,132.743,132.743,0,0,0,15.863,6.1A360.84,360.84,0,0,0,543.145,818.3a579.977,579.977,0,0,1-2.318,81.138,150.7,150.7,0,0,0,25,.105l2.108-76.316c6.6,14.319,10.87,29.359,14.734,44.645q3.543,14.013,7.085,28.025a181.034,181.034,0,0,0,22.277-6.608,237.941,237.941,0,0,0-11.874-69.147,119.3,119.3,0,0,1,28.772,62q6.819-3.273,13.377-7.056a103.963,103.963,0,0,0-15.935-62.55A104.53,104.53,0,0,1,653,862.125,184.383,184.383,0,0,0,649.639,833.057Z" transform="translate(-460.836 -671.078)"/><path class="c" d="M734.459,752.77q5.523-2.113,11.167-3.968a25.021,25.021,0,0,1-3.276-4.062q-5.128,1.786-10.15,3.8A42.911,42.911,0,0,0,734.459,752.77Z" transform="translate(-607.58 -655.204)"/><path class="d" d="M676.959,757.242a42.905,42.905,0,0,1-2.259-4.233,200.816,200.816,0,0,0-37.843,19.85,95.849,95.849,0,0,0-10.988-16.5,9.979,9.979,0,0,1,.039,6.7c-.008.021-.019.042-.028.062a95.823,95.823,0,0,1,9.968,15.25A202.708,202.708,0,0,1,676.959,757.242Z" transform="translate(-550.079 -659.676)"/><path class="e" d="M740.951,763q7.187-2.565,14.565-4.719-1.284-.677-2.591-1.315a17.485,17.485,0,0,1-4.639-3.385q-5.645,1.854-11.167,3.968A50.475,50.475,0,0,0,740.951,763Z" transform="translate(-610.24 -659.987)"/><path class="c" d="M676.359,767.677a50.475,50.475,0,0,1-3.831-5.451,202.711,202.711,0,0,0-41.112,21.128,95.817,95.817,0,0,0-9.968-15.25,14.5,14.5,0,0,1-3.774,4.341,95.846,95.846,0,0,1,12.461,18.246A205.781,205.781,0,0,1,676.359,767.677Z" transform="translate(-545.648 -664.66)"/></g><g transform="translate(343.819 254.009)"><path class="f" d="M655.468,498.585a104.776,104.776,0,0,0,9.786-17.153q-.234-9.176-.469-18.352c-8.214,7.935-17.82,16.672-24.777,25.729a27.176,27.176,0,0,1,5.034,17.391,9.772,9.772,0,0,0,4.745-1.576A21.74,21.74,0,0,0,655.468,498.585Z" transform="translate(-637.552 -463.079)"/><path class="g" d="M665.56,526.94c-2.562-3.151-2.781-7.537-2.884-11.6q-.157-6.151-.315-12.3a104.766,104.766,0,0,1-9.786,17.153,21.738,21.738,0,0,1-5.681,6.038,9.771,9.771,0,0,1-4.745,1.576c-.051.849-.14,1.7-.274,2.536a38.25,38.25,0,0,1-7-.242,42.787,42.787,0,0,0,3.158,20.946c7.339-3.42,14.485-7.463,21.467-11.564a48.364,48.364,0,0,0,9.515-6.787,23.366,23.366,0,0,0,2.1-2.345A10.417,10.417,0,0,1,665.56,526.94Z" transform="translate(-634.659 -484.69)"/></g><path class="h" d="M642.432,689.7a80.35,80.35,0,0,1-44.561-4.351,59.714,59.714,0,0,1-17.878,3.114c2.692,1.228,9.7,14.087,12.048,17.044.458.578.972,1.216,1.516,1.9,2.981-.679,5.973-1.3,8.94-1.915C616.761,702.54,631.131,698.9,642.432,689.7Z" transform="translate(-261.279 -329.267)"/><g transform="translate(255.327 485.907)"><path class="c" d="M545.429,1011.992c-36.352.249-73.634-13.33-97.837-40.318-1.827.949-3.7,1.825-5.627,2.6,24.451,22.273,52.842,38.18,85.711,41.86s86.618-9.315,115.39-25.628q.052-3.789.043-7.445C613.244,1000.207,579.773,1011.756,545.429,1011.992Z" transform="translate(-441.965 -970.006)"/><path class="d" d="M552.055,1010.028c34.344-.236,67.815-11.784,97.68-28.93q-.01-4.024-.1-7.9a198.939,198.939,0,0,1-28.723,15.9c-27.47,12.359-58.121,18.368-88.029,14.781-28.224-3.385-55.662-15.666-75.627-35.83-1,.584-2.012,1.134-3.039,1.667C478.421,996.7,515.7,1010.278,552.055,1010.028Z" transform="translate(-448.591 -968.043)"/></g><g transform="translate(338.294 298.387)"><path class="d" d="M632.656,587.349a258.241,258.241,0,0,0,30.653-18.172c2.835-1.981,5.737-4.163,7.658-6.972a14.174,14.174,0,0,1-3.163-.439,23.38,23.38,0,0,1-2.1,2.345,48.338,48.338,0,0,1-9.516,6.787c-6.981,4.1-14.127,8.143-21.466,11.564a42.781,42.781,0,0,1-3.159-20.946c-.8-.1-1.605-.232-2.4-.387A44.784,44.784,0,0,0,632.656,587.349Z" transform="translate(-625.824 -560.479)"/><path class="c" d="M667.772,561.439c-1.921,2.808-4.823,4.99-7.658,6.972a258.238,258.238,0,0,1-30.653,18.172,44.785,44.785,0,0,1-3.495-26.22c-.933-.18-1.859-.395-2.773-.65a61.557,61.557,0,0,0,4.153,31.952,231,231,0,0,0,24.214-13.211c5.149-3.176,10.217-6.591,14.409-10.952a36.194,36.194,0,0,0,4.869-6.28A15.579,15.579,0,0,1,667.772,561.439Z" transform="translate(-622.629 -559.713)"/></g><g transform="translate(278.273 435.28)"><path class="i" d="M581.9,948.421c6.9-18.978,21.867-62.123,21.522-78.061A360.848,360.848,0,0,1,572.3,945.8Q577.046,947.289,581.9,948.421Z" transform="translate(-535.389 -864.593)"/><path class="j" d="M593.2,948.421a135.819,135.819,0,0,0,14.838,2.629c1.453.174,2.909.319,4.366.449a579.976,579.976,0,0,0,2.318-81.138C615.07,886.3,600.1,929.443,593.2,948.421Z" transform="translate(-546.695 -864.593)"/><path class="i" d="M538.159,874.9c-8.729,9.716-14.969,21.362-22.474,32.053-6.377,9.083-14.067,17.763-23.754,22.936q3.28,2.377,6.723,4.524C517.413,918.224,530.568,888.244,538.159,874.9Z" transform="translate(-491.931 -867.049)"/><path class="j" d="M546.075,874.9c-7.591,13.343-20.746,43.323-39.505,59.513a126.875,126.875,0,0,0,14.321,7.745A329.065,329.065,0,0,0,546.075,874.9Z" transform="translate(-499.847 -867.049)"/><path class="i" d="M708.782,925.734c-3.864-15.285-8.136-30.326-14.734-44.645,6.26,20.553,11.384,58.026,13.43,74.35q4.212-.736,8.388-1.68Q712.325,939.746,708.782,925.734Z" transform="translate(-601.229 -870.395)"/><path class="j" d="M689.458,957.405q7.8-.605,15.538-1.966c-2.046-16.324-7.17-53.8-13.43-74.35Z" transform="translate(-598.747 -870.395)"/><path class="j" d="M837.228,920.352q4.4-2.538,8.66-5.3c-2.259-16.619-12.833-42.215-24.594-57.253A103.963,103.963,0,0,1,837.228,920.352Z" transform="translate(-670.038 -857.802)"/><path class="i" d="M847.924,907.39A104.529,104.529,0,0,0,821.293,857.8c11.761,15.038,22.335,40.634,24.594,57.253q1.128-.73,2.249-1.473Q848.06,910.438,847.924,907.39Z" transform="translate(-670.038 -857.802)"/><path class="j" d="M776.084,943.519q6.322-2.321,12.461-5.08l.421-.194c-4.488-27.157-17.243-54.375-24.757-63.873A237.937,237.937,0,0,1,776.084,943.519Z" transform="translate(-639.17 -866.762)"/><path class="i" d="M764.21,874.372c7.514,9.5,20.269,36.715,24.757,63.873q2.018-.915,4.016-1.876A119.3,119.3,0,0,0,764.21,874.372Z" transform="translate(-639.17 -866.762)"/></g><path class="f" d="M570.24,574.271a43.66,43.66,0,0,1-8.2,4.434,40.056,40.056,0,0,1,6.863,10.016,24.542,24.542,0,0,0,7.484-7.335c4.885-7.245,6.426-16.322,6.91-21.016A44.4,44.4,0,0,1,570.24,574.271Z" transform="translate(-251.57 -261.681)"/><path class="f" d="M733.146,581.951a27.939,27.939,0,0,1-3.481-9.248,70.354,70.354,0,0,0-1.97,12.327,39.219,39.219,0,0,0,.348,8.679,7.919,7.919,0,0,0,13.64,4.044c1.41-1.52,2.95-3.1,4.589-4.722a26.8,26.8,0,0,1-8.627-5.428A26.39,26.39,0,0,1,733.146,581.951Z" transform="translate(-341.102 -268.35)"/></g></svg>