<svg xmlns="http://www.w3.org/2000/svg" xmlns:xlink="http://www.w3.org/1999/xlink" width="117.732" height="137.036" viewBox="0 0 117.732 137.036"><defs><style>.a{fill:#54375f;}.b{fill:#3d1f47;}.c{fill:#ff4fcb;}.d{fill:#ff37c1;}.e{fill:#ff877b;}.f{fill:#6b3d2b;}.g{fill:#af554c;}.h{fill:#9b6335;}.i{opacity:0.5;mix-blend-mode:multiply;isolation:isolate;fill:url(#a);}.j{fill:#b77544;}.k{fill:#794830;}.l{fill:#f9e8ca;}</style><linearGradient id="a" x1="0.912" y1="-0.086" x2="1.656" y2="0.239" gradientUnits="objectBoundingBox"><stop offset="0" stop-color="#9b6335"/><stop offset="0.207" stop-color="#975f33"/><stop offset="0.392" stop-color="#8c562f"/><stop offset="0.567" stop-color="#7a4629"/><stop offset="0.737" stop-color="#603020"/><stop offset="0.901" stop-color="#401415"/><stop offset="1" stop-color="#29000d"/></linearGradient></defs><g transform="translate(-308.976 -153.679)"><g transform="translate(372.357 153.679)"><path class="a" d="M751.108,335c-.6-8.827-7.03-16.119-9.585-24.59-4.6-15.257,3.83-32.191-.817-47.433-2.557-8.391-9.385-15.552-17.884-17.72s-18.342,1.178-23.13,8.528-3.564,18.254,3.216,23.82a29.688,29.688,0,0,1,7.046,8.727,20.329,20.329,0,0,0,5.838-13.009c.107-2.149-.133-4.309.07-6.451a8.389,8.389,0,0,1,2.578-5.738c2.361-1.978,6.1-1.631,8.549.242a12.17,12.17,0,0,1,4.192,7.979,49.589,49.589,0,0,1,.061,9.225,88.7,88.7,0,0,0,2.625,25.042c2.112,8.37,5.442,16.416,7.188,24.87s2.747,20.424-8.98,36.326c4.741-3.9,9.531-7.849,13.22-12.755S751.526,341.123,751.108,335Z" transform="translate(-696.802 -244.606)"/><path class="b" d="M756.54,346.386c-1.746-8.454-5.077-16.5-7.188-24.87a88.7,88.7,0,0,1-2.625-25.042,49.589,49.589,0,0,0-.061-9.225,12.17,12.17,0,0,0-4.192-7.979c-2.446-1.873-6.188-2.22-8.549-.242a8.389,8.389,0,0,0-2.578,5.738c-.2,2.142.037,4.3-.07,6.451a20.33,20.33,0,0,1-5.838,13.009,48.8,48.8,0,0,1,5.461,18.649c.917,9.922.2,20.112,3,29.673a42.733,42.733,0,0,0,12.329,19.768c-.874-5.229.219-10.276,2.311-15.147-1.5,4.041-.428,8.516.36,12.753s1.216,9.322-1.343,12.791C759.287,366.81,758.286,354.84,756.54,346.386Z" transform="translate(-712.287 -262.5)"/></g><path class="c" d="M722.453,304.45a5,5,0,0,1-4.062,3.713,11.756,11.756,0,0,1-5.754-.633,38.973,38.973,0,0,1-8.825-4.006,11.4,11.4,0,0,1-3.278-2.733,4.789,4.789,0,0,1-.953-4.035,4.636,4.636,0,0,1,2.578-2.832,9.333,9.333,0,0,1,3.853-.732,19.507,19.507,0,0,1,14.277,6.086C721.613,300.693,722.78,302.539,722.453,304.45Z" transform="translate(-325.875 -117.2)"/><path class="d" d="M717.33,309.573a5,5,0,0,1-4.063,3.713,11.755,11.755,0,0,1-5.754-.633,38.967,38.967,0,0,1-8.825-4.006,11.4,11.4,0,0,1-3.278-2.733,4.788,4.788,0,0,1-.953-4.035,4.636,4.636,0,0,1,2.578-2.832,9.34,9.34,0,0,1,3.853-.732,19.506,19.506,0,0,1,14.277,6.086C716.49,305.816,717.657,307.662,717.33,309.573Z" transform="translate(-323.105 -119.97)"/><g transform="translate(308.976 178.646)"><path class="a" d="M657.972,331.519a38.822,38.822,0,0,0-3.207-10.091c-7.8-16.221-27.579-24.859-45.327-21.868s-37.367,18.51-40.507,31.894a27.09,27.09,0,0,0,10.1,47.385,29.038,29.038,0,0,1,3.557,1.2,103.516,103.516,0,0,0,33.112-9.918C628.571,371.3,653.588,358.186,657.972,331.519Z" transform="translate(-558.788 -298.974)"/><path class="b" d="M643.732,408.444a103.516,103.516,0,0,1-33.112,9.918c6.381,2.575,12.574,7.152,18.923,9.221,7.521,2.451,15.792,3.293,23.33.894,7.86-2.5,14.275-8.288,19.473-14.693,6.1-7.52,10.926-16.213,13.093-25.652a46.289,46.289,0,0,0,.562-18.29C681.617,396.509,656.6,409.623,643.732,408.444Z" transform="translate(-586.817 -337.297)"/></g><path class="e" d="M642.277,418.411a3.8,3.8,0,0,0-3.688-.331,8.421,8.421,0,0,0-3.03,2.36,22.311,22.311,0,0,0-2.507,3.452,26.892,26.892,0,0,1-.885-9.46c-15.953-2.8-30.406-14.285-35.256-29.738a47.2,47.2,0,0,1-19.919,21.779,70.609,70.609,0,0,0,1.785,14.759,98.681,98.681,0,0,0,9.26,24.942c1.969,3.684,4.322,7.391,7.944,9.469,4.625,2.654,10.593,2.093,15.34-.335s8.458-6.48,11.672-10.735a88.843,88.843,0,0,0,7.761-12.264,2.719,2.719,0,0,0,1.988,1.184,5.556,5.556,0,0,0,2.586-.426,13.116,13.116,0,0,0,8.194-9.964C643.8,421.425,643.623,419.453,642.277,418.411Z" transform="translate(-259.656 -166.682)"/><g transform="translate(324.175 234.877) rotate(3)"><path class="a" d="M279.045,90.337c-.144.657,2.433,1.325,6.185,2.156s7.26,1.5,7.407.853-3.128-2.394-6.88-3.223S279.189,89.686,279.045,90.337Z" transform="translate(-256.478 -89.653)"/><path class="a" d="M294.081,90.545c.136.657-2.45,1.294-6.21,2.081-1.962.083-2.516-1.444-.5-2.375C291.135,89.472,293.945,89.888,294.081,90.545Z" transform="translate(-285.671 -89.105)"/><g transform="translate(22.941 9.063)"><path class="f" d="M278.613,97.664s2.862-4.328,5.542-3.652a27.865,27.865,0,0,1,6.418,3.137l3.023-3.137-3.381.917a10.618,10.618,0,0,0-6.47-2.868C281.777,92.169,279.649,92.77,278.613,97.664Z" transform="translate(-278.613 -92.061)"/></g><g transform="translate(0 9.006)"><path class="f" d="M287.569,97.531s1.807-3.375,4.558-3.466c2.663-.091,5.819,3.583,5.819,3.583-.277-1.5-3.405-6.027-6.614-5.57a4.079,4.079,0,0,0-3.879,3.239l-2.441-.745Z" transform="translate(-285.011 -92.045)"/></g><g transform="translate(12.54 27.058) rotate(-98)"><path class="g" d="M287.564,97.636S289.3,94.2,291.946,94.1c2.56-.093,5.594,3.651,5.594,3.651-.266-1.525-3.274-6.142-6.359-5.676a3.991,3.991,0,0,0-3.729,3.3Z" transform="translate(-289.953 -92.152)"/></g><g transform="translate(8.092 35.049)"><path class="h" d="M301.984,98.234l-21.422-.662s5.2,9.582,10.942,9.585S301.984,98.234,301.984,98.234Z" transform="translate(-279.201 -96.173)"/><path class="i" d="M301.984,98.234l-21.422-.662s5.2,9.582,10.942,9.585S301.984,98.234,301.984,98.234Z" transform="translate(-279.201 -96.173)"/><path class="j" d="M289.035,98.734c-5.428,0-8.507,1.94-6.883,3.3a5.543,5.543,0,0,0,2.657.939C287.425,103.264,293.809,98.751,289.035,98.734Z" transform="translate(-272.758 -92.527)"/><path class="k" d="M281.009,99.016a6.411,6.411,0,0,0,1.779.8c.388-.044-2.305-2.685-2.533-2.433S281.009,99.016,281.009,99.016Z" transform="translate(-258.631 -96.808)"/><path class="k" d="M287.131,98.988a6.315,6.315,0,0,0,.934-1.712c0-.388-2.854,2.089-2.619,2.333S287.131,98.988,287.131,98.988Z" transform="translate(-285.433 -97.234)"/><path class="l" d="M295.257,98.057l-13.8-.277s.554,1.94,7.03,1.823C294.822,99.5,295.257,98.057,295.257,98.057Z" transform="translate(-276.154 -95.517)"/></g></g></g></svg>