<svg xmlns="http://www.w3.org/2000/svg" width="249.145" height="260.514" viewBox="0 0 249.145 260.514"><defs><style>.a{fill:#fe7567;}.b{fill:#ff877b;}.c{fill:#ff4fcb;}.d{fill:#6b3e84;}</style></defs><g transform="translate(-96.827 -76.46)"><g transform="translate(178.745 169.969)"><path class="a" d="M347.365,378.8a512.174,512.174,0,0,1-68.213-85.567l-3.946,3.712c18.168,33.042,42.341,63.088,69.837,88.892,22.6,13.993,66.751,48.489,79.525,68.359,2.881-1.175,7.038-5.42,9.608-7.183C413.314,424.533,359.627,383.883,347.365,378.8Z" transform="translate(-275.206 -287.192)"/><path class="b" d="M404.673,391.685c-13.5-9.818-27.292-18.939-40.79-28.757-9.227-6.712-15.378-18.981-23.07-27.409l-50.594-55.441L283.8,286.12a512.172,512.172,0,0,0,68.213,85.567c12.262,5.082,63.451,45.012,84.314,67.493,5.285-3.627,7.492-6.327,10.752-11.834.2-1.942-14.023-21.686-14.023-21.686C423.961,395.359,404.673,391.685,404.673,391.685Z" transform="translate(-279.852 -280.078)"/></g><g transform="translate(96.827 76.46)"><path class="c" d="M232.872,191.314l1.229.407c.4.14.791.3,1.18.451l2.257.875c.727.288,1.406.619,2.07.908s1.3.571,1.9.854l1.669.851,1.469.746c.451.237.848.483,1.216.69l2.3,1.322L253.3,190l-2.6-1.5c-.417-.234-.868-.511-1.378-.779l-1.659-.846-1.889-.96c-.673-.319-1.393-.629-2.139-.966-.632-.275-1.279-.58-1.957-.865l.784.266c.436.155.824.329,1.181.469l2.236.9,3.638-8.278-2.569-1.042c-.411-.161-.858-.358-1.358-.537l-1.627-.554-1.852-.627c-.657-.2-1.357-.384-2.083-.59s-1.48-.429-2.272-.61l-2.458-.539c-.422-.089-.848-.193-1.284-.271l-1.326-.216c-.9-.139-1.807-.305-2.739-.428-1.933-.244-3.941-.417-5.984-.517.625-.066,1.246-.126,1.859-.176.905-.068,1.8-.092,2.669-.141l1.294-.064c.427-.014.848,0,1.263,0l2.422,0c.782.007,1.534.073,2.259.1s1.419.065,2.077.115l1.865.195,1.639.169c.506.059.965.147,1.382.208l2.621.409,1.785-9.712-2.972-.467c-.473-.069-1-.166-1.568-.233l-1.856-.194-2.111-.218c-.744-.056-1.529-.086-2.347-.133-.45-.019-.911-.048-1.38-.073l-1.009-7.362-2.408.394c-.112.02-.236.039-.355.058l-3.769-8.245-2.544,1.216c-.4.2-.856.4-1.337.648l-1.552.808-1.764.919c-.615.335-1.252.7-1.923,1.08-.152.084-.309.174-.463.261,1.165-1.031,2.283-1.986,3.335-2.834l1.441-1.178,1.327-1.029,1.166-.905c.362-.277.7-.519,1.008-.744l1.918-1.405-4.782-6.721c.364-.218.71-.42,1.024-.6.738-.442,1.343-.739,1.745-.961l.621-.333-4.673-9.123-.733.391c-.475.26-1.188.615-2.057,1.132a67.635,67.635,0,0,0-6.991,4.584,73.938,73.938,0,0,0-8.545,7.521c.553-.917,1.117-1.814,1.688-2.683.551-.828,1.135-1.612,1.682-2.4l.819-1.159c.276-.377.573-.73.853-1.089l1.645-2.081c.256-.344.552-.644.821-.958l.805-.91c.529-.591,1.021-1.172,1.513-1.7l1.442-1.46,1.266-1.286c.4-.392.788-.721,1.127-1.036l2.15-1.952-7.067-8.25-2.463,2.231c-.388.359-.834.74-1.287,1.187l-1.448,1.466-1.645,1.67c-.561.6-1.126,1.263-1.727,1.938l-.917,1.038c-.306.357-.64.7-.934,1.092l-1.874,2.366c-.318.409-.653.813-.968,1.241l-.933,1.315c-.623.89-1.282,1.785-1.908,2.724s-1.243,1.929-1.85,2.93l-4.958,1.148c-.128-.459-.256-.915-.378-1.366l-.4-1.425c-.135-.468-.29-.925-.431-1.378l-.84-2.638c-.276-.85-.589-1.656-.865-2.439s-.546-1.53-.815-2.236l-.806-1.991-.71-1.75c-.225-.539-.456-1.023-.652-1.465L182.23,114.8l-9.159,4.356,1.14,2.525c.178.4.39.843.594,1.333l.646,1.595.736,1.813c.245.644.483,1.329.742,2.039s.538,1.448.789,2.223l.765,2.406c.129.414.271.83.394,1.257l.36,1.3c.238.879.5,1.771.734,2.688.4,1.6.77,3.25,1.111,4.936a97.2,97.2,0,0,0-6.207-9.136c-.649-.834-1.325-1.626-1.968-2.416l-.961-1.165c-.323-.379-.663-.735-.987-1.1l-1.908-2.087c-.3-.344-.634-.646-.944-.96l-.924-.911c-.606-.592-1.177-1.171-1.739-1.7l-1.642-1.459-1.445-1.28c-.452-.389-.891-.719-1.276-1.031l-2.438-1.937-6.129,8.153,2.139,1.7c.338.274.725.561,1.122.9l1.27,1.128.7.622c-1.453-.547-2.87-1.012-4.225-1.4a51.623,51.623,0,0,0-10-1.8c-1.225-.132-2.2-.123-2.858-.156l-1.013-.033-.005.737c-2.049-.752-4.032-1.4-5.9-1.935a80.009,80.009,0,0,0-10.975-2.32c-1.34-.214-2.407-.293-3.13-.379l-1.11-.118-1.179,13.569.919.1c.6.073,1.481.132,2.595.315a66.446,66.446,0,0,1,9.149,1.933,74.6,74.6,0,0,1,12.381,4.812c.677.336,1.356.693,2.035,1.058q-1.064-.353-2.129-.678c-2.83-.827-5.648-1.532-8.409-2.061a84.606,84.606,0,0,0-15.307-1.5,76.688,76.688,0,0,0-10.911.733c-1.314.155-2.336.366-3.036.479l-1.072.186,2.516,13.017.885-.152c.579-.09,1.419-.271,2.508-.4a63.43,63.43,0,0,1,9.065-.61,71.385,71.385,0,0,1,12.847,1.265c2.329.447,4.709,1.045,7.1,1.741.825.252,1.65.524,2.473.806-.306,0-.612.009-.909.018a51.787,51.787,0,0,0-7.548.805c-.907.145-1.61.322-2.092.42l-.738.16.015.063c-.875-.073-1.746-.14-2.608-.188a103.649,103.649,0,0,0-15.4.287,95.216,95.216,0,0,0-10.8,1.661c-1.3.253-2.3.523-2.991.682l-1.056.254,3.354,13.046.907-.217c.593-.135,1.453-.37,2.569-.585a81.681,81.681,0,0,1,9.261-1.427c-.167.072-.334.143-.5.215a73.552,73.552,0,0,0-8.8,4.6c-1.036.607-1.812,1.15-2.355,1.5l-.826.542,6.818,9.989.69-.451c.454-.288,1.1-.745,1.966-1.25a61.5,61.5,0,0,1,7.385-3.864,68.816,68.816,0,0,1,9.69-3.392l.349,1.351c-1.374.644-2.714,1.314-4,2.021a69.179,69.179,0,0,0-10.1,6.786,62.865,62.865,0,0,0-6.324,5.9c-.729.75-1.253,1.388-1.628,1.805l-.567.648,5.12,4.318c-.5.74-.934,1.429-1.309,2.049-.7,1.085-1.169,1.993-1.517,2.592l-.519.928,11.255,5.98.416-.737c.086-.146.181-.318.286-.508l7.157,4.035c-1.528,2.272-2.879,4.487-4.038,6.565a85.135,85.135,0,0,0-4.675,9.846c-.511,1.216-.838,2.2-1.088,2.862l-.371,1.019,12.6,4.349.314-.857c.212-.557.483-1.387.918-2.413a71.717,71.717,0,0,1,3.958-8.34,79.913,79.913,0,0,1,7.311-10.867c.587-.734,1.2-1.464,1.833-2.191a70.645,70.645,0,0,0-3.123,8.006,64.493,64.493,0,0,0-2.033,8.193c-.2,1-.294,1.8-.381,2.341s-.124.83-.124.83l10.218,1.335s.036-.242.1-.7.149-1.124.32-1.966a54.143,54.143,0,0,1,1.715-6.913,60.408,60.408,0,0,1,3.892-9.329c.856-1.646,1.831-3.3,2.878-4.946.2-.313.415-.623.625-.934-.381,1.081-.733,2.158-1.051,3.226a69.881,69.881,0,0,0-2.406,11.738,63.548,63.548,0,0,0-.4,8.5c0,1.03.066,1.839.088,2.39l.044.846,5.618-.389c.069,2.367.244,4.371.427,5.885.1,1.024.24,1.822.314,2.369l.123.837,9.271-1.512c.036.3.072.612.107.909.116.952.212,1.865.332,2.731q.216,1.294.408,2.449l.361,2.153c.12.664.268,1.267.382,1.814l.751,3.438,11.262-2.749-.665-3.055c-.1-.487-.236-1.021-.342-1.611s-.205-1.232-.319-1.916-.237-1.412-.366-2.179c-.107-.771-.19-1.585-.294-2.433q-.075-.636-.154-1.3c-.046-.442-.12-.889-.141-1.35q-.1-1.378-.2-2.846c-.03-.489-.078-.983-.1-1.485s-.022-1.012-.033-1.526c-.017-1.029-.061-2.079-.058-3.148,0-.327.01-.659.017-.99.022.213.044.423.065.623.054.479.125.917.178,1.313l.352,2.491,3.783-.6.43,1.24c.173.475.371.935.551,1.394l1.074,2.666c.164.434.373.841.556,1.25l.553,1.2c.365.781.7,1.535,1.047,2.24l1.037,1.976.914,1.736c.289.533.587,1,.839,1.44l1.617,2.72,8.522-5.366c.1.151.2.3.3.448l1.41,1.989,1.242,1.748c.39.535.778,1.006,1.113,1.442l2.132,2.721,8.818-7.247-1.9-2.431c-.3-.389-.647-.807-1-1.286l-1.109-1.564L210.71,244.9c-.428-.637-.855-1.324-1.313-2.032l-.7-1.085c-.233-.372-.491-.737-.71-1.136l-1.412-2.437c-.239-.42-.5-.838-.731-1.274l-.694-1.336c-.059-.114-.121-.231-.18-.346a37.5,37.5,0,0,0,3.093,2.549l.979.7.748.487.625.4,4.522-7.373-.464-.3-.558-.361-.734-.525a28.593,28.593,0,0,1-4.214-3.809,38.341,38.341,0,0,1-4.869-6.7,56.771,56.771,0,0,1-4.1-8.935c-.393-1.071-.763-2.159-1.116-3.251,1.2,1.579,2.429,3.105,3.643,4.535,1.874,2.158,3.673,4.131,5.3,5.737L209,219.56l1.076,1.017.946.894c.294.274.575.515.823.738l1.568,1.394,3.521-4.084c.153.237.307.475.461.708l.756,1.156c.243.384.463.777.691,1.156l1.317,2.223c.42.72.778,1.442,1.149,2.121s.72,1.333,1.039,1.96l.861,1.806.759,1.587c.229.493.41.958.589,1.371l1.1,2.608,9.714-3.85-1.23-2.91c-.2-.461-.4-.979-.659-1.528l-.843-1.769-.961-2.011c-.355-.7-.753-1.422-1.155-2.183s-.814-1.558-1.28-2.36l-1.462-2.471c-.254-.422-.5-.857-.77-1.284l-.838-1.285c-.569-.863-1.133-1.758-1.741-2.643a116.757,116.757,0,0,0-8.315-10.577q-.545-.6-1.1-1.191,1.282.579,2.565,1.177c3.217,1.524,6.4,3.119,9.351,4.681,2.939,1.581,5.664,3.093,7.957,4.46l1.65.974,1.474.9c.927.563,1.732,1.059,2.387,1.481l2.066,1.312,4.733-7.318-2.152-1.366c-.682-.44-1.52-.956-2.485-1.543l-1.535-.938-1.718-1.014c-2.366-1.409-5.172-2.968-8.2-4.6l3.179-5.434-1.871-1.041c-.3-.163-.625-.354-.99-.541l-1.188-.595-1.352-.675-.028-.013c.495.136.986.276,1.469.419C231.2,190.745,232.042,191.044,232.872,191.314Zm-24.54,17c1.048,1.189,2.068,2.4,3.054,3.622-1.109-1.167-2.279-2.47-3.485-3.858-.531-.625-1.064-1.272-1.6-1.932Q207.331,207.212,208.333,208.313Z" transform="translate(-96.827 -95.631)"/><path class="d" d="M213.959,180.444l.729.875c.236.292.45.594.671.885l1.279,1.7c.409.552.761,1.115,1.123,1.64s.7,1.03,1.019,1.518l.851,1.411.749,1.239c.227.386.409.755.587,1.08l1.1,2.055,7.751-3.9-1.246-2.329c-.2-.368-.411-.785-.667-1.222l-.845-1.4-.964-1.594c-.354-.552-.748-1.117-1.148-1.715-.344-.5-.686-1.028-1.059-1.555l.462.563c.254.318.462.629.664.9l1.249,1.714,6.562-4.489-1.433-1.971c-.232-.311-.474-.666-.765-1.032l-.957-1.17-1.091-1.329c-.4-.456-.835-.918-1.281-1.408s-.906-1.008-1.413-1.511l-1.584-1.544c-.275-.263-.544-.538-.833-.8l-.89-.778c-.6-.52-1.207-1.068-1.846-1.593-1.329-1.081-2.749-2.142-4.227-3.166.5.241.989.484,1.47.732.707.37,1.384.766,2.058,1.136l1,.553c.325.187.634.393.945.584l1.807,1.128c.58.368,1.112.767,1.639,1.126s1.029.708,1.5,1.051l1.3,1.012,1.145.888c.35.279.652.558.935.8l1.767,1.523,5.845-6.421-2-1.73c-.321-.272-.666-.586-1.062-.9l-1.3-1.007-1.475-1.143c-.529-.388-1.1-.775-1.69-1.189-.327-.224-.657-.459-1-.7L232.061,153l-1.981-.825c-.093-.037-.194-.08-.292-.121l1.017-7.907-2.464-.275c-.392-.041-.826-.1-1.3-.138l-1.533-.118-1.745-.133c-.614-.035-1.262-.056-1.937-.087-.152-.008-.312-.014-.467-.021,1.348-.228,2.627-.422,3.807-.565l1.623-.211,1.468-.152,1.291-.134c.4-.039.767-.06,1.1-.087l2.085-.158-.447-7.239c.373.007.725.017,1.042.031.755.013,1.346.072,1.749.094l.618.04.75-8.982-.729-.049c-.476-.027-1.173-.093-2.062-.111a59.472,59.472,0,0,0-7.35.174,65.006,65.006,0,0,0-9.874,1.644q1.259-.641,2.507-1.219c.8-.361,1.6-.676,2.369-1.008l1.15-.485c.381-.153.767-.278,1.143-.417l2.195-.789c.351-.137.712-.225,1.058-.333l1.024-.305c.67-.2,1.307-.4,1.921-.568l1.755-.42,1.543-.372c.478-.108.924-.172,1.322-.249l2.512-.458-1.442-9.442-2.876.521c-.456.089-.966.165-1.512.288l-1.763.422-2,.483c-.7.191-1.427.42-2.19.644l-1.166.349c-.395.124-.8.227-1.205.381l-2.5.9c-.427.158-.866.3-1.3.477l-1.307.548c-.878.376-1.787.737-2.69,1.148s-1.825.862-2.743,1.328L208,117.639c.118-.4.234-.8.352-1.2l.367-1.248c.116-.412.214-.825.319-1.229q.308-1.215.6-2.36c.189-.763.331-1.51.488-2.222s.3-1.4.43-2.048l.323-1.861c.1-.584.2-1.131.283-1.636s.135-.975.194-1.4l.353-2.653-8.861-1-.322,2.414c-.054.384-.1.811-.176,1.272l-.259,1.491c-.092.532-.19,1.1-.293,1.7s-.258,1.217-.394,1.867-.271,1.33-.444,2.026l-.547,2.152c-.1.368-.183.745-.289,1.121l-.337,1.138c-.231.766-.449,1.555-.7,2.348-.444,1.377-.935,2.784-1.464,4.2a85.52,85.52,0,0,0-.389-9.7c-.1-.925-.234-1.83-.347-2.718q-.09-.666-.176-1.317c-.064-.433-.153-.856-.228-1.276l-.455-2.445c-.065-.4-.173-.777-.259-1.155l-.266-1.109c-.178-.724-.334-1.421-.509-2.078l-.548-1.852q-.259-.871-.484-1.627c-.156-.5-.332-.951-.473-1.363l-.92-2.579L184.2,94.528l.806,2.265c.124.361.281.755.417,1.2l.424,1.433.236.79c-.831-1.084-1.673-2.089-2.5-3.008a45.438,45.438,0,0,0-6.631-5.993c-.853-.668-1.584-1.114-2.061-1.445l-.741-.5-.346.547c-1.18-1.513-2.36-2.917-3.5-4.185a70.407,70.407,0,0,0-7.116-6.832c-.9-.783-1.661-1.338-2.16-1.737l-.774-.6-7.186,9.582.64.5c.413.333,1.044.787,1.791,1.441a58.4,58.4,0,0,1,5.932,5.694,65.606,65.606,0,0,1,7.007,9.345c.35.566.691,1.148,1.028,1.736q-.631-.758-1.275-1.5c-1.728-1.932-3.5-3.768-5.32-5.446a74.418,74.418,0,0,0-10.729-8.235,67.4,67.4,0,0,0-8.486-4.523c-1.053-.495-1.914-.811-2.489-1.053l-.887-.359L136.1,94.534l.731.3c.474.2,1.186.457,2.056.87a55.709,55.709,0,0,1,7.051,3.757,62.729,62.729,0,0,1,9,6.913c1.531,1.416,3.031,2.969,4.495,4.6.5.571.988,1.158,1.472,1.751-.231-.139-.462-.277-.687-.409a45.493,45.493,0,0,0-6.009-2.906c-.744-.314-1.351-.508-1.757-.659l-.626-.223-.018.054c-.619-.462-1.239-.916-1.859-1.352a91.161,91.161,0,0,0-11.632-6.943,83.746,83.746,0,0,0-8.837-3.78c-1.086-.413-1.961-.679-2.55-.881l-.907-.3-3.558,11.3.778.259c.505.175,1.257.4,2.19.757a71.733,71.733,0,0,1,7.578,3.238l-.472-.071a64.662,64.662,0,0,0-8.708-.653c-1.056-.028-1.887.017-2.454.023l-.868.021.449,10.625.725-.016c.473,0,1.165-.046,2.049-.019a54.07,54.07,0,0,1,7.309.547,60.456,60.456,0,0,1,8.81,1.97l-.367,1.171c-1.325-.158-2.637-.28-3.924-.349a60.852,60.852,0,0,0-10.7.372,55.254,55.254,0,0,0-7.463,1.467c-.894.221-1.581.454-2.054.591l-.724.22,1.816,5.6c-.714.322-1.361.633-1.929.921-1.029.484-1.8.945-2.337,1.23l-.819.451,5.624,9.694.653-.357c.132-.069.283-.153.45-.247l3.468,6.338c-2.2.986-4.234,2.011-6.065,3.025a74.883,74.883,0,0,0-8.065,5.179c-.946.67-1.649,1.254-2.142,1.631l-.75.588,7.385,9.1.633-.494c.417-.317,1.005-.812,1.806-1.375a63.121,63.121,0,0,1,6.83-4.387,70.321,70.321,0,0,1,10.508-4.716c.78-.275,1.579-.533,2.387-.784a62.191,62.191,0,0,0-6.051,4.526,56.692,56.692,0,0,0-5.324,5.172c-.614.654-1.056,1.207-1.372,1.57l-.478.563,7.008,5.744.4-.471c.266-.3.633-.77,1.152-1.319a47.648,47.648,0,0,1,4.492-4.365,53.178,53.178,0,0,1,7.241-5.156c1.4-.831,2.9-1.613,4.446-2.355.3-.138.6-.272.9-.406-.787.63-1.55,1.27-2.284,1.92a61.446,61.446,0,0,0-7.25,7.645,55.872,55.872,0,0,0-4.249,6.162c-.478.769-.805,1.4-1.045,1.825l-.361.651,4.375,2.32c-1.048,1.8-1.848,3.377-2.415,4.592-.4.811-.667,1.472-.867,1.914l-.3.682,7.624,3.179-.343.728c-.355.765-.709,1.491-1.02,2.193l-.833,2.018-.731,1.775c-.219.552-.389,1.07-.558,1.532l-1.037,2.916,9.685,3.18.923-2.59c.151-.411.3-.872.494-1.362l.652-1.578.739-1.8c.278-.625.595-1.272.911-1.953l.489-1.041c.17-.351.323-.72.522-1.073L150.8,193.3c.2-.379.4-.77.618-1.153L152.1,191c.466-.775.92-1.58,1.419-2.377.154-.243.314-.487.473-.732l-.241.5c-.182.383-.332.743-.478,1.063l-.894,2.023,3.105,1.307-.255,1.126c-.092.435-.158.87-.237,1.3q-.225,1.281-.437,2.489c-.079.4-.113.8-.166,1.192s-.1.775-.144,1.15c-.09.752-.19,1.471-.259,2.158q-.076,1.034-.144,1.957c-.045.614-.086,1.189-.124,1.721s-.028,1.023-.042,1.465c-.036,1.77-.057,2.782-.057,2.782l8.855-.046c0,.159.008.317.013.473.045.754.088,1.469.129,2.14s.08,1.3.115,1.882.113,1.112.161,1.594c.208,1.923.327,3.022.327,3.022l9.95-1.313-.29-2.7c-.042-.429-.108-.9-.145-1.423s-.065-1.082-.1-1.683-.076-1.24-.118-1.914c-.023-.675-.022-1.386-.036-2.127q-.008-.556-.017-1.135c0-.385-.024-.778,0-1.178q.038-1.2.079-2.475c.017-.424.019-.856.047-1.291s.068-.875.1-1.32c.009-.113.017-.228.026-.342a32.935,32.935,0,0,0,1.125,3.34l.406.977.332.711.28.591,6.8-3.4-.206-.44-.248-.529c-.089-.213-.19-.458-.3-.733a25.1,25.1,0,0,1-1.376-4.8,33.718,33.718,0,0,1-.52-7.267,49.862,49.862,0,0,1,1.093-8.574c.2-.982.434-1.966.677-2.945.165,1.737.371,3.447.613,5.078.4,2.482.822,4.791,1.293,6.747l.328,1.406c.117.443.227.864.331,1.259s.2.765.291,1.107.19.652.271.934l.523,1.769,4.527-1.413c0,.248.009.5.016.743q.014.614.027,1.214c0,.4-.015.795-.021,1.185-.017.779-.034,1.538-.05,2.27s-.09,1.439-.128,2.118-.082,1.329-.135,1.947q-.1.923-.2,1.748c-.061.549-.118,1.063-.171,1.538s-.139.905-.2,1.3c-.247,1.566-.387,2.46-.387,2.46l9.041,1.639s.158-1,.434-2.743c.065-.437.153-.919.218-1.447s.124-1.1.192-1.712l.217-1.948c.06-.687.1-1.411.152-2.166s.117-1.541.141-2.356.037-1.658.056-2.524c.007-.434.025-.873.022-1.317s-.019-.894-.028-1.348c-.024-.909-.029-1.839-.072-2.783a102.766,102.766,0,0,0-1.293-11.76q-.128-.7-.266-1.4.688,1.028,1.368,2.07c1.694,2.633,3.33,5.3,4.806,7.84,1.459,2.546,2.791,4.941,3.868,7.027l.779,1.493.682,1.358c.43.851.8,1.6,1.093,2.214l.933,1.939,6.934-3.264-.972-2.02c-.3-.645-.691-1.42-1.139-2.307l-.71-1.414-.811-1.555c-1.112-2.152-2.482-4.62-3.986-7.243l4.9-2.58-.913-1.646c-.147-.26-.3-.554-.487-.864l-.61-1-.7-1.132-.015-.022q.459.5.9,1C212.975,179.243,213.464,179.857,213.959,180.444Zm-26.219,1.288c.23,1.374.428,2.754.6,4.124-.286-1.387-.554-2.9-.81-4.5-.106-.713-.2-1.443-.294-2.184Q187.5,180.446,187.74,181.732Z" transform="translate(-100.993 -76.46)"/><path class="c" d="M212.451,174.85l-.236.844c-.082.277-.18.545-.267.812l-.52,1.554c-.171.5-.374.97-.548,1.429s-.345.9-.517,1.309l-.523,1.156-.458,1.017c-.146.312-.3.589-.428.844l-.821,1.6,5.857,3.209.931-1.807c.145-.289.318-.6.483-.957l.519-1.149.589-1.308c.195-.465.382-.962.586-1.477.166-.436.352-.884.523-1.351l-.155.539c-.091.3-.2.568-.28.814l-.541,1.541,5.714,2.2.623-1.77c.1-.282.215-.591.32-.935l.323-1.118.365-1.272c.115-.451.217-.93.332-1.427s.243-1.014.34-1.556.188-1.1.287-1.679c.046-.288.1-.58.142-.877s.069-.6.1-.9c.066-.61.149-1.232.2-1.866.1-1.315.157-2.678.159-4.063.064.42.125.839.178,1.252.074.609.119,1.212.18,1.8q.043.441.084.873c.023.288.028.573.043.854.026.562.051,1.109.075,1.638s0,1.04,0,1.531,0,.961-.011,1.408-.05.869-.073,1.267-.043.77-.062,1.114-.068.657-.1.941l-.194,1.786,6.624.9s.081-.736.222-2.025c.032-.322.08-.678.108-1.067s.046-.811.072-1.261.052-.929.08-1.435.01-1.036.015-1.591c0-.3,0-.617.005-.935l4.946-.917-.343-1.617c-.017-.075-.034-.158-.051-.238l5.456-2.811-.9-1.682c-.146-.266-.3-.565-.48-.883l-.6-1.024-.678-1.164c-.246-.405-.516-.825-.791-1.266-.062-.1-.128-.2-.191-.305.734.755,1.416,1.481,2.022,2.165l.843.937.738.864.649.76c.2.236.373.46.535.658l1.012,1.252,4.393-3.448c.159.239.306.467.436.674.322.485.542.885.7,1.15l.245.409,6.021-3.45-.288-.484c-.191-.313-.454-.784-.831-1.355a45.836,45.836,0,0,0-3.323-4.582,50.065,50.065,0,0,0-5.358-5.54q.957.518,1.868,1.056c.577.346,1.126.716,1.674,1.061l.81.517c.264.175.512.365.764.542l1.459,1.046c.241.163.453.353.674.525l.641.515c.417.338.825.654,1.2.969l1.033.929.91.815c.277.255.513.51.736.729l1.388,1.391,5.354-5.042-1.588-1.595c-.255-.25-.527-.54-.844-.833l-1.038-.933-1.182-1.059c-.427-.36-.89-.721-1.365-1.107l-.732-.586c-.251-.2-.5-.411-.768-.6l-1.66-1.192c-.287-.2-.57-.417-.87-.615l-.919-.589c-.622-.393-1.248-.81-1.9-1.2s-1.344-.779-2.04-1.158l-.935-3.316c.307-.1.611-.2.912-.3l.952-.313c.312-.107.616-.225.918-.335l1.758-.652c.566-.214,1.1-.451,1.622-.663s1.017-.418,1.487-.622l1.321-.609,1.161-.536c.357-.169.677-.341.97-.487l1.836-.936-3.237-6.055-1.671.851c-.267.133-.557.291-.883.445l-1.058.487-1.2.555c-.428.186-.884.369-1.356.567s-.962.41-1.478.6l-1.6.594c-.276.1-.552.209-.837.307l-.869.284c-.586.189-1.182.395-1.794.582-1.067.321-2.173.624-3.3.909a65.846,65.846,0,0,0,5.981-4.488c.544-.465,1.058-.948,1.571-1.408l.757-.687c.246-.231.476-.472.71-.7l1.351-1.357c.223-.214.417-.45.619-.669l.587-.653c.381-.429.755-.833,1.094-1.231l.934-1.157.82-1.018c.249-.318.457-.625.657-.9l1.232-1.71-5.708-3.885-1.083,1.5c-.175.237-.356.508-.575.787l-.723.9-.4.495c.324-1,.593-1.973.812-2.9a34.924,34.924,0,0,0,.9-6.822c.051-.833.013-1.491.015-1.938s-.01-.686-.01-.686l-.5.02c.443-1.409.817-2.771,1.121-4.05a54.242,54.242,0,0,0,1.22-7.5c.1-.913.122-1.637.157-2.129s.044-.755.044-.755l-9.214-.366s-.013.217-.038.625-.042,1.006-.13,1.765a44.95,44.95,0,0,1-1.016,6.249,50.5,50.5,0,0,1-2.86,8.525c-.206.469-.425.939-.651,1.41q.2-.731.39-1.462c.469-1.94.856-3.868,1.126-5.752a57.3,57.3,0,0,0,.529-10.4,51.943,51.943,0,0,0-.843-7.355c-.147-.884-.322-1.568-.42-2.038l-.16-.719-8.723,2.116.131.594c.079.389.228.951.347,1.684a42.888,42.888,0,0,1,.7,6.111,48.332,48.332,0,0,1-.446,8.727c-.228,1.589-.557,3.218-.952,4.86-.144.566-.3,1.132-.466,1.7-.013-.207-.026-.414-.041-.614a35.041,35.041,0,0,0-.785-5.079c-.127-.609-.269-1.078-.35-1.4l-.132-.494-.042.012c.022-.594.039-1.185.044-1.769a70.123,70.123,0,0,0-.684-10.407,64.518,64.518,0,0,0-1.467-7.253c-.213-.869-.427-1.54-.557-2l-.205-.706L219.248,84.6l.175.606c.11.4.3.971.478,1.719a55.34,55.34,0,0,1,1.26,6.218c-.054-.11-.108-.221-.162-.33a49.88,49.88,0,0,0-3.392-5.8c-.444-.682-.836-1.189-1.087-1.545l-.393-.541-6.538,4.929.327.452c.209.3.539.718.908,1.29a41.613,41.613,0,0,1,2.848,4.871,46.62,46.62,0,0,1,2.6,6.445l-.9.279c-.479-.908-.975-1.793-1.494-2.639a46.85,46.85,0,0,0-4.911-6.617,42.544,42.544,0,0,0-4.192-4.089c-.53-.469-.978-.8-1.273-1.043l-.456-.363-2.757,3.6c-.516-.311-1-.586-1.427-.82-.756-.441-1.385-.727-1.8-.943l-.644-.322-3.685,7.8.512.258c.1.053.221.113.353.177l-2.5,4.968c-1.585-.962-3.126-1.8-4.568-2.522a57.651,57.651,0,0,0-6.807-2.848c-.838-.307-1.515-.5-1.97-.645l-.7-.218-2.54,8.658.59.185c.383.126.954.282,1.661.544a48.615,48.615,0,0,1,5.765,2.411,54.094,54.094,0,0,1,7.582,4.6c.515.374,1.028.767,1.54,1.17a47.9,47.9,0,0,0-5.514-1.857,43.657,43.657,0,0,0-5.6-1.114c-.684-.1-1.227-.142-1.595-.183l-.566-.057-.577,6.952.474.049c.309.036.765.065,1.34.154a36.694,36.694,0,0,1,4.73.94,40.925,40.925,0,0,1,6.433,2.335c1.14.527,2.29,1.133,3.436,1.789.218.128.434.261.651.393q-1.115-.335-2.215-.608a47.29,47.29,0,0,0-8.014-1.254,43.052,43.052,0,0,0-5.763,0c-.7.033-1.241.1-1.614.135l-.57.056.442,3.787c-1.6.122-2.948.3-3.966.476-.689.1-1.225.22-1.592.287l-.562.109,1.318,6.221-.611.1c-.64.109-1.255.2-1.836.312l-1.643.354-1.445.313c-.445.1-.848.221-1.215.316l-2.3.618,2.218,7.528,2.045-.546c.326-.084.683-.192,1.079-.282l1.285-.277,1.462-.317c.518-.1,1.066-.179,1.636-.276l.873-.145c.3-.046.6-.11.908-.139l1.918-.224c.33-.036.662-.084,1-.113l1.031-.071c.7-.044,1.4-.107,2.127-.139.222-.009.446-.014.67-.02l-.419.064c-.322.052-.616.114-.883.162l-1.673.318.529,2.539-.825.33c-.316.132-.62.28-.925.417l-1.769.811c-.288.125-.558.279-.828.416l-.792.412c-.516.271-1.016.523-1.482.779l-1.3.764-1.145.674c-.351.213-.66.429-.947.614l-1.788,1.179,3.9,5.593-.294.214-1.3,1.018-1.143.9c-.349.281-.655.558-.94.8l-1.772,1.528,5.181,5.733,1.583-1.363c.254-.214.525-.463.839-.714l1.022-.8,1.162-.911c.417-.31.868-.62,1.332-.953l.712-.506c.244-.169.483-.355.746-.516l1.6-1.032c.276-.175.551-.362.839-.535l.882-.512.228-.133a25.43,25.43,0,0,0-1.626,2.173l-.441.684-.305.521-.253.435,5.13,2.823.189-.323.226-.389.332-.513a19.312,19.312,0,0,1,2.442-2.971,25.957,25.957,0,0,1,4.379-3.506,38.394,38.394,0,0,1,5.912-3.055c.712-.3,1.436-.585,2.163-.858-1.029.864-2.022,1.741-2.95,2.608-1.4,1.335-2.677,2.615-3.711,3.769l-.747.822-.654.76-.574.669c-.176.208-.33.405-.473.58l-.892,1.1,2.874,2.252c-.155.111-.311.223-.464.334l-.758.548c-.252.177-.51.338-.76.5l-1.461.961c-.474.307-.951.572-1.4.844s-.879.53-1.293.765l-1.194.64-1.049.564c-.326.17-.635.307-.908.442l-1.728.83,2.913,6.446,1.928-.924c.305-.15.649-.3,1.013-.494l1.17-.626,1.329-.714c.462-.262.938-.554,1.439-.85s1.028-.6,1.555-.941l1.624-1.067c.277-.186.564-.366.844-.562l.843-.608c.565-.413,1.153-.822,1.732-1.262a78.934,78.934,0,0,0,6.888-5.96q.389-.387.771-.78-.351.886-.715,1.772c-.928,2.225-1.9,4.428-2.867,6.472s-1.911,3.929-2.763,5.523l-.606,1.147L198.393,179c-.351.645-.661,1.205-.926,1.661l-.821,1.439,5.1,2.968.856-1.5c.276-.475.6-1.058.964-1.729l.586-1.068.631-1.194c.878-1.645,1.843-3.593,2.848-5.692l3.776,1.977.644-1.3c.1-.207.22-.434.335-.686l.364-.822.413-.935.008-.019q-.115.508-.237,1.007C212.782,173.7,212.606,174.28,212.451,174.85ZM200.174,158.8c-.771.746-1.558,1.476-2.353,2.181.754-.788,1.6-1.62,2.5-2.48.406-.379.826-.76,1.256-1.141Q200.886,158.083,200.174,158.8Z" transform="translate(-132.756 -79.41)"/></g></g></svg>