<svg xmlns="http://www.w3.org/2000/svg" width="262.261" height="248.22" viewBox="0 0 262.261 248.22"><defs><style>.a{fill:#ff877b;}.b{fill:#fe7567;}.c{fill:#ff4fcb;}.d{fill:#6b3e84;}</style></defs><g transform="translate(-388.564 -76.46)"><g transform="translate(386.503 173.268)"><path class="a" d="M812.725,379.923A301.368,301.368,0,0,0,882.2,292.641l-5.716-5.379L825.891,342.7c-7.691,8.428-13.842,20.7-23.07,27.41-13.5,9.818-27.293,18.939-40.79,28.757,0,0-19.288,3.757-28.382,14.057,0,0-.744,2.132-1.558,5.421a27.939,27.939,0,0,0,3.481,9.248C761.987,412.845,790.012,399.509,812.725,379.923Z" transform="translate(-730.031 -287.262)"/><path class="b" d="M886.3,298.974a301.368,301.368,0,0,1-69.477,87.283c-22.712,19.585-50.738,32.922-77.152,47.671a26.387,26.387,0,0,0,4.5,5.652,26.8,26.8,0,0,0,8.627,5.428c17.185-17.01,46.076-39,68.316-52.767,27.5-25.8,51.669-55.85,69.837-88.892Z" transform="translate(-734.13 -293.595)"/></g><g transform="translate(494.352 76.46)"><path class="c" d="M985.415,190.482q.726-.216,1.47-.419l-.028.013-1.352.675-1.188.595c-.365.187-.691.379-.99.541l-1.871,1.041,3.179,5.434c-3.028,1.629-5.834,3.188-8.2,4.6l-1.718,1.014-1.535.938c-.965.587-1.8,1.1-2.485,1.543l-2.152,1.366,4.733,7.318,2.066-1.312c.654-.422,1.46-.918,2.387-1.481l1.474-.9,1.65-.974c2.293-1.367,5.018-2.879,7.957-4.46,2.95-1.563,6.134-3.157,9.351-4.681q1.281-.6,2.565-1.177-.552.591-1.1,1.191a116.75,116.75,0,0,0-8.315,10.577c-.608.885-1.172,1.78-1.741,2.643l-.838,1.285c-.271.427-.516.862-.77,1.284L986.5,219.6c-.466.8-.868,1.6-1.28,2.36s-.8,1.483-1.154,2.183l-.962,2.011-.843,1.769c-.254.549-.459,1.067-.659,1.528l-1.23,2.91,9.714,3.85,1.1-2.608c.179-.413.36-.879.589-1.371l.759-1.587.861-1.806c.319-.628.678-1.277,1.039-1.96s.728-1.4,1.149-2.121l1.316-2.223c.228-.38.448-.772.691-1.156l.756-1.156c.154-.232.308-.471.461-.708l3.521,4.084,1.568-1.394c.248-.223.529-.464.823-.738l.947-.894,1.076-1.017,1.161-1.16c1.63-1.606,3.43-3.579,5.3-5.737,1.214-1.429,2.44-2.956,3.643-4.535-.353,1.092-.723,2.18-1.116,3.251a56.77,56.77,0,0,1-4.1,8.935,38.345,38.345,0,0,1-4.869,6.7,28.575,28.575,0,0,1-4.214,3.809l-.734.525-.558.361-.464.3,4.522,7.373.625-.4.748-.487.979-.7a37.52,37.52,0,0,0,3.093-2.549c-.06.115-.122.231-.18.346l-.694,1.336c-.235.437-.491.855-.731,1.274l-1.412,2.437c-.219.4-.477.765-.71,1.136l-.7,1.085c-.459.707-.885,1.394-1.313,2.032l-1.263,1.777-1.109,1.564c-.348.479-.7.9-1,1.286l-1.9,2.431,8.818,7.247,2.132-2.721c.335-.436.722-.907,1.113-1.442l1.242-1.748,1.41-1.989c.1-.146.2-.3.3-.448l8.522,5.366,1.617-2.72c.252-.435.551-.907.839-1.44l.915-1.736,1.037-1.976c.346-.7.682-1.459,1.047-2.24l.553-1.2c.183-.409.392-.816.556-1.25l1.074-2.666c.18-.459.378-.918.55-1.394l.43-1.24,3.783.6.352-2.491c.053-.4.124-.834.178-1.313.021-.2.043-.41.065-.623.006.331.014.663.017.99,0,1.069-.042,2.119-.058,3.148q-.017.771-.033,1.526c-.018.5-.066,1-.1,1.485q-.1,1.465-.2,2.846c-.021.461-.095.908-.141,1.35l-.154,1.3c-.1.848-.186,1.662-.294,2.433-.129.767-.251,1.495-.366,2.179s-.221,1.324-.319,1.916-.24,1.125-.342,1.611l-.664,3.055,11.262,2.749.751-3.438c.114-.548.262-1.151.382-1.814l.361-2.153.408-2.449c.121-.865.216-1.779.333-2.731.035-.3.071-.6.107-.909l9.271,1.512.123-.837c.074-.546.213-1.345.314-2.369.183-1.513.358-3.517.427-5.885l5.618.389s.015-.294.044-.846.087-1.36.088-2.39a63.565,63.565,0,0,0-.4-8.5,69.846,69.846,0,0,0-2.406-11.738c-.317-1.068-.67-2.145-1.051-3.226.211.31.421.621.625.934,1.047,1.645,2.022,3.3,2.878,4.946a60.415,60.415,0,0,1,3.892,9.329,54.141,54.141,0,0,1,1.715,6.913c.171.842.246,1.512.32,1.966s.1.7.1.7l10.219-1.335-.124-.83c-.087-.541-.181-1.34-.381-2.341a64.492,64.492,0,0,0-2.032-8.193,70.656,70.656,0,0,0-3.123-8.006c.63.727,1.246,1.458,1.834,2.191a79.954,79.954,0,0,1,7.31,10.867,71.7,71.7,0,0,1,3.958,8.34c.435,1.025.705,1.856.917,2.413l.314.857,12.6-4.349-.371-1.019c-.25-.661-.577-1.646-1.088-2.862a85.14,85.14,0,0,0-4.675-9.846c-1.158-2.078-2.509-4.293-4.038-6.565l7.157-4.035c.105.19.2.362.286.508l.416.737,11.255-5.98-.519-.928c-.348-.6-.814-1.507-1.517-2.592-.375-.62-.813-1.308-1.309-2.049l5.12-4.318-.567-.648c-.375-.417-.9-1.055-1.628-1.805a62.869,62.869,0,0,0-6.324-5.9,69.184,69.184,0,0,0-10.1-6.786c-1.284-.706-2.624-1.377-4-2.021l.349-1.351a68.8,68.8,0,0,1,9.691,3.392,61.449,61.449,0,0,1,7.385,3.864c.87.505,1.512.962,1.967,1.25l.69.451,6.818-9.989-.826-.542c-.542-.347-1.318-.89-2.354-1.5a73.561,73.561,0,0,0-8.8-4.6c-.164-.072-.331-.144-.5-.215a81.683,81.683,0,0,1,9.261,1.427c1.116.215,1.976.451,2.569.585l.907.217,3.354-13.046-1.056-.254c-.69-.158-1.7-.428-2.992-.682a95.212,95.212,0,0,0-10.8-1.661,103.648,103.648,0,0,0-15.4-.287c-.861.049-1.732.115-2.608.188l.015-.063-.738-.16c-.483-.1-1.185-.275-2.092-.42a51.785,51.785,0,0,0-7.548-.805c-.3-.009-.6-.014-.909-.018.824-.282,1.648-.554,2.473-.806,2.394-.7,4.775-1.294,7.1-1.741A71.388,71.388,0,0,1,1097.21,154a63.429,63.429,0,0,1,9.065.61c1.089.124,1.929.3,2.508.4l.885.152,2.516-13.017-1.072-.186c-.7-.112-1.723-.323-3.036-.479a76.681,76.681,0,0,0-10.911-.733,84.608,84.608,0,0,0-15.307,1.5c-2.761.53-5.579,1.234-8.409,2.061q-1.065.325-2.13.678c.679-.366,1.357-.722,2.035-1.058a74.6,74.6,0,0,1,12.381-4.812,66.447,66.447,0,0,1,9.149-1.933c1.113-.182,2-.241,2.595-.315l.919-.1-1.179-13.569-1.11.118c-.723.086-1.789.165-3.13.379a80.011,80.011,0,0,0-10.975,2.32c-1.868.536-3.85,1.183-5.9,1.935l0-.737-1.014.033c-.66.033-1.634.024-2.858.156a51.612,51.612,0,0,0-10,1.8c-1.355.388-2.771.853-4.225,1.4l.7-.622,1.27-1.128c.4-.343.784-.63,1.122-.9l2.139-1.7-6.129-8.153-2.438,1.937c-.384.312-.824.642-1.276,1.031l-1.445,1.28L1050.3,123.8c-.563.529-1.133,1.108-1.739,1.7l-.923.911c-.31.314-.644.616-.944.96l-1.908,2.087c-.324.361-.664.717-.987,1.1l-.961,1.165c-.643.789-1.319,1.581-1.968,2.416a97.212,97.212,0,0,0-6.207,9.136c.341-1.686.712-3.34,1.111-4.936.233-.917.5-1.809.734-2.688l.359-1.3c.124-.427.266-.843.395-1.257l.765-2.406c.252-.776.538-1.509.789-2.223s.5-1.4.742-2.039l.736-1.813.646-1.595c.2-.49.416-.93.594-1.333l1.14-2.525-9.159-4.356-1.254,2.774c-.2.443-.427.927-.652,1.465l-.71,1.75-.807,1.991c-.269.706-.531,1.457-.815,2.236s-.588,1.589-.865,2.439l-.839,2.638c-.141.453-.3.91-.431,1.378s-.262.945-.4,1.425c-.123.451-.251.907-.378,1.366l-4.958-1.148q-.91-1.5-1.85-2.93c-.625-.939-1.285-1.834-1.908-2.724l-.933-1.315c-.314-.428-.65-.832-.968-1.241l-1.874-2.366c-.294-.389-.628-.735-.934-1.092l-.917-1.038c-.6-.675-1.166-1.334-1.727-1.938l-1.645-1.67-1.448-1.466c-.454-.447-.9-.828-1.287-1.187l-2.463-2.231-7.067,8.25,2.15,1.952c.339.314.73.644,1.127,1.036l1.266,1.286,1.442,1.46c.492.53.985,1.11,1.513,1.7l.8.91c.269.313.564.614.821.958l1.645,2.081c.28.359.577.712.853,1.089l.818,1.159c.547.785,1.131,1.569,1.682,2.4.571.869,1.134,1.766,1.688,2.683a73.928,73.928,0,0,0-8.545-7.521,67.637,67.637,0,0,0-6.991-4.584c-.869-.517-1.582-.872-2.057-1.132l-.733-.391-4.673,9.123.621.333c.4.222,1.008.519,1.745.961.314.177.66.379,1.024.6l-4.782,6.721,1.918,1.405c.3.225.646.467,1.008.744l1.166.905,1.327,1.029,1.441,1.178c1.053.848,2.171,1.8,3.335,2.834-.154-.087-.311-.177-.463-.261-.671-.376-1.308-.744-1.923-1.08l-1.764-.919-1.552-.808c-.481-.245-.934-.451-1.337-.648l-2.544-1.216-3.769,8.245c-.119-.019-.243-.038-.355-.058l-2.408-.394-1.009,7.362c-.469.024-.93.053-1.38.073-.818.046-1.6.076-2.347.133l-2.111.218-1.856.194c-.573.067-1.094.164-1.568.233l-2.972.467,1.785,9.712,2.621-.409c.417-.061.877-.149,1.382-.208l1.639-.169,1.865-.195c.658-.05,1.353-.073,2.077-.115s1.477-.1,2.259-.1l2.422,0c.416,0,.837-.01,1.263,0l1.294.064c.872.049,1.764.073,2.669.141.613.05,1.235.11,1.859.176-2.043.1-4.051.273-5.984.517-.933.123-1.844.289-2.739.428l-1.326.216c-.436.079-.862.183-1.284.271l-2.458.539c-.792.181-1.544.417-2.272.61s-1.425.389-2.083.59l-1.852.627-1.627.554c-.5.179-.948.376-1.358.537l-2.569,1.042,3.638,8.278,2.236-.9c.357-.14.745-.315,1.181-.469l.784-.266c-.677.285-1.325.59-1.957.865-.745.337-1.465.647-2.139.966l-1.889.96-1.659.846c-.509.268-.961.545-1.378.779l-2.6,1.5,5.142,8.418,2.3-1.322c.368-.207.765-.453,1.216-.69l1.469-.746,1.669-.851c.6-.282,1.236-.555,1.9-.854s1.343-.62,2.07-.908l2.257-.875c.389-.147.777-.311,1.18-.451l1.229-.407C983.706,191.044,984.547,190.745,985.415,190.482Zm24.028,15.663c-.533.66-1.066,1.307-1.6,1.932-1.206,1.387-2.376,2.69-3.485,3.858.986-1.222,2.007-2.433,3.054-3.622Q1008.416,207.213,1009.443,206.145Z" transform="translate(-962.449 -95.631)"/><path class="d" d="M1030.488,178.644c.294-.332.6-.664.9-1l-.015.022-.7,1.132-.61,1c-.185.31-.339.6-.487.864l-.913,1.646,4.9,2.58c-1.5,2.623-2.874,5.091-3.986,7.243l-.812,1.555-.71,1.414c-.448.887-.834,1.662-1.139,2.307l-.972,2.02,6.934,3.264.933-1.939c.292-.619.663-1.363,1.094-2.214l.682-1.358.779-1.493c1.077-2.086,2.409-4.481,3.868-7.027,1.476-2.537,3.112-5.207,4.806-7.84q.679-1.041,1.368-2.07-.137.7-.266,1.4a102.79,102.79,0,0,0-1.293,11.76c-.042.944-.048,1.874-.072,2.783q-.014.682-.029,1.348c0,.445.015.884.022,1.317q.029,1.3.057,2.524c.024.815.1,1.6.141,2.356s.093,1.479.152,2.166c.076.686.149,1.336.217,1.948l.192,1.712c.065.528.154,1.01.218,1.447.276,1.746.434,2.743.434,2.743l9.041-1.639-.387-2.46c-.058-.392-.139-.823-.2-1.3s-.11-.989-.171-1.538-.127-1.132-.2-1.748c-.053-.617-.087-1.268-.135-1.947s-.107-1.384-.128-2.118-.033-1.491-.05-2.27c-.006-.39-.024-.785-.021-1.185s.018-.8.027-1.214c.007-.245.011-.495.016-.743l4.527,1.413.523-1.769c.081-.282.179-.592.271-.934l.291-1.107.331-1.259.328-1.406c.471-1.956.9-4.265,1.293-6.747.242-1.631.448-3.34.613-5.078.244.979.473,1.963.677,2.945a49.863,49.863,0,0,1,1.094,8.574,33.714,33.714,0,0,1-.52,7.267,25.131,25.131,0,0,1-1.376,4.8l-.3.733-.248.529-.206.44,6.8,3.4.28-.591.332-.711.406-.977a32.981,32.981,0,0,0,1.125-3.34c.009.113.017.229.026.342q.051.667.1,1.32c.028.435.031.867.047,1.291q.041,1.274.078,2.475c.022.4,0,.793,0,1.178s-.011.764-.016,1.135c-.014.741-.013,1.452-.036,2.127-.041.674-.08,1.313-.118,1.914s-.07,1.163-.1,1.683-.1.993-.145,1.423c-.185,1.717-.29,2.7-.29,2.7l9.95,1.313.328-3.022c.047-.481.118-1.013.161-1.594s.074-1.21.115-1.882.084-1.387.129-2.14c.005-.156.01-.314.013-.473l8.855.046s-.021-1.011-.057-2.782c-.014-.442-.01-.933-.042-1.465s-.08-1.107-.124-1.721-.093-1.268-.144-1.957c-.069-.687-.169-1.406-.259-2.158l-.143-1.15c-.054-.39-.087-.791-.166-1.192q-.212-1.205-.437-2.489c-.079-.426-.145-.862-.237-1.3l-.255-1.126,3.106-1.307-.895-2.023c-.145-.321-.3-.68-.478-1.063l-.241-.5c.158.244.319.489.473.732.5.8.954,1.6,1.42,2.377l.685,1.154c.22.383.414.774.618,1.153l1.175,2.217c.2.354.351.722.522,1.073l.489,1.041c.316.681.633,1.328.911,1.953l.739,1.8.652,1.578c.2.49.344.952.494,1.362l.923,2.59,9.685-3.18s-.377-1.061-1.037-2.916c-.17-.462-.339-.981-.558-1.532l-.731-1.775-.833-2.018c-.311-.7-.665-1.429-1.02-2.193l-.343-.728,7.624-3.179-.3-.682c-.2-.442-.466-1.1-.867-1.914-.566-1.215-1.367-2.792-2.415-4.592l4.375-2.32-.36-.651c-.24-.422-.567-1.056-1.045-1.825a55.9,55.9,0,0,0-4.249-6.162,61.444,61.444,0,0,0-7.25-7.645c-.733-.65-1.5-1.29-2.284-1.92.3.134.6.268.9.406,1.546.742,3.042,1.524,4.446,2.355a53.18,53.18,0,0,1,7.241,5.156,47.654,47.654,0,0,1,4.492,4.365c.519.549.886,1.014,1.152,1.319l.4.471,7.009-5.744-.478-.563c-.316-.363-.758-.916-1.372-1.57a56.678,56.678,0,0,0-5.324-5.172,62.191,62.191,0,0,0-6.051-4.526c.808.251,1.608.509,2.387.784a70.329,70.329,0,0,1,10.508,4.716,63.119,63.119,0,0,1,6.83,4.387c.8.563,1.389,1.058,1.806,1.375l.633.494,7.385-9.1-.75-.588c-.494-.378-1.2-.961-2.142-1.631a74.879,74.879,0,0,0-8.065-5.179c-1.831-1.013-3.868-2.039-6.065-3.025l3.468-6.338c.167.093.318.177.45.247l.653.357,5.624-9.694-.819-.451c-.538-.286-1.308-.747-2.336-1.23-.569-.288-1.215-.6-1.929-.921l1.816-5.6-.724-.22c-.473-.137-1.16-.37-2.054-.591a55.25,55.25,0,0,0-7.463-1.467,60.851,60.851,0,0,0-10.7-.372c-1.287.07-2.6.192-3.924.349l-.367-1.171a60.458,60.458,0,0,1,8.81-1.97,54.071,54.071,0,0,1,7.309-.547c.884-.027,1.576.016,2.049.019l.724.016.449-10.625-.868-.021c-.566-.007-1.4-.052-2.454-.023a64.662,64.662,0,0,0-8.708.653l-.472.071a71.736,71.736,0,0,1,7.578-3.238c.933-.358,1.685-.582,2.19-.757l.778-.259-3.558-11.3-.906.3c-.589.2-1.464.468-2.55.881a83.753,83.753,0,0,0-8.837,3.78,91.162,91.162,0,0,0-11.633,6.943c-.62.437-1.24.89-1.859,1.352l-.018-.054-.626.223c-.406.151-1.013.345-1.757.659a45.493,45.493,0,0,0-6.009,2.906c-.226.131-.457.27-.687.409.484-.593.973-1.179,1.472-1.751,1.464-1.632,2.964-3.185,4.495-4.6a62.722,62.722,0,0,1,9-6.913,55.7,55.7,0,0,1,7.051-3.757c.871-.413,1.582-.669,2.056-.87l.731-.3-4.17-10.887-.887.359c-.575.242-1.436.559-2.489,1.053a67.4,67.4,0,0,0-8.486,4.523,74.414,74.414,0,0,0-10.729,8.235c-1.815,1.679-3.592,3.514-5.32,5.446q-.644.738-1.275,1.5c.337-.588.677-1.17,1.027-1.736a65.6,65.6,0,0,1,7.006-9.345,58.4,58.4,0,0,1,5.932-5.694c.747-.654,1.378-1.108,1.791-1.441l.64-.5-7.186-9.582-.774.6c-.5.4-1.259.955-2.16,1.737a70.4,70.4,0,0,0-7.116,6.832c-1.145,1.268-2.324,2.672-3.5,4.185l-.346-.547-.741.5c-.477.331-1.208.777-2.061,1.445a45.43,45.43,0,0,0-6.631,5.993c-.831.919-1.673,1.924-2.5,3.008l.236-.79q.227-.767.424-1.433c.137-.44.293-.834.417-1.2l.806-2.265-8.364-3.239-.92,2.579c-.141.411-.317.862-.473,1.363s-.312,1.046-.484,1.627-.355,1.2-.548,1.852c-.175.657-.331,1.353-.509,2.078q-.129.544-.265,1.109c-.086.378-.194.759-.259,1.155l-.455,2.445c-.074.42-.163.844-.228,1.276s-.117.873-.176,1.317c-.113.888-.25,1.793-.347,2.718a85.481,85.481,0,0,0-.389,9.7c-.528-1.417-1.02-2.824-1.464-4.2-.252-.793-.47-1.581-.7-2.348l-.337-1.138c-.106-.377-.193-.753-.289-1.121l-.547-2.152c-.173-.7-.3-1.377-.444-2.026s-.278-1.273-.394-1.867-.2-1.163-.293-1.7l-.259-1.491c-.076-.461-.122-.888-.176-1.272l-.322-2.414-8.861,1s.129.965.353,2.653c.06.422.112.89.194,1.4s.182,1.052.283,1.636l.323,1.861c.127.652.281,1.335.43,2.048s.3,1.459.488,2.222.393,1.55.6,2.36c.105.4.2.817.319,1.229l.367,1.248c.118.394.234.794.352,1.2l-4.235,1.446q-1.377-.7-2.743-1.328c-.9-.411-1.811-.772-2.69-1.148l-1.307-.548c-.433-.174-.872-.319-1.3-.477l-2.5-.9c-.4-.154-.81-.257-1.2-.381l-1.167-.349c-.763-.224-1.49-.453-2.19-.644l-2-.483-1.763-.422c-.547-.123-1.056-.2-1.513-.288l-2.876-.521-1.443,9.442,2.512.458c.4.077.844.141,1.322.249l1.543.372,1.755.42c.613.167,1.251.371,1.921.568l1.024.305c.346.109.707.2,1.058.333l2.195.789c.376.139.762.264,1.143.417l1.15.485c.773.332,1.573.647,2.369,1.008q1.246.575,2.507,1.219a65.007,65.007,0,0,0-9.875-1.644,59.471,59.471,0,0,0-7.349-.174c-.889.018-1.586.084-2.062.111l-.729.049.75,8.982.618-.04c.4-.022.994-.081,1.749-.094.317-.014.669-.024,1.042-.031l-.447,7.239,2.085.158c.332.027.7.048,1.1.087l1.291.134,1.468.152,1.623.211c1.179.144,2.458.337,3.807.565-.155.007-.314.013-.467.021-.675.031-1.322.052-1.937.087l-1.745.133-1.533.118c-.474.041-.907.1-1.3.138l-2.464.275,1.017,7.907c-.1.041-.2.084-.292.121l-1.981.825,2.667,5.965c-.339.236-.67.472-1,.7-.589.414-1.161.8-1.69,1.189l-1.475,1.143-1.3,1.007c-.4.316-.741.631-1.062.9l-2,1.73,5.845,6.421,1.767-1.523c.283-.24.585-.519.936-.8l1.145-.888,1.3-1.012c.469-.343.976-.684,1.5-1.051s1.058-.758,1.639-1.126l1.807-1.128c.311-.191.62-.4.945-.584l1-.553c.674-.369,1.351-.766,2.058-1.136.481-.248.973-.491,1.47-.732-1.478,1.024-2.9,2.086-4.227,3.166-.639.525-1.243,1.073-1.846,1.593l-.89.778c-.289.261-.558.536-.833.8l-1.584,1.544c-.507.5-.959,1.028-1.413,1.511s-.884.952-1.281,1.408l-1.091,1.329-.957,1.17c-.29.366-.533.721-.765,1.032l-1.433,1.971,6.563,4.489,1.249-1.714c.2-.271.41-.581.664-.9l.462-.563c-.373.527-.715,1.056-1.059,1.555-.4.6-.794,1.164-1.148,1.715l-.964,1.594-.845,1.4c-.256.437-.464.853-.667,1.222l-1.246,2.329,7.751,3.9,1.1-2.055c.179-.325.36-.694.587-1.08l.75-1.239.851-1.411c.314-.488.664-.989,1.019-1.518s.715-1.087,1.124-1.64l1.278-1.7c.221-.291.436-.593.671-.885l.729-.875C1029.474,179.857,1029.962,179.243,1030.488,178.644Zm25.216.529c-.09.741-.188,1.471-.294,2.184-.256,1.6-.524,3.113-.81,4.5.169-1.37.368-2.749.6-4.124Q1055.433,180.447,1055.7,179.172Z" transform="translate(-985.472 -76.46)"/><path class="c" d="M1066.7,173.106q-.122-.5-.236-1.007l.007.019.413.935.364.822c.115.253.234.479.335.686l.644,1.3,3.776-1.977c1,2.1,1.97,4.047,2.848,5.692l.63,1.194.586,1.068c.366.671.688,1.255.964,1.729l.855,1.5,5.1-2.968-.821-1.439c-.265-.456-.575-1.016-.926-1.661l-.562-1.025-.606-1.147c-.851-1.594-1.787-3.485-2.763-5.523s-1.94-4.248-2.867-6.472q-.364-.885-.715-1.772.382.392.771.78a78.909,78.909,0,0,0,6.888,5.96c.579.439,1.167.849,1.732,1.262l.843.608c.28.2.567.376.844.562l1.624,1.067c.527.341,1.057.638,1.555.941s.978.588,1.439.85l1.329.714,1.17.626c.363.19.707.344,1.013.494l1.928.924,2.913-6.446-1.728-.83c-.274-.135-.583-.271-.908-.442l-1.049-.564-1.194-.64c-.414-.236-.842-.5-1.293-.765s-.924-.537-1.4-.844l-1.461-.961c-.25-.166-.508-.327-.76-.5l-.758-.548c-.152-.112-.308-.223-.464-.334l2.874-2.252-.892-1.1c-.143-.175-.3-.372-.473-.58l-.574-.669-.654-.76-.747-.822c-1.034-1.154-2.311-2.434-3.711-3.769-.928-.867-1.921-1.744-2.95-2.608.727.273,1.451.558,2.162.858a38.389,38.389,0,0,1,5.912,3.055,25.966,25.966,0,0,1,4.379,3.506,19.32,19.32,0,0,1,2.442,2.971l.333.513.226.389.189.323,5.13-2.823-.253-.435-.305-.521-.441-.684a25.261,25.261,0,0,0-1.626-2.173l.228.133.882.512c.288.173.562.359.839.535l1.6,1.032c.263.161.5.347.746.516l.712.506c.463.333.914.643,1.332.953l1.162.911,1.022.8c.313.25.585.5.839.714l1.583,1.363,5.181-5.733-1.772-1.528c-.284-.24-.59-.518-.94-.8l-1.143-.9-1.3-1.018-.294-.214,3.9-5.593-1.788-1.179c-.287-.185-.6-.4-.947-.614l-1.145-.674-1.3-.764c-.466-.256-.965-.507-1.481-.779l-.792-.412c-.271-.137-.54-.291-.828-.416l-1.768-.811c-.3-.137-.609-.285-.925-.417l-.825-.33.53-2.539-1.673-.318c-.266-.048-.56-.11-.883-.162l-.419-.064c.224.006.449.011.67.02.723.032,1.432.1,2.127.139l1.031.071c.339.028.672.076,1,.113l1.919.224c.311.029.611.093.908.139l.873.145c.57.1,1.118.179,1.636.276l1.462.317,1.285.277c.4.09.753.2,1.079.282l2.045.546,2.218-7.528-2.3-.618c-.367-.095-.77-.214-1.215-.316l-1.445-.313-1.643-.354c-.581-.11-1.2-.2-1.836-.312l-.611-.1,1.318-6.221-.562-.109c-.367-.067-.9-.187-1.592-.287-1.017-.172-2.367-.354-3.966-.476l.442-3.787-.57-.056c-.372-.032-.917-.1-1.614-.135a43.054,43.054,0,0,0-5.763,0,47.3,47.3,0,0,0-8.014,1.254q-1.1.271-2.215.608c.217-.132.433-.265.651-.393,1.146-.656,2.3-1.262,3.437-1.789a40.922,40.922,0,0,1,6.432-2.335,36.7,36.7,0,0,1,4.73-.94c.575-.089,1.031-.118,1.34-.154l.474-.049-.577-6.952-.566.057c-.368.041-.911.08-1.595.183a43.653,43.653,0,0,0-5.6,1.114,47.892,47.892,0,0,0-5.514,1.857c.512-.4,1.026-.8,1.54-1.17a54.1,54.1,0,0,1,7.582-4.6,48.609,48.609,0,0,1,5.765-2.411c.707-.261,1.278-.418,1.661-.544l.59-.185-2.54-8.658-.7.218c-.455.148-1.132.338-1.97.645a57.649,57.649,0,0,0-6.807,2.848c-1.442.717-2.983,1.56-4.568,2.522l-2.5-4.968c.132-.065.251-.124.353-.177l.511-.258-3.685-7.8-.644.322c-.417.216-1.045.5-1.8.943-.431.235-.911.509-1.427.82l-2.757-3.6-.456.363c-.294.24-.742.574-1.272,1.043a42.547,42.547,0,0,0-4.192,4.089,46.838,46.838,0,0,0-4.911,6.617c-.518.846-1.015,1.731-1.494,2.639l-.9-.279a46.61,46.61,0,0,1,2.6-6.445,41.6,41.6,0,0,1,2.848-4.871c.369-.572.7-.992.908-1.29l.327-.452-6.538-4.929-.393.541c-.252.356-.644.863-1.087,1.545a49.827,49.827,0,0,0-3.393,5.8c-.054.108-.108.22-.162.33a55.309,55.309,0,0,1,1.26-6.218c.181-.748.367-1.322.478-1.719l.175-.606-8.716-2.683-.205.706c-.13.462-.344,1.132-.557,2a64.494,64.494,0,0,0-1.467,7.253,70.1,70.1,0,0,0-.684,10.407c.005.584.022,1.175.044,1.769l-.042-.012-.132.494c-.082.323-.224.793-.35,1.4a35.02,35.02,0,0,0-.785,5.079c-.016.2-.029.407-.041.614-.164-.566-.322-1.132-.466-1.7-.394-1.641-.723-3.27-.952-4.86a48.277,48.277,0,0,1-.446-8.727,42.905,42.905,0,0,1,.7-6.111c.119-.732.268-1.3.347-1.684l.131-.594-8.723-2.116s-.056.25-.16.719-.273,1.155-.42,2.038a51.906,51.906,0,0,0-.843,7.355,57.26,57.26,0,0,0,.529,10.4c.271,1.885.658,3.813,1.127,5.752q.186.731.39,1.462c-.225-.471-.445-.941-.651-1.41a50.5,50.5,0,0,1-2.86-8.525,44.929,44.929,0,0,1-1.016-6.249c-.088-.759-.1-1.357-.13-1.765s-.038-.625-.038-.625l-9.214.366s.015.263.044.755.055,1.216.157,2.129a54.236,54.236,0,0,0,1.219,7.5c.3,1.28.677,2.641,1.12,4.05l-.5-.02s0,.238-.01.686-.036,1.105.015,1.938a34.925,34.925,0,0,0,.9,6.822c.219.929.488,1.9.812,2.9l-.4-.495-.723-.9c-.219-.279-.4-.55-.575-.787l-1.083-1.5-5.708,3.885,1.232,1.71c.2.27.408.578.657.9l.82,1.018.934,1.157c.34.4.713.8,1.094,1.231l.587.653c.2.22.4.455.619.669l1.351,1.357c.234.231.463.472.709.7l.757.687c.513.46,1.027.943,1.571,1.408a65.837,65.837,0,0,0,5.981,4.488c-1.129-.285-2.236-.588-3.3-.909-.612-.187-1.208-.393-1.794-.582l-.868-.284c-.285-.1-.562-.207-.838-.307l-1.6-.594c-.516-.195-1-.412-1.478-.6s-.927-.38-1.356-.567l-1.2-.555-1.058-.487c-.325-.154-.616-.311-.883-.445l-1.671-.851-3.237,6.055,1.836.936c.293.146.613.318.97.487l1.161.536,1.321.609c.469.2.968.406,1.487.622s1.055.448,1.622.663l1.757.652c.3.11.606.229.918.335l.952.313c.3.1.605.2.912.3l-.935,3.316q-1.044.568-2.04,1.158c-.655.393-1.281.811-1.9,1.2l-.919.589c-.3.2-.583.413-.87.615l-1.66,1.192c-.272.186-.517.4-.768.6l-.732.586c-.476.386-.939.747-1.365,1.107l-1.182,1.059-1.038.933c-.316.293-.588.582-.844.833l-1.588,1.595,5.354,5.042,1.388-1.391c.223-.219.459-.473.736-.729l.91-.815,1.033-.929c.374-.315.782-.631,1.2-.969l.641-.515c.22-.172.433-.362.674-.525l1.459-1.046c.252-.178.5-.368.764-.542l.81-.517c.548-.345,1.1-.715,1.674-1.061q.909-.538,1.868-1.056a50.1,50.1,0,0,0-5.358,5.54,45.829,45.829,0,0,0-3.323,4.582c-.377.571-.64,1.042-.831,1.355l-.288.484,6.021,3.45.245-.409c.163-.265.383-.665.7-1.15.13-.207.278-.434.436-.674l4.393,3.448,1.012-1.252c.162-.2.336-.422.535-.658l.649-.76.738-.864.843-.937c.607-.685,1.288-1.411,2.022-2.165-.063.1-.129.2-.191.305-.276.441-.545.861-.791,1.266l-.678,1.164-.6,1.024c-.181.318-.335.617-.48.883l-.9,1.682,5.456,2.811c-.017.08-.034.163-.051.238l-.343,1.617,4.946.917c0,.318.006.631.005.935.005.555,0,1.086.015,1.591s.055.984.08,1.435.05.871.073,1.261.076.745.107,1.067c.141,1.289.222,2.025.222,2.025l6.625-.9-.194-1.786c-.028-.284-.073-.6-.1-.941s-.04-.716-.062-1.114-.047-.821-.073-1.267-.006-.918-.011-1.408-.018-1,0-1.531.05-1.076.075-1.638c.015-.281.02-.566.043-.854s.056-.579.084-.873c.06-.588.105-1.191.18-1.8.053-.413.114-.832.178-1.252,0,1.385.056,2.748.159,4.063.054.635.137,1.256.2,1.866q.053.457.1.9c.039.3.1.588.142.877q.147.865.287,1.679c.1.541.232,1.057.34,1.556s.217.976.333,1.427l.365,1.272.323,1.118c.1.344.224.653.32.935l.623,1.77,5.714-2.2-.541-1.541c-.083-.246-.189-.514-.28-.814l-.155-.539c.171.468.357.915.523,1.351.2.515.391,1.012.585,1.477l.589,1.308.52,1.149c.165.353.338.667.483.957l.931,1.807,5.857-3.209-.821-1.6c-.128-.255-.282-.532-.428-.844l-.458-1.017-.523-1.156c-.172-.412-.336-.853-.517-1.309s-.377-.928-.548-1.429l-.52-1.554c-.087-.267-.186-.535-.267-.812s-.156-.559-.236-.844C1067.023,174.28,1066.848,173.7,1066.7,173.106Zm11.357-15.75c.429.381.85.762,1.255,1.141.9.86,1.744,1.692,2.5,2.48-.794-.706-1.582-1.435-2.353-2.181Q1078.744,158.085,1078.055,157.357Z" transform="translate(-990.401 -79.41)"/></g></g></svg>