<svg xmlns="http://www.w3.org/2000/svg" width="548.261" height="426.457" viewBox="0 0 548.261 426.457"><defs><style>.a{fill:#fff;}</style></defs><g transform="translate(-1397.596 -1373.493)"><path class="a" d="M715.946,604.169a41.472,41.472,0,0,0-.558-6.852,36.9,36.9,0,0,0-10.737-20.278c-.834-.832-1.669-1.573-2.5-2.314a23.808,23.808,0,0,0,.094-2.592A19.6,19.6,0,0,0,682.615,552.5a21,21,0,0,0-5.463.739,25.768,25.768,0,0,0-3.8-5.183,20.654,20.654,0,0,0,1.48-6.853v-.926a23.745,23.745,0,0,0-.094-2.592,21.132,21.132,0,0,0-1.295-4.907,19.561,19.561,0,0,0-3.333-5.278,11.107,11.107,0,0,0-1.021-1.111,18.933,18.933,0,0,0-13.886-5.739,21.142,21.142,0,0,0-4.168.463,25.607,25.607,0,0,0-25.461-23.427,18.621,18.621,0,0,0-2.316.093c.094-.185.094-.369.189-.463a24.372,24.372,0,0,0,.552-5.278,20.891,20.891,0,0,0-6.389-15.368,20.661,20.661,0,0,0-15.276-6.3,21.655,21.655,0,0,0-3.516.278,19.814,19.814,0,0,0-10.465,4.815,26.39,26.39,0,0,0-1.667-3.7,22.882,22.882,0,0,0-2.592-3.518,15,15,0,0,0,4.076-10.185,13.283,13.283,0,0,0-4.076-9.72,13.543,13.543,0,0,0-5.554-3.427,14.923,14.923,0,0,0-4.074-.556,13.6,13.6,0,0,0-13.7,13.7,19.134,19.134,0,0,0,.187,2.406,22.471,22.471,0,0,0-11.111,6.3,22.226,22.226,0,0,0-4.442,6.111,19.293,19.293,0,0,0-3.151-4.076,13.839,13.839,0,0,0-4.164-2.96,13.992,13.992,0,0,0-6.575-1.482,14.515,14.515,0,0,0-2.87.276,29.923,29.923,0,0,0-5.648-7.684,30.467,30.467,0,0,0-6.853-5.185,28.9,28.9,0,0,0-14.629-3.7,10.082,10.082,0,0,0-1.667.093,39.732,39.732,0,0,0-4.907.556,29.223,29.223,0,0,0-14.905,8.24c-.091.093-.091.093-.091.187a29.056,29.056,0,0,0-8.8,21.295,30.357,30.357,0,0,0,2.406,12.036,13.063,13.063,0,0,0-7.317,3.8,12.916,12.916,0,0,0-2.775,3.979,29.31,29.31,0,0,0-35.092,1.76c-.648.556-1.389,1.111-2.038,1.758a28.329,28.329,0,0,0-6.017,8.7,18.143,18.143,0,0,0-1.3,3.518,30.953,30.953,0,0,0-1.2,7.314v1.2A28.533,28.533,0,0,0,423,539.264c.369.463.741,1.017,1.2,1.573a5.851,5.851,0,0,0-.652,1.295,12.3,12.3,0,0,0-1.295,5.556,12.981,12.981,0,0,0,1.295,5.648,10.542,10.542,0,0,0-1.015.926,18.518,18.518,0,0,0-5.465,13.425,18.814,18.814,0,0,0,18.888,18.89,22.732,22.732,0,0,0,4.446-.463,23.892,23.892,0,0,0-3.147,2.221,34.469,34.469,0,0,0-3.89,3.425,37.156,37.156,0,0,0-4.631,5.556,36.667,36.667,0,0,0-6.386,15.461,41.981,41.981,0,0,0-.558,6.945,38.094,38.094,0,0,0,8.8,24.907q1.253,1.526,2.779,3.055c.28.278.648.648,1.017,1.019l.094.093.369-.371v.741a45.569,45.569,0,0,0,1.115,8.8,37.449,37.449,0,0,0,10.459,18.425,39.652,39.652,0,0,0,51.294,4.166c.091-.093.185-.185.28-.185a.336.336,0,0,0-.094.278,33.036,33.036,0,0,0,30.646,45.185,37.71,37.71,0,0,0,4.631-.28,49.682,49.682,0,0,0,8.238,10.741,47.777,47.777,0,0,0,81.574-33.8,50.44,50.44,0,0,0-.649-8.518,18.763,18.763,0,0,0,13.981-5.926,19.223,19.223,0,0,0,4.628-6.758,30.2,30.2,0,0,0,43.33-20.278h.374a19.6,19.6,0,0,0,19.44-19.444,18.4,18.4,0,0,0-1.758-8.147c.835-.741,1.573-1.48,2.316-2.223A36.853,36.853,0,0,0,715.946,604.169Zm-131.476-125,.187.187c0,.091,0,.091-.094.183l-.093.093.093.093.371.278a2.773,2.773,0,0,0-.463,1.389Z" transform="translate(1614.333 765.007) rotate(40)"/><g transform="translate(1657.026 1209.759) rotate(40)"><path d="M570.485,517.364c-2.623-4.305-3.051-6.05-2.4-10.852a20.3,20.3,0,0,0-2.175-11.376c-3.89-8.157-13.182-11.247-21.541-9.9-.71.117-1,2.345-1.389,2.406,15.619-2.514,27.823,11.517,22.35,26.747a.247.247,0,0,0-.035.2,37.258,37.258,0,0,1,3.8,5.185c-.124-.2,1.7-1.888,1.389-2.406Z" transform="translate(-211.241 -278.671)"/><path d="M561.561,502.438a18.786,18.786,0,0,0-6.815,3.542,4.786,4.786,0,0,0-.939,1.434c-.052.094-.435,1-.337.924a18.48,18.48,0,0,1,6.7-3.494c.333-.091.663-.873.815-1.132.059-.1.541-1.265.574-1.275Z" transform="translate(-202.317 -263.746)"/><path d="M583.475,524.248c.909-14.335-10.815-24.74-25.005-21.543-.732.165-.958,2.308-1.389,2.406,14.075-3.172,25.9,7.027,24.99,21.421.026-.391,1.356-1.51,1.4-2.284Z" transform="translate(-199.225 -264.013)"/><path d="M562.428,532.983c8.744-2.247,15.142-10.091,16.487-18.916-.065.432-1.284,1.495-1.4,2.284-1.13,7.427-6.673,12.423-13.694,14.225-.743.193-.937,2.292-1.389,2.406Z" transform="translate(-194.666 -253.832)"/><path d="M570.833,575.117c17.906-17.2,20.383-43.275,1.147-61.083-.007-.007-1.682,2.134-1.389,2.406,16.708,15.467,19,39.525,1.519,56.318-.585.563-.928,2.025-1.276,2.358Z" transform="translate(-187.737 -253.86)"/><path d="M504.672,462.23c-9.874-17.1-34.344-23.169-48.766-7.556-9.231,10-12.545,22.649-7.714,35.8-.141-.38,1.639-1.725,1.389-2.406-6.615-18.006,2.844-36.291,22.075-39.677,13.214-2.327,25.189,5.106,31.626,16.25-.13-.224,1.7-1.867,1.389-2.406Z" transform="translate(-293.938 -312.145)"/><path d="M464.1,474.976c-28.692-18.1-60.894,18.529-40.648,45-.089-.117,1.714-1.984,1.389-2.406-9.718-12.7-8.425-30.177,5.328-40.405,9.544-7.1,23-5.793,32.541.222.146.091,1.6-2.279,1.389-2.406Z" transform="translate(-318.55 -291.279)"/><path d="M453.2,468.552c-5.461,1.023-9.087,4.918-11.365,9.783-.2.428-.1.478.17.1a10.705,10.705,0,0,0,.984-1.7c1.5-3.2,5.554-5.163,8.822-5.774.719-.135.98-2.331,1.389-2.406Z" transform="translate(-297.56 -292.634)"/><path d="M462.729,475.467c-3.194-5.018-8.227-7.634-14.164-6.852-.7.091-1.024,2.358-1.389,2.406,5.937-.784,10.971,1.834,14.164,6.852-.119-.189,1.708-1.908,1.389-2.406Z" transform="translate(-292.92 -292.697)"/><path d="M442.39,474.735a13.993,13.993,0,0,0-.209,11.324c-.141-.343,1.656-1.754,1.389-2.406a13.215,13.215,0,0,1-.026-10.52c.2-.432.1-.482-.17-.1a10.035,10.035,0,0,0-.984,1.7Z" transform="translate(-298.111 -289.034)"/><path d="M438.27,493.524c-6.521-2.581-13.086-.261-16.836,5.535-.248.382-1.426,2.773-.5,1.336,3.47-5.363,10.265-6.71,15.943-4.465.311.124,1.462-2.379,1.389-2.406Z" transform="translate(-315.588 -272.238)"/><path d="M421.962,496.791c-2.555,4.368-3.3,9.038-1.221,13.775-.145-.324,1.665-1.777,1.389-2.406-1.534-3.486-1.93-7.8.074-11.228.795-1.363.554-1.5-.243-.141Z" transform="translate(-316.483 -269.373)"/><path d="M424.275,502.5c-14.763,13.425-6.006,38.519,15.519,35.157.706-.107,1-2.343,1.389-2.406-6.914,1.08-12.675-.339-17.869-5.091-6.951-6.356-7.534-18.738-.315-25.3.6-.543.93-2.043,1.276-2.358Z" transform="translate(-318.686 -263.692)"/><path d="M420.2,504.894a13.306,13.306,0,0,0,10.924,7.314c.565.046,1.2-2.421,1.389-2.406a13.31,13.31,0,0,1-10.924-7.314c.135.258-1.693,1.836-1.389,2.406Z" transform="translate(-315.944 -263.703)"/><path d="M458.422,517.5a41.186,41.186,0,0,0-27.834,5.395c-.654.4-.961,2.166-1.276,2.358a40.962,40.962,0,0,1,27.721-5.346c.515.076,1.258-2.425,1.389-2.406Z" transform="translate(-308.148 -251.314)"/><path d="M438.994,520.194c-22.432,15.344-26.656,45.666-6.889,65.434-.019-.017,1.693-2.1,1.389-2.4-17.619-17.621-17.9-45.54,4.224-60.672.643-.441.948-2.134,1.276-2.358Z" transform="translate(-316.554 -248.608)"/><path d="M545.426,485.08c4.47-20.474-18.2-35.427-34.97-22.352-.628.489-.937,2.093-1.276,2.358,16.745-13.053,39.3,1.84,34.842,22.276.1-.456,1.232-1.493,1.4-2.282Z" transform="translate(-240.06 -301.785)"/><path d="M557.163,495.925a25.879,25.879,0,0,0-27.782-23.392c-.665.046-1.069,2.382-1.389,2.406a25.855,25.855,0,0,1,27.767,23.268c-.03-.291,1.48-1.567,1.4-2.282Z" transform="translate(-224.023 -289.3)"/><path d="M522.513,476.5a9.955,9.955,0,0,1-.276-1.2c.011.063-.746,1.012-.815,1.132-.169.289-.639.91-.574,1.273a9.825,9.825,0,0,0,.276,1.2c-.005-.015.761-1.043.817-1.134.141-.246.671-.954.572-1.273Z" transform="translate(-230.118 -286.881)"/><path d="M522.926,476.325c-.509-.734-.989-1.48-1.482-2.225a9.74,9.74,0,0,0-.817,1.136c-.095.167-.713,1.058-.572,1.271.493.745.973,1.491,1.482,2.223a8.923,8.923,0,0,0,.813-1.134c.094-.161.719-1.065.576-1.271Z" transform="translate(-230.807 -287.906)"/><path d="M535.449,472.5a25.635,25.635,0,0,0-13.3,5.207c-.63.48-.937,2.1-1.276,2.358a25.453,25.453,0,0,1,13.184-5.159c.68-.069,1.048-2.375,1.389-2.406Z" transform="translate(-230.09 -289.267)"/><path d="M522.186,493.292a23.859,23.859,0,0,0,.5-17.143c.137.4-1.628,1.71-1.389,2.406a23.278,23.278,0,0,1-.43,16.745,12.47,12.47,0,0,0,1.321-2.008Z" transform="translate(-230.102 -286.157)"/><path d="M523.192,474.912a26.172,26.172,0,0,0-4.257-7.223q-.617,1.142-1.234,2.277c6.762-8.5,7.753-20.965-4.322-25.607-11.089-4.264-20.052,8.168-18.988,17.9-.031-.289,1.48-1.569,1.4-2.284-1.11-10.167,7.392-15.042,16.195-13.21,9.057,1.886,12.165,14.294,6.789,21.058-.209.259-1.486,1.971-1.234,2.275a26.172,26.172,0,0,1,4.257,7.223c-.141-.354,1.652-1.747,1.389-2.406Z" transform="translate(-252.741 -313.994)"/><path d="M494.359,454.764a14.278,14.278,0,0,0,5.739,8.888c.083.061,1.641-2.217,1.389-2.406a14.278,14.278,0,0,1-5.739-8.888c.011.059-.748,1.017-.815,1.132-.165.287-.643.917-.574,1.275Z" transform="translate(-252.701 -306.439)"/><path d="M483.194,454.607c-5.463.984-9.372,4.9-11.8,9.711-.773,1.532.7-.687.908-1.091,1.688-3.347,5.993-5.58,9.5-6.213.717-.13.986-2.334,1.389-2.406Z" transform="translate(-272.46 -304.522)"/><path d="M510.616,452.358c-7.568,2.025-12.912,7.108-16.55,13.864l.995-1.458c-3.825-6.026-9.533-9.32-16.758-8.24-.706.106-1.01,2.349-1.389,2.406,7.225-1.078,12.932,2.214,16.758,8.24a16.378,16.378,0,0,0,.995-1.456,22.892,22.892,0,0,1,14.561-10.95c.745-.2.93-2.282,1.389-2.406Z" transform="translate(-267.568 -306.439)"/><path d="M512.275,460.47a20.574,20.574,0,0,0-4.281,4.679,8.383,8.383,0,0,0-.908,1.671c-.187.508.367-.265.415-.335a16.548,16.548,0,0,1,3.5-3.657,4.756,4.756,0,0,0,.937-1.432c.054-.1.437-1,.339-.926Z" transform="translate(-241.878 -299.528)"/><path d="M541.17,508.632c-11.034-6.3-26.413-.989-32.726,9.518-5.928,9.87-6.7,21.128.228,30.852-.1-.143,1.712-1.953,1.389-2.406-7.751-10.881-6.851-25.292,4.776-33.979,6.543-4.889,17.818-5.648,24.944-1.578a6.218,6.218,0,0,0,1.389-2.406Z" transform="translate(-244.702 -260.775)"/><path d="M481.519,553.8c6.782-12.717,2.651-28.2-11.361-33.819-.309-.122-1.465,2.375-1.389,2.406,12.5,5.017,18.716,19.605,12.151,31.919-.917,1.719.183.276.6-.506Z" transform="translate(-274.514 -248.792)"/><path d="M506.418,530.284a25.892,25.892,0,0,0,18.24,9.905c.565.048,1.2-2.419,1.389-2.406a25.9,25.9,0,0,1-18.24-9.905c.074.091-1.71,2.012-1.389,2.406Z" transform="translate(-242.448 -242.058)"/><path d="M544.478,487.287a17.727,17.727,0,0,0-.1-2.193c.011.089-.737,1-.813,1.136-.18.307-.622.891-.576,1.271a16.769,16.769,0,0,1,.087,2.069c0,.156.584-.672.634-.756.232-.376.771-1.06.771-1.526Z" transform="translate(-211.243 -278.532)"/><path d="M504.908,541.129A26.89,26.89,0,0,0,520,558.63c.259.12,1.506-2.351,1.389-2.4a26.9,26.9,0,0,1-15.092-17.5c.122.467-1.584,1.658-1.389,2.406Z" transform="translate(-243.715 -232.812)"/><path d="M517.862,575.016a20.476,20.476,0,0,0,17.869,10.739c.622,0,1.13-2.406,1.389-2.406a20.476,20.476,0,0,1-17.869-10.739c.13.23-1.7,1.864-1.389,2.406Z" transform="translate(-232.688 -203.923)"/><path d="M533.755,571.067a33.759,33.759,0,0,0,7.038,5.372,6.237,6.237,0,0,0,1.389-2.406,33.758,33.758,0,0,1-7.038-5.372c.015.015-1.691,2.11-1.389,2.406Z" transform="translate(-219.14 -207.29)"/><path d="M537.542,583.271c19.405,9.414,39.9-2.775,44.729-22.623-.115.465-1.213,1.5-1.4,2.284-4.624,19.012-25.713,25.8-41.935,17.932-.245-.119-1.519,2.342-1.389,2.406Z" transform="translate(-215.889 -214.121)"/><path d="M527.492,586.581c9.374-.239,16.23-6.413,19.883-14.687.441-1-1.008,1.271-1.154,1.6-2.986,6.764-10.257,10.5-17.339,10.678-.639.019-1.108,2.4-1.389,2.406Z" transform="translate(-224.449 -204.749)"/><path d="M508.6,528.932a28.8,28.8,0,0,0-3.351,21.363c-.113-.485,1.569-1.639,1.389-2.406-1.465-6.295-1.06-13.108,2.2-18.818.782-1.371.541-1.51-.243-.139Z" transform="translate(-244.061 -241.978)"/><path d="M508.044,543.5c-7.156-.63-12.636,4.068-14.542,10.772.135-.478,1.182-1.5,1.4-2.284,1.395-4.907,7.31-6.473,11.749-6.082.561.052,1.21-2.419,1.389-2.406Z" transform="translate(-253.426 -228.791)"/><path d="M509.893,538.737c-4.1,2.549-6.88,6.284-9.057,10.522-.782,1.523.7-.691.911-1.095a18.562,18.562,0,0,1,6.869-7.069c.652-.406.958-2.162,1.276-2.358Z" transform="translate(-247.366 -232.8)"/><path d="M501.9,548.181a20.467,20.467,0,0,0-15.335,3.171c-.645.437-.948,2.136-1.274,2.358a20.285,20.285,0,0,1,15.22-3.123c.487.087,1.289-2.425,1.389-2.406Z" transform="translate(-260.427 -225.048)"/><path d="M493.7,550.337a12.671,12.671,0,0,0,.563,8.21c-.143-.337,1.662-1.766,1.389-2.406a12.523,12.523,0,0,1-.548-8.088c-.119.467-1.206,1.495-1.4,2.284Z" transform="translate(-253.623 -224.858)"/><path d="M511.032,560.247c2.892-7.342-1.078-15.279-9.04-16.774-.48-.089-1.295,2.425-1.389,2.406a11.987,11.987,0,0,1,9.109,16.376,11.078,11.078,0,0,0,1.321-2.008Z" transform="translate(-247.373 -228.766)"/><path d="M470.347,549.049a39.358,39.358,0,0,0,9.276-9.494c.254-.38,1.445-2.76.5-1.336a35.87,35.87,0,0,1-8.5,8.472c-.63.478-.937,2.1-1.273,2.358Z" transform="translate(-273.166 -233.625)"/><path d="M486.16,558.086a30.655,30.655,0,0,0,.926-8.333c0,.354-1.4,1.523-1.4,2.282a30.635,30.635,0,0,1-.926,8.333,5.231,5.231,0,0,0,.634-.754,6.167,6.167,0,0,0,.771-1.528Z" transform="translate(-260.883 -223.409)"/><path d="M495.305,560.01a24.425,24.425,0,0,0-18.8-22.286c-.439-.1-1.339,2.419-1.389,2.406A24.381,24.381,0,0,1,493.9,562.292c-.022-.313,1.458-1.552,1.4-2.282Z" transform="translate(-269.103 -233.666)"/><path d="M479.362,606.186c11.71-1.8,20.613-9.44,26.085-19.7.917-1.721-.182-.278-.6.506a32.871,32.871,0,0,1-24.1,16.784c-.708.109-1.006,2.347-1.389,2.406Z" transform="translate(-265.48 -192.779)"/><path d="M461.31,573.336c-8.52,24.079,9.846,47.426,35.242,45.1.676-.061,1.054-2.375,1.389-2.406-24.95,2.28-43.871-20.505-35.311-44.707a9.386,9.386,0,0,0-1.321,2.008Z" transform="translate(-282.67 -205.035)"/><path d="M479.379,612.387c14.65,24.385,45.8,32.273,69.616,16.076,16.245-11.043,23.521-31.083,20.935-50.055.076.563-1.5,1.588-1.389,2.406,3.624,26.6-13.538,50.077-40.187,53.6-19.6,2.593-37.658-7.912-47.585-24.437.126.209-1.7,1.884-1.389,2.406Z" transform="translate(-265.497 -198.98)"/><path d="M447.619,535.188c-13.175,8.257-21.341,21.919-21.341,37.6,0-.354,1.4-1.525,1.4-2.282,0-13.924,7.03-25.668,18.66-32.956.652-.407.958-2.158,1.276-2.358Z" transform="translate(-310.735 -235.826)"/><path d="M426.278,556.533c1.576,31.706,36.587,49.555,62.933,31.424.643-.441.947-2.13,1.274-2.356-26.315,18.108-61.235.206-62.8-31.35.018.326-1.439,1.543-1.4,2.282Z" transform="translate(-310.735 -219.575)"/><path d="M455.867,564.33c.465,6.808,3.277,12.221,8.064,17.006-.019-.019,1.693-2.1,1.389-2.406-4.761-4.757-7.584-10.083-8.049-16.882.022.315-1.452,1.551-1.4,2.282Z" transform="translate(-285.511 -212.927)"/><path d="M460.28,573.627c.074-.054.146-.107.22-.159.193-.424.382-.85.574-1.273a3.949,3.949,0,0,0-.674,1.488c-.009.141.582-.667.634-.754a4.283,4.283,0,0,0,.771-1.528l.011-.139c-.193.4-.387.806-.58,1.212.026-.046.052-.095.082-.139.076-.131.493-1.239.572-1.273a.788.788,0,0,0-.335.209,5.324,5.324,0,0,0-.935,1.43,5.737,5.737,0,0,0-.363.752c.011-.028-.113.3.024.174Z" transform="translate(-281.803 -205.244)"/><path d="M460.223,573.568a.177.177,0,0,1,.183.093c.022.018,1.677-2.156,1.389-2.406a.177.177,0,0,0-.183-.093c-.241-.031-.728.98-.817,1.132a7.87,7.87,0,0,0-.572,1.275Z" transform="translate(-281.802 -205.159)"/><path d="M460.334,573.618a24.136,24.136,0,0,0,15.833,5.924c.608.011,1.143-2.41,1.389-2.406a24.135,24.135,0,0,1-15.833-5.924c-.03-.028-1.669,2.166-1.389,2.406Z" transform="translate(-281.729 -205.116)"/><path d="M560.929,575.719c14.946,0,25.163-16.495,19.444-30,.141.335-1.662,1.763-1.389,2.406,5.246,12.391-3.286,25.185-16.665,25.185-.622,0-1.13,2.406-1.389,2.406Z" transform="translate(-195.944 -226.846)"/><path d="M551.747,557.223a19.712,19.712,0,0,0,17.038,10.741c.593.024,1.167-2.416,1.389-2.406a19.716,19.716,0,0,1-17.038-10.741c.139.269-1.688,1.825-1.389,2.406Z" transform="translate(-203.799 -219.092)"/><path d="M562.228,556.171a40.162,40.162,0,0,0,15.7-8.079c.619-.508.936-2.079,1.276-2.358a39.943,39.943,0,0,1-15.591,8.031c-.741.191-.935,2.29-1.389,2.406Z" transform="translate(-194.836 -226.835)"/><path d="M556.88,417.266c-29.051,42.46-42.037,93.826-49.834,144.025.067-.432,1.28-1.495,1.4-2.282,7.562-48.69,19.735-99.191,47.939-140.407.256-.378,1.462-2.749.491-1.336Z" transform="translate(-241.879 -336.735)"/><path d="M566.294,394.637c-37.526,66.094-59.658,138.986-67.244,214.534.039-.406,1.325-1.5,1.4-2.284,7.488-74.554,29.018-146.832,66.081-212.111.778-1.373.539-1.514-.241-.139Z" transform="translate(-248.696 -356.468)"/><path d="M563.572,431.243c-25.67,31.565-41,69.5-50.129,108.876.107-.461,1.221-1.495,1.4-2.284,8.748-37.713,23.014-74.152,47.647-104.445a10.732,10.732,0,0,0,1.078-2.147Z" transform="translate(-236.426 -324.451)"/><path d="M391.128,600.131q33.1-19.4,66.2-38.8c.658-.383.967-2.175,1.276-2.356l-66.2,38.8c-.656.383-.965,2.175-1.275,2.356Z" transform="translate(-340.701 -215.544)"/><path d="M395.095,569.267q26.76-7.544,53.515-15.092c.75-.209.923-2.273,1.389-2.406q-26.757,7.547-53.515,15.092c-.748.211-.921,2.275-1.389,2.406Z" transform="translate(-337.319 -221.691)"/><path d="M394.3,579.372q29.627-11.576,59.254-23.149c.763-.3.872-2.2,1.389-2.406q-29.627,11.576-59.254,23.149c-.763.3-.871,2.2-1.389,2.406Z" transform="translate(-338 -219.944)"/></g><path class="a" d="M603.967,437.577a10.139,10.139,0,0,0-4.231-16.387,21.589,21.589,0,0,0,.35-5.193,20.212,20.212,0,0,0-3.157-10.144,21.078,21.078,0,0,0-3.6-4.161,20.34,20.34,0,0,0-14.935-5.47c-.391.018-.847.106-1.239.122a24.49,24.49,0,0,0-7.6-12.819,25.022,25.022,0,0,0-33-.639c-.756.689-1.571,1.449-2.319,2.269a24.976,24.976,0,0,0,1.632,35.316,18.393,18.393,0,0,0,1.773,1.489,22.819,22.819,0,0,0,20.235,35.114,22.254,22.254,0,0,0,9.52-2.473,20.44,20.44,0,0,0,3.818,4.609,18.726,18.726,0,0,0,31.306-14.685,20.864,20.864,0,0,0-.884-4.941,11.55,11.55,0,0,0,2.332-2.008Z" transform="translate(1723.5 781.627) rotate(40)"/><g transform="translate(1885.5 1408.78) rotate(40)"><path d="M568.223,421.022c7.191-5.132,9.259-16.993-.563-20.778-.32-.122-1.456,2.382-1.389,2.406,6.545,2.521,9.785,11.336,3.231,16.013-.639.456-.945,2.121-1.278,2.358Z" transform="translate(-494.342 -356.469)"/><path d="M570.436,400.457a11.3,11.3,0,0,0-6.036-.115c-.32.069-.676.889-.815,1.134-.052.089-.561,1.269-.574,1.273a11.3,11.3,0,0,1,6.035.115c.365.12,1.412-2.4,1.389-2.406Z" transform="translate(-497.118 -356.682)"/><path d="M559.748,410.485c3.209,4.759,8.849,6.563,14.064,3.853.661-.343.984-2.206,1.278-2.358-5.185,2.694-10.793.787-13.953-3.9.111.165-1.71,1.93-1.389,2.406Z" transform="translate(-499.931 -349.786)"/><path d="M578.056,411.788c2.08-13.655-8.288-26.324-22.588-24.907-.68.067-1.047,2.373-1.389,2.406,14.2-1.408,24.659,11.108,22.575,24.783.065-.43,1.284-1.5,1.4-2.282Z" transform="translate(-504.732 -367.95)"/><path d="M548.828,427.595c13.636,20.331,40.781,3.764,35.628-17.423.115.48-1.575,1.647-1.389,2.406,5.4,22.2-21.963,28.842-32.849,12.612.111.165-1.71,1.927-1.389,2.4Z" transform="translate(-509.241 -348.002)"/><path d="M558.9,386.831a20.03,20.03,0,0,0-7.551,2.336c-.4.219-.735,1.054-.939,1.432-.044.083-.478,1-.339.924a19.714,19.714,0,0,1,7.44-2.286c.3-.031.693-.923.815-1.134.043-.074.595-1.275.574-1.273Z" transform="translate(-508.169 -367.9)"/><path d="M578.177,395.543c-6.026-21.189-31.394-25.259-44.927-8.812-9.35,11.363-6.984,27.576,4.022,36.835.039.033,1.664-2.175,1.389-2.406-15.52-13.058-11.613-37.893,9.709-42.269,13.158-2.7,24.974,6.947,28.417,19.059-.126-.446,1.6-1.673,1.389-2.406Z" transform="translate(-527.441 -376.612)"/><path d="M545.9,395.695a24.222,24.222,0,0,0-12.054,9.5,11.056,11.056,0,0,0-.986,1.7c-.189.424-.1.491.171.1a22.967,22.967,0,0,1,11.48-8.892c.758-.261.889-2.236,1.389-2.406Z" transform="translate(-522.91 -360.344)"/><path d="M549.666,410.668a20.062,20.062,0,0,0,.176,18.082c-.141-.272,1.686-1.821,1.389-2.4a19.337,19.337,0,0,1-.411-17.282c.465-.984-1,1.276-1.154,1.6Z" transform="translate(-510.255 -349.157)"/><path d="M535.106,401.428c-4.626,7.732-5.782,16.121-1.836,24.516,5.45,11.6,20.018,14.768,30.885,9.69.66-.307,1-2.227,1.276-2.356-18.885,8.822-42.347-11.213-30.463-31.076.454-.758,1.137-2.447.137-.774Z" transform="translate(-524.512 -356.065)"/></g><path class="a" d="M427.443,606.758a7.918,7.918,0,0,0-3.3-12.8,17,17,0,0,0,.276-4.057,15.835,15.835,0,0,0-2.468-7.925,16.318,16.318,0,0,0-2.812-3.249,15.891,15.891,0,0,0-11.667-4.276c-.307.015-.661.083-.967.1a19.139,19.139,0,0,0-5.943-10.015,19.542,19.542,0,0,0-25.776-.5c-.593.541-1.228,1.132-1.815,1.775a19.507,19.507,0,0,0,1.278,27.588,13.938,13.938,0,0,0,1.384,1.165,17.825,17.825,0,0,0,15.807,27.43,17.343,17.343,0,0,0,7.438-1.932,15.91,15.91,0,0,0,2.983,3.6,14.629,14.629,0,0,0,24.457-11.473,16.364,16.364,0,0,0-.691-3.859,8.954,8.954,0,0,0,1.821-1.569Z" transform="translate(1519.144 813.183) rotate(40)"/><g transform="translate(1441.647 1477.182) rotate(40)"><path d="M399.452,594.2c5.7-4.061,7.782-13.7-.15-16.752-.32-.122-1.454,2.38-1.389,2.406,4.768,1.838,7.753,8.47,2.818,11.986-.639.458-.945,2.123-1.278,2.36Z" transform="translate(-341.826 -543.099)"/><path d="M401.47,577.618a8.836,8.836,0,0,0-4.715-.091c-.32.067-.674.891-.813,1.134-.054.089-.563,1.271-.576,1.273a8.818,8.818,0,0,1,4.715.091c.365.12,1.414-2.4,1.389-2.406Z" transform="translate(-343.994 -543.266)"/><path d="M392.823,585.979a8.3,8.3,0,0,0,11,3c.661-.344.984-2.206,1.278-2.36-4.042,2.1-8.425.6-10.887-3.049.109.165-1.712,1.93-1.389,2.406Z" transform="translate(-346.195 -537.877)"/><path d="M407.425,586.482c1.632-10.672-6.473-20.576-17.647-19.472-.682.068-1.049,2.373-1.389,2.406,11.082-1.1,19.266,8.668,17.632,19.349.065-.432,1.284-1.5,1.4-2.284Z" transform="translate(-349.942 -552.069)"/><path d="M384.29,599.347c10.85,16.178,32.176,2.447,28.138-14.14.115.48-1.575,1.645-1.389,2.406,4.187,17.2-17.06,21.7-25.359,9.328.113.167-1.708,1.928-1.389,2.406Z" transform="translate(-353.468 -536.484)"/><path d="M392.459,566.972a15.73,15.73,0,0,0-5.911,1.832c-.4.219-.734,1.054-.939,1.432-.044.083-.476,1-.337.926a15.367,15.367,0,0,1,5.8-1.784c.3-.03.693-.922.815-1.134.043-.074.593-1.275.574-1.273Z" transform="translate(-352.623 -552.03)"/><path d="M407.471,573.848c-4.7-15.939-25.246-20.617-35.266-6.68-6.778,9.431-6.21,21.352,3.007,29.1.039.035,1.664-2.175,1.389-2.406-11.187-9.405-10.042-27.113,5.176-32.061,10.869-3.536,21.321,4.34,24.3,14.455-.13-.437,1.6-1.678,1.389-2.406Z" transform="translate(-367.635 -558.906)"/><path d="M382.3,573.9a19.061,19.061,0,0,0-9.479,7.488,10.935,10.935,0,0,0-.984,1.7c-.189.426-.1.491.17.1a17.83,17.83,0,0,1,8.9-6.88c.345-.117.652-.85.815-1.134.067-.115.519-1.254.574-1.273Z" transform="translate(-364.141 -546.126)"/><path d="M384.967,586.017a15.757,15.757,0,0,0,.111,14.216c-.139-.272,1.688-1.823,1.389-2.406a15.024,15.024,0,0,1-.346-13.412c.465-.986-1,1.275-1.154,1.6Z" transform="translate(-354.257 -537.37)"/><path d="M373.732,578.545c-3.688,6.165-4.765,12.771-1.6,19.5,4.263,9.07,15.646,11.534,24.142,7.568.66-.309,1-2.229,1.276-2.36a18.385,18.385,0,0,1-18.955-1.684c-6.725-4.759-9.294-15.068-5-22.249.456-.761,1.139-2.449.139-.774Z" transform="translate(-365.393 -542.774)"/></g></g></svg>