<svg xmlns="http://www.w3.org/2000/svg" width="135.093" height="118.603" viewBox="0 0 135.093 118.603"><defs><style>.a{fill:#c48c58;}.b{fill:#a8693f;}.c{fill:#9e623a;}.d{fill:#d39b67;}.e{fill:#b7784e;}.f{fill:#e8ab73;}.g{fill:#809eb4;}.h,.i{fill:#a2cad7;}.i{opacity:0.2;mix-blend-mode:multiply;isolation:isolate;}.j{fill:#b7e0f2;}</style></defs><g transform="translate(-296.539 -258.547)"><g transform="translate(296.539 295.903)"><rect class="a" width="2.694" height="78.769" transform="translate(4.809 2.477)"/><rect class="b" width="2.694" height="78.769" transform="translate(120.424 2.477)"/><rect class="a" width="1.603" height="78.769" transform="translate(38.16 2.477)"/><rect class="b" width="1.603" height="78.769" transform="translate(39.763 2.477)"/><rect class="a" width="34.954" height="7.85" transform="translate(4.809 2.705)"/><rect class="c" width="2.694" height="78.769" transform="translate(88.064 2.477)"/><rect class="b" width="83.355" height="7.85" transform="translate(39.763 2.705)"/><rect class="d" width="40.763" height="5.148"/><rect class="e" width="88.815" height="5.148" transform="translate(39.713)"/><rect class="f" width="128.528" height="1.064"/></g><g transform="translate(360.628 258.547)"><path class="g" d="M386.425,292.736l-44.043-.043,9.293-34.146,44.043.043Z" transform="translate(-324.714 -258.547)"/><rect class="h" width="61.472" height="2.649" transform="translate(0 34.66)"/><path class="h" d="M386,292.4H342.967l9.111-33.476h43.029Z" transform="translate(-324.255 -258.252)"/><path class="g" d="M362.821,269.4a4.719,4.719,0,0,1-4.245,2.95,2.157,2.157,0,0,1-2.276-2.95,4.714,4.714,0,0,1,4.243-2.95A2.158,2.158,0,0,1,362.821,269.4Z" transform="translate(-313.924 -252.356)"/><path class="i" d="M342.967,292.4l9.111-33.476h43.029Z" transform="translate(-324.255 -258.252)"/><rect class="g" width="17.542" height="2.649" transform="translate(0 34.66)"/><rect class="g" width="8.073" height="1.164" transform="translate(23.075 34.154)"/><rect class="g" width="6.908" height="1.164" transform="translate(51.873 34.154)"/><path class="j" d="M352.361,259.347h42.63l.116-.425H352.078L342.967,292.4h.4Z" transform="translate(-324.255 -258.252)"/></g></g></svg>