<svg xmlns="http://www.w3.org/2000/svg" xmlns:xlink="http://www.w3.org/1999/xlink" width="284.013" height="435.153" viewBox="0 0 284.013 435.153"><defs><style>.a{fill:none;}.b{stroke:#707070;fill:url(#a);}.c{clip-path:url(#b);}.d{clip-path:url(#c);}.e{fill:url(#d);}.f{clip-path:url(#e);}.g{fill:url(#f);}.h{clip-path:url(#g);}.i{fill:#fbfbd3;}.j{clip-path:url(#h);}.k{fill:url(#i);}.l{clip-path:url(#j);}.m{fill:url(#k);}.n{clip-path:url(#l);}.o{fill:url(#m);}.p{fill:#fbfdf5;}.q{fill:#9e7f42;}.r{clip-path:url(#o);}.s{fill:url(#p);}.t{fill:#70430d;}.u{clip-path:url(#r);}.v{fill:url(#s);}.w{clip-path:url(#t);}.x{fill:url(#u);}.y{clip-path:url(#v);}.z{fill:url(#w);}.aa{clip-path:url(#x);}.ab{fill:url(#y);}.ac{clip-path:url(#z);}.ad{fill:url(#aa);}.ae{clip-path:url(#ab);}.af{fill:url(#ac);}.ag{clip-path:url(#ad);}.ah{fill:url(#ae);}.ai{clip-path:url(#ag);}.aj{fill:url(#ah);}.ak{fill:#70480d;}.al{clip-path:url(#aj);}.am{fill:url(#ak);}</style><linearGradient id="a" x1="0.5" x2="0.5" y2="1" gradientUnits="objectBoundingBox"><stop offset="0" stop-color="#8f7132"/><stop offset="0.163" stop-color="#fce9a1"/><stop offset="0.36" stop-color="#a17f37"/><stop offset="0.576" stop-color="#f6e39b"/><stop offset="0.808" stop-color="#fce58a"/><stop offset="1" stop-color="#8f7132"/></linearGradient><clipPath id="b"><path class="a" d="M117.758,4.353v43.99l-3.8.486C73.654,53.973,43.8,73.057,25.2,105.547c-5.294,9.255-9.182,23.217-9.182,38.638a87.973,87.973,0,0,0,3.851,25.942c6.664,21.546,21.819,38.57,43.823,49.232,24.368,11.805,48.078,17.66,69,22.825,24.4,6.025,45.478,11.229,59.289,24.09,6.943,6.468,13.613,13.717,13.613,24.972a30.871,30.871,0,0,1-.3,4.208c-1.63,11.863-8.044,21.818-18.55,28.795-19.27,12.8-47.638,13.23-67.2,7.983-37.468-10.047-49.2-35.63-53.519-47.531L5.586,305.912A124.263,124.263,0,0,0,40.3,353.938c25.347,21.422,59.991,28.237,73.71,30.173l3.745.53v45.916H163.6V385.341l4.145-.2c12.695-.605,77.353-6.365,103.62-60.4a86.153,86.153,0,0,0,8.245-37.778c0-19.06-5.379-35.721-9.772-43.49-20.592-36.413-41.369-46.383-93.347-57.853l-16.1-3.22c-32.5-6.195-72.937-13.9-72.937-44.879,0-13.372,10.89-38.658,52.108-38.658,33.3,0,57.683,13.693,70.859,39.611l56.657-23.363C245.045,62.9,190.422,51.65,167.5,49.289l-3.906-.4V4.353Z"/></clipPath><clipPath id="c"><path class="a" d="M42.2,349.13c3.78,4.452,8.712,7.223,22.608,13.421a35.985,35.985,0,0,0,16.988,3.081c-23.273-8.643-38.387-20.491-46.005-30.165A29.414,29.414,0,0,0,42.2,349.13"/></clipPath><linearGradient id="d" x1="-0.62" y1="2.019" x2="-0.601" y2="2.019" gradientUnits="objectBoundingBox"><stop offset="0" stop-color="#854f0f"/><stop offset="0.296" stop-color="#fbfbd3"/><stop offset="0.659" stop-color="#fbfbd3"/><stop offset="0.933" stop-color="#854f0f"/><stop offset="1" stop-color="#854f0f"/></linearGradient><clipPath id="e"><path class="a" d="M265.588,260.145c3.808,11.971,4.093,20.975,3.368,35.484a65.638,65.638,0,0,1-7.617,26.45,60.8,60.8,0,0,0,11.244-20.466c3.009-9.515.907-31.375-3.083-43.525s-11.388-14.509-11.388-14.509,3.667,4.6,7.476,16.566"/></clipPath><linearGradient id="f" x1="-14.766" y1="2.44" x2="-14.709" y2="2.44" gradientUnits="objectBoundingBox"><stop offset="0" stop-color="#854f0f"/><stop offset="0.039" stop-color="#854f0f"/><stop offset="0.492" stop-color="#fbfbd3"/><stop offset="0.866" stop-color="#854f0f"/><stop offset="1" stop-color="#854f0f"/></linearGradient><clipPath id="g"><rect class="a" width="284.013" height="435.152"/></clipPath><clipPath id="h"><path class="a" d="M165.687,337.487a72.728,72.728,0,0,0,19.762-7.349c13.8-7.739,22.16-19.527,24.161-34.088,2.168-15.791-6.43-25.291-14.66-32.959-14.639-13.634-36.221-18.961-61.215-25.134-20.709-5.111-44.186-10.908-68.143-22.516A82.954,82.954,0,0,1,38,194.519,73.014,73.014,0,0,1,24.03,168.841a85.255,85.255,0,0,1-3.086-34.383c1.139-10.18,3.992-19.679,8.038-26.748a104.975,104.975,0,0,1,23.98-29.168c16.374-13.728,37.08-22.271,61.545-25.4l7.6-.97V8.7h37.132v44.11l7.811.8c12.576,1.3,31.439,4.816,49.884,14.224C237.273,78.218,252.2,93.3,261.395,112.75l-48.944,20.183a72.682,72.682,0,0,0-38.872-32.817,98.593,98.593,0,0,0-34.026-5.6c-10.264,0-19.422,1.5-27.22,4.45A47.878,47.878,0,0,0,94.583,110.4a41.473,41.473,0,0,0-9.034,14.286,36.937,36.937,0,0,0-2.456,12.838,33.751,33.751,0,0,0,8.488,22.749c4.612,5.3,10.953,9.713,19.391,13.483,14.284,6.382,32.514,9.857,48.6,12.923,5.67,1.081,11.026,2.1,15.978,3.2,24.123,5.323,43.138,10.634,57.526,19.25a76.042,76.042,0,0,1,17.581,14.459,122.317,122.317,0,0,1,15.388,22.038c2.433,4.3,6.995,15.609,8.645,30.687a94.54,94.54,0,0,1-.189,22.793,77.836,77.836,0,0,1-7.052,23.74A90.223,90.223,0,0,1,243.6,353.076a112.465,112.465,0,0,1-29.94,17.468A150.156,150.156,0,0,1,167.531,380.8l-8.289.4V426.2H122.11V380.861l-7.489-1.057a178.475,178.475,0,0,1-31.091-7.4c-16.164-5.453-29.761-12.782-40.419-21.789a122.584,122.584,0,0,1-25.993-31.04A116.388,116.388,0,0,1,11.353,308.5L63.48,290.208A77.493,77.493,0,0,0,74.774,309.4c10.518,13,25.2,22.092,43.643,27.037a101.738,101.738,0,0,0,25.992,3.319,98.121,98.121,0,0,0,21.278-2.268M113.4,0V44.511c-61.089,7.8-84.342,45.532-91.979,58.876-5.661,9.9-9.711,24.63-9.73,40.76-.033,28.269,12.323,60.825,50.1,79.129,53.2,25.778,102.915,23.55,127.218,46.183,6.9,6.432,12.245,12.539,12.227,21.83a26.532,26.532,0,0,1-.255,3.574c-3.514,25.573-30.415,36.185-56.578,36.185a92.682,92.682,0,0,1-23.739-3.02c-40.325-10.814-48.886-39.939-51.975-48.876l-68.68,24.1a64.861,64.861,0,0,0,3.094,8.136v0a131.215,131.215,0,0,0,34.382,45.87c26.751,22.6,63.294,29.377,75.913,31.159v46.486h54.541V389.492c14.432-.688,80.351-7.348,107.331-62.841a90.06,90.06,0,0,0,8.714-39.59c-.009-20.678-6.184-38.323-10.37-45.722-21.284-37.636-42.846-48.188-96.2-59.962-33.7-7.436-85.623-11.623-85.623-43.849,0-10.487,8.228-34.306,47.754-34.306,49.475,0,64.57,31.483,68.744,40.84l64.528-26.609c-22.019-58.722-81.508-70.087-104.88-72.493V0Z"/></clipPath><linearGradient id="i" x1="0.218" y1="1.031" x2="0.22" y2="1.031" gradientUnits="objectBoundingBox"><stop offset="0" stop-color="#fbfdf5"/><stop offset="0.089" stop-color="#fbfdf5"/><stop offset="0.223" stop-color="#c2a648"/><stop offset="0.318" stop-color="#70430d"/><stop offset="0.503" stop-color="#c2a648"/><stop offset="0.57" stop-color="#fbfdf5"/><stop offset="0.659" stop-color="#fbfdf5"/><stop offset="0.86" stop-color="#c2a648"/><stop offset="0.916" stop-color="#70430d"/><stop offset="1" stop-color="#70430d"/></linearGradient><clipPath id="j"><path class="a" d="M259.224,112.516l-14.267,6.771-32.4,13.057-9.915-11.123L174.581,100.5s9.141,9.3,9.141,14.284c0,0,13.874,8.121,24.66,29.773L273.127,117.9s-5.985-16.505-12.96-24.467c0,0-6.97-8.758-16.93-10.388,3.654,5.051,15.987,29.474,15.987,29.474"/></clipPath><linearGradient id="k" x1="-1.463" y1="3.965" x2="-1.454" y2="3.965" gradientUnits="objectBoundingBox"><stop offset="0" stop-color="#c2a648"/><stop offset="0.14" stop-color="#c2a648"/><stop offset="0.631" stop-color="#59350b"/><stop offset="1" stop-color="#59350b"/></linearGradient><clipPath id="l"><path class="a" d="M105.551,102.118c-14.871,6.166-24.426,24.252-21.764,42.8,3.749,26.116,28.52,19.86,28.52,19.86-21.87-9.944-20.487-24.61-19.451-32.434.871-6.586,5.331-15.336,14.713-21.34,12.37-7.919,30.269-7.765,30.269-7.765-2.2-2.2-8.205-4.432-15.93-4.431a42.79,42.79,0,0,0-16.357,3.31"/></clipPath><linearGradient id="m" x1="-1.43" y1="4.657" x2="-1.413" y2="4.657" gradientUnits="objectBoundingBox"><stop offset="0" stop-color="#70480d"/><stop offset="0.073" stop-color="#70480d"/><stop offset="0.207" stop-color="#f8f0ad"/><stop offset="0.38" stop-color="#70480d"/><stop offset="0.654" stop-color="#4f2f0a"/><stop offset="0.888" stop-color="#70480d"/><stop offset="1" stop-color="#70480d"/></linearGradient><clipPath id="o"><path class="a" d="M23.828,113c-12.477,22.129-8.877,50.178-4.175,68.7,7.444,16.19,20.692,31.18,42.144,41.574,53.2,25.778,102.915,23.55,127.218,46.183a65.4,65.4,0,0,1,6.881,7.25,21.38,21.38,0,0,1,5.7,6.151,31.6,31.6,0,0,1,4.808,14.833c9.447-13.8-11.455-34.6-11.455-34.6s-2.806-7.485-14.86-12.947c-12.219-5.539-33.773-9.08-46.355-12.187-20.709-5.111-44.186-10.908-68.143-22.516A82.954,82.954,0,0,1,38,194.519,73.014,73.014,0,0,1,24.03,168.841a85.255,85.255,0,0,1-3.086-34.383c1.139-10.18,3.992-19.679,8.038-26.748l-1.832-1.048c-.915,1.911-2.011,4.012-3.322,6.337"/></clipPath><linearGradient id="p" x1="-0.001" y1="1.482" x2="0.003" y2="1.482" gradientUnits="objectBoundingBox"><stop offset="0" stop-color="#e0d582"/><stop offset="0.006" stop-color="#e0d582"/><stop offset="0.045" stop-color="#ab7a2e"/><stop offset="0.162" stop-color="#70430d"/><stop offset="0.816" stop-color="#70430d"/><stop offset="0.927" stop-color="#ab7a2e"/><stop offset="1" stop-color="#e0d582"/></linearGradient><clipPath id="r"><path class="a" d="M241.208,93.231c1.542,1.542,10.881,13.239,11.97,16.685l7.617,2.177L229.42,75.639s10.246,16.051,11.788,17.592"/></clipPath><linearGradient id="s" x1="-7.312" y1="9.862" x2="-7.28" y2="9.862" gradientUnits="objectBoundingBox"><stop offset="0" stop-color="#854f0f"/><stop offset="0.279" stop-color="#854f0f"/><stop offset="0.888" stop-color="#59350b"/><stop offset="1" stop-color="#59350b"/></linearGradient><clipPath id="t"><path class="a" d="M79.592,124.132c-1.315,4.724-5.96,18.567,3.168,33.823,0,0,4.293,6.551,15.416,8.969,0,0-15.234-14.993-14.508-26.358s5.077-25.39,5.077-25.39-7.838,4.232-9.153,8.956"/></clipPath><linearGradient id="u" x1="-3" y1="6.184" x2="-2.959" y2="6.184" gradientUnits="objectBoundingBox"><stop offset="0" stop-color="#854f0f"/><stop offset="0.117" stop-color="#854f0f"/><stop offset="0.33" stop-color="#fbfbd3"/><stop offset="0.676" stop-color="#fbfbd3"/><stop offset="0.933" stop-color="#854f0f"/><stop offset="1" stop-color="#854f0f"/></linearGradient><clipPath id="v"><path class="a" d="M172.051,97.04s19.358,9.874,26.24,18.947,11,14.907,11,14.907a21.647,21.647,0,0,0-.43-12.054c-1.147-3.226-8.451-11.039-18.243-16.867-4.769-2.6-13.755-4.945-18.061-4.945-.176,0-.344,0-.505.012"/></clipPath><linearGradient id="w" x1="-3.23" y1="6.722" x2="-3.21" y2="6.722" gradientUnits="objectBoundingBox"><stop offset="0" stop-color="#ab7b30"/><stop offset="0.134" stop-color="#ab7b30"/><stop offset="0.346" stop-color="#fbfbd3"/><stop offset="0.592" stop-color="#fbfbd3"/><stop offset="0.827" stop-color="#966b28"/><stop offset="1" stop-color="#966b28"/></linearGradient><clipPath id="x"><path class="a" d="M258.185,351.349a11.446,11.446,0,0,0,1.183-1.386c-.746.887-1.183,1.386-1.183,1.386m18.844-62.732c-3.3.422-4.506,20.493-4.506,20.493l-12.092,26.357s3.376,8.362-1.063,14.5c3.052-3.628,11.272-13.744,15.936-22.778,5.444-10.549,8.147-22.9,8.147-29.676,0-3.967.558-8.425.562-13.725v-.123a62.947,62.947,0,0,0-1.221-12.533s-2.465,17.066-5.763,17.489"/></clipPath><linearGradient id="y" x1="-9.996" y1="2.045" x2="-9.958" y2="2.045" gradientUnits="objectBoundingBox"><stop offset="0" stop-color="#854f0f"/><stop offset="0.346" stop-color="#4c2e09"/><stop offset="0.587" stop-color="#4f2f0a"/><stop offset="0.86" stop-color="#70430d"/><stop offset="1" stop-color="#70430d"/></linearGradient><clipPath id="z"><path class="a" d="M176.523,324.584c-6.134,2.914-17.533,5.784-28.171,6.289-10.156.483-16.805-.847-20.979-1.349,5.158,5.158,15.356,11.211,36.4,7.636s28.111-11.97,30.433-25.668a55.035,55.035,0,0,1-17.678,13.092"/></clipPath><linearGradient id="aa" x1="-1.705" y1="2.492" x2="-1.691" y2="2.492" gradientUnits="objectBoundingBox"><stop offset="0" stop-color="#fbfdf5"/><stop offset="0.067" stop-color="#fbfdf5"/><stop offset="0.33" stop-color="#9e7f42"/><stop offset="0.553" stop-color="#9e7f42"/><stop offset="0.86" stop-color="#e3db9e"/><stop offset="1" stop-color="#e3db9e"/></linearGradient><clipPath id="ab"><path class="a" d="M27.748,176.207c1.125,4.772,2.42,16.694,17.773,25.659,0,0,1.964,2.035,12.874,2.87,0,0-12.76-9.069-19.359-18.351a60.385,60.385,0,0,1-10.047-22.437s-2.367,7.486-1.241,12.259"/></clipPath><linearGradient id="ac" x1="-0.395" y1="5.411" x2="-0.374" y2="5.411" gradientUnits="objectBoundingBox"><stop offset="0" stop-color="#70430d"/><stop offset="0.117" stop-color="#70430d"/><stop offset="0.33" stop-color="#fbfbd3"/><stop offset="0.676" stop-color="#fbfbd3"/><stop offset="0.933" stop-color="#9e6918"/><stop offset="1" stop-color="#9e6918"/></linearGradient><clipPath id="ad"><path class="a" d="M166.317,340.318a75.606,75.606,0,0,0,20.549-7.648,52.941,52.941,0,0,0,16.781-14.424,46.631,46.631,0,0,0,8.839-21.8A33.921,33.921,0,0,0,208.658,275c-3.093-5.609-7.465-10.062-11.729-14.034-15.192-14.147-37.113-19.558-62.5-25.826-20.575-5.08-43.892-10.837-67.576-22.312a80.073,80.073,0,0,1-26.638-20.182A70.1,70.1,0,0,1,26.8,167.984a82.348,82.348,0,0,1-2.975-33.2c1.08-9.655,3.876-19,7.673-25.631A102.169,102.169,0,0,1,54.827,80.764C70.769,67.4,90.971,59.077,114.874,56.025l10.138-1.3V11.608h31.327V55.432l10.416,1.074c12.331,1.27,30.818,4.716,48.862,13.921,18.776,9.58,32.8,23.284,41.8,40.824l-43.749,18.04a76.307,76.307,0,0,0-15.178-17.946,77.089,77.089,0,0,0-23.912-13.954,101.56,101.56,0,0,0-35.028-5.775c-10.616,0-20.119,1.559-28.248,4.636A50.786,50.786,0,0,0,92.493,108.39a44.37,44.37,0,0,0-9.662,15.283,39.833,39.833,0,0,0-2.639,13.855,36.575,36.575,0,0,0,9.2,24.653c4.9,5.629,11.566,10.283,20.4,14.228,14.591,6.521,33,10.029,49.239,13.125,5.65,1.076,10.985,2.093,15.9,3.177,23.849,5.262,42.61,10.493,56.664,18.906a73.263,73.263,0,0,1,16.92,13.917,119.587,119.587,0,0,1,15.012,21.518c2.325,4.113,6.687,14.966,8.287,29.577a91.591,91.591,0,0,1-.182,22.09,74.866,74.866,0,0,1-6.787,22.857,87.294,87.294,0,0,1-23.082,29.263,109.49,109.49,0,0,1-29.168,17.012A147.164,147.164,0,0,1,167.392,377.9l-11.053.527V423.3H125.012V378.339l-9.985-1.409a175.362,175.362,0,0,1-30.57-7.276c-15.816-5.334-29.1-12.486-39.473-21.254a119.77,119.77,0,0,1-25.367-30.3c-1.7-2.881-3.113-5.558-4.274-7.927l46.54-16.331c6.422,14.26,20.886,36.037,55.781,45.395a104.672,104.672,0,0,0,26.745,3.416,100.83,100.83,0,0,0,21.908-2.338M119.208,5.8V49.621l-5.068.647c-39.825,5.084-69.324,23.926-87.675,56-5.191,9.071-9,22.759-9,37.892A86.522,86.522,0,0,0,21.261,169.7c6.541,21.152,21.433,37.872,43.067,48.354,24.232,11.741,47.864,17.575,68.713,22.722,24.6,6.075,45.845,11.321,59.93,24.437,7.181,6.691,14.081,14.2,14.081,25.974a32.745,32.745,0,0,1-.315,4.467c-1.687,12.285-8.321,22.592-19.186,29.8-19.646,13.047-48.5,13.507-68.383,8.176-36.78-9.863-49.452-34.333-54.24-46.952-8.446,2.964-48.872,17.1-57.439,20.1a123.185,123.185,0,0,0,33.75,46.049c25.059,21.178,59.383,27.924,72.976,29.844l4.993.7v45.726h42.936V383.957l5.527-.262c12.55-.6,76.476-6.286,102.385-59.582a84.805,84.805,0,0,0,8.115-37.177c0-18.737-5.283-35.107-9.6-42.741-20.32-35.931-40.893-45.785-92.4-57.151l-16.062-3.212C127.092,177.537,86,169.7,86,137.528c0-13.873,11.193-40.11,53.56-40.11,33.378,0,58,13.529,71.565,39.2l54.032-22.28c-22.1-50.348-75.339-61.294-97.8-63.609l-5.208-.537V5.8Z"/></clipPath><linearGradient id="ae" x1="-0.028" y1="1.014" x2="-0.024" y2="1.014" gradientUnits="objectBoundingBox"><stop offset="0" stop-color="#f8f0ad"/><stop offset="0.006" stop-color="#f8f0ad"/><stop offset="0.251" stop-color="#b88f4f"/><stop offset="0.849" stop-color="#f8f0ad"/><stop offset="1" stop-color="#f8f0ad"/></linearGradient><clipPath id="ag"><path class="a" d="M159.6,5.8H119.208V7.569h42.936V5.8l5.8-5.8Z"/></clipPath><linearGradient id="ah" x1="-2.446" y1="57.484" x2="-2.425" y2="57.484" gradientUnits="objectBoundingBox"><stop offset="0" stop-color="#fbfdf5"/><stop offset="0.207" stop-color="#fbfdf5"/><stop offset="0.553" stop-color="#e6ce7f"/><stop offset="1" stop-color="#e6ce7f"/></linearGradient><clipPath id="aj"><path class="a" d="M61.2,288.033c-12.767,4.474-53.715,18.749-53.715,18.749,8.834,11.878,14.1,14.544,14.1,14.544-3.685-5.888-6.364-11.044-6.364-11.044l51.97-18.1c-.724-1.632-1.994-4.534-2.325-5.441l-.181.063.241-.124,3.767-7.529Z"/></clipPath><linearGradient id="ak" x1="-0.122" y1="3.699" x2="-0.106" y2="3.699" gradientUnits="objectBoundingBox"><stop offset="0" stop-color="#fbfdf5"/><stop offset="0.62" stop-color="#fbfdf5"/><stop offset="1" stop-color="#ba9150"/></linearGradient></defs><g transform="translate(-2110 -1412)"><path class="b" d="M2227.091,1461.166l-53.075,19.982-29.933,27.231-12.781,28.707v33.385l7.079,31.37,49,37.994,101.411,27.813,24.854,23.012v30.557l-34.383,26.5h-60.42l-26.734-18.631-18.095-27.424-53.954,19.556,24.021,38.337,48.028,28.63,34.98,5.849v46.76h43.2v-46.76l67.317-12.3,47.927-52.644-4.112-66.581-35.254-44.96-137.039-37.57-17.016-32.356,17.016-30.938,61.16-8.3,33.343,16.627,16.981,22.611,60.809-22.611-60.809-53.172-50.324-10.668v-43.043h-43.2Z"/><g transform="translate(2110 1412.001)"><g class="d"><rect class="e" width="52.503" height="55.442" transform="matrix(0.602, -0.799, 0.799, 0.602, 20.853, 355.287)"/></g><g class="f"><rect class="g" width="17.48" height="78.5" transform="translate(258.112 243.579)"/></g><g class="h"><path class="i" d="M153.43,14.521V58.229l5.26-5.078V8.705Z"/><path class="i" d="M153.431,375.729l8.706,7.859v45.517l-8.825-8.64Z"/></g><g class="j"><rect class="k" width="503.671" height="410.102" transform="matrix(0.326, -0.946, 0.946, 0.326, -133.864, 388.811)"/></g><g class="l"><rect class="m" width="114.045" height="92.744" transform="matrix(0.934, -0.358, 0.358, 0.934, 154.001, 90.942)"/></g><g class="n"><rect class="o" width="56.713" height="72.227" transform="translate(81.125 98.807)"/></g><g class="h"><path class="p" d="M113.4,44.511l5.8,5.109V4.352L113.4,0Z"/><path class="q" d="M113.4,0l6.1,5.756,42.642.048,5.8-5.8Z"/></g><g class="r"><rect class="s" width="226.542" height="237.194" transform="translate(-24.43 290.738) rotate(-79)"/></g><g class="h"><path class="t" d="M121.246,427.566l-2.038,1.539-5.8,6.047h54.541v-45.66l-5.8-5.534-1.58-2.064-2.176,45.22Z"/><path class="q" d="M0,303.307l8.342,3.747,56.041-19.4,4.262-8.434Z"/></g><g class="u"><rect class="v" width="31.375" height="36.454" transform="translate(229.42 75.639)"/></g><g class="w"><rect class="x" width="24.544" height="51.748" transform="translate(73.632 115.176)"/></g><g class="y"><rect class="z" width="51.354" height="51.606" transform="translate(155.159 115.142) rotate(-47)"/></g><g class="aa"><rect class="ab" width="25.828" height="80.221" transform="translate(258.185 271.128)"/></g><g class="ac"><rect class="ad" width="72.925" height="54.746" transform="matrix(0.906, -0.423, 0.423, 0.906, 116.172, 316.715)"/></g><g class="ae"><rect class="af" width="47.502" height="51.053" transform="translate(9.393 173.43) rotate(-28.826)"/></g><g class="ag"><rect class="ah" width="270.682" height="423.302" transform="translate(7.489 5.803)"/></g><g class="h"><path class="p" d="M162.144,42.511v7.683s14.138,1.385,23.308,3.524c4.625,1.079,16.826,4.39,19.486,5.836-4.355-1.2-18.463-5.017-24.2-6.067-5.791-1.062-19.331-2.392-19.331-2.392Z"/></g><g class="ai"><rect class="aj" width="48.737" height="7.57" transform="translate(119.208 -0.001)"/></g><g class="h"><path class="p" d="M187.551,325.458c-19.646,13.046-48.5,13.506-68.382,8.175,0,0,10.129,5.138,25.918,5.462a88.7,88.7,0,0,0,33.552-6.287c9.056-3.658,19.424-11.259,23.4-19.042,4.534-8.887,4.612-14.609,4.7-18.113-1.688,12.285-8.322,22.592-19.187,29.8"/><path class="ak" d="M167.945,0l-5.8,5.8V50.195l5.8-5.235Z"/></g><g class="al"><rect class="am" width="61.206" height="42.174" transform="translate(7.489 279.152)"/></g><g class="h"><path class="p" d="M57.794,71.287S67.916,62.864,86.6,56.522s32.605-6.9,32.605-6.9.249-.581.128.145c0,0-15.054,3.2-22.127,5.2S74.666,61.118,57.794,71.287"/></g></g></g></svg>