<svg xmlns="http://www.w3.org/2000/svg" width="18" height="18" viewBox="0 0 18 18"><defs><style>.a{fill:rgba(255,255,255,0);}.b{fill:#915533;}.c{fill:#ffe5cc;}.d{fill:#6b3d2b;}.e{fill:#794830;}.f{fill:#9b6335;}.g{fill:#f9e8ca;}.h{fill:#d6b799;}</style></defs><g transform="translate(-1341 -721)"><rect class="a" width="18" height="18" transform="translate(1341 721)"/><g transform="translate(1343 722.299)"><path class="b" d="M-20.962,228.094a6.66,6.66,0,0,1,2.081-1.587,3.727,3.727,0,0,1,2.535-.009c.275.018.869-.529.042-.9a3.921,3.921,0,0,0-3.126.4C-20.753,226.964-21.069,228.021-20.962,228.094Z" transform="translate(21.33 -225.423)"/><path class="b" d="M-10.644,228.013c-.085.076-.509-1.038-1.544-1.5a2.329,2.329,0,0,0-1.957.088c-.212.028-.649-.493,0-.893a2.366,2.366,0,0,1,2.4.273A2.887,2.887,0,0,1-10.644,228.013Z" transform="translate(24.533 -225.386)"/><g transform="translate(0 3.131)"><path class="c" d="M-20.28,229.7s.63,2.24,2.269,2.151c1.575-.084,1.477-2.226,1.477-2.226s-.311-1.6-1.371-1.5S-20.28,229.7-20.28,229.7Z" transform="translate(21.676 -227.675)"/><path class="d" d="M-15.8,230.237s-.721-1.724-1.711-1.669a4.181,4.181,0,0,0-2.6,1.523l-1.1-1.123,1.223.321s1.357-1.666,2.584-1.448C-16.766,227.955-16.158,228.62-15.8,230.237Z" transform="translate(21.215 -227.821)"/><path class="e" d="M-17.479,229.95a1.05,1.05,0,0,1-1.056,1.044,1.051,1.051,0,0,1-1.044-1.057,1.049,1.049,0,0,1,1.057-1.042A1.048,1.048,0,0,1-17.479,229.95Z" transform="translate(22.022 -227.292)"/></g><g transform="translate(9.557 3.233)"><path class="c" d="M-14.626,229.731s.4,2.044,1.636,2.053c1.448.009,1.56-2.12,1.56-2.12s-.3-1.551-1.326-1.454S-14.626,229.731-14.626,229.731Z" transform="translate(14.907 -227.742)"/><path class="d" d="M-11.28,230.269s-.085-1.6-1.366-1.607c-1.336-.007-2.168,1.684-2.168,1.684.091-.524,1.215-2.458,2.34-2.452.753.006,1.238.5,1.438,1.508l.669-.212Z" transform="translate(14.814 -227.895)"/><path class="e" d="M-12.222,229.892a.988.988,0,0,1-1,.982.989.989,0,0,1-.982-1,.988.988,0,0,1,1-.982A.988.988,0,0,1-12.222,229.892Z" transform="translate(15.117 -227.401)"/></g><g transform="translate(1.905 12.378)"><path class="f" d="M-12.188,236.044a43.852,43.852,0,0,0-5.711-1.357c-1.312-.027-2.4,1.62-1.926,1.923.1.024,1.971-.288,3.949-.314,2.243-.03,4.618.224,4.658.215.076-.019-.154-.139-.154-.139l.215-.339s.511-.172.464-.211A5.9,5.9,0,0,1-12.188,236.044Z" transform="translate(19.939 -234.687)"/><path class="g" d="M-19.743,236.084c-.112-.015-.019-.327.314-.636a2.469,2.469,0,0,1,1.374-.578,22.881,22.881,0,0,1,2.765.452c1.335.282,2.8.636,3.059.661a5.563,5.563,0,0,0,.853-.06l-.2.239s-2.361-.2-4.672-.215C-17.987,235.936-19.7,236.09-19.743,236.084Z" transform="translate(20.014 -234.596)"/><path class="h" d="M-17.027,234.992a9.642,9.642,0,0,0-1.033-.125,2.569,2.569,0,0,0-1.418.585c-.345.314-.44.629-.325.644.028,0,.585-.042,1.384-.081-.909-.043-.741-.436-.506-.6A2.85,2.85,0,0,1-17.027,234.992Z" transform="translate(19.983 -234.598)"/><g transform="translate(1.677 0.294)"><path class="h" d="M-14.7,235.593l-.04-.006-.079.118.078.006.078-.116Z" transform="translate(20.789 -234.537)"/><path class="h" d="M-15.773,235.368l-.2.346.078,0,.193-.336Z" transform="translate(20.218 -234.645)"/><path class="h" d="M-17.157,235.082l-.276.708h.078l.272-.694Z" transform="translate(19.498 -234.786)"/><path class="h" d="M-18.456,234.884l-.36,1.041.079,0,.357-1.03Z" transform="translate(18.816 -234.884)"/></g></g></g></g></svg>