<svg xmlns="http://www.w3.org/2000/svg" width="18" height="18" viewBox="0 0 18 18"><defs><style>.a{fill:rgba(255,255,255,0);}.b{fill:#915533;}.c{fill:#9b6335;}.d{fill:#ffe5cc;}.e{fill:#794830;}.f{fill:#6b3d2b;}</style></defs><g transform="translate(-1341 -679)"><rect class="a" width="18" height="18" transform="translate(1341 679)"/><g transform="translate(1343 682.986)"><path class="b" d="M99.245,93.877c0,.243-1.123.267-2.738.252s-3.119-.064-3.118-.306,1.508-.585,3.125-.57S99.246,93.635,99.245,93.877Z" transform="translate(-93.255 -93.252)"/><path class="b" d="M99.4,93.877c0,.243,1.121.267,2.738.252s1.835-.064,1.835-.306c0-.349-.227-.585-1.844-.57S99.4,93.635,99.4,93.877Z" transform="translate(-90.292 -93.253)"/><g transform="translate(2.859 10)"><path class="c" d="M101.133,101.662a1.852,1.852,0,0,1-.467-.076,9.3,9.3,0,0,1-1.084-.409c-1.341-.564-3.01-1.266-3.836-.178a.239.239,0,1,1-.381-.29c1.051-1.383,2.988-.569,4.4.027a8.876,8.876,0,0,0,1.023.388,1.553,1.553,0,0,0,.361.06l-.009-.022a.239.239,0,1,1,.443-.178.475.475,0,0,1-.046.526A.516.516,0,0,1,101.133,101.662Z" transform="translate(-95.163 -99.95)"/><path class="c" d="M95.629,100.916a.255.255,0,0,1-.343.027.219.219,0,0,1-.01-.315c.079-.1.264-.167.363-.088A.3.3,0,0,1,95.629,100.916Z" transform="translate(-95.214 -99.677)"/></g><g transform="translate(0 1.284)"><path class="d" d="M94.154,94.82a1.884,1.884,0,0,0,3.76.115l-1.653-.378Z" transform="translate(-92.877 -93.894)"/><path class="e" d="M96.164,94.734a.934.934,0,1,1-1.865,0Z" transform="translate(-91.313 -93.806)"/><path class="f" d="M98.619,95.467a4.914,4.914,0,0,0-2.1-.427,6.132,6.132,0,0,0-2.335.554L93.3,94.461l1.174.378a5.239,5.239,0,0,1,2.414-.724A2.081,2.081,0,0,1,98.619,95.467Z" transform="translate(-93.299 -94.113)"/></g><g transform="translate(8.818 1.356)"><path class="d" d="M99.33,95.029a1.638,1.638,0,0,0,1.75,1.593c1.459-.04,1.674-1.662,1.674-1.662l-1.553-.367Z" transform="translate(-99.143 -93.948)"/><path class="e" d="M1.8.364a.94.94,0,0,1-.908.969A.926.926,0,0,1,0,.567,6.7,6.7,0,0,1,.977,0Z" transform="translate(1.895 0.37) rotate(8)"/><path class="f" d="M99.205,95.479a5.15,5.15,0,0,1,2.153-.463,2.511,2.511,0,0,1,1.738.587l.859-1.1-.918.3a2.567,2.567,0,0,0-1.4-.633A2.986,2.986,0,0,0,99.205,95.479Z" transform="translate(-99.205 -94.161)"/></g></g></g></svg>