<svg xmlns="http://www.w3.org/2000/svg" xmlns:xlink="http://www.w3.org/1999/xlink" width="113" height="113" viewBox="0 0 113 113"><defs><style>.a{fill:rgba(255,255,255,0);}.b{fill:#915533;}.c{fill:#ffe5cc;}.d{fill:#6b3d2b;}.e{fill:#794830;}.f{fill:#9b6335;}.g{opacity:0.5;mix-blend-mode:multiply;isolation:isolate;fill:url(#a);}.h{fill:#b77544;}.i{fill:#f9e8ca;}</style><linearGradient id="a" x1="0.088" y1="-0.086" x2="-0.656" y2="0.239" gradientUnits="objectBoundingBox"><stop offset="0" stop-color="#9b6335"/><stop offset="0.207" stop-color="#975f33"/><stop offset="0.392" stop-color="#8c562f"/><stop offset="0.567" stop-color="#7a4629"/><stop offset="0.737" stop-color="#603020"/><stop offset="0.901" stop-color="#401415"/><stop offset="1" stop-color="#29000d"/></linearGradient></defs><g transform="translate(-0.135 -0.15)"><rect class="a" width="113" height="113" transform="translate(0.135 0.15)"/><g transform="translate(11.502 7.746)"><path class="b" d="M22.8,241.782c.674.468,4.6-6.623,13.227-9.691s14.171.094,15.883.234,5.509-3.208.365-5.631-15.331-.926-19.625,2.1C24.253,234.729,22.139,241.314,22.8,241.782Z" transform="translate(-20.25 -225.484)"/><path class="b" d="M53.066,241.728c-.552.468-3.077-6.557-9.5-9.569s-10.925.168-12.263.318-4.013-3.162.122-5.594,11.889-.992,14.985,1.992C52.448,234.722,53.608,241.251,53.066,241.728Z" transform="translate(34.235 -224.102)"/><g transform="translate(0 19.5)"><path class="c" d="M23.353,237.8s3.676,14.106,13.956,13.75c9.878-.346,9.513-13.778,9.513-13.778s-1.749-10.084-8.4-9.578S23.353,237.8,23.353,237.8Z" transform="translate(-14.71 -225.383)"/><path class="d" d="M56.2,243.219s-4.3-10.879-10.523-10.654C36.451,232.9,29.2,241.8,29.2,241.8l-6.772-7.156,7.633,2.142s8.69-10.271,16.351-8.755C50.425,228.814,54.148,233.061,56.2,243.219Z" transform="translate(-22.429 -227.876)"/><path class="e" d="M37.325,236.047a6.573,6.573,0,1,1-6.407-6.735,6.573,6.573,0,0,1,6.407,6.735Z" transform="translate(-4.795 -220.896)"/></g><g transform="translate(59.744 20.999)"><path class="c" d="M29,237.7s2.254,12.852,10.009,13.049c9.073.224,10.027-13.1,10.027-13.1s-1.693-9.756-8.138-9.27S29,237.7,29,237.7Z" transform="translate(-27.19 -225.479)"/><path class="d" d="M50.961,243.07s-.346-10.018-8.372-10.224c-8.362-.206-13.778,10.289-13.778,10.289.636-3.274,7.9-15.256,14.948-15.079,4.714.122,7.689,3.283,8.821,9.616l4.219-1.244Z" transform="translate(-28.811 -228.055)"/><path class="e" d="M41.863,235.827a6.184,6.184,0,1,1-1.7-4.438A6.2,6.2,0,0,1,41.863,235.827Z" transform="translate(-20.332 -222.276)"/></g><g transform="translate(21.354 81.62)"><path class="f" d="M285.533,97.14c8.909-10.17,27.132-11.005,35.857.291s-7.645,19.736-19.4,19.742S276.625,107.31,285.533,97.14Z" transform="translate(-277.673 -94.711)"/><path class="g" d="M281.944,102.916c0-7.546,10.236-14.079,21.364-14.642s21.081,8.065,21.081,15.611S313.7,117.9,301.943,117.9,281.944,110.462,281.944,102.916Z" transform="translate(-277.673 -94.711)"/><path class="h" d="M285.242,98.734c11.1,0,17.4,3.967,14.076,6.749a11.335,11.335,0,0,1-5.434,1.921C288.535,108,275.479,98.768,285.242,98.734Z" transform="translate(-269.048 -86.041)"/><path class="i" d="M285,96.1c8.113-3.746,17.181-2.875,22.392.548S276.886,99.848,285,96.1Z" transform="translate(-270.038 -99.151)"/></g></g></g></svg>