<svg xmlns="http://www.w3.org/2000/svg" width="113" height="113" viewBox="0 0 113 113"><defs><style>.a{fill:rgba(255,255,255,0);}.b{fill:#915533;}.c{fill:#6b3d2b;}.d{fill:#9b6335;}.e{fill:#f9e8ca;}.f{fill:#d6b799;}</style></defs><g transform="translate(-0.084 -0.15)"><rect class="a" width="113" height="113" transform="translate(0.084 0.15)"/><g transform="translate(13.621 7.746)"><path class="b" d="M-20.86,242.158c.673.458,4.481-6.707,13.039-9.943s14.162-.178,15.883-.056,5.444-3.311.262-5.65-15.35-.636-19.587,2.479C-19.55,235.077-21.533,241.7-20.86,242.158Z" transform="translate(158.054 -177.654) rotate(34)"/><path class="b" d="M9.586,241.26c-.533.477-3.19-6.5-9.672-9.382s-10.925.374-12.263.552-4.069-3.087.019-5.594,11.87-1.225,15.022,1.712C8.847,234.272,10.128,240.783,9.586,241.26Z" transform="translate(-95.027 -147.338) rotate(-47)"/><g transform="translate(0 24.614)"><path class="c" d="M12.712,242.957s-4.518-10.8-10.72-10.458c-9.223.515-16.3,9.541-16.3,9.541l-6.9-7.034,7.661,2.011s8.5-10.439,16.192-9.073C6.66,228.664,10.467,232.827,12.712,242.957Z" transform="translate(21.215 -227.821)"/></g><g transform="translate(59.875 24.254)"><path class="c" d="M7.327,242.768S6.794,232.759-1.232,232.7c-8.372-.047-13.582,10.551-13.582,10.551.571-3.283,7.614-15.4,14.658-15.359,4.714.037,7.754,3.143,9.008,9.447l4.191-1.328Z" transform="translate(14.814 -227.895)"/></g><g transform="translate(11.933 77.546)"><path class="d" d="M28.62,243.192c-2.619-.5-27.557-8.344-35.779-8.5s-15.051,10.149-12.067,12.048c.617.15,12.347-1.805,24.741-1.965,14.05-.187,28.932,1.4,29.184,1.347.477-.122-.963-.87-.963-.87l1.347-2.123s3.2-1.076,2.909-1.319C37.992,241.807,30.968,243.641,28.62,243.192Z" transform="translate(19.939 -234.687)"/><path class="e" d="M-19.5,242.476c-.7-.094-.122-2.048,1.964-3.985,2.02-1.88,6.211-3.667,8.606-3.62,2.31.037,9.784,1.253,17.324,2.834,8.362,1.768,17.557,3.985,19.166,4.144a34.849,34.849,0,0,0,5.341-.374l-1.235,1.5s-14.789-1.244-29.269-1.347C-8.5,241.55-19.205,242.513-19.5,242.476Z" transform="translate(21.2 -233.157)"/><path class="f" d="M-2.161,235.654a60.362,60.362,0,0,0-6.473-.786c-2.479-.047-6.8,1.758-8.886,3.667-2.161,1.964-2.759,3.938-2.039,4.032.178.028,3.667-.262,8.671-.505-5.7-.271-4.64-2.731-3.171-3.788C-12.123,236.869-8.662,235.317-2.161,235.654Z" transform="translate(20.685 -233.182)"/><g transform="translate(10.507 1.845)"><path class="f" d="M-14.067,235.624l-.253-.037-.5.739.486.037.486-.729Z" transform="translate(52.24 -229.011)"/><path class="f" d="M-14.728,235.368l-1.244,2.17.486.028,1.207-2.1Z" transform="translate(42.575 -230.841)"/><path class="f" d="M-15.7,235.082l-1.731,4.434h.084l.4.009,1.7-4.35Z" transform="translate(30.37 -233.23)"/><path class="f" d="M-16.562,234.884l-2.254,6.52.5-.028,2.236-6.454Z" transform="translate(18.816 -234.884)"/></g></g></g></g></svg>