<svg xmlns="http://www.w3.org/2000/svg" width="113" height="113.003" viewBox="0 0 113 113.003"><defs><style>.a{fill:rgba(255,255,255,0);}.b{fill:#915533;}.c{fill:#ffe5cc;}.d{fill:#6b3d2b;}.e{fill:#794830;}.f{fill:#9b6335;}.g{fill:#f9e8ca;}.h{fill:#d6b799;}</style></defs><g transform="translate(-0.135 -0.15)"><rect class="a" width="113" height="113" transform="translate(0.135 0.15)"/><g transform="translate(11.502 7.746)"><path class="b" d="M22.8,241.782c.674.468,4.6-6.623,13.227-9.691s14.171.094,15.883.234,5.509-3.208.365-5.631-15.331-.926-19.625,2.1C24.253,234.729,22.139,241.314,22.8,241.782Z" transform="translate(-20.25 -225.484)"/><path class="b" d="M53.066,241.728c-.552.468-3.077-6.557-9.5-9.569s-10.925.168-12.263.318-4.013-3.162.122-5.594,11.889-.992,14.985,1.992C52.448,234.722,53.608,241.251,53.066,241.728Z" transform="translate(34.235 -224.102)"/><g transform="translate(0 19.5)"><path class="c" d="M23.353,237.8s3.676,14.106,13.956,13.75c9.878-.346,9.513-13.778,9.513-13.778s-1.749-10.084-8.4-9.578S23.353,237.8,23.353,237.8Z" transform="translate(-14.71 -225.383)"/><path class="d" d="M56.2,243.219s-4.3-10.879-10.523-10.654C36.451,232.9,29.2,241.8,29.2,241.8l-6.772-7.156,7.633,2.142s8.69-10.271,16.351-8.755C50.425,228.814,54.148,233.061,56.2,243.219Z" transform="translate(-22.429 -227.876)"/><path class="e" d="M37.325,236.047a6.573,6.573,0,1,1-6.407-6.735A6.575,6.575,0,0,1,37.325,236.047Z" transform="translate(-4.795 -220.896)"/></g><g transform="translate(59.744 20.999)"><path class="c" d="M29,237.7s2.254,12.852,10.009,13.049c9.073.224,10.027-13.1,10.027-13.1s-1.693-9.756-8.138-9.27S29,237.7,29,237.7Z" transform="translate(-27.19 -225.479)"/><path class="d" d="M50.961,243.07s-.346-10.018-8.372-10.224c-8.362-.206-13.778,10.289-13.778,10.289.636-3.274,7.9-15.256,14.948-15.079,4.714.122,7.689,3.283,8.821,9.616l4.219-1.244Z" transform="translate(-28.811 -228.055)"/><path class="e" d="M41.863,235.827a6.2,6.2,0,1,1-6.043-6.361A6.184,6.184,0,0,1,41.863,235.827Z" transform="translate(-20.332 -222.276)"/></g><g transform="translate(10.487 77.219)"><path class="f" d="M72.694,250.515c-2.572-.973-26.7-17.268-34.946-17.127S21.332,257.428,24.1,261.562c.6.3,12.656-4.883,25.153-6.024,14.162-1.3,28.941,1.394,29.2,1.235.5-.3-.861-1.9-.861-1.9l1.618-4.92s3.349-2.647,3.1-3.171C82.31,246.783,75,251.385,72.694,250.515Z" transform="translate(-23.55 -233.387)"/><path class="g" d="M23.9,258.781c-.692-.215.281-6.435,2.778-12.806,2.413-6.183,7-12.3,9.41-12.459,2.329-.14,9.653,2.8,16.959,6.913,8.11,4.565,16.968,10.5,18.558,10.785s5.472-1.806,5.472-1.806l-1.543,4.883a138.062,138.062,0,0,0-29.325-.786C35.2,254.553,24.195,258.866,23.9,258.781Z" transform="translate(-22.401 -232.346)"/><path class="h" d="M42.267,235.2c-2.825-1.113-5.061-1.749-6.174-1.684-2.413.159-7,6.277-9.41,12.459-2.5,6.37-3.47,12.591-2.778,12.806.159.047,3.629-1.263,8.568-2.609-5.509-.168-3.994-7.97-2.357-11.431C32.286,240.148,35.981,234.919,42.267,235.2Z" transform="translate(-22.401 -232.346)"/><path class="h" d="M30.527,235.922l1.45-.711-1.543,4.883-1.347-.178A3.678,3.678,0,0,0,30.527,235.922Z" transform="translate(22.704 -218.148)"/><g transform="translate(10.578 1.189)"><path class="h" d="M29.621,235.471a1.757,1.757,0,0,1-.243-.075l-.664,2.591.486.047.655-2.544Z" transform="translate(9.011 -217.792)"/><path class="h" d="M29.305,234.793l-1.749,7.577.5.01,1.684-7.324Z" transform="translate(-0.663 -222.829)"/><path class="h" d="M28.8,234.011l-2.713,15.331.084-.009.412-.038,2.666-15.05Z" transform="translate(-12.935 -229.362)"/><path class="h" d="M28.385,233.514l-3.7,22.5.514-.14,3.667-22.291C28.694,233.551,28.535,233.533,28.385,233.514Z" transform="translate(-24.681 -233.514)"/></g><path class="f" d="M23.819,238.853a47.879,47.879,0,0,1,10.794-2.582c6-.851,11.505-.842,11.6-1.235.112-.449-11.169-.542-21.926,2.021Z" transform="translate(-21.304 -221.668)"/></g></g></g></svg>