<svg xmlns="http://www.w3.org/2000/svg" xmlns:xlink="http://www.w3.org/1999/xlink" width="18" height="18" viewBox="0 0 18 18"><defs><style>.a{fill:rgba(255,255,255,0);}.b{fill:#915533;}.c{fill:#6b3d2b;}.d{fill:#9b6335;}.e{opacity:0.5;mix-blend-mode:multiply;isolation:isolate;fill:url(#a);}.f{fill:#b77544;}.g{fill:#794830;}.h{fill:#f9e8ca;}</style><linearGradient id="a" x1="0.088" y1="-0.086" x2="-0.656" y2="0.239" gradientUnits="objectBoundingBox"><stop offset="0" stop-color="#9b6335"/><stop offset="0.207" stop-color="#975f33"/><stop offset="0.392" stop-color="#8c562f"/><stop offset="0.567" stop-color="#7a4629"/><stop offset="0.737" stop-color="#603020"/><stop offset="0.901" stop-color="#401415"/><stop offset="1" stop-color="#29000d"/></linearGradient></defs><g transform="translate(-1363 -679)"><rect class="a" width="18" height="18" transform="translate(1363 679)"/><g transform="translate(1365 681)"><path class="b" d="M283.946,89.9c.052.237-.878.478-2.232.778s-2.62.543-2.673.308,1.129-.864,2.483-1.163S283.894,89.665,283.946,89.9Z" transform="translate(-278.408 -89.653)"/><path class="b" d="M286.106,90.087c-.049.237.884.467,2.241.751.708.03.908-.521.179-.857C287.169,89.7,286.155,89.85,286.106,90.087Z" transform="translate(-275.459 -89.567)"/><g transform="translate(0 3.27)"><path class="c" d="M284.02,94.083s-1.033-1.562-2-1.318a10.056,10.056,0,0,0-2.316,1.132l-1.091-1.132,1.22.331a3.832,3.832,0,0,1,2.335-1.035C282.878,92.1,283.646,92.317,284.02,94.083Z" transform="translate(-278.617 -92.06)"/></g><g transform="translate(9.014 3.25)"><path class="c" d="M288.756,94.025s-.652-1.218-1.645-1.251c-.961-.033-2.1,1.293-2.1,1.293.1-.54,1.229-2.175,2.387-2.01a1.472,1.472,0,0,1,1.4,1.169l.881-.269Z" transform="translate(-285.011 -92.045)"/></g><g transform="translate(2.162 10.126)"><path class="d" d="M280.562,97.811l7.731-.239s-1.875,3.458-3.949,3.459S280.562,97.811,280.562,97.811Z" transform="translate(-280.052 -97.067)"/><path class="e" d="M280.562,97.811l7.731-.239s-1.875,3.458-3.949,3.459S280.562,97.811,280.562,97.811Z" transform="translate(-280.052 -97.067)"/><path class="f" d="M282.34,98.734c1.959,0,3.07.7,2.484,1.191a2,2,0,0,1-.959.339C282.921,100.369,280.617,98.74,282.34,98.734Z" transform="translate(-279.482 -96.494)"/><path class="g" d="M280.877,97.964a2.314,2.314,0,0,1-.642.29c-.14-.016.832-.969.914-.878S280.877,97.964,280.877,97.964Z" transform="translate(-280.221 -97.167)"/><path class="g" d="M285.77,97.867a2.279,2.279,0,0,1-.337-.618c0-.14,1.03.754.945.842S285.77,97.867,285.77,97.867Z" transform="translate(-277.651 -97.234)"/><path class="h" d="M281.452,97.88l4.982-.1s-.2.7-2.537.658C281.609,98.4,281.452,97.88,281.452,97.88Z" transform="translate(-279.614 -96.963)"/></g></g></g></svg>