<svg xmlns="http://www.w3.org/2000/svg" xmlns:xlink="http://www.w3.org/1999/xlink" width="18" height="18" viewBox="0 0 18 18"><defs><style>.a{fill:rgba(255,255,255,0);}.b{fill:#ffe5cc;}.c{fill:#6b3d2b;}.d{fill:#794830;}.e{fill:#9b6335;}.f{opacity:0.5;mix-blend-mode:multiply;isolation:isolate;fill:url(#a);}.g{fill:#b77544;}.h{fill:#f9e8ca;}.i{fill:#915533;}</style><linearGradient id="a" x1="3.99" y1="15.917" x2="3.247" y2="16.249" gradientUnits="objectBoundingBox"><stop offset="0" stop-color="#9b6335"/><stop offset="0.207" stop-color="#975f33"/><stop offset="0.392" stop-color="#8c562f"/><stop offset="0.567" stop-color="#7a4629"/><stop offset="0.737" stop-color="#603020"/><stop offset="0.901" stop-color="#401415"/><stop offset="1" stop-color="#29000d"/></linearGradient></defs><g transform="translate(-1406 -721)"><rect class="a" width="18" height="18" transform="translate(1406 721)"/><g transform="translate(1407.819 722.299)"><g transform="translate(0 3.316)"><path class="b" d="M275.113,228.968s.664,1.865,2.314,1.766c1.584-.1,1.456-1.865,1.456-1.865s-.323-1.613-1.389-1.505S275.113,228.968,275.113,228.968Z" transform="translate(-273.704 -226.919)"/><path class="c" d="M279.626,229.484s-.736-1.73-1.733-1.669a4.205,4.205,0,0,0-2.607,1.55l-1.117-1.123,1.233.315s1.354-1.686,2.59-1.474C278.641,227.194,279.256,227.859,279.626,229.484Z" transform="translate(-274.169 -227.065)"/><path class="d" d="M278.106,229.412a1.013,1.013,0,1,1-1.012-1.012A1.013,1.013,0,0,1,278.106,229.412Z" transform="translate(-273.227 -226.406)"/></g><g transform="translate(9.392 3.371)"><path class="b" d="M280.8,228.963s.415,1.744,1.66,1.744c1.457,0,1.557-1.83,1.557-1.83s-.312-1.56-1.344-1.457S280.8,228.963,280.8,228.963Z" transform="translate(-280.525 -226.949)"/><path class="c" d="M284.172,229.484s-.094-1.608-1.384-1.608c-1.345,0-2.171,1.71-2.171,1.71.088-.529,1.206-2.483,2.338-2.483.758,0,1.25.5,1.457,1.508l.67-.218Z" transform="translate(-280.617 -227.103)"/><path class="d" d="M283.048,229.386a.932.932,0,1,1-.933-.933A.933.933,0,0,1,283.048,229.386Z" transform="translate(-280.338 -226.437)"/></g><g transform="translate(2.267 11.797)"><path class="e" d="M276.092,233.658l7.5.107s-1.968,3.268-3.979,3.177S276.092,233.658,276.092,233.658Z" transform="translate(-275.584 -233.151)"/><path class="f" d="M276.092,233.658l7.5.107s-1.968,3.268-3.979,3.177S276.092,233.658,276.092,233.658Z" transform="translate(-275.584 -233.151)"/><path class="g" d="M277.775,234.7c1.9.081,2.944.808,2.356,1.262a1.953,1.953,0,0,1-.944.288C278.266,236.307,276.1,234.627,277.775,234.7Z" transform="translate(-275.057 -232.639)"/><path class="d" d="M276.4,233.884a2.2,2.2,0,0,1-.636.251c-.134-.021.85-.9.924-.809S276.4,233.884,276.4,233.884Z" transform="translate(-275.752 -233.318)"/><path class="d" d="M281.133,234.016a2.228,2.228,0,0,1-.3-.614c.01-.136.966.776.878.857S281.133,234.016,281.133,234.016Z" transform="translate(-273.246 -233.284)"/><path class="h" d="M276.949,233.809l4.833.125s-.228.675-2.487.527C277.079,234.317,276.949,233.809,276.949,233.809Z" transform="translate(-275.161 -233.077)"/></g><path class="i" d="M274.587,227.326a6.654,6.654,0,0,1,2.083-1.611,3.77,3.77,0,0,1,2.553-.027c.276.016.872-.537.036-.906a3.948,3.948,0,0,0-3.144.418C274.79,226.187,274.478,227.253,274.587,227.326Z" transform="translate(-273.973 -224.613)"/><path class="i" d="M284.974,227.172c-.087.078-.52-1.041-1.565-1.5a2.343,2.343,0,0,0-1.968.1c-.214.03-.658-.491,0-.9a2.381,2.381,0,0,1,2.414.26A2.917,2.917,0,0,1,284.974,227.172Z" transform="translate(-270.989 -224.592)"/></g></g></svg>