<svg xmlns="http://www.w3.org/2000/svg" width="113" height="113" viewBox="0 0 113 113"><defs><style>.a{fill:rgba(255,255,255,0);}.b{fill:#915533;}.c{fill:#9b6335;}.d{fill:#ffe5cc;}.e,.g{fill:#794830;}.f{fill:#6b3d2b;}.g{stroke:rgba(0,0,0,0);stroke-miterlimit:10;}</style></defs><g transform="translate(0.916 0.331)"><rect class="a" width="113" height="113" transform="translate(-0.916 -0.331)"/><g transform="translate(13.621 24.973)"><path class="b" d="M130.075,97.166c-.019,1.525-7.034,1.674-17.155,1.581s-19.54-.4-19.531-1.917,9.448-3.667,19.578-3.573S130.085,95.65,130.075,97.166Z" transform="translate(-92.547 -93.251)"/><path class="b" d="M99.4,97.167c.009,1.525,7.025,1.674,17.155,1.581s11.5-.4,11.5-1.917c0-2.189-1.422-3.667-11.552-3.573S99.379,95.651,99.4,97.167Z" transform="translate(-42.348 -93.253)"/><g transform="translate(17.912 62.651)"><path class="c" d="M131.752,110.676a11.606,11.606,0,0,1-2.928-.477,58.254,58.254,0,0,1-6.791-2.563c-8.4-3.536-18.858-7.932-24.03-1.113a1.5,1.5,0,1,1-2.385-1.815c6.585-8.662,18.717-3.564,27.575.168a55.6,55.6,0,0,0,6.408,2.432,9.729,9.729,0,0,0,2.264.374l-.056-.14a1.5,1.5,0,1,1,2.778-1.113,2.973,2.973,0,0,1-.29,3.293A3.236,3.236,0,0,1,131.752,110.676Z" transform="translate(-94.354 -99.95)"/><path class="c" d="M97.816,103.078a1.6,1.6,0,0,1-2.151.168,1.373,1.373,0,0,1-.066-1.974c.5-.617,1.656-1.048,2.273-.552A1.875,1.875,0,0,1,97.816,103.078Z" transform="translate(-95.214 -95.318)"/></g><g transform="translate(0 8.046)"><path class="d" d="M94.154,96.2s1.113,11.711,12.394,11.4c9.728-.262,11.159-10.682,11.159-10.682l-10.355-2.367Z" transform="translate(-86.156 -90.401)"/><path class="e" d="M-958.378-690.316a6.909,6.909,0,0,1-.695-3.039,6.264,6.264,0,0,1,6-6.5,5.983,5.983,0,0,1,5.407,3.678,10.677,10.677,0,0,1-9.478,5.876c-.147,0-.291.006-.435.006Q-957.987-690.3-958.378-690.316Z" transform="translate(977.535 707.506)"/><path class="f" d="M126.627,102.6a30.783,30.783,0,0,0-13.18-2.675,38.418,38.418,0,0,0-14.63,3.47l-5.519-7.1,7.352,2.367s8.016-4.817,15.125-4.537C120.379,94.3,124.148,97.464,126.627,102.6Z" transform="translate(-93.299 -94.113)"/></g><g transform="translate(55.245 8.498)"><path class="d" d="M99.33,97.324s.365,10.28,10.963,9.981c9.139-.253,10.486-10.411,10.486-10.411l-9.728-2.3Z" transform="translate(-98.161 -90.552)"/><path class="g" d="M-1016.022-691.19a6.453,6.453,0,0,1-.711-2.954,6.512,6.512,0,0,1,6.526-6.5,6.527,6.527,0,0,1,5.614,3.184c-1.34,2.865-4.017,6.227-9.226,6.371-.153,0-.3.006-.45.006A13.875,13.875,0,0,1-1016.022-691.19Z" transform="translate(1025.951 707.842)"/><path class="f" d="M99.2,102.421a32.265,32.265,0,0,1,13.488-2.9c7.277,0,10.888,3.676,10.888,3.676l5.379-6.922-5.753,1.852s-4.443-3.966-8.746-3.966A18.708,18.708,0,0,0,99.2,102.421Z" transform="translate(-99.205 -94.161)"/></g></g></g></svg>