<svg xmlns="http://www.w3.org/2000/svg" width="9.162" height="8.102" viewBox="0 0 9.162 8.102"><defs><style>.a{fill:#915533;}.b{fill:#ffe5cc;}.c{fill:#794830;}.d{fill:#6b3d2b;}.e{fill:#9b6335;}</style></defs><g transform="translate(-204.599 -93.253)"><path class="a" d="M208.611,93.671c0,.163-.752.179-1.834.169s-2.089-.043-2.088-.2,1.01-.392,2.093-.382S208.612,93.509,208.611,93.671Z"/><path class="a" d="M210.7,93.671c0,.163.751.179,1.834.169s1.229-.043,1.229-.2c0-.234-.152-.392-1.235-.382S210.7,93.509,210.7,93.671Z"/><path class="b" d="M205.454,94.552s.119,1.438,1.325,1.4c1.04-.032,1.193-1.312,1.193-1.312l-1.107-.29Z"/><circle class="c" cx="0.525" cy="0.525" r="0.525" transform="translate(206.524 94.8)"/><path class="d" d="M208.162,94.808a3.291,3.291,0,0,0-1.409-.286,4.116,4.116,0,0,0-1.564.37l-.59-.759.786.253A3.509,3.509,0,0,1,207,93.9,1.4,1.4,0,0,1,208.162,94.808Z"/><path class="b" d="M210.63,94.577s.039,1.416,1.172,1.375c.977-.035,1.121-1.434,1.121-1.434l-1.04-.318Z"/><path class="d" d="M210.482,94.66a3.444,3.444,0,0,1,1.442-.31,1.681,1.681,0,0,1,1.163.393l.576-.74-.615.2a1.723,1.723,0,0,0-.935-.424A2,2,0,0,0,210.482,94.66Z"/><circle class="c" cx="0.525" cy="0.525" r="0.525" transform="translate(211.474 94.8)"/><path class="e" d="M208.707,101a.965.965,0,0,0,.241.039l-.005-.015a.16.16,0,0,1,.3-.119.32.32,0,0,1-.031.353.347.347,0,0,1-.272.1,1.234,1.234,0,0,1-.313-.051"/></g></svg>