<svg xmlns="http://www.w3.org/2000/svg" xmlns:xlink="http://www.w3.org/1999/xlink" width="138" height="138" viewBox="0 0 138 138"><defs><style>.a{fill:rgba(255,255,255,0);}.b{fill:#ffe5cc;}.c{fill:#794830;}.d{fill:#6b3d2b;}.e{fill:#9b6335;}.f{opacity:0.5;mix-blend-mode:multiply;isolation:isolate;fill:url(#a);}.g{fill:#b77544;}.h{fill:#f9e8ca;}.i{fill:#915533;}</style><linearGradient id="a" x1="3.99" y1="15.917" x2="3.247" y2="16.249" gradientUnits="objectBoundingBox"><stop offset="0" stop-color="#9b6335"/><stop offset="0.207" stop-color="#975f33"/><stop offset="0.392" stop-color="#8c562f"/><stop offset="0.567" stop-color="#7a4629"/><stop offset="0.737" stop-color="#603020"/><stop offset="0.901" stop-color="#401415"/><stop offset="1" stop-color="#29000d"/></linearGradient></defs><g transform="translate(-0.15 -0.298)"><rect class="a" width="138" height="138" transform="translate(0.15 0.298)"/><g transform="translate(14.367 9.437)"><g transform="translate(0 25.397)"><path class="b" d="M275.113,239.681s5.089,14.284,17.725,13.529c12.133-.732,11.15-14.283,11.15-14.283s-2.47-12.351-10.635-11.527S275.113,239.681,275.113,239.681Z" transform="translate(-264.318 -223.987)"/><path class="c" d="M291.6,236.153a7.759,7.759,0,1,1-7.754-7.753A7.755,7.755,0,0,1,291.6,236.153Z" transform="translate(-251.781 -222.91)"/><path class="d" d="M315.966,245.595s-5.638-13.254-13.277-12.785c-11.333.709-19.967,11.87-19.967,11.87l-8.554-8.6,9.446,2.413s10.372-12.911,19.841-11.287C308.419,228.052,313.13,233.153,315.966,245.595Z" transform="translate(-274.169 -227.065)"/></g><g transform="translate(71.938 25.823)"><path class="b" d="M280.8,239.277s3.179,13.357,12.717,13.357c11.161,0,11.927-14.02,11.927-14.02s-2.39-11.95-10.292-11.161S280.8,239.277,280.8,239.277Z" transform="translate(-278.666 -223.85)"/><path class="c" d="M295.467,235.6a7.142,7.142,0,1,1-7.147-7.147A7.143,7.143,0,0,1,295.467,235.6Z" transform="translate(-268.597 -223.658)"/><path class="d" d="M307.845,245.343s-.72-12.316-10.6-12.316c-10.3,0-16.627,13.094-16.627,13.094.675-4.048,9.24-19.018,17.908-19.018,5.809,0,9.571,3.8,11.161,11.55l5.135-1.67Z" transform="translate(-280.617 -227.103)"/></g><g transform="matrix(0.996, -0.087, 0.087, 0.996, 21.218, 93.236)"><path class="e" d="M276.092,233.658l57.453.823s-15.072,25.033-30.476,24.335S276.092,233.658,276.092,233.658Z" transform="translate(-272.199 -229.775)"/><path class="f" d="M276.092,233.658l57.453.823s-15.072,25.033-30.476,24.335S276.092,233.658,276.092,233.658Z" transform="translate(-272.199 -229.775)"/><path class="g" d="M281.872,234.714c14.546.617,22.551,6.187,18.046,9.663-1.315,1.006-3.671,1.818-7.227,2.207C285.634,247.03,269.075,234.164,281.872,234.714Z" transform="translate(-261.054 -218.937)"/><path class="c" d="M280.72,237.648s-3.842,2.093-4.872,1.921,6.507-6.907,7.079-6.2S280.72,237.648,280.72,237.648Z" transform="translate(-275.752 -233.318)"/><path class="c" d="M283.133,238.195s-2.378-3.66-2.3-4.7,7.4,5.947,6.724,6.564S283.133,238.195,283.133,238.195Z" transform="translate(-222.725 -232.584)"/><path class="h" d="M276.949,233.809l37.018.961s-1.75,5.169-19.052,4.037C277.944,237.7,276.949,233.809,276.949,233.809Z" transform="translate(-263.256 -228.199)"/></g><path class="i" d="M274.72,245.387c.835.549,5.455-8.3,15.953-12.339s17.439-.331,19.555-.206,6.679-4.117.275-6.941-18.892-.663-24.084,3.2C276.275,236.662,273.885,244.827,274.72,245.387Z" transform="translate(-270.02 -224.613)"/><path class="i" d="M310.808,243.924c-.663.595-3.979-7.971-11.984-11.47s-13.437.549-15.073.778-5.043-3.762-.022-6.884,14.592-1.589,18.491,1.99C309.836,235.336,311.46,243.329,310.808,243.924Z" transform="translate(-203.693 -224.168)"/></g></g></svg>