<svg xmlns="http://www.w3.org/2000/svg" xmlns:xlink="http://www.w3.org/1999/xlink" width="113" height="113" viewBox="0 0 113 113"><defs><style>.a{fill:rgba(255,255,255,0);}.b{fill:#6b3d2b;}.c{fill:#9b6335;}.d{opacity:0.5;mix-blend-mode:multiply;isolation:isolate;fill:url(#a);}.e{fill:#b77544;}.f{fill:#794830;}.g{fill:#f9e8ca;}.h{fill:#915533;}</style><linearGradient id="a" x1="3.99" y1="15.917" x2="3.247" y2="16.249" gradientUnits="objectBoundingBox"><stop offset="0" stop-color="#9b6335"/><stop offset="0.207" stop-color="#975f33"/><stop offset="0.392" stop-color="#8c562f"/><stop offset="0.567" stop-color="#7a4629"/><stop offset="0.737" stop-color="#603020"/><stop offset="0.901" stop-color="#401415"/><stop offset="1" stop-color="#29000d"/></linearGradient></defs><g transform="translate(-0.15 -0.15)"><rect class="a" width="113" height="113" transform="translate(0.15 0.15)"/><g transform="translate(11.779 7.746)"><g transform="translate(0 20.773)"><path class="b" d="M308.358,242.221s-4.612-10.841-10.86-10.458c-9.27.58-16.332,9.71-16.332,9.71l-7-7.034,7.726,1.974s8.484-10.561,16.229-9.232C302.184,227.873,306.038,232.044,308.358,242.221Z" transform="translate(-274.169 -227.065)"/></g><g transform="translate(58.842 21.122)"><path class="b" d="M302.888,242.023s-.589-10.074-8.671-10.074c-8.428,0-13.6,10.71-13.6,10.71.552-3.311,7.558-15.556,14.648-15.556,4.752,0,7.829,3.105,9.129,9.447l4.2-1.366Z" transform="translate(-280.617 -227.103)"/></g><g transform="translate(14.2 73.905)"><path class="c" d="M276.092,233.658l46.994.673s-12.328,20.476-24.928,19.905S276.092,233.658,276.092,233.658Z" transform="translate(-272.908 -230.482)"/><path class="d" d="M276.092,233.658l46.994.673s-12.328,20.476-24.928,19.905S276.092,233.658,276.092,233.658Z" transform="translate(-272.908 -230.482)"/><path class="e" d="M281.014,234.711c11.9.505,18.446,5.06,14.761,7.9-1.076.823-3,1.487-5.912,1.805C284.091,244.785,270.547,234.261,281.014,234.711Z" transform="translate(-263.986 -221.806)"/><path class="f" d="M279.815,236.859s-3.143,1.712-3.985,1.572,5.322-5.65,5.79-5.07S279.815,236.859,279.815,236.859Z" transform="translate(-275.752 -233.318)"/><path class="f" d="M282.714,237.32s-1.945-2.993-1.88-3.845,6.052,4.864,5.5,5.369S282.714,237.32,282.714,237.32Z" transform="translate(-233.303 -232.731)"/><path class="g" d="M276.949,233.809l30.279.786s-1.431,4.228-15.584,3.3C277.763,236.989,276.949,233.809,276.949,233.809Z" transform="translate(-265.748 -229.22)"/></g><path class="h" d="M309.778,91.206c.327,1.487-5.5,2.993-13.984,4.873s-16.416,3.4-16.744,1.927,7.072-5.416,15.556-7.287S309.451,89.728,309.778,91.206Z" transform="translate(-275.347 -84.388)"/><path class="h" d="M286.115,91.458c-.309,1.487,5.537,2.928,14.04,4.705,4.434.187,5.687-3.265,1.123-5.369C292.775,89.008,286.424,89.971,286.115,91.458Z" transform="translate(-219.674 -82.938)"/></g></g></svg>