<svg xmlns="http://www.w3.org/2000/svg" width="18" height="18" viewBox="0 0 18 18"><defs><style>.a{fill:rgba(255,255,255,0);}.b{fill:#915533;}.c{fill:#ffe5cc;}.d{fill:#6b3d2b;}.e{fill:#794830;}.f{fill:#9b6335;}.g{fill:#f9e8ca;}.h{fill:#d6b799;}</style></defs><g transform="translate(-1363 -721)"><rect class="a" width="18" height="18" transform="translate(1363 721)"/><g transform="translate(1365 722.299)"><path class="b" d="M22.708,228.085a6.648,6.648,0,0,1,2.111-1.547,3.743,3.743,0,0,1,2.535.037c.275.024.879-.512.058-.9a3.918,3.918,0,0,0-3.132.336C22.939,226.959,22.6,228.01,22.708,228.085Z" transform="translate(-22.3 -225.484)"/><path class="b" d="M33.015,228.216c-.088.075-.491-1.047-1.517-1.527a2.328,2.328,0,0,0-1.957.051c-.214.025-.641-.5.019-.893a2.369,2.369,0,0,1,2.392.318A2.9,2.9,0,0,1,33.015,228.216Z" transform="translate(-19.08 -225.402)"/><g transform="translate(0 3.113)"><path class="c" d="M23.353,229.71s.587,2.252,2.228,2.195c1.577-.055,1.518-2.2,1.518-2.2s-.279-1.61-1.341-1.529S23.353,229.71,23.353,229.71Z" transform="translate(-21.973 -227.729)"/><path class="d" d="M27.819,230.325s-.687-1.736-1.68-1.7A4.177,4.177,0,0,0,23.51,230.1l-1.081-1.142,1.218.342s1.387-1.639,2.61-1.4C26.9,228.025,27.492,228.7,27.819,230.325Z" transform="translate(-22.429 -227.876)"/><path class="e" d="M26.279,230.385a1.049,1.049,0,1,1-1.023-1.075A1.05,1.05,0,0,1,26.279,230.385Z" transform="translate(-21.565 -227.169)"/></g><g transform="translate(9.536 3.352)"><path class="c" d="M29,229.853s.36,2.051,1.6,2.083c1.448.036,1.6-2.09,1.6-2.09s-.27-1.557-1.3-1.48S29,229.853,29,229.853Z" transform="translate(-28.715 -227.903)"/><path class="d" d="M32.347,230.451s-.055-1.6-1.336-1.632c-1.335-.033-2.2,1.642-2.2,1.642.1-.523,1.262-2.435,2.386-2.407.753.019,1.227.524,1.408,1.535l.673-.2Z" transform="translate(-28.811 -228.055)"/><path class="e" d="M31.445,230.48a.989.989,0,1,1-.965-1.015A.987.987,0,0,1,31.445,230.48Z" transform="translate(-28.488 -227.36)"/></g><g transform="translate(1.674 10.25)"><path class="f" d="M31.394,236.121c-.411-.155-4.261-2.756-5.578-2.734s-2.62,3.837-2.178,4.5a22.928,22.928,0,0,1,4.015-.962,23.063,23.063,0,0,1,4.661.2c.079-.048-.137-.3-.137-.3l.258-.785s.535-.423.494-.506C32.929,235.525,31.763,236.26,31.394,236.121Z" transform="translate(-23.55 -233.387)"/><path class="g" d="M23.722,237.545a4.374,4.374,0,0,1,.443-2.044c.385-.987,1.117-1.963,1.5-1.989a8.16,8.16,0,0,1,2.707,1.1c1.294.729,2.708,1.675,2.962,1.721a2.256,2.256,0,0,0,.873-.288l-.246.779a22.037,22.037,0,0,0-4.681-.125A18.027,18.027,0,0,0,23.722,237.545Z" transform="translate(-23.482 -233.326)"/><path class="h" d="M26.653,233.781a3.028,3.028,0,0,0-.985-.269c-.385.025-1.117,1-1.5,1.989a4.374,4.374,0,0,0-.443,2.044c.025.007.579-.2,1.368-.417-.879-.027-.638-1.272-.376-1.825A2.183,2.183,0,0,1,26.653,233.781Z" transform="translate(-23.482 -233.325)"/><path class="h" d="M29.317,235.324l.231-.113-.246.779-.215-.028A.587.587,0,0,0,29.317,235.324Z" transform="translate(-20.82 -232.488)"/><g transform="translate(1.688 0.19)"><path class="h" d="M28.859,235.408a.281.281,0,0,1-.039-.012l-.106.414.078.007.1-.406Z" transform="translate(-22.692 -232.586)"/><path class="h" d="M27.835,234.793,27.556,236l.079,0,.269-1.169Z" transform="translate(-23.263 -232.883)"/><path class="h" d="M26.52,234.011l-.433,2.447H26.1l.066-.006.426-2.4Z" transform="translate(-23.988 -233.269)"/><path class="h" d="M25.272,233.514l-.591,3.591.082-.022.585-3.558Z" transform="translate(-24.681 -233.514)"/></g><path class="f" d="M23.819,235.438a7.641,7.641,0,0,1,1.723-.412c.957-.136,1.836-.134,1.851-.2a11.125,11.125,0,0,0-3.5.323Z" transform="translate(-23.418 -232.695)"/></g></g></g></svg>