<svg xmlns="http://www.w3.org/2000/svg" width="18" height="18" viewBox="0 0 18 18"><defs><style>.a{fill:rgba(255,255,255,0);}.b{fill:#915533;}.c{fill:#ffe5cc;}.d{fill:#794830;}.e{fill:#6b3d2b;}.f{fill:#9b6335;}</style></defs><g transform="translate(-1385 -699)"><rect class="a" width="18" height="18" transform="translate(1385 699)"/><g transform="translate(1387 702.889)"><path class="b" d="M210.545,93.877c0,.243-1.123.267-2.738.252s-3.119-.064-3.117-.306,1.508-.585,3.125-.57S210.546,93.635,210.545,93.877Z" transform="translate(-204.555 -93.252)"/><path class="b" d="M210.7,93.877c0,.243,1.121.267,2.738.252s1.835-.064,1.835-.306c0-.349-.227-.585-1.844-.57S210.7,93.635,210.7,93.877Z" transform="translate(-201.592 -93.253)"/><g transform="translate(0 0.966)"><path class="c" d="M205.454,94.652s.178,2.147,1.978,2.09c1.553-.048,1.781-1.959,1.781-1.959l-1.653-.433Z" transform="translate(-204.177 -93.678)"/><ellipse class="d" cx="0.784" cy="0.784" rx="0.784" ry="0.784" transform="translate(2.874 1.344)"/><path class="e" d="M209.919,95.256a4.913,4.913,0,0,0-2.1-.427,6.146,6.146,0,0,0-2.335.552l-.881-1.133,1.174.378a5.239,5.239,0,0,1,2.414-.724A2.083,2.083,0,0,1,209.919,95.256Z" transform="translate(-204.599 -93.9)"/></g><g transform="translate(8.784 0.783)"><path class="c" d="M210.63,94.763s.058,2.114,1.75,2.053c1.459-.052,1.674-2.141,1.674-2.141L212.5,94.2Z" transform="translate(-210.409 -93.568)"/><path class="e" d="M210.482,95.1a5.142,5.142,0,0,1,2.153-.463,2.509,2.509,0,0,1,1.736.587l.86-1.1-.918.3a2.573,2.573,0,0,0-1.4-.633A2.986,2.986,0,0,0,210.482,95.1Z" transform="translate(-210.482 -93.777)"/><ellipse class="d" cx="0.784" cy="0.784" rx="0.784" ry="0.784" transform="translate(1.481 1.527)"/></g><g transform="translate(6.01 11.269)"><path class="f" d="M208.748,101.091a1.441,1.441,0,0,0,.36.058l-.007-.022a.239.239,0,1,1,.443-.178.477.477,0,0,1-.046.527.518.518,0,0,1-.406.152,1.843,1.843,0,0,1-.467-.076" transform="translate(-208.624 -100.8)"/></g></g></g></svg>