<svg xmlns="http://www.w3.org/2000/svg" xmlns:xlink="http://www.w3.org/1999/xlink" width="18" height="18" viewBox="0 0 18 18"><defs><style>.a{fill:rgba(255,255,255,0);}.b{fill:#915533;}.c{fill:#ffe5cc;}.d{fill:#794830;}.e{fill:#6b3d2b;}.f{fill:#9b6335;}.g{opacity:0.5;mix-blend-mode:multiply;isolation:isolate;fill:url(#a);}.h{fill:#f9e8ca;}.i{fill:#d6b799;}</style><linearGradient id="a" x1="1.395" y1="21.453" x2="0.694" y2="21.527" gradientUnits="objectBoundingBox"><stop offset="0" stop-color="#9b6335"/><stop offset="0.3" stop-color="#986034"/><stop offset="0.476" stop-color="#905931"/><stop offset="0.619" stop-color="#824d2c"/><stop offset="0.746" stop-color="#6e3b25"/><stop offset="0.861" stop-color="#54251c"/><stop offset="0.967" stop-color="#340a11"/><stop offset="1" stop-color="#29000d"/></linearGradient></defs><g transform="translate(-1320 -699)"><rect class="a" width="18" height="18" transform="translate(1320 699)"/><g transform="translate(1322 701.396)"><path class="b" d="M53.72,89.822c.043.233-.873.436-2.205.682s-2.577.44-2.62.208,1.132-.8,2.465-1.05S53.677,89.589,53.72,89.822Z" transform="translate(-48.266 -89.543)"/><path class="b" d="M55.122,89.782c-.048.239,1.163.515,2.922.863.909.063,1.127-.488.172-.864C56.457,89.431,55.17,89.543,55.122,89.782Z" transform="translate(-45.195 -89.535)"/><g transform="translate(0 2.924)"><path class="c" d="M49.387,92.98a3.5,3.5,0,0,0,2.305,1.3c1.248-.021,1.354-1.374,1.354-1.374s-.251-1.342-1.287-1.244A5.549,5.549,0,0,0,49.387,92.98Z" transform="translate(-48.022 -91.425)"/><path class="d" d="M52.435,93.042A1.145,1.145,0,1,1,51.28,92.03,1.091,1.091,0,0,1,52.435,93.042Z" transform="translate(-47.643 -91.24)"/><path class="e" d="M53.764,93.436s-.926-1.327-1.869-1.1a10.22,10.22,0,0,0-2.344.962L48.473,92.2l1.2.312S52.937,89.708,53.764,93.436Z" transform="translate(-48.473 -91.501)"/></g><g transform="translate(9.178 3.056)"><path class="c" d="M54.75,92.937a2.467,2.467,0,0,0,1.865,1.269c1.154-.012,1.239-1.447,1.239-1.447s-.246-1.081-1.2-.991A3.661,3.661,0,0,0,54.75,92.937Z" transform="translate(-54.556 -91.504)"/><path class="d" d="M57.385,93.05a1.012,1.012,0,0,1-1.032,1.006,1.038,1.038,0,0,1-1.074-.985,1.011,1.011,0,0,1,1.03-1.006A1.041,1.041,0,0,1,57.385,93.05Z" transform="translate(-54.295 -91.355)"/><path class="e" d="M58.168,93.288a1.972,1.972,0,0,0-1.462-.95c-.9-.028-2.086,1.123-2.086,1.123.115-.975,2.353-3.082,3.573-.954l.818-.266Z" transform="translate(-54.62 -91.589)"/></g><g transform="translate(3.299 11.321)"><path class="e" d="M51.125,97.426c-.033.076-.275.045-.351.012a.149.149,0,1,1,.118-.275C50.968,97.2,51.158,97.35,51.125,97.426Z" transform="translate(-50.683 -97.113)"/><path class="d" d="M55.149,97.459c.048.067.276-.016.343-.064a.149.149,0,0,0-.173-.242C55.252,97.2,55.1,97.392,55.149,97.459Z" transform="translate(-48.485 -97.125)"/><path class="f" d="M50.857,97.281l6.556.027A4.042,4.042,0,0,1,54.228,99.3,4.381,4.381,0,0,1,50.857,97.281Z" transform="translate(-50.597 -97.049)"/><path class="g" d="M50.857,97.281l6.556.027A4.042,4.042,0,0,1,54.228,99.3,4.381,4.381,0,0,1,50.857,97.281Z" transform="translate(-50.597 -97.049)"/><path class="h" d="M51.179,97.4l5.309.013a3.037,3.037,0,0,1-5.309-.013Z" transform="translate(-50.438 -96.988)"/><path class="i" d="M51.179,97.4l5.309.013-.3.4a5.076,5.076,0,0,0-2.313-.3,9.934,9.934,0,0,0-2.443.243S51.249,97.509,51.179,97.4Z" transform="translate(-50.438 -96.988)"/></g></g></g></svg>