<svg xmlns="http://www.w3.org/2000/svg" width="18" height="18" viewBox="0 0 18 18"><defs><style>.a{fill:rgba(255,255,255,0);}.b{fill:#915533;}.c{fill:#9b6335;}.d{fill:#ffe5cc;}.e{fill:#794830;}.f{fill:#6b3d2b;}</style></defs><g transform="translate(-1406 -699)"><rect class="a" width="18" height="18" transform="translate(1406 699)"/><g transform="translate(1408 702.498)"><path class="b" d="M5.858.627c0,.247-1.124.274-2.74.264S0,.833,0,.588,1.51-.011,3.128,0,5.861.381,5.858.627Z" transform="matrix(0.985, -0.174, 0.174, 0.985, 0.099, 0.524)"/><path class="b" d="M0,.627C0,.875,1.122.9,2.74.89S4.575.83,4.575.584c0-.355-.228-.595-1.846-.584S0,.382,0,.627Z" transform="translate(9.161 -0.343) rotate(9)"/><g transform="translate(3.4 10.843)"><path class="c" d="M99.581,101.189a2.715,2.715,0,0,0-3.432.881.239.239,0,0,1-.334.047.248.248,0,0,1-.046-.341,3.172,3.172,0,0,1,4-1.034c.4.173.913.468.805.936C100.471,101.793,100,101.368,99.581,101.189Z" transform="translate(-95.72 -100.429)"/></g><g transform="translate(0 1.312)"><path class="d" d="M94.154,94.824a1.984,1.984,0,0,0,1.978,1.849c1.553-.042,1.781-1.732,1.781-1.732l-1.653-.384Z" transform="translate(-92.877 -93.883)"/><path class="e" d="M96.164,94.734a.935.935,0,1,1-1.865,0Z" transform="translate(-92.806 -93.792)"/><path class="f" d="M98.619,95.489a4.851,4.851,0,0,0-2.1-.434,6.057,6.057,0,0,0-2.335.563L93.3,94.466l1.174.384a5.184,5.184,0,0,1,2.414-.736A2.086,2.086,0,0,1,98.619,95.489Z" transform="translate(-93.299 -94.113)"/></g><g transform="translate(8.775 1.386)"><path class="d" d="M99.33,95.036a1.653,1.653,0,0,0,1.75,1.618c1.459-.041,1.674-1.688,1.674-1.688l-1.553-.373Z" transform="translate(-99.143 -93.938)"/><path class="e" d="M101.2,94.858a.949.949,0,0,1-.908.984.931.931,0,0,1-.89-.778,6.676,6.676,0,0,1,.976-.576Z" transform="translate(-99.106 -93.992)"/><path class="f" d="M99.205,95.5a5.086,5.086,0,0,1,2.153-.47,2.49,2.49,0,0,1,1.738.6l.859-1.122-.918.3a2.551,2.551,0,0,0-1.4-.643A2.976,2.976,0,0,0,99.205,95.5Z" transform="translate(-99.205 -94.161)"/></g></g></g></svg>