<svg xmlns="http://www.w3.org/2000/svg" width="18" height="18" viewBox="0 0 18 18"><defs><style>.a{fill:rgba(255,255,255,0);}.b{fill:#915533;}.c{fill:#9b6335;}.d{fill:#ffe5cc;}.e{fill:#794830;}.f{fill:#6b3d2b;}</style></defs><g transform="translate(-1363 -699)"><rect class="a" width="18" height="18" transform="translate(1363 699)"/><g transform="translate(1365 702.889)"><path class="b" d="M135.586,91.567c0,.242-1.118.275-2.735.273s-3.121-.037-3.119-.279,1.5-.6,3.119-.6S135.586,91.325,135.586,91.567Z" transform="translate(-129.687 -90.893)"/><path class="b" d="M135.741,91.565c0,.242,1.123.257,2.74.228s1.833-.078,1.832-.32c0-.351-.231-.584-1.847-.555S135.737,91.323,135.741,91.565Z" transform="translate(-126.724 -90.916)"/><g transform="translate(4.092 10.724)"><path class="c" d="M132.5,98.6c-.057-.057-.079-.52-.007-.5a10.433,10.433,0,0,1,2.6.956,4.323,4.323,0,0,0,.564.273.646.646,0,0,0,.2.039l-.006-.015a.192.192,0,0,1,.072-.222.124.124,0,0,1,.172.094.42.42,0,0,1-.022.375.255.255,0,0,1-.222.11.864.864,0,0,1-.257-.052" transform="translate(-132.443 -98.099)"/></g><g transform="translate(0 1.314)"><path class="d" d="M130.505,92.548a1.885,1.885,0,0,0,3.761.084l-1.656-.364Z" transform="translate(-129.306 -91.564)"/><ellipse class="e" cx="0.784" cy="0.784" rx="0.784" ry="0.784" transform="translate(2.241 0.799)"/><path class="f" d="M135.031,93.137a4.926,4.926,0,0,0-2.107-.409,6.139,6.139,0,0,0-2.332.572l-.89-1.126,1.177.367a5.247,5.247,0,0,1,2.41-.744A2.085,2.085,0,0,1,135.031,93.137Z" transform="translate(-129.702 -91.796)"/></g><g transform="translate(8.83 1.376)"><path class="d" d="M135.683,92.714a1.638,1.638,0,0,0,1.762,1.58c1.459-.054,1.66-1.677,1.66-1.677l-1.556-.355Z" transform="translate(-135.583 -91.629)"/><ellipse class="e" cx="0.784" cy="0.784" rx="0.784" ry="0.784" transform="translate(0.92 0.734)"/><path class="f" d="M135.616,93.176a5.149,5.149,0,0,1,2.15-.481,2.513,2.513,0,0,1,1.741.572l.85-1.111-.915.3a2.568,2.568,0,0,0-1.4-.621A2.986,2.986,0,0,0,135.616,93.176Z" transform="translate(-135.616 -91.838)"/></g></g></g></svg>