<svg xmlns="http://www.w3.org/2000/svg" width="13.231" height="22.162" viewBox="0 0 13.231 22.162"><defs><style>.a{fill:rgba(255,255,255,0);}.b{fill:#f4be84;}.c{fill:#e2a36a;}.d{fill:#505282;}.e{fill:#f9e8ca;}.f{fill:#41466d;}</style></defs><g transform="translate(-1504.769 -724.838)"><rect class="a" width="13" height="22" transform="translate(1505 725)"/><g transform="translate(1337.99 496.941)"><path class="b" d="M172.566,237.234l-1.231-2.69-.913.327.678,3.158Z"/><path class="c" d="M171.381,237.877l-.281.152-.678-3.158.291-.1Z"/><path class="d" d="M174.671,248.51c-2.306-3.1-3.592-10.017-3.961-11.227l1.853-.944s4.875,7.205,5.941,9.945c.754,1.938-.013,2.779-.913,3.167C176.828,249.781,175.881,250.136,174.671,248.51Z"/><path class="e" d="M172.446,236.4l-1.6.811-.429-.98s.367-.169.82.312a.945.945,0,0,1,.846-1.012Z"/><path class="f" d="M175.82,248.875a4.528,4.528,0,0,0,.866.848c-.578.054-1.243-.175-2.015-1.213-2.306-3.1-3.592-10.017-3.961-11.227l.388-.2C171.707,239.174,173.356,245.82,175.82,248.875Z"/><g transform="translate(165.494 232.7) rotate(-60)"><path class="c" d="M165.561,107.251s-.168-1.407,1.861-1.714c.856-.322,1.765-1.321,2.238-1.1s-.944,1.9-2.336,2.324S165.561,107.251,165.561,107.251Z" transform="translate(-165.449 -101.17)"/><path class="b" d="M165.854,105.407c.213-.61-.512-2.674.162-2.77.2-.028.482,1.291.51,1.889a3.958,3.958,0,0,1-1.241,2.831C164.774,107.7,165.5,106.413,165.854,105.407Z" transform="translate(-161.583 -101.872)"/><path class="b" d="M164.865,105.311a5.352,5.352,0,0,0,.275-1.217c.073-.882-.184-1.9.163-1.989.322-.082.572,1.457.548,2.175a3.111,3.111,0,0,1-.629,1.673C164.714,106.684,164.515,106.327,164.865,105.311Z" transform="translate(-160.307 -102.102)"/><path class="b" d="M165.022,107.833a2.2,2.2,0,0,1,1.043-1.107,16.2,16.2,0,0,0,2.637-.992c.38-.349.673-2.429,1.027-2.414.47.021.1,3.07-.5,3.739a7.42,7.42,0,0,1-3.42,1.225C164.947,108.644,165.022,107.833,165.022,107.833Z" transform="translate(-165.366 -101.636)"/></g></g></g></svg>