<svg xmlns="http://www.w3.org/2000/svg" width="8.166" height="23.798" viewBox="0 0 8.166 23.798"><defs><style>.a{fill:rgba(255,255,54,0);}.b{fill:#f4be84;}.c{fill:#505282;}.d{fill:#f9e8ca;}.e{fill:#41466d;}</style></defs><g transform="translate(-929.689 -528.424)"><rect class="a" width="8.166" height="23.798" transform="translate(929.689 528.424)"/><path class="b" d="M167.113,109.661l.737-2.865.956.161-.11,3.228Z" transform="translate(767.011 426.796)"/><path class="b" d="M165.58,104.6c-.149-.432.358-1.893-.113-1.961-.141-.02-.337.914-.357,1.337a2.818,2.818,0,0,0,.868,2C166.335,106.22,165.824,105.31,165.58,104.6Z" transform="translate(767.011 426.796)"/><path class="b" d="M165.379,104.346a3.744,3.744,0,0,1-.192-.851c-.051-.617.129-1.33-.114-1.391-.225-.057-.4,1.019-.383,1.521a2.176,2.176,0,0,0,.44,1.17C165.485,105.306,165.624,105.057,165.379,104.346Z" transform="translate(767.011 426.796)"/><path class="b" d="M168.83,106.829s.064-.889-.507-1.127a13.067,13.067,0,0,1-2.011-.694c-.29-.244-.513-1.7-.783-1.688-.358.015-.078,2.147.378,2.615a8.592,8.592,0,0,0,2.211,1.3.473.473,0,0,0,.712-.406Z" transform="translate(767.011 426.796)"/><g transform="translate(766.569 426.796)"><path class="c" d="M168.289,123.63c1.288-3.643.959-13.091.955-14.356l-2.05-.355s-3.015,10.783-3.225,13.716c-.148,2.074.834,2.651,1.808,2.756C166.6,125.481,167.614,125.54,168.289,123.63Z"/><path class="d" d="M167.244,108.92l1.85.327.12-1.062s-.4-.053-.692.54a.945.945,0,0,0-1.106-.717Z"/><path class="e" d="M167.3,124.317a4.527,4.527,0,0,1-.577,1.067c.569-.119,1.136-.535,1.567-1.754,1.288-3.643.959-13.091.955-14.356l-.429-.075C168.849,111.374,168.75,120.671,167.3,124.317Z"/></g></g></svg>