<svg xmlns="http://www.w3.org/2000/svg" width="31.425" height="53.18" viewBox="0 0 31.425 53.18"><defs><style>.a{fill:rgba(255,255,255,0);}.b{fill:#f4be84;}.c{fill:#e2a36a;}.d{fill:#505282;}.e{fill:#f9e8ca;}.f{fill:#41466d;}</style></defs><g transform="translate(-1505 -725)"><rect class="a" width="31.425" height="53.18" transform="translate(1505 725)"/><g transform="translate(1508.802 729.151)"><path class="b" d="M175.6,241.046l-2.976-6.5-2.207.79,1.639,7.634Z" transform="translate(-165.976 -223.019)"/><path class="c" d="M172.74,242.279l-.679.367-1.639-7.634.7-.242Z" transform="translate(-165.976 -222.697)"/><path class="d" d="M180.285,265.76c-5.574-7.494-8.683-24.214-9.575-27.139l4.479-2.282s11.784,17.417,14.361,24.04c1.823,4.685-.031,6.718-2.207,7.656C185.5,268.832,183.21,269.69,180.285,265.76Z" transform="translate(-165.568 -220.475)"/><path class="e" d="M175.322,237.632l-3.868,1.96-1.037-2.369s.887-.409,1.982.754a2.284,2.284,0,0,1,2.045-2.446Z" transform="translate(-165.983 -221.62)"/><path class="f" d="M183.062,265.587a10.948,10.948,0,0,0,2.093,2.05c-1.4.13-3-.423-4.871-2.932-5.574-7.494-8.683-24.214-9.575-27.139l.938-.483C173.12,242.138,177.106,258.2,183.062,265.587Z" transform="translate(-165.568 -219.421)"/><path class="b" d="M6.641,13.069c.018-1.418.816-8.458.816-8.458C6.313,4.766,6.37,6.856,6.415,7.025s-.32,1.105-.479,1S5.471,1.6,5.191.707,4.31.518,4.308,1.18a43.216,43.216,0,0,1-.077,4.776C4.06,6.237,3.978.89,3.676.316S3.062.082,2.828.286s.086,5.383-.11,5.921S2.249,1.333,2.029.8,1.3.771,1.3.771c-.171.279-.049,5.215-.173,5.525S1.011,5.869.772,4.309s-.308-2-.624-1.835S.14,5.754.008,7.7,2.926,15.66,2.926,15.66,6.623,14.489,6.641,13.069Z" transform="translate(-0.281 0.026) rotate(-6)"/></g></g></svg>