<svg xmlns="http://www.w3.org/2000/svg" width="8.166" height="23.798" viewBox="0 0 8.166 23.798"><defs><style>.a{fill:rgba(255,255,54,0);}.b{fill:#f4be84;}.c{fill:#505282;}.d{fill:#f9e8ca;}.e{fill:#41466d;}</style></defs><g transform="translate(-941.689 -528.424)"><rect class="a" width="8.166" height="23.798" transform="translate(941.689 528.424)"/><path class="b" d="M.293,5.4C.287,4.815,0,1.906,0,1.906c.411.064.391.928.375,1s.115.457.172.412S.714.66.814.292s.317-.078.317.2S1.1,2.346,1.16,2.462s.091-2.094.2-2.331.221-.1.3-.012-.031,2.225.04,2.447S1.872.551,1.951.332s.263-.013.263-.013c.062.115.018,2.155.062,2.283s.04-.176.126-.821.111-.825.224-.759A17.467,17.467,0,0,1,2.678,3.18,13.433,13.433,0,0,1,1.629,6.472S.3,5.988.293,5.4Z" transform="translate(945.772 529.424)"/><g transform="translate(942.523 534.786)"><path class="c" d="M168.289,123.63c1.288-3.643.959-13.091.955-14.356l-2.05-.355s-3.015,10.783-3.225,13.716c-.148,2.074.834,2.651,1.808,2.756C166.6,125.481,167.614,125.54,168.289,123.63Z" transform="translate(-163.954 -107.99)"/><path class="d" d="M167.244,108.92l1.85.327.12-1.062s-.4-.053-.692.54a.945.945,0,0,0-1.106-.717Z" transform="translate(-163.954 -107.99)"/><path class="e" d="M167.3,124.317a4.528,4.528,0,0,1-.577,1.067c.569-.119,1.136-.535,1.567-1.754,1.288-3.643.959-13.091.955-14.356l-.429-.075C168.849,111.374,168.75,120.671,167.3,124.317Z" transform="translate(-163.954 -107.99)"/></g></g></svg>