<svg xmlns="http://www.w3.org/2000/svg" width="5.33" height="23.324" viewBox="0 0 5.33 23.324"><defs><style>.a{fill:#f4be84;}.b{fill:#505282;}.c{fill:#f9e8ca;}.d{fill:#41466d;}</style></defs><g transform="translate(-163.954 -102.102)"><path class="a" d="M167.113,109.661l.737-2.865.956.161-.11,3.228Z"/><path class="b" d="M168.289,123.63c1.288-3.643.959-13.091.955-14.356l-2.05-.355s-3.015,10.783-3.225,13.716c-.148,2.074.834,2.651,1.808,2.756C166.6,125.481,167.614,125.54,168.289,123.63Z"/><path class="c" d="M167.244,108.92l1.85.327.12-1.062s-.4-.053-.692.54a.945.945,0,0,0-1.106-.717Z"/><path class="d" d="M167.3,124.317a4.528,4.528,0,0,1-.577,1.067c.569-.119,1.136-.535,1.567-1.754,1.288-3.643.959-13.091.955-14.356l-.429-.075C168.849,111.374,168.75,120.671,167.3,124.317Z"/><path class="a" d="M168.8,106.395s.13-.984-1.439-1.2c-.662-.225-1.365-.924-1.731-.77s.73,1.327,1.807,1.625S168.8,106.395,168.8,106.395Z"/><path class="a" d="M165.58,104.6c-.149-.432.358-1.893-.113-1.961-.141-.02-.337.914-.357,1.337a2.818,2.818,0,0,0,.868,2C166.335,106.22,165.824,105.31,165.58,104.6Z"/><path class="a" d="M165.379,104.346a3.743,3.743,0,0,1-.192-.851c-.051-.617.129-1.33-.114-1.391-.225-.057-.4,1.019-.383,1.521a2.176,2.176,0,0,0,.44,1.17C165.485,105.306,165.624,105.057,165.379,104.346Z"/><path class="a" d="M168.83,106.829s.064-.889-.507-1.127a13.068,13.068,0,0,1-2.011-.694c-.29-.244-.513-1.7-.783-1.688-.358.015-.078,2.147.378,2.615a8.592,8.592,0,0,0,2.211,1.3A.473.473,0,0,0,168.83,106.829Z"/></g></svg>