<svg xmlns="http://www.w3.org/2000/svg" width="13" height="22" viewBox="0 0 13 22"><defs><style>.a{fill:rgba(255,255,255,0);}.b{fill:#f4be84;}.c{fill:#e2a36a;}.d{fill:#505282;}.e{fill:#f9e8ca;}.f{fill:#41466d;}</style></defs><g transform="translate(-1505 -725)"><rect class="a" width="13" height="22" transform="translate(1505 725)"/><g transform="translate(1337.99 496.941)"><path class="b" d="M172.566,237.234l-1.231-2.69-.913.327.678,3.158Z"/><path class="c" d="M171.381,237.877l-.281.152-.678-3.158.291-.1Z"/><path class="d" d="M174.671,248.51c-2.306-3.1-3.592-10.017-3.961-11.227l1.853-.944s4.875,7.205,5.941,9.945c.754,1.938-.013,2.779-.913,3.167C176.828,249.781,175.881,250.136,174.671,248.51Z"/><path class="e" d="M172.446,236.4l-1.6.811-.429-.98s.367-.169.82.312a.945.945,0,0,1,.846-1.012Z"/><path class="f" d="M175.82,248.875a4.528,4.528,0,0,0,.866.848c-.578.054-1.243-.175-2.015-1.213-2.306-3.1-3.592-10.017-3.961-11.227l.388-.2C171.707,239.174,173.356,245.82,175.82,248.875Z"/><path class="c" d="M170.513,234.939a2.23,2.23,0,0,1-.769-.41c-.387-.41-.353-.465-.491-.531-.228-.108-.479-.144-.606-.212-.209-.112-.179-.6.04-.666a4.542,4.542,0,0,1,1.105.021l.729.3.375,1.325Z"/><path class="b" d="M171.344,234.568s-.207-.718-.321-1.353-.079-1.1-.332-1.162a5.422,5.422,0,0,0-1.813.14.482.482,0,0,0-.116.412.339.339,0,0,0-.132.383c.091.228.252.191.252.191a.442.442,0,0,0,.1.4.426.426,0,0,0,.386.083s-.016.241.1.326.539.03.555-.1-.163-.147-.163-.147v-.1l.324-.227.143.119s-.024.317-.072.714.5.585.5.585Z"/><path class="b" d="M168.536,233.647a.2.2,0,0,0,.338.041c.2-.2.066-.625-.187-.568S168.536,233.647,168.536,233.647Z"/><path class="c" d="M168.981,233.584a.507.507,0,0,1-.1-.4.268.268,0,0,1-.2-.059l-.058.033a.4.4,0,0,0,.194.1s-.028.328.122.45Z"/><path class="c" d="M168.762,232.6a1.67,1.67,0,0,1,1.186-.567,4,4,0,0,0-1.07.155C168.722,232.312,168.762,232.6,168.762,232.6Z"/><path class="c" d="M169.367,233.667a.566.566,0,0,1,.05-.24c.051-.084.53-.422.518-.444a2.746,2.746,0,0,0-.579.418.848.848,0,0,0-.063.324Z"/><path class="c" d="M168.882,233.179a9.172,9.172,0,0,1,.751-.608c-.012-.041-.272.063-.82.6C168.813,233.176,168.833,233.217,168.882,233.179Z"/></g></g></svg>