<svg xmlns="http://www.w3.org/2000/svg" xmlns:xlink="http://www.w3.org/1999/xlink" width="133" height="205.824" viewBox="0 0 133 205.824"><defs><style>.a{fill:#999;}.b{fill:#474747;}.c{fill:#e2e4db;}.d{fill:url(#a);}.e{fill:url(#b);}.f{fill:url(#c);}.g{fill:url(#d);}.h{fill:url(#e);}.i{fill:url(#f);}.j{fill:url(#g);}.k{fill:url(#h);}.l{fill:#320000;}.m{fill:url(#i);}.n{fill:url(#j);}.o{stroke:rgba(0,0,0,0);stroke-miterlimit:10;fill:url(#k);}.p{fill:#181a18;}</style><linearGradient id="a" x1="1.721" y1="0.548" x2="-1.129" y2="0.423" gradientUnits="objectBoundingBox"><stop offset="0" stop-color="#abd612"/><stop offset="0.417" stop-color="#85c018"/><stop offset="0.782" stop-color="#6bb11c"/><stop offset="1" stop-color="#62ac1e"/></linearGradient><linearGradient id="b" x1="0.43" y1="0.513" x2="0.302" y2="0.071" gradientUnits="objectBoundingBox"><stop offset="0" stop-color="#3e8d1c"/><stop offset="0.364" stop-color="#348515"/><stop offset="1" stop-color="#297b0c"/></linearGradient><linearGradient id="c" x1="1.465" y1="0.538" x2="-1.972" y2="0.446" gradientUnits="objectBoundingBox"><stop offset="0" stop-color="#6fb017"/><stop offset="1" stop-color="#569200"/></linearGradient><linearGradient id="d" x1="0.919" y1="1.03" x2="-0.195" y2="-0.854" gradientUnits="objectBoundingBox"><stop offset="0.006" stop-color="#3e9d1c"/><stop offset="0.268" stop-color="#3c941a"/><stop offset="0.69" stop-color="#377c17"/><stop offset="1" stop-color="#346715"/></linearGradient><linearGradient id="e" x1="0.338" y1="1.475" x2="0.563" y2="-0.481" gradientUnits="objectBoundingBox"><stop offset="0" stop-color="#286f0c"/><stop offset="1" stop-color="#196800"/></linearGradient><linearGradient id="f" x1="0.416" y1="0.083" x2="0.597" y2="0.858" gradientUnits="objectBoundingBox"><stop offset="0" stop-color="#b5dc10"/><stop offset="1" stop-color="#9dd700"/></linearGradient><linearGradient id="g" x1="0.515" y1="0.186" x2="0.446" y2="1.099" gradientUnits="objectBoundingBox"><stop offset="0.006" stop-color="#65ae00"/><stop offset="0.59" stop-color="#498a0c"/><stop offset="1" stop-color="#3a7613"/></linearGradient><linearGradient id="h" x1="0.44" y1="0.104" x2="0.548" y2="0.818" gradientUnits="objectBoundingBox"><stop offset="0" stop-color="#d1ea37"/><stop offset="0.378" stop-color="#c8e52b"/><stop offset="1" stop-color="#b5dc10"/></linearGradient><radialGradient id="i" cx="0.44" cy="0.498" r="0.481" gradientTransform="matrix(1.091, -0.005, 0.006, 1.065, -0.044, -0.029)" gradientUnits="objectBoundingBox"><stop offset="0.213"/><stop offset="0.325" stop-color="#020202"/><stop offset="0.405" stop-color="#0c0c0c"/><stop offset="0.475" stop-color="#1b1b1b"/><stop offset="0.539" stop-color="#323232"/><stop offset="0.6" stop-color="#4e4e4e"/><stop offset="0.658" stop-color="#727272"/><stop offset="0.713" stop-color="#9c9c9c"/><stop offset="0.765" stop-color="#cbcbcb"/><stop offset="0.814" stop-color="#fff"/><stop offset="0.833" stop-color="#f4f4f4"/><stop offset="0.866" stop-color="#d9d9d9"/><stop offset="0.908" stop-color="#acacac"/><stop offset="0.958" stop-color="#6f6f6f"/><stop offset="1" stop-color="#363636"/></radialGradient><radialGradient id="j" cx="0.44" cy="0.498" r="0.481" gradientTransform="matrix(1.092, -0.005, 0.006, 1.065, -0.074, -0.029)" xlink:href="#i"/><radialGradient id="k" cx="0.5" cy="0.5" r="0.5" gradientUnits="objectBoundingBox"><stop offset="0" stop-color="#585858"/><stop offset="1"/></radialGradient></defs><g transform="translate(-1664 -430)"><g transform="translate(1490.725 354.935)"><g transform="translate(225.91 76.185)"><g transform="translate(0 0)"><path class="a" d="M338.008,132.827c-.827-38.321,9.889-52.158,19.319-52.362a17.374,17.374,0,0,1,12.814,5.364c8.156,7.965,13.046,24.255,13.082,43.575l1.931,0c-.037-19.828-5.145-36.633-13.665-44.953a19.234,19.234,0,0,0-14.2-5.913c-10.814.235-22.064,14.632-21.207,54.334Z" transform="translate(-336.032 -78.529)"/></g><path class="b" d="M388.267,129.4c-.037-19.828-5.145-36.633-13.665-44.953a19.234,19.234,0,0,0-14.2-5.913h-.03a19.268,19.268,0,0,1,13.792,5.911c8.519,8.32,13.627,25.125,13.664,44.953Zm-47.59,3.427h.444c-.826-38.279,9.866-52.127,19.288-52.361-.138,0-.275,0-.413,0C350.567,80.669,339.85,94.506,340.678,132.827Z" transform="translate(-339.145 -78.529)"/><path class="c" d="M370.439,86.127l-.075-.07c8.02,8.043,12.823,24.2,12.859,43.346h.3C383.432,110.214,378.552,94.05,370.439,86.127Zm1.05-1.68a19.234,19.234,0,0,0-14.2-5.913c-10.814.235-22.064,14.632-21.207,54.334l.293-.006c-.793-39.47,10.426-53.8,21.212-54.03a19.21,19.21,0,0,1,14.133,5.845C371.64,84.6,371.565,84.522,371.489,84.447Z" transform="translate(-336.032 -78.529)"/></g><g transform="translate(173.275 125.18)"><path class="d" d="M530.033,359.248c-1.047-12.488-8.938-117.739-8.938-117.739l-12.922-.538,2.886,124.712,21.809,8.746Z" transform="translate(-399.868 -237.432)"/><path class="e" d="M462.893,654h0l39.339-18.713L480.51,626.51Z" transform="translate(-369.232 -498.29)"/><path class="f" d="M477.563,233.566l-11.106-3.537-.082.015L465.35,362.311l-2.457,23.427,17.617-27.489Z" transform="translate(-369.232 -230.029)"/><path class="g" d="M536.255,606.707l-18.886,6.4,21.721,8.776Z" transform="translate(-406.091 -484.891)"/><path class="h" d="M465.35,630.572,462.893,654,480.51,626.51Z" transform="translate(-369.232 -498.29)"/><path class="i" d="M178.239,281.315c.775-22.132,1.741-44.677,1.741-44.677l90.521-6.6-1.109,132.279-2.457,23.427-93.661-21.359a13.935,13.935,0,0,0,1.048-4.821c.237-3.207,1.466-12.666,1.474-13.232C175.8,346.02,177.276,308.877,178.239,281.315Z" transform="translate(-173.275 -230.035)"/><path class="j" d="M174.323,603.335a13.935,13.935,0,0,1-1.048,4.821l93.661,21.359,2.457-23.427-93.612-15.765C175.634,591.868,174.545,600.336,174.323,603.335Z" transform="translate(-173.275 -473.805)"/><path class="k" d="M216.632,283.27c19.927-21.794,40.92-39.893,60.717-53.161l-90.49,6.6s-.967,22.546-1.741,44.678c-.529,15.121-1.112,31.639-1.532,43.522A370.541,370.541,0,0,1,216.632,283.27Z" transform="translate(-180.252 -230.083)"/></g><g transform="translate(199.543 131.509)"><g transform="translate(0 2.602)"><path class="l" d="M262.71,263.912a3.035,3.035,0,1,1-2.937-3.626A3.31,3.31,0,0,1,262.71,263.912Z" transform="translate(-256.015 -259.432)"/><path class="m" d="M258.574,257.646a4.21,4.21,0,0,0-4.073,4.431c-.022,3.023,2.02,4.555,4.121,4.431a4.451,4.451,0,0,0-.048-8.862Zm-.265,7.5c-1.431-.023-2.493-1.4-2.47-3.112s1.176-3.071,2.413-3.06a2.887,2.887,0,0,1,2.55,3.147C260.779,263.834,259.741,265.168,258.31,265.144Z" transform="translate(-254.501 -257.645)"/></g><g transform="translate(43.015)"><path class="l" d="M396.177,256.218c-.03,2.084-1.463,3.753-3.2,3.723s-3.129-1.742-3.1-3.827,1.463-3.752,3.2-3.724S396.2,254.132,396.177,256.218Z" transform="translate(-389.108 -251.488)"/><path class="n" d="M391.811,249.6a4.445,4.445,0,0,0-4.3,4.678c-.024,3.192,2.132,4.81,4.35,4.678a4.549,4.549,0,0,0,4.229-4.616C396.126,251.756,394.111,249.538,391.811,249.6Zm-.279,7.916c-1.51-.025-2.631-1.475-2.608-3.286s1.242-3.242,2.548-3.231a3.048,3.048,0,0,1,2.692,3.323C394.139,256.134,393.044,257.543,391.531,257.517Z" transform="translate(-387.511 -249.6)"/></g></g><g transform="translate(202.45 75.065)"><path class="a" d="M309.885,134.536a4.118,4.118,0,0,0-.5-.765,1.511,1.511,0,0,1-.259-.06c-.191-.064-.48-.159-.37-.88l.094-.615c1.615-10.578,6.53-42.768-2.865-53.489a10.407,10.407,0,0,0-8.382-3.66c-3.493.07-12.486,1.371-20.537,11.922-8.068,10.574-12.634,26.974-13.571,48.743a2.293,2.293,0,0,0,.9,1.922,2.762,2.762,0,0,0,2.492.512,4.917,4.917,0,0,0-.282-1.024,3.17,3.17,0,0,0-.511-.842c-.548,0-.676-.4-.672-.485C267.268,92.839,283.93,77.272,297.637,77a8.445,8.445,0,0,1,6.891,3c8.8,10.045,3.99,41.566,2.409,51.924l-.094.616a2.513,2.513,0,0,0,1.672,3,3.873,3.873,0,0,0,1.7.14A2.937,2.937,0,0,0,309.885,134.536Z" transform="translate(-263.488 -75.065)"/><path class="b" d="M268.2,135.874c0,.086.125.481.672.484l.408-.058c-.547,0-.676-.4-.672-.485,1.732-40.273,16.473-56.477,29.6-58.58C284.979,79.066,269.95,95.182,268.2,135.874Zm44.369-2.1a1.511,1.511,0,0,1-.259-.06c-.191-.064-.48-.159-.37-.88l.094-.615c1.615-10.578,6.53-42.768-2.865-53.489a10.407,10.407,0,0,0-8.382-3.66,19.322,19.322,0,0,0-2.547.229,19.119,19.119,0,0,1,2.139-.17,10.4,10.4,0,0,1,8.382,3.66c9.395,10.72,4.481,42.911,2.865,53.488l-.094.616c-.109.721.18.816.37.879A5.087,5.087,0,0,0,312.569,133.771Z" transform="translate(-266.676 -75.065)"/><path class="c" d="M297.6,75.068c-3.493.07-12.486,1.371-20.537,11.922-8.068,10.574-12.634,26.974-13.571,48.743a2.291,2.291,0,0,0,.877,1.9,2.267,2.267,0,0,1-.493-1.516c.937-21.769,5.5-38.168,13.57-48.743,8.051-10.551,17.044-11.852,20.537-11.922a10.368,10.368,0,0,1,7.652,2.9A10.376,10.376,0,0,0,297.6,75.068Zm9.629,57.858.094-.616c1.582-10.358,6.395-41.88-2.409-51.924q-.326-.372-.672-.7c.1.1.193.205.288.313,8.8,10.045,3.99,41.566,2.409,51.924l-.094.616a2.616,2.616,0,0,0,.864,2.577A2.779,2.779,0,0,1,307.227,132.925Z" transform="translate(-263.488 -75.065)"/></g></g><g transform="translate(1820.203 467.468) rotate(90)"><path class="o" d="M-1683.13-366.642l-.572-.351s-.986.346-1.326.467-1.622.189-2,.328a6.359,6.359,0,0,0-1.193.884l-.687,1.159.617-1.318,1.262-.86s1.881-.244,2.063-.337.958-.4,1.251-.523a2.434,2.434,0,0,0,.606-.5,2.784,2.784,0,0,0,.5-.642c.105-.265.752-2.256.91-2.73a8.924,8.924,0,0,0,.456-2.074c.007-.577-.006-1.746-.006-1.746s1.262-5.958,1.391-6.6l1.031-.47,3.04.366.657-.459,2.059-3.2,1.9-.858.177-.936-.473-1.053-1.425.308-2.289,1.585,2.1-1.951v-2.573c-.318.085-.657.2-1.023.311a10.946,10.946,0,0,1-3.092-.159l-.974.443,1.042-.6a19.218,19.218,0,0,0,2.406.15l-.72-1.244-2.6-.744c-.193-.241-1.661,1.178-2.029,1.969a7.373,7.373,0,0,0-.387,1.049h0l-.149.589-2.005.713.022,1.264,1.7,1.9a18.094,18.094,0,0,1-2.947-2.829c-.979-1.329-3.174.115-3.174.115s1.779-1.371,2.4-.9,3.308-.4,3.308-.4l2.834-4.826-2.782-2.118-.524-1.408-5.811-.717-4.425-1.859s-1.024-1.681-2.168-1.311a6.2,6.2,0,0,0-2.935,1.563,15.162,15.162,0,0,0-1.706,3.665l2.566,1.033-2.958-.845-3.34,2.934,2.89-3.276c.807-.263,2.066-3.783,2.066-3.783l-.251-1.261-2.409-2.128,2.554,1.654,3.3.274a1.514,1.514,0,0,1,2.2.506c.945,1.4,3.943,2.321,3.943,2.321l4.973.1s.52-8.73.037-9.3c-.307-.359-1.325-1.312-1.325-1.312l-1.272.9s1.843-1.612,1.573-2.7c-.338-1.352,1.39-1.885,1.39-1.885l1.092-4.775h0l3.633-1.767.646-4.02-3.617-1.046-5.018-2.581,5.147,2.14,8.312.992,2.842-4.186,2.182.628s-2.839-8.718-3.064-8.659a9.929,9.929,0,0,0-1.335,1.263s.585-1.5.08-1.511-.663-.148-1.235-.2a5.2,5.2,0,0,0-2.265.509,7.968,7.968,0,0,0-1.48.855,4.953,4.953,0,0,0-1.064.071,22.76,22.76,0,0,0-1.968,1.514l-2.652.4,2.54-.495a13.113,13.113,0,0,1,2.542-1.919,4.832,4.832,0,0,0,1.917-.889c.463-.469,1.242-1.17,1.242-1.17l-.056-.878s-.625-.663-.931-.566a2.15,2.15,0,0,1-.774.03l.025-1.158-.48-.683-1.9.377-2.86-1.5-.715-.005-2.424,2.062-1.032.2c-.334-.463-3.5-4.738-3.5-4.738s-.4-.99-.611-1.471a6.531,6.531,0,0,0-1.115-1.479c-.3-.307-1.546-1.607-1.729-1.768a1.764,1.764,0,0,0-.588-.238h0a1.973,1.973,0,0,0-.742-.085c-.288.068-1.048.257-1.236.284s-1.852.907-1.852.907l-1.363.006-.985-.752.005,0-.005,0,.986.578.138.02c.154.021.413.052.661.063.055,0,.11,0,.162,0h.014a1.4,1.4,0,0,0,.34-.033c.365-.1,1.467-.783,1.8-.878s1.278-.374,1.278-.374l.357-.625-1-2.875,1.18,2.8s.21.257.884,1.12a10.006,10.006,0,0,0,1.943,1.687,6.932,6.932,0,0,1,1.6,2.453,10.95,10.95,0,0,0,1.832,2.565,17.62,17.62,0,0,0,1.59,1.928,10.642,10.642,0,0,0,2.56-1.56,1.017,1.017,0,0,1,1.368-.194,13.011,13.011,0,0,0,2.848,1.318s1.633-.285,1.758-.3h0l.092-.028c.077-.031.173-.078.264-.122a.972.972,0,0,1,.238-.1,5.077,5.077,0,0,1,1.111-.165c.049-.008.1-.018.139-.029.439-.11.838-1.986.838-1.986l.518-.5a2.14,2.14,0,0,1,.555-.079,5.666,5.666,0,0,1,.657.242,4.062,4.062,0,0,0,.267-1.235c-.008-.526-.176-.742-.67-1.246a4.667,4.667,0,0,0-1.972-.725,4.327,4.327,0,0,1,1.541.068,21.372,21.372,0,0,0,2.382.715l.206,1.072.5-.34,0,.077s.678,1.34.937,1.3.464-.688.567-.8a2.4,2.4,0,0,1,1.085-.442,1.231,1.231,0,0,0,.794-.352c.209-.174.156-.788.156-.788a5.517,5.517,0,0,1-.292-1.633,5.18,5.18,0,0,0,.193-1.224l-1.9-2.507,2.058,2.149,4.931,4.648,7.492,3.12,1.318-1.289-1.741-2.966,1.741,2.225h2.32l6.38-5.044-5.452,5.044-.813,7.566h1.973l1.1-1.409,3.539,4.525,1.36.651,3.874-2.535s-.6-2.016.4-2.407c.811-.314.8-3.029.8-3.029l.133,1.759,1.619.376.623-.662.136.42c1.619-1.269,4.81-4.561,4.81-4.561h0l-.764-.4-2.074-4.432-.627-.858.724.766s-2.179-2.506-3.546-2.7c-1.35-.189-1.492-1.885-1.5-1.929l-1.944-3.155h0v0l-6.665-.681,6.878.282.906-.429s1.477-3.156,1.2-4.106a28.982,28.982,0,0,0-1.589-3.383l2.04,3.65,1.242.731-1.146-.237a15.036,15.036,0,0,0-1.324,3.683q-.015.167-.019.332h0l.014.579a7.923,7.923,0,0,0,.149,1.041h0l.478,1.826a2.293,2.293,0,0,0,1.97,1.465l3.524,3.427,3.57,5.432,1.144-.234,2.8,1.644,1.426-5.437s-.915-3.163-1.536-3.529-.742-2.885-.742-2.885.3,2.975,1.641,3.239a14.053,14.053,0,0,1,3.318,1.427l-2.079-.68-.786.658.644,2.392-.281.466a6.736,6.736,0,0,0-.433.95c-.286.795-.364,3.03-.112,3.093l5.09,3.785,3.78-3.561,4.259-.1.712-.6.835-3.172-.559,3.366a3.868,3.868,0,0,0,.662.891c.2.087.427,1.559.427,1.559s.209.548.454.553a1.147,1.147,0,0,0,.806-.238,2.294,2.294,0,0,1,1.085-.359c.131.023.57.428.8.285s.248-1.715.248-1.715l-.031-.066.556-.051-.268-1.031s1.51-1.821,1.694-2.194a5.555,5.555,0,0,1,1.258-1.09,6.655,6.655,0,0,0-1.347,1.927c-.205.751-.257,1.043-.049,1.488a2.907,2.907,0,0,0,.729.85s.333-.518.449-.643a2.454,2.454,0,0,1,.5-.306l.638.074s1.1,1.3,1.514,1.094.99-.717,1.385-.753a9.211,9.211,0,0,0,1.928-1.037,19.005,19.005,0,0,0,1.834-3.01,1.122,1.122,0,0,1,1.22-.755,9.026,9.026,0,0,0,2.775-.416,23.309,23.309,0,0,0,.536-2.674,14.141,14.141,0,0,0,.476-3.368,8.759,8.759,0,0,1,.327-3.118,14.282,14.282,0,0,0,.931-2.71c.207-1.17.276-1.526.276-1.526l-.165-3.127.346,3.066.554.282s.906-.4,1.219-.545,1.511-.311,1.858-.473a6.3,6.3,0,0,0,1.075-.925l.586-1.144-.513,1.287-1.14.91s-1.75.382-1.917.485-.877.456-1.146.592a2.6,2.6,0,0,0-.583.568,2.579,2.579,0,0,0-.394.592c-.084.257-.591,2.176-.715,2.632a8.56,8.56,0,0,0-.324,1.982c.022.541.094,1.635.094,1.635s-.885,5.687-.974,6.3l-.943.525-2.867-.095-.593.484-1.769,3.168-1.738.958-.12.892.5.949a2.659,2.659,0,0,1-.658.494c-.3.125-.544,1.1-.544,1.1l.313.77s.938.063,1.517.143a4.454,4.454,0,0,0,1.963-.544,10.244,10.244,0,0,1,2.906-.105l2.32-1.29-2.377,1.442a17.81,17.81,0,0,0-2.262.057,6.029,6.029,0,0,0-.916.655,6.756,6.756,0,0,0-1.585.279,5.69,5.69,0,0,0-2.1,1.094c-.455.428-.53.649-.948,1a1.127,1.127,0,0,0-.367.9,7.476,7.476,0,0,1-.871.715,7.064,7.064,0,0,0-.5,1.884l-3.071,4.437.445.521c.058.194,1.14-.106,1.5-.419a3.764,3.764,0,0,0,.616-.721c.3.072,1.236.259,1.236.259l.238-.7-.554-1.587a14.536,14.536,0,0,1,1.05,2.5c.272,1.043,1.756.964,1.756.964s-1.243.173-1.487-.284-1.886-.85-1.886-.85l-2.5,1.718,1.1,2.056.008.939,3.031,2.27,2.048,2.445s.227,1.249.925,1.417a3.27,3.27,0,0,0,1.911.1,6.816,6.816,0,0,0,1.657-1.45l-1.2-1.394,1.449,1.418,2.4-.522-2.225.855c-.493-.118-1.876,1.4-1.876,1.4l-.113.77.9,1.941-1.067-1.729-1.748-1.216a1.081,1.081,0,0,1-1.1-.987,7.47,7.47,0,0,0-1.694-2.543l-2.695-1.663s-2.01,4.6-1.858,5.063c.1.3.464,1.144.464,1.144l.873-.081s-1.325.284-1.392.964c-.083.848-1.131.581-1.131.581l-.091.371,2.789.784,1.5,7.871,0,.021,1.221,1.618h0l.019.026-.01-.009.01.009h0a5.174,5.174,0,0,0,2.539-.669l.02-.017,0,0,.016-.014.007-.006.013-.011.009-.008.01-.009.008-.007.011-.01.01-.009.008-.008.012-.011.006-.005.014-.013,0,0,.015-.014,0,0a4.457,4.457,0,0,0,.336-.359l.007-.009h0l.01-.012.243-.319.005-.008.034.009,1.472.362.309-.844-.637-1.965,0,.005,0-.005a18.168,18.168,0,0,1,1.22,3.1,1.333,1.333,0,0,0,.288.57l.009.01.007.008a2.687,2.687,0,0,0,1.819.665h0s-1.495.155-1.8-.394l-.009-.017c-.28-.555-2.193-1.094-2.283-1.119h0l-3.105,2,1.293,2.561-.014,1.149,3.651,2.906,2.443,3.08s.246,1.539,1.1,1.773a4.029,4.029,0,0,0,2.336.2,8.185,8.185,0,0,0,2.065-1.706l-.267-1.1.574,1.138,2.414,1.6a14.619,14.619,0,0,0-2.2-1.187c-.6-.166-2.331,1.631-2.331,1.631l-.158.937.925,6.718-1.141-6.465-2.108-1.561s-1.057.066-1.322-1.256a9.311,9.311,0,0,0-2.008-3.183l-3.254-2.15s-2.578,5.543-2.4,6.118c.111.365.539,1.42.539,1.42l1.07-.062s-1.629.293-1.729,1.121c-.124,1.034-1.4.663-1.4.663l.839,5.67-4.574-6.121-3.664,5.667,1.166,7.186-5.1-4.9-8.353,1.335-3.828,3.709,2.2-3.56-.311-1.274-10.014,1.571-1.974-.959-4.128.879-.839,3.633,2.655,6.85-2.7-5.9-2.725,1.489v.506l-.3-.387-.978-.3h1.025l2.516-1.429.885-3.931-1.4-2.323-2.981-1.131-.745,2.5-1.238-9.3-1.825-.695-3.287,4.017,2.218,10.469-2.333-8.521-2.8-1.767-3.69-.238-.788.567-1.067,3.292.785-3.523a4.337,4.337,0,0,0-.653-1.009c-.2-.111-.365-1.694-.365-1.694s-.19-.6-.45-.629a1.193,1.193,0,0,0-.869.178.916.916,0,0,1-.139.077l.068.218a6.473,6.473,0,0,1-1.052.275l-.051-.29.051.29s-.279-.185-.38-.239-.321-.112-.39-.035l-.091-.4s.107-.05.321.067l.028.015a.445.445,0,0,0-.351-.082h0l.091.4a4.823,4.823,0,0,0-.447,1.478v0l-.594,0,.227,1.12-.069.324-1.671,1.728-.25.32-.671.436-.18.117-.037.023.005,0c-.248.158-.446.268-.446.268a6.772,6.772,0,0,0,1.541-1.921c.259-.779.331-1.085.135-1.576a3.264,3.264,0,0,0-.726-.97s-.383.519-.513.64a2.475,2.475,0,0,1-.544.28l-.673-.138s-1.1-1.48-1.545-1.3c-.045.018-.093.039-.141.062a5.932,5.932,0,0,1-1.09.553.94.94,0,0,1-.259.054c-.1.017-.208.034-.29.055-.031.009-.062.02-.1.032l0,0c-.122.063-1.741.835-1.741.835a19.235,19.235,0,0,0-2.118,3.026,1.155,1.155,0,0,1-1.339.689,9.52,9.52,0,0,0-2.97.184,24.261,24.261,0,0,0-.72,2.791,14.807,14.807,0,0,0-.7,3.532,9.185,9.185,0,0,1-.525,3.28,14.707,14.707,0,0,0-1.14,2.792c-.287,1.224-.381,1.595-.381,1.595l0,3.335Zm17.124-15.261a1.409,1.409,0,0,0,.256-.247l.005-.008A1.678,1.678,0,0,1-1666.006-381.9Zm.305-.319,0,.007c.041-.059.068-.1.1-.143A1.56,1.56,0,0,0-1665.7-382.223ZM-1664-385.516Zm-.7-44.573h0Zm28.869-8.58a.127.127,0,0,0,.039,0l-1.556-.624S-1636.216-438.782-1635.831-438.669Zm.039,0a.642.642,0,0,0,.256-.1Zm.26-.1a4.74,4.74,0,0,0,.556-.388Zm-31.124,57.316,0,0Z" transform="translate(1729.322 512.235)"/><path class="p" d="M699.678,372.958" transform="translate(-569.346 -261.404)"/></g></g></svg>