<svg xmlns="http://www.w3.org/2000/svg" xmlns:xlink="http://www.w3.org/1999/xlink" width="133" height="205.824" viewBox="0 0 133 205.824"><defs><style>.a{fill:#999;}.b{fill:#474747;}.c{fill:#e2e4db;}.d{fill:url(#a);}.e{fill:url(#b);}.f{fill:url(#c);}.g{fill:url(#d);}.h{fill:url(#e);}.i{fill:url(#f);}.j{fill:url(#g);}.k{fill:url(#h);}.l{fill:#320000;}.m{fill:url(#i);}.n{fill:url(#j);}</style><linearGradient id="a" x1="1.721" y1="0.548" x2="-1.129" y2="0.423" gradientUnits="objectBoundingBox"><stop offset="0" stop-color="#abd612"/><stop offset="0.417" stop-color="#85c018"/><stop offset="0.782" stop-color="#6bb11c"/><stop offset="1" stop-color="#62ac1e"/></linearGradient><linearGradient id="b" x1="0.43" y1="0.513" x2="0.302" y2="0.071" gradientUnits="objectBoundingBox"><stop offset="0" stop-color="#3e8d1c"/><stop offset="0.364" stop-color="#348515"/><stop offset="1" stop-color="#297b0c"/></linearGradient><linearGradient id="c" x1="1.465" y1="0.538" x2="-1.972" y2="0.446" gradientUnits="objectBoundingBox"><stop offset="0" stop-color="#6fb017"/><stop offset="1" stop-color="#569200"/></linearGradient><linearGradient id="d" x1="0.919" y1="1.03" x2="-0.195" y2="-0.854" gradientUnits="objectBoundingBox"><stop offset="0.006" stop-color="#3e9d1c"/><stop offset="0.268" stop-color="#3c941a"/><stop offset="0.69" stop-color="#377c17"/><stop offset="1" stop-color="#346715"/></linearGradient><linearGradient id="e" x1="0.338" y1="1.475" x2="0.563" y2="-0.481" gradientUnits="objectBoundingBox"><stop offset="0" stop-color="#286f0c"/><stop offset="1" stop-color="#196800"/></linearGradient><linearGradient id="f" x1="0.416" y1="0.083" x2="0.597" y2="0.858" gradientUnits="objectBoundingBox"><stop offset="0" stop-color="#b5dc10"/><stop offset="1" stop-color="#9dd700"/></linearGradient><linearGradient id="g" x1="0.515" y1="0.186" x2="0.446" y2="1.099" gradientUnits="objectBoundingBox"><stop offset="0.006" stop-color="#65ae00"/><stop offset="0.59" stop-color="#498a0c"/><stop offset="1" stop-color="#3a7613"/></linearGradient><linearGradient id="h" x1="0.44" y1="0.104" x2="0.548" y2="0.818" gradientUnits="objectBoundingBox"><stop offset="0" stop-color="#d1ea37"/><stop offset="0.378" stop-color="#c8e52b"/><stop offset="1" stop-color="#b5dc10"/></linearGradient><radialGradient id="i" cx="0.44" cy="0.498" r="0.481" gradientTransform="matrix(1.091, -0.005, 0.006, 1.065, -0.044, -0.029)" gradientUnits="objectBoundingBox"><stop offset="0.213"/><stop offset="0.325" stop-color="#020202"/><stop offset="0.405" stop-color="#0c0c0c"/><stop offset="0.475" stop-color="#1b1b1b"/><stop offset="0.539" stop-color="#323232"/><stop offset="0.6" stop-color="#4e4e4e"/><stop offset="0.658" stop-color="#727272"/><stop offset="0.713" stop-color="#9c9c9c"/><stop offset="0.765" stop-color="#cbcbcb"/><stop offset="0.814" stop-color="#fff"/><stop offset="0.833" stop-color="#f4f4f4"/><stop offset="0.866" stop-color="#d9d9d9"/><stop offset="0.908" stop-color="#acacac"/><stop offset="0.958" stop-color="#6f6f6f"/><stop offset="1" stop-color="#363636"/></radialGradient><radialGradient id="j" cx="0.44" cy="0.498" r="0.481" gradientTransform="matrix(1.092, -0.005, 0.006, 1.065, -0.074, -0.029)" xlink:href="#i"/></defs><g transform="translate(-173.275 -75.065)"><g transform="translate(225.91 76.185)"><g transform="translate(0 0)"><path class="a" d="M338.008,132.827c-.827-38.321,9.889-52.158,19.319-52.362a17.374,17.374,0,0,1,12.814,5.364c8.156,7.965,13.046,24.255,13.082,43.575l1.931,0c-.037-19.828-5.145-36.633-13.665-44.953a19.234,19.234,0,0,0-14.2-5.913c-10.814.235-22.064,14.632-21.207,54.334Z" transform="translate(-336.032 -78.529)"/></g><path class="b" d="M388.267,129.4c-.037-19.828-5.145-36.633-13.665-44.953a19.234,19.234,0,0,0-14.2-5.913h-.03a19.268,19.268,0,0,1,13.792,5.911c8.519,8.32,13.627,25.125,13.664,44.953Zm-47.59,3.427h.444c-.826-38.279,9.866-52.127,19.288-52.361-.138,0-.275,0-.413,0C350.567,80.669,339.85,94.506,340.678,132.827Z" transform="translate(-339.145 -78.529)"/><path class="c" d="M370.439,86.127l-.075-.07c8.02,8.043,12.823,24.2,12.859,43.346h.3C383.432,110.214,378.552,94.05,370.439,86.127Zm1.05-1.68a19.234,19.234,0,0,0-14.2-5.913c-10.814.235-22.064,14.632-21.207,54.334l.293-.006c-.793-39.47,10.426-53.8,21.212-54.03a19.21,19.21,0,0,1,14.133,5.845C371.64,84.6,371.565,84.522,371.489,84.447Z" transform="translate(-336.032 -78.529)"/></g><g transform="translate(173.275 125.18)"><path class="d" d="M530.033,359.248c-1.047-12.488-8.938-117.739-8.938-117.739l-12.922-.538,2.886,124.712,21.809,8.746Z" transform="translate(-399.868 -237.432)"/><path class="e" d="M462.893,654h0l39.339-18.713L480.51,626.51Z" transform="translate(-369.232 -498.29)"/><path class="f" d="M477.563,233.566l-11.106-3.537-.082.015L465.35,362.311l-2.457,23.427,17.617-27.489Z" transform="translate(-369.232 -230.029)"/><path class="g" d="M536.255,606.707l-18.886,6.4,21.721,8.776Z" transform="translate(-406.091 -484.891)"/><path class="h" d="M465.35,630.572,462.893,654,480.51,626.51Z" transform="translate(-369.232 -498.29)"/><path class="i" d="M178.239,281.315c.775-22.132,1.741-44.677,1.741-44.677l90.521-6.6-1.109,132.279-2.457,23.427-93.661-21.359a13.935,13.935,0,0,0,1.048-4.821c.237-3.207,1.466-12.666,1.474-13.232C175.8,346.02,177.276,308.877,178.239,281.315Z" transform="translate(-173.275 -230.035)"/><path class="j" d="M174.323,603.335a13.935,13.935,0,0,1-1.048,4.821l93.661,21.359,2.457-23.427-93.612-15.765C175.634,591.868,174.545,600.336,174.323,603.335Z" transform="translate(-173.275 -473.805)"/><path class="k" d="M216.632,283.27c19.927-21.794,40.92-39.893,60.717-53.161l-90.49,6.6s-.967,22.546-1.741,44.678c-.529,15.121-1.112,31.639-1.532,43.522A370.541,370.541,0,0,1,216.632,283.27Z" transform="translate(-180.252 -230.083)"/></g><g transform="translate(199.543 131.509)"><g transform="translate(0 2.602)"><path class="l" d="M262.71,263.912a3.035,3.035,0,1,1-2.937-3.626A3.31,3.31,0,0,1,262.71,263.912Z" transform="translate(-256.015 -259.432)"/><path class="m" d="M258.574,257.646a4.21,4.21,0,0,0-4.073,4.431c-.022,3.023,2.02,4.555,4.121,4.431a4.451,4.451,0,0,0-.048-8.862Zm-.265,7.5c-1.431-.023-2.493-1.4-2.47-3.112s1.176-3.071,2.413-3.06a2.887,2.887,0,0,1,2.55,3.147C260.779,263.834,259.741,265.168,258.31,265.144Z" transform="translate(-254.501 -257.645)"/></g><g transform="translate(43.015)"><path class="l" d="M396.177,256.218c-.03,2.084-1.463,3.753-3.2,3.723s-3.129-1.742-3.1-3.827,1.463-3.752,3.2-3.724S396.2,254.132,396.177,256.218Z" transform="translate(-389.108 -251.488)"/><path class="n" d="M391.811,249.6a4.445,4.445,0,0,0-4.3,4.678c-.024,3.192,2.132,4.81,4.35,4.678a4.549,4.549,0,0,0,4.229-4.616C396.126,251.756,394.111,249.538,391.811,249.6Zm-.279,7.916c-1.51-.025-2.631-1.475-2.608-3.286s1.242-3.242,2.548-3.231a3.048,3.048,0,0,1,2.692,3.323C394.139,256.134,393.044,257.543,391.531,257.517Z" transform="translate(-387.511 -249.6)"/></g></g><g transform="translate(202.45 75.065)"><path class="a" d="M309.885,134.536a4.118,4.118,0,0,0-.5-.765,1.511,1.511,0,0,1-.259-.06c-.191-.064-.48-.159-.37-.88l.094-.615c1.615-10.578,6.53-42.768-2.865-53.489a10.407,10.407,0,0,0-8.382-3.66c-3.493.07-12.486,1.371-20.537,11.922-8.068,10.574-12.634,26.974-13.571,48.743a2.293,2.293,0,0,0,.9,1.922,2.762,2.762,0,0,0,2.492.512,4.917,4.917,0,0,0-.282-1.024,3.17,3.17,0,0,0-.511-.842c-.548,0-.676-.4-.672-.485C267.268,92.839,283.93,77.272,297.637,77a8.445,8.445,0,0,1,6.891,3c8.8,10.045,3.99,41.566,2.409,51.924l-.094.616a2.513,2.513,0,0,0,1.672,3,3.873,3.873,0,0,0,1.7.14A2.937,2.937,0,0,0,309.885,134.536Z" transform="translate(-263.488 -75.065)"/><path class="b" d="M268.2,135.874c0,.086.125.481.672.484l.408-.058c-.547,0-.676-.4-.672-.485,1.732-40.273,16.473-56.477,29.6-58.58C284.979,79.066,269.95,95.182,268.2,135.874Zm44.369-2.1a1.511,1.511,0,0,1-.259-.06c-.191-.064-.48-.159-.37-.88l.094-.615c1.615-10.578,6.53-42.768-2.865-53.489a10.407,10.407,0,0,0-8.382-3.66,19.322,19.322,0,0,0-2.547.229,19.119,19.119,0,0,1,2.139-.17,10.4,10.4,0,0,1,8.382,3.66c9.395,10.72,4.481,42.911,2.865,53.488l-.094.616c-.109.721.18.816.37.879A5.087,5.087,0,0,0,312.569,133.771Z" transform="translate(-266.676 -75.065)"/><path class="c" d="M297.6,75.068c-3.493.07-12.486,1.371-20.537,11.922-8.068,10.574-12.634,26.974-13.571,48.743a2.291,2.291,0,0,0,.877,1.9,2.267,2.267,0,0,1-.493-1.516c.937-21.769,5.5-38.168,13.57-48.743,8.051-10.551,17.044-11.852,20.537-11.922a10.368,10.368,0,0,1,7.652,2.9A10.376,10.376,0,0,0,297.6,75.068Zm9.629,57.858.094-.616c1.582-10.358,6.395-41.88-2.409-51.924q-.326-.372-.672-.7c.1.1.193.205.288.313,8.8,10.045,3.99,41.566,2.409,51.924l-.094.616a2.616,2.616,0,0,0,.864,2.577A2.779,2.779,0,0,1,307.227,132.925Z" transform="translate(-263.488 -75.065)"/></g></g></svg>