<svg xmlns="http://www.w3.org/2000/svg" width="22.645" height="22.592" viewBox="0 0 22.645 22.592"><defs><style>.a{fill:#915533;}.b{fill:#a3643a;}.c{fill:#f4be84;}.d{fill:#e2a36a;}.e{fill:#d69356;}</style></defs><g transform="translate(-154.136 -82.099)"><path class="a" d="M162.387,86.467s-1.974-2.467-4.112-1.316a3.051,3.051,0,0,0-1.645,3.289,2.9,2.9,0,0,0-2.467,3.29c.329,2.878,1.481,4.358,4.935,4.6a2.084,2.084,0,0,0,3.006,2.728Z"/><path class="b" d="M157.082,88.9s-2.176-.052-2.483,1.806,1.942,3.071,4.741,1.987,2.478-6.289,1.871-6.779a2.3,2.3,0,0,0-3.045-.355C156.884,86.545,157.022,87.681,157.082,88.9Z"/><path class="a" d="M175.079,89.537a5.794,5.794,0,0,1,.712.8,3.822,3.822,0,0,1,.99,2c.013.809-1.648,1.586-1.538,1.915s1.206,1.151.987,1.754a1.955,1.955,0,0,1-.877.932s.383-1.042.219-1.425-.677-.768-.678-1.261.9-1.679.794-2.337-.884-1.282-.993-2.433S175.079,89.537,175.079,89.537Z"/><path class="a" d="M175.627,90.7c-1.845,3.724-4.674,10.513-8.964,10.649-5.181.165-7.483-6.907-6.908-11.513.6-4.815,3.809-6.661,8.1-6.661S177.847,86.22,175.627,90.7Z"/><path class="c" d="M175.092,96.91c-.121,5.072-3.941,7.781-4.928,7.781s-6.372-1.643-6.762-6.7c-.52-6.731.273-11.114,6.194-11.114S175.229,91.158,175.092,96.91Z"/><path class="d" d="M170.732,104.488c-.781,0-4.484-1.972-4.755-6.239-.391-6.169.513-10.353,3.619-11.371-6.192-.346-6.681,4.8-6.194,11.114.39,5.056,5.775,6.7,6.762,6.7a1.716,1.716,0,0,0,.7-.224A.507.507,0,0,1,170.732,104.488Z"/><circle class="d" cx="1.436" cy="1.436" r="1.436" transform="translate(161.263 95.235)"/><path class="a" d="M174.064,86.056s1.837-2.276-1.4-3.427c-5.135-1.828-9.61,1.656-9.61,1.656Z"/><path class="a" d="M173.544,88s-.436.387-2.352.245-3.879-.834-4.5.143.722,2.7.38,3.461-2.6,1.271-2.555,1.93,1.614,1.837,1.111,2.377-1.443.732-1.479,1.395.889,1.062,1.171.574c0,0-.368,1.084-1.055.8a1.573,1.573,0,0,1-.459-2.036c.365-.409,1.274-.747,1.064-1.3s-.852-1.495-.789-1.988,2-1.282,1.795-2.382-1.764-2.662-.536-3.957S174.84,85.384,173.544,88Z"/><path class="a" d="M165.868,88.879c-2.357,4.221-1,6.709-1.877,7.022-.632.225-1.174-1.31-1.174-1.31s.31-7.247,2.667-7.631S165.868,88.879,165.868,88.879Z"/><path class="b" d="M163.712,84.39c3.77-.521,5.558,1.735,8.63,1.455.891-.082,1.476-.429,1.537-1.052.137-1.4-1.083-2.212-3.341-2.3S165.33,83.039,163.712,84.39Z"/><path class="b" d="M166.881,86.735s1-1.174-.163-1.639-3.585-.574-4.308-.032-2.65,3.009-.5,3.477S166.743,87.007,166.881,86.735Z"/><path class="e" d="M171.944,93.165a5.3,5.3,0,0,0-1.245,2.449c-.005,1.011,1.7,2.176,1.7,2.176a3.816,3.816,0,0,1-1.984,1.143s1.811.345,2.394-1.014c0-.237-1.431-.942-1.507-2.346A4.793,4.793,0,0,1,171.944,93.165Z"/><path class="e" d="M162.476,96.691a.79.79,0,0,1,.538-.747.793.793,0,1,0-.315,1.52.8.8,0,0,0,.255-.046A.792.792,0,0,1,162.476,96.691Z"/><path class="d" d="M170.967,101.75c-.053.173-.411.215-.8.094s-.66-.357-.606-.53.411-.214.8-.093S171.021,101.578,170.967,101.75Z"/></g></svg>