<svg xmlns="http://www.w3.org/2000/svg" width="351.536" height="181.286" viewBox="0 0 351.536 181.286"><defs><style>.a{fill:#e8e8e8;}.a,.d{opacity:0.72;}.b{fill:#addb0a;}.c{fill:#a7d906;}.d{fill:#f7f7f7;font-size:30px;font-family:GothamMedium;letter-spacing:-0.02em;}</style></defs><g transform="translate(-1502 -835)"><path class="a" d="M432.448,448.527H371.189V387.27h61.259Zm-54.542-6.716h47.826V393.985H377.906Z" transform="translate(1131.221 466.787)"/><path class="a" d="M722.315,449H711.569v-6.717h10.746Zm-21.491,0H690.077v-6.717h10.747Zm-21.493,0H668.586v-6.717h10.745Zm-21.491,0H647.094v-6.717H657.84Zm-21.492,0H625.6v-6.717h10.746Zm-21.491,0H604.111v-6.717h10.746Zm-21.492,0H582.62v-6.717h10.745Zm-21.493,0H561.127v-6.717h10.745Zm-21.491,0H539.635v-6.717h10.746Zm-21.492,0H518.143v-6.717h10.746ZM507.4,449H496.651v-6.717H507.4ZM485.9,449H475.16v-6.717H485.9Z" transform="translate(1131.221 466.787)"/><path class="a" d="M432.448,549.032H371.189V487.774h61.259Zm-54.542-6.717h47.826V494.489H377.906Z" transform="translate(1131.221 466.787)"/><path class="a" d="M722.315,549.5H711.569v-6.715h10.746Zm-21.491,0H690.077v-6.715h10.747Zm-21.493,0H668.586v-6.715h10.745Zm-21.491,0H647.094v-6.715H657.84Zm-21.492,0H625.6v-6.715h10.746Zm-21.491,0H604.111v-6.715h10.746Zm-21.492,0H582.62v-6.715h10.745Zm-21.493,0H561.127v-6.715h10.745Zm-21.491,0H539.635v-6.715h10.746Zm-21.492,0H518.143v-6.715h10.746Zm-21.492,0H496.651v-6.715H507.4Zm-21.492,0H475.16v-6.715H485.9Z" transform="translate(1131.221 466.787)"/><path class="b" d="M394.516,437.733l-23.736-25.677,8.471-7.831,13.4,14.492,30.977-50.5,9.834,6.033Z" transform="translate(1131.221 466.787)"/><path class="c" d="M394.516,538.383l-23.736-25.677,8.471-7.832,13.4,14.491,30.977-50.5,9.834,6.03Z" transform="translate(1131.221 466.787)"/><text class="d" transform="translate(1603 894)"><tspan x="0" y="0">In stock</tspan></text><text class="d" transform="translate(1603 995)"><tspan x="0" y="0">In stock</tspan></text></g></svg>