<svg xmlns="http://www.w3.org/2000/svg" width="423.327" height="327.253" viewBox="0 0 423.327 327.253"><defs><style>.a{fill:#1a1818;}.b{fill:#94bcc9;}.c{fill:#81adbc;}.d{fill:#65869d;}</style></defs><g transform="translate(-978.963 -629.802)"><path class="a" d="M119.6,218.921a31.8,31.8,0,0,0-1.625-10.554v-5.888h3.25v32.884h-3.25v-5.888A31.8,31.8,0,0,0,119.6,218.921Z" transform="translate(1528.282 511.827) rotate(90)"/><rect class="a" width="5.031" height="8.26" transform="translate(1346.73 629.802) rotate(90)"/><rect class="a" width="23.096" height="6.312" transform="translate(1402.29 666.349) rotate(90)"/><path class="b" d="M417.318,549.319c15.389,0,27.91-13.011,27.91-29.008v-363c0-15.995-12.521-29.008-27.91-29.008h-269.4c-15.391,0-27.91,13.013-27.91,29.008v363c0,16,12.519,29.008,27.91,29.008Z" transform="translate(1528.282 511.827) rotate(90)"/><path class="c" d="M445.228,157.254c0-15.963-12.521-28.95-27.91-28.95h-269.4c-15.391,0-27.91,12.987-27.91,28.95V519.525c0,15.965,12.519,28.95,27.91,28.95h6.415l290.9-383.606Z" transform="translate(1527.438 511.827) rotate(90)"/><g transform="translate(870.344 395.902)"><path class="d" d="M66.733,104.381c0-4.314,3.9-7.811,8.721-7.811s8.721,3.5,8.721,7.811-3.9,7.811-8.721,7.811S66.733,108.7,66.733,104.381Zm-49.8,0c0-4.314,3.9-7.811,8.721-7.811s8.721,3.5,8.721,7.811-3.9,7.811-8.721,7.811-8.72-3.5-8.72-7.811Zm8.56-22.437L49.749,45.906h21.1L36.229,96.634Zm28.334-.812L89.806,27h28.607l-9.649,15.672H99.047L64.457,95.933ZM0,46.049H42.53l-20.363,30.8Z" transform="translate(268.203 328.946)"/></g></g></svg>