<svg xmlns="http://www.w3.org/2000/svg" width="423.327" height="327.258" viewBox="0 0 423.327 327.258"><defs><style>.a{fill:#1a1818;}.b{fill:#94bcc9;}.c{fill:#81adbc;}.d{fill:rgba(255,255,255,0.15);}</style></defs><g transform="translate(-881.037 -1184.198)"><path class="a" d="M1.625,16.442A31.8,31.8,0,0,1,0,27v5.888H3.25V0H0V5.888A31.8,31.8,0,0,1,1.625,16.442Z" transform="translate(990.408 1184.198) rotate(90)"/><rect class="a" width="5.031" height="8.26" transform="translate(944.857 1184.198) rotate(90)"/><rect class="a" width="23.096" height="6.312" transform="translate(887.349 1220.745) rotate(90)"/><path class="b" d="M297.31,0c15.389,0,27.91,13.011,27.91,29.008v363c0,15.995-12.521,29.008-27.91,29.008H27.91C12.519,421.016,0,408,0,392.008v-363C0,13.008,12.519,0,27.91,0Z" transform="translate(1304.364 1186.231) rotate(90)"/><path class="c" d="M325.22,391.221c0,15.963-12.521,28.95-27.91,28.95H27.91C12.519,420.171,0,407.184,0,391.221V28.95C0,12.985,12.519,0,27.91,0h6.415l290.9,383.606Z" transform="translate(1304.364 1186.231) rotate(90)"/><rect width="387" height="296" rx="24" transform="translate(902 1201)"/><path class="d" d="M325.22,391.221c0,15.963-12.521,28.95-27.91,28.95H27.91C12.519,420.171,0,407.184,0,391.221V28.95C0,12.985,12.519,0,27.91,0h6.415l290.9,383.606Z" transform="translate(1304.364 1186.231) rotate(90)"/></g></svg>