<svg xmlns="http://www.w3.org/2000/svg" width="270.626" height="263.591" viewBox="0 0 270.626 263.591"><defs><style>.a{fill:#f7ae80;}.b,.k{opacity:0.3;}.c,.k{fill:#e19262;mix-blend-mode:multiply;isolation:isolate;}.c{opacity:0.5;}.d{fill:#3a80d3;}.e{fill:#215ed0;}.f{fill:#e2e1e1;}.g{fill:#e1cabf;}.h{fill:#fdfefd;}.i{fill:#fae6e2;}.j{fill:#f8c5a4;}</style></defs><g transform="translate(-234.197 -204.537)"><g transform="translate(363.006 444.48)"><path class="a" d="M867.933,1344.294s-13.593,5.1-20.355,7.7c0,0-4.937,3.382-7.922-3.378,0,0-2.266-5.293,5.521-8.678,0,0,14.466-5.081,18.968-7.843,0,0,4.508-2.086,7.609,4.849C871.754,1336.946,872.779,1341.192,867.933,1344.294Z" transform="translate(-839.35 -1331.803)"/><g class="b"><path class="c" d="M839.657,1348.618c2.108,4.775,4.758,3.986,6.636,3.7-3.011-.765-4.728-1.622-4.3-5.287.616-5.264,5.38-4.8,9.076-7.01,3.5-2.1,15.1-6.665,18.556-3.507,1.742,1.591,1.181,3.941.6,5.768a7.414,7.414,0,0,0,1.529-5.34c-3.1-6.934-7.609-4.849-7.609-4.849-4.5,2.762-18.968,7.843-18.968,7.843C837.39,1343.325,839.657,1348.618,839.657,1348.618Z" transform="translate(-839.35 -1331.803)"/></g></g><g transform="translate(234.197 204.537)"><g transform="translate(90.731 170.531)"><path class="d" d="M660.517,1008.865s-3.475,53.562,41.515,88.426c0,0,16.264,6.67,34.571-8.391,0,0,5.464-8.211-8.971-16.754,0,0-30.714-25.917-6.58-66.443Z" transform="translate(-660.455 -1005.702)"/><path class="e" d="M711.636,1088c-5.051-3.3-8.247-9.5-10.776-14.761-2.477-5.135-5.133-10.3-7.3-15.574-4.25-10.355-6.449-23.062-1.881-33.719a27.114,27.114,0,0,1,16.449-15.078l-47.613,2.489s-3.475,53.562,41.515,88.426c0,0,16.264,6.67,34.571-8.391a7.572,7.572,0,0,0,1.01-3.729C729.007,1090.743,719.106,1092.862,711.636,1088Z" transform="translate(-660.455 -1008.192)"/></g><path class="f" d="M256.452,462.684c6.079,9.864,16.982,5.263,16.982,5.263,111.09-41.12,188.979-10.962,188.979-10.962l-19.026-92.042-37.31-86.263S363.345,343.446,245.1,378.285c0,0-11.568,2.5-10.878,14.064C234.226,392.349,232.6,424.649,256.452,462.684Z" transform="translate(-234.197 -262.898)"/><path class="g" d="M405.03,280.162c-7.364,14.4-12.259,29.931-13.015,46.339a133.336,133.336,0,0,0,3.269,35.56c2.323,10.239,5.686,22.624,9.9,32.172,3.069,6.952,7,11.548,4.27,19.148-2.934,8.186-13.2,11.614-20.7,13.96-17.133,5.351-39.346,8.107-53.082-6.011-11.254-11.578-18.052-28.16-20.162-44.026-1.248-9.386-.963-20.115,3.351-28.62a400.982,400.982,0,0,1-73.758,29.6s-11.568,2.5-10.878,14.064c0,0-1.627,32.3,22.225,70.335,6.079,9.864,16.982,5.263,16.982,5.263,111.09-41.12,188.979-10.962,188.979-10.962l-19.026-92.042-37.31-86.263S405.725,279.21,405.03,280.162Z" transform="translate(-234.197 -262.898)"/><path class="d" d="M327.027,749.938a356.5,356.5,0,0,0-53.594,15.291s-10.9,4.6-16.982-5.263c-23.853-38.035-22.225-70.335-22.225-70.335-.69-11.561,10.878-14.064,10.878-14.064a416.779,416.779,0,0,0,52.353-19.217S286.955,703.573,327.027,749.938Z" transform="translate(-234.197 -560.18)"/><path class="e" d="M268.737,746.027c-4.7-9.981-8.9-21.2-9.066-32.376-.149-9.782,3.677-17.963,12.732-22.381,7.77-3.789,16.276-5.232,24.6-7.3-1.975-16.6.456-27.623.456-27.623A416.779,416.779,0,0,1,245.1,675.567s-11.568,2.5-10.878,14.064c0,0-1.627,32.3,22.225,70.335,6.079,9.864,16.982,5.263,16.982,5.263,1.9-.7,3.784-1.372,5.666-2.033A88.05,88.05,0,0,1,268.737,746.027Z" transform="translate(-234.197 -560.18)"/><path class="d" d="M1105.356,288.944c16.932,53.589,11.422,103.106-12.312,110.606s-56.7-29.86-73.627-83.452-11.419-103.1,12.315-110.6S1088.425,235.357,1105.356,288.944Z" transform="translate(-844.55 -204.537)"/><path class="h" d="M1124.943,325.419c15.35,48.576,11.55,93.077-8.479,99.4-13.985,4.421-32.207-10.975-47.152-37.213A214.351,214.351,0,0,1,1043.9,308.6c-3.344-31.095,2.676-55.147,16.982-59.669C1080.917,242.6,1109.6,276.846,1124.943,325.419Z" transform="translate(-870.844 -238.889)"/><path class="i" d="M1095.749,248.932a18.008,18.008,0,0,0-8.455,5.975c18.647,5.157,40.852,35.772,53.708,76.454s12.267,78.494-.027,93.428a17.97,17.97,0,0,0,10.353.032c20.029-6.324,23.828-50.825,8.479-99.4S1115.782,242.6,1095.749,248.932Z" transform="translate(-905.709 -238.889)"/><g transform="translate(173.059 69.712)"><path class="e" d="M1090.746,537.674l13.374,42.319-31.474,31.061a214.354,214.354,0,0,1-25.409-79.008Z" transform="translate(-1047.237 -532.046)"/><path class="d" d="M1251.969,576.425c3.691,11.7,2.974,22.348-1.608,23.8s-11.288-6.86-14.983-18.555-2.978-22.343,1.6-23.789S1248.275,564.735,1251.969,576.425Z" transform="translate(-1193.472 -552.251)"/></g></g><g transform="translate(348.383 401.877)"><path class="j" d="M796.077,1132.288s-17.287,12.834-23.218,18.32a7.262,7.262,0,0,0-.744,9.475s3.239,3.914,9.246-.356c0,0,18.784-13.315,22.91-16.551a6.517,6.517,0,0,0,.18-8.868S800.557,1130.081,796.077,1132.288Z" transform="translate(-770.653 -1131.65)"/><path class="k" d="M772.115,1160.163s1.168,1.741,4.43,1.466c-4.059-1.676-6.015-4.262-3.7-7.747,2.7-4.084,11.972-12.282,18.191-16.584,3.523-2.436,10.216-4.787,12.644.238a7.556,7.556,0,0,1,.412,5.866c.062-.049.125-.1.183-.145,0,0,3.97-4.044.378-8.665,0,0-4.092-4.43-8.572-2.222,0,0-17.287,12.834-23.218,18.32A7.262,7.262,0,0,0,772.115,1160.163Z" transform="translate(-770.653 -1131.73)"/></g><g transform="translate(352.673 412.977)"><path class="j" d="M827.85,1196.967s-18.665,11.819-26.974,16.054c0,0-5.97,3.015-9.527-3.461,0,0-2.868-5.969,4.6-10.014,0,0,18.843-12.892,24.287-15.516,0,0,5.009-1.7,8.628,4.151C828.866,1188.181,832.409,1193.455,827.85,1196.967Z" transform="translate(-790.808 -1183.801)"/><path class="k" d="M791.349,1209.561a8.137,8.137,0,0,0,4.8,4.128c-2.725-2.636-3.885-6.521-1.7-10.013,2.693-4.31,13.528-9.994,17.655-12.368,3.644-2.1,9.038-6.582,13.526-4.166,1.784.967,4.093,3.095,4.382,5.247a8.92,8.92,0,0,1,.049,1.664c.944-2.739-1.195-5.872-1.195-5.872-3.62-5.852-8.628-4.151-8.628-4.151-5.444,2.624-24.287,15.516-24.287,15.516C788.481,1203.591,791.349,1209.561,791.349,1209.561Z" transform="translate(-790.808 -1183.801)"/></g><g transform="translate(359.795 427.276)"><path class="j" d="M859.411,1263.535s-17.312,10.177-24.824,14.42a7.375,7.375,0,0,1-9.785-3.471s-2.857-5.972,4.609-10.016c0,0,17.451-10.633,22.891-13.264,0,0,5.009-1.7,8.637,4.155C860.94,1255.359,863.969,1260.026,859.411,1263.535Z" transform="translate(-824.265 -1250.976)"/><path class="k" d="M824.8,1274.485c1.7,3.075,3.987,4.013,5.928,4.144-2.23-1.027-4.22-3.191-4.405-5.328-.407-4.689,3.745-7.437,7.373-9.476,2.7-1.52,13.955-7.423,16.509-9.192a7.655,7.655,0,0,1,6.534-1.431,6.912,6.912,0,0,1,4.988,4.082,6.9,6.9,0,0,0-.789-1.925c-3.629-5.852-8.637-4.155-8.637-4.155-5.44,2.631-22.891,13.264-22.891,13.264C821.945,1268.513,824.8,1274.485,824.8,1274.485Z" transform="translate(-824.265 -1250.976)"/></g><g transform="translate(325.441 392.118)"><path class="j" d="M691.884,1111.519c6.6-4.989,16.82-11.29,16.82-11.29a13.377,13.377,0,0,0,6.682-7.336c.913-2.455.013-9.19-4.165-6.424,0,0-8.117,4.889-20.83,5.612a25.51,25.51,0,0,0-8.261,2.77s-4.348,1.371-18.329,16.668c-3.64,7.41,3.438,25.074,21.052,29.674l-3.346-4.634S683.435,1117.908,691.884,1111.519Z" transform="translate(-662.87 -1085.812)"/><path class="k" d="M728.95,1111.568c4.918-5.639,11.206-7.6,17.633-10.962,5.083-2.651,14.469-8.325,10.761-14.558,3.538-1.534,4.278,4.531,3.423,6.836a13.377,13.377,0,0,1-6.681,7.336s-10.308,6.7-17.87,10.045c-3.408,1.509-12.481,11.214-15.69,14.723C722.179,1119.932,725.408,1115.636,728.95,1111.568Z" transform="translate(-708.254 -1085.803)"/></g></g></svg>