<svg xmlns="http://www.w3.org/2000/svg" width="18.608" height="19.301" viewBox="0 0 18.608 19.301"><defs><style>.a{fill:#fddbbb;}.b{fill:#f5f5f5;}.c{fill:gray;}.d{fill:#d65e2f;}.e{fill:#f2f2f2;}.f,.i{fill:#e6e6e6;}.f,.h{mix-blend-mode:multiply;isolation:isolate;}.g{fill:#a14723;}</style></defs><g transform="translate(-162.3 -217.7)"><path class="a" d="M163.848,229.268s.092-.424-.2-.429-.219.4-.219.4Z"/><path class="b" d="M163.393,229.307l0-.112.478.042-.01.111Z"/><path class="c" d="M163.8,229.578a.049.049,0,1,0-.047.051A.049.049,0,0,0,163.8,229.578Z"/><path class="c" d="M163.828,229.413a.05.05,0,0,0-.051-.047.049.049,0,1,0,.051.047Z"/><path class="d" d="M180.712,229.1c-.217-.676-.443-1.347-.7-2.008q-.361-.918-.771-1.819l-.051-.114q-.626-1.366-1.35-2.686l-.058-.106q-.745-1.352-1.586-2.64a9.763,9.763,0,0,0-1.371-1.829c-.4-.38-.9-.159-1.265.161-.031.028-.062.056-.092.085l.078.084a11.873,11.873,0,0,1,1.285,1.833c.53.844,1.036,1.7,1.53,2.569.328.575.663,1.15.959,1.743.476.954.9,1.935,1.318,2.917a29.6,29.6,0,0,1,1.28,3.395l.036.128a1.874,1.874,0,0,0,.336-.018.7.7,0,0,0,.467-.257C181.053,230.135,180.847,229.525,180.712,229.1Z"/><path class="e" d="M179.914,230.687a29.6,29.6,0,0,0-1.28-3.395c-.416-.982-.842-1.963-1.318-2.917-.3-.593-.631-1.168-.959-1.743-.494-.866-1-1.725-1.53-2.569a11.873,11.873,0,0,0-1.285-1.833l-.078-.084a7.214,7.214,0,0,0-.985,1.291,27.087,27.087,0,0,1-5.125,6.2q-.395.323-.814.61l.051.108c.722,1.608,1.5,3.188,2.3,4.76l.054.1a17,17,0,0,1,4.261-.853,24.778,24.778,0,0,1,3.85.182c.735.075,1.47.149,2.206.207.222.017.457.053.688.059Z"/><path class="d" d="M168.891,231.115c-.8-1.572-1.578-3.152-2.3-4.76l-.051-.108-.051.035q-1.483.652-2.947,1.351a2.963,2.963,0,0,0-1.074.636,1.22,1.22,0,0,0-.075,1.1,6.077,6.077,0,0,0,1.115,2.3,5.911,5.911,0,0,0,.92.944.718.718,0,0,0,.418.221,1.881,1.881,0,0,0,.617-.186l.012,0,.112-.041q1.258-.462,2.484-1.009l.108-.048c.2-.089.394-.178.59-.27l.176-.057Z"/><path class="e" d="M179.885,222.843a1.531,1.531,0,0,1,.333,1.243c-.161.451-.683.735-1.01,1.054a.213.213,0,0,0-.022.021q-.626-1.366-1.35-2.686c.346-.1.689-.208,1.041-.277a.6.6,0,0,1,.48.029A1.784,1.784,0,0,1,179.885,222.843Z"/><path class="f" d="M179.013,224.788c.058.124.116.248.173.373a.213.213,0,0,1,.022-.021c.327-.319.849-.6,1.01-1.054a1.308,1.308,0,0,0-.231-1.072A2.122,2.122,0,0,1,179.013,224.788Z"/><path class="g" d="M165.327,228.193c-.25-.216-.794.178-1,.291a1.451,1.451,0,0,0-.624.425.2.2,0,0,0,.168.319.957.957,0,0,0,.295-.106c.193-.081.385-.17.572-.265C164.872,228.788,165.611,228.437,165.327,228.193Z"/><path class="g" d="M164.846,229.245c-.2.111-.42.206-.616.332-.108.07-.191.138-.177.277.041.416.653.029.823-.059.212-.108.428-.22.63-.345.113-.07.247-.166.25-.314C165.764,228.688,164.976,229.172,164.846,229.245Z"/><path class="e" d="M170.436,234.323a10.4,10.4,0,0,1-2.257-2.776l-.108.048q-1.226.546-2.484,1.009l-.112.041a16.058,16.058,0,0,0,1.289,2.145,14.255,14.255,0,0,0,1.486,1.86c.229.224.449.435.794.316a3.965,3.965,0,0,0,1.1-.864,2.47,2.47,0,0,0,.789-.845C171.093,234.827,170.728,234.557,170.436,234.323Z"/><g class="h"><path class="i" d="M166.782,233.456c-.139-.61.844-1.188,1.511-1.5h0l.106-.052c-.075-.117-.148-.235-.22-.353l-.108.048q-1.226.546-2.484,1.009l-.112.041a16.058,16.058,0,0,0,1.289,2.145,14.255,14.255,0,0,0,1.486,1.86c.229.224.449.435.794.316a1.373,1.373,0,0,0,.33-.174l-.088-.094C168.5,235.861,166.937,234.134,166.782,233.456Z"/></g><path class="f" d="M163.673,231.873a5.947,5.947,0,0,0,.755.742.718.718,0,0,0,.418.221,1.881,1.881,0,0,0,.617-.186l.012,0,.112-.041q1.258-.462,2.484-1.009l.108-.048c.2-.089.394-.178.59-.27l.176-.057a17,17,0,0,1,4.261-.853,24.778,24.778,0,0,1,3.85.182c.735.075,1.47.149,2.206.207.222.017.457.053.688.059a1.874,1.874,0,0,0,.336-.018.7.7,0,0,0,.467-.257c.3-.4.094-1.015-.041-1.438q-.15-.47-.31-.934C174.846,226.9,166.485,230.532,163.673,231.873Z"/></g></svg>