<svg xmlns="http://www.w3.org/2000/svg" width="687.838" height="397.92" viewBox="0 0 687.838 397.92"><defs><style>.a{fill:#efeccd;}.b{fill:#b6b589;}.c{fill:#8d8c60;}.d{fill:#c7c8a0;}.e{fill:#a3a17a;}.f{fill:#9e9b70;}.g{fill:#b5b488;}.h{fill:none;}.i{fill:#ffc811;}.j{fill:#d88825;}.k{fill:#212121;opacity:0.3;}.l{fill:#ffd108;}.m{fill:#ffe872;}.n{fill:#ffeb17;}.o{fill:#ffe75e;}.p{fill:#ff9606;}.q{fill:#ffa21a;}.r{fill:#ff9301;}.s{fill:#fa8801;}.t{fill:#f9a409;}</style></defs><g transform="translate(-194 -1126)"><g transform="translate(-970.939 1074.142)"><path class="a" d="M1815.335,296.858c-11.516,18.176-26.676,33.969-41.433,49.475-1.932,2.03-3.976,4.132-6.636,5.013-2.562.849-5.35.447-8.017.03a1928.392,1928.392,0,0,1-194.734-41.268c-63.282-16.712-127.329-30.046-189.955-49.806q-68.342-21.565-136.781-43.534c-7.829-2.535-15.847-5.169-22.283-10.3-1.862-1.484,27.875-14.9,30.39-15.927,12.015-4.882,23.284-11.393,34.177-18.386,13.059-8.381,25.564-17.584,38.545-26.081,5.523-3.615,14.09-11.359,20.572-12.61,6.683-1.289,15.169,4.291,21.5,6.895,63.208,26.009,128.558,39.111,194,58.141,30.222,8.789,62.093,12.355,92.985,18.733,16.829,3.475,33.424,8.035,50.255,11.255,16.882,3.23,33.6,7.286,50.559,10.128,24.15,4.047,47.555,3.33,71.856,1.386q6.394-.512,12.777-1.164c-1.577.178-2.228,16.628-2.539,18.639a95.2,95.2,0,0,1-11.292,32.8Q1817.391,293.621,1815.335,296.858Z"/><path class="b" d="M1241.533,203.575c4.349-1.694,12.857,4.947,16.488,6.659,9.494,4.478,19.778,7.738,29.645,11.31,108.463,39.265,222.417,63.837,334.708,89.385l128.864,29.318c3.491.794,7.148,1.586,10.606.662,3.351-.9,6.067-3.289,8.62-5.638,18.884-17.377,36.6-37.153,45.7-61.54.606-1.624,5.8-20.53,6.488-20.586-23.575,1.949-47.475,3.884-70.748-.351-96.893-17.653-194.382-40.4-289.374-66.39-35.03-9.584-73.606-17.98-106.406-33.814-5.009-2.418-10.461-9.432-16.492-7.965-8.239,2.006-14.639,9.9-21.032,15.035a271.928,271.928,0,0,1-24.685,17.435A304.407,304.407,0,0,1,1241.533,203.575Zm29.629,3.676a103.276,103.276,0,0,0,33.639.823c3.723-.522,7.558-1.309,10.578-3.546s4.991-6.3,3.731-9.841c-1.3-3.669-5.332-5.461-8.167-8.131s-3.9-8.373-.257-9.745a7.181,7.181,0,0,1,2.92-.245l9.906.535c3.9.21,7.924.4,11.567-.991s6.812-4.819,6.614-8.714-4.98-7.16-8.254-5.041c3.943-4.97,10.634-7.185,16.973-6.943s12.4,2.648,18.049,5.536c4.56,2.332,9.319,5.465,10.681,10.4.984,3.565.3,8.11,3.3,10.275,3.1,2.239,7.406-.117,10.165-2.765s5.828-5.9,9.626-5.456c.476,9.169,15.4,8.8,21.666,10.621,57.629,16.752,116.638,29.178,174.684,45.074,9.883,2.706,20.355,5.209,30.4,7.287,30.638,6.338,60.541,14.447,91.352,19.834,1.885.33,3.9.645,5.649-.125s2.944-3.091,1.855-4.663c6.133-1.03,10.279,5.876,12.751,11.582s7.312,12.4,13.258,10.574c-.99-8.107,7.969-14.105,16.094-14.942a34.031,34.031,0,0,1,29.094,11.834c2.411,2.89,4.22,7.479,1.548,10.129-1.522,1.511-3.872,1.666-5.984,2.041a22.92,22.92,0,0,0-18.2,19.041c-2.7-5.08-8.324-8.219-14.05-8.762s-11.489,1.255-16.463,4.141c-5.126,2.973-10.013,8.687-7.974,14.25,3.4,9.285,23,6.5,22.606,17.5-8.137,1.355-20.676-1.613-29.123-3.2-51.158-9.591-101.344-22.966-151.855-35.184-17.688-4.279-35.435-8.308-53.2-12.24-22.311-4.938-44.7-9.618-66.7-15.835-21.947-6.2-43.018-14.665-65.12-20.384C1352.947,231.224,1312.339,219.333,1271.162,207.251Z"/><path class="c" d="M1694.822,275.3c.466,3.9-1.779,7.762-4.923,10.117s-7.062,3.425-10.937,4.07c-11.413,1.9-63.463-4.856-48.583-26.984,4.317-6.419,13.311-7.424,21.023-6.829C1663.038,256.566,1693.1,260.934,1694.822,275.3Z"/><path class="d" d="M1222.685,214.528a20.179,20.179,0,0,0,3.631-1.856c3.727,1.578,7.617,2.851,11.463,4.1q68.3,22.117,136.781,43.534c62.626,19.76,126.673,33.094,189.955,49.8a1928.12,1928.12,0,0,0,194.734,41.269c2.667.417,5.455.819,8.017-.03,2.66-.881,4.7-2.983,6.636-5.013,14.757-15.506,29.917-31.3,41.433-49.475q2.052-3.238,3.944-6.582a95.1,95.1,0,0,0,11.22-32.389c4.57.462,9.115.406,13.79.726-1.626,10.879-13.984,24.725-20.263,33.855-7.238,10.527-14.888,20.765-22.72,30.856-7.881,10.156-16.46,19.293-25.324,28.634a24.334,24.334,0,0,1-5.25,4.564c-6.917,3.99-18.143,1.107-25.476-.581-29.987-6.9-59.741-14.987-89.765-21.117l-78.755-16.079c-34.21-6.985-66.755-19.546-100.763-27.515-45.013-10.547-89.647-22.629-134.19-34.993-22.274-6.183-44.527-12.439-66.8-18.61q-16.709-4.629-33.438-9.177c-9.64-2.614-19.443-2.745-27.855-8.558C1215.394,216.44,1219.3,215.8,1222.685,214.528Z"/><path class="e" d="M1213.936,220.052c8.357,5.647,18.06,5.809,27.606,8.4q16.733,4.539,33.438,9.177c22.276,6.171,44.529,12.427,66.8,18.61,44.543,12.364,89.177,24.446,134.19,34.993,34.008,7.969,66.553,20.53,100.763,27.515l78.755,16.079c30.024,6.13,59.778,14.215,89.765,21.117,7.333,1.688,18.559,4.571,25.476.581a24.334,24.334,0,0,0,5.25-4.564c8.864-9.341,17.443-18.478,25.324-28.634,7.832-10.091,15.482-20.329,22.72-30.856,4.368-6.351,11.67-14.984,16.262-23.314l8.337,2.437q-37.817,48.051-78.24,93.971c-.552.626-25.222-4.12-28.563-5.038-37.6-10.335-75.4-20.045-113.643-27.7-44.744-8.961-88.133-19.016-131.982-31.935-68.668-20.231-138.445-35.862-207.39-54.92-16.143-4.463-32.169-9.316-48.511-13.034-4.5-1.022-9.1-1.749-13.558-2.905-4.559-1.182-9-2.977-13.418-4.594Q1213.628,222.742,1213.936,220.052Z"/><path class="f" d="M1212.731,227.862a4.079,4.079,0,0,1,.63-1.985,2.3,2.3,0,0,1,.335-.3c4.3,1.58,8.612,3.306,13.042,4.454,4.456,1.156,9.061,1.883,13.558,2.905,16.342,3.718,32.368,8.571,48.511,13.034,68.945,19.058,138.722,34.689,207.39,54.92,43.849,12.919,87.238,22.974,131.982,31.935,38.244,7.658,76.044,17.368,113.643,27.7,3.341.918,28.011,5.664,28.563,5.038q40.4-45.9,78.24-93.971l-.47-.137.831-.383a418.168,418.168,0,0,1,3.79,57.311,6.946,6.946,0,0,1-2.2,6.04l-15.952,17.969c-10.676,12.025-23.059,22.12-33.228,34.7-10.215,12.64-19.385,26.165-30.7,37.883a7.031,7.031,0,0,1-7.8,2.566c-17.835-2.618-35.016-10.75-52.4-15.763q-155.914-44.97-314.472-79.971c-23.925-5.283-48.055-9.505-72.123-14.084-18.812-3.58-37.579-7.4-56.265-11.6q-14.175-3.182-28.282-6.662c-8.127-2.01-17.694-2.439-24.972-6.812a2.93,2.93,0,0,1-1.07-.92,2.981,2.981,0,0,1-.308-1.366c-1.014-17.3-.274-34.923-.82-52.293A61.306,61.306,0,0,1,1212.731,227.862Z"/><path class="g" d="M1771.172,372.876a29.678,29.678,0,0,0-1.538-7.272c.437.028.7.016.751-.042q40.4-45.9,78.24-93.971l-.47-.137.831-.383a418.168,418.168,0,0,1,3.79,57.311,6.946,6.946,0,0,1-2.2,6.04l-15.952,17.969c-10.676,12.025-23.059,22.12-33.228,34.7-10.215,12.64-19.385,26.165-30.7,37.883a9.19,9.19,0,0,1-3.226,2.449,6.394,6.394,0,0,1-2.476.331A125.976,125.976,0,0,0,1771.172,372.876Z"/><path class="h" d="M1580.317,376.128q9.248,2.4,18.489,4.828Q1589.547,378.612,1580.317,376.128Z"/><path class="i" d="M1403.538,298.7c.041,6.418.247,12.827.048,19.056-.11,3.458-2.037,11.423-.37,14.575,1.866,3.53,10.54,4.677,14.11,5.735,34.5,10.232,70.144,22.906,106.354,26.676a.617.617,0,0,0,.8-.772c-.069-10.845-.342-21.628-.1-32.552.183-8.168.373-16.4,2.2-24.367,3.912-17.087,17-28.139,29.53-39.3,13.912-12.385,28.408-24.122,43.475-35.074,8.851-6.434,19.049-12.162,26.786-19.9-8.252-3.619-18.033-4.745-26.747-7.416-9.076-2.783-18.077-5.822-27.27-8.207-20.312-5.271-40.524-10.873-61.091-15.011a51.981,51.981,0,0,1-10.274,12.113c-13.209,11.744-29.753,19.816-43.873,30.693-15.775,12.153-31.259,25.242-46.4,38.205a14.1,14.1,0,0,0-2.306,2.307,13.368,13.368,0,0,0-1.782,4.077C1403.805,278.856,1403.475,288.786,1403.538,298.7Z"/><path class="j" d="M1403.538,298.694c-.064-9.908.267-19.838,3.092-29.162.221-.729.454-1.461.744-2.166,39.922,12.951,81.576,20.34,122.4,30.493a45.068,45.068,0,0,0-3.191,9.187c-1.824,7.964-2.014,16.2-2.2,24.367-.244,10.924.029,21.707.1,32.552a.616.616,0,0,1-.8.772c-36.209-3.77-71.852-16.444-106.354-26.676-3.57-1.058-12.244-2.205-14.11-5.735-1.666-3.152.26-11.117.37-14.575C1403.786,311.522,1403.579,305.113,1403.538,298.694Z"/><path class="a" d="M1664.947,317.331l-.143-.765,20.6-13.4c2.95-1.921,4.68-3.1,5.14-3.493.132-.113.425-.389.325-.53-.045-.055-.406-.369-2.814-.88l-.782-.166-.143-.765,4.478-2.914.244-.068c.437.014.874.022,1.314.022a44.8,44.8,0,0,0,13.41-2.159l.214-.01,4.661.987.142.765-38.415,24.988-.316.06Z"/><path class="b" d="M1711.358,293.6l-38.414,24.989-7.91-1.675,20.594-13.4q4.461-2.9,5.186-3.526t.4-1.093q-.33-.468-3.071-1.049l-.783-.166,4.478-2.913a44.437,44.437,0,0,0,14.865-2.157Z"/><path class="a" d="M1692.663,323.42a17.837,17.837,0,0,1-3.686-.367,9.653,9.653,0,0,1-4.108-1.606,2.19,2.19,0,0,1-.633-2.735,8.5,8.5,0,0,1,2.06-2.785,44.109,44.109,0,0,1,5.509-4l13.406-8.72a72.348,72.348,0,0,1,8.732-5.025,26.894,26.894,0,0,1,7.334-2.148,23.626,23.626,0,0,1,3.4-.258,18.293,18.293,0,0,1,3.771.379,6.536,6.536,0,0,1,3.8,1.848,2.575,2.575,0,0,1,.44,2.847,8.45,8.45,0,0,1-2.315,2.771,70.073,70.073,0,0,1-6.039,4.242l-12.812,8.336c-2.9,1.889-5.188,3.26-6.789,4.077a31.5,31.5,0,0,1-5.423,2.108,24.535,24.535,0,0,1-5.565,1.007C1693.376,323.41,1693.017,323.42,1692.663,323.42Zm1.946-5.131a2.138,2.138,0,0,0,.434.045,3.275,3.275,0,0,0,1.273-.3,33.018,33.018,0,0,0,3.842-2.269l19.03-12.38a27.118,27.118,0,0,0,3.509-2.481s-.089-.028-.154-.042a2.09,2.09,0,0,0-.43-.044,3.352,3.352,0,0,0-1.3.3,34.2,34.2,0,0,0-4.005,2.367l-18.743,12.193a29.768,29.768,0,0,0-3.637,2.557A1.524,1.524,0,0,0,1694.609,318.289Z"/><path class="b" d="M1724.1,307.513l-12.813,8.335q-4.365,2.84-6.75,4.054a30.835,30.835,0,0,1-5.35,2.079,23.9,23.9,0,0,1-5.468.99,18.058,18.058,0,0,1-4.656-.331,9.363,9.363,0,0,1-3.924-1.516,1.772,1.772,0,0,1-.516-2.247,8.066,8.066,0,0,1,1.961-2.643,44.125,44.125,0,0,1,5.45-3.951l13.4-8.721a71.772,71.772,0,0,1,8.679-5,26.369,26.369,0,0,1,7.219-2.113,19.907,19.907,0,0,1,7.023.117,6.2,6.2,0,0,1,3.557,1.7,2.136,2.136,0,0,1,.382,2.4,8.02,8.02,0,0,1-2.2,2.623A69.09,69.09,0,0,1,1724.1,307.513Zm-4.684-3.774a29.377,29.377,0,0,0,3.587-2.545q.526-.553-.374-.744a3.3,3.3,0,0,0-1.984.286,34.164,34.164,0,0,0-4.068,2.4l-18.744,12.194a28.243,28.243,0,0,0-3.77,2.68q-.423.5.458.69a3.241,3.241,0,0,0,1.962-.28,33.137,33.137,0,0,0,3.9-2.3Z"/><path class="a" d="M1718.174,328.822a17.829,17.829,0,0,1-3.686-.368,9.645,9.645,0,0,1-4.109-1.606,2.191,2.191,0,0,1-.634-2.735,8.55,8.55,0,0,1,2.061-2.785,43.976,43.976,0,0,1,5.509-4l13.406-8.721a72.564,72.564,0,0,1,8.732-5.025,26.868,26.868,0,0,1,7.333-2.147,23.538,23.538,0,0,1,3.4-.259,18.3,18.3,0,0,1,3.772.379,6.527,6.527,0,0,1,3.794,1.848,2.569,2.569,0,0,1,.44,2.848,8.464,8.464,0,0,1-2.314,2.77,69.679,69.679,0,0,1-6.039,4.243l-12.812,8.335c-2.907,1.891-5.191,3.263-6.788,4.078a31.573,31.573,0,0,1-5.425,2.108,24.56,24.56,0,0,1-5.564,1.006C1718.887,328.811,1718.527,328.822,1718.174,328.822Zm1.761-5.181a1.372,1.372,0,0,0,.183.049,2.1,2.1,0,0,0,.433.045,3.259,3.259,0,0,0,1.276-.3,33.071,33.071,0,0,0,3.842-2.268l19.028-12.38a27.336,27.336,0,0,0,3.512-2.481s-.091-.028-.156-.042a2.088,2.088,0,0,0-.43-.044,3.34,3.34,0,0,0-1.3.3,34.208,34.208,0,0,0-4.005,2.367l-18.744,12.194A30.267,30.267,0,0,0,1719.935,323.641Z"/><path class="b" d="M1749.611,312.914l-12.813,8.335q-4.365,2.841-6.75,4.054a30.835,30.835,0,0,1-5.35,2.079,23.952,23.952,0,0,1-5.468.991,18.1,18.1,0,0,1-4.656-.331,9.374,9.374,0,0,1-3.924-1.517,1.772,1.772,0,0,1-.516-2.247,8.065,8.065,0,0,1,1.961-2.643,44.23,44.23,0,0,1,5.45-3.951l13.4-8.721a71.821,71.821,0,0,1,8.679-5,26.345,26.345,0,0,1,7.219-2.113,19.907,19.907,0,0,1,7.023.116,6.2,6.2,0,0,1,3.557,1.7,2.134,2.134,0,0,1,.382,2.4,8,8,0,0,1-2.2,2.623A68.863,68.863,0,0,1,1749.611,312.914Zm-4.684-3.774a29.335,29.335,0,0,0,3.587-2.544q.526-.554-.374-.744a3.289,3.289,0,0,0-1.984.285,34.154,34.154,0,0,0-4.068,2.4l-18.744,12.194a28.243,28.243,0,0,0-3.77,2.68q-.423.5.458.69a3.241,3.241,0,0,0,1.962-.28,32.847,32.847,0,0,0,3.9-2.3Z"/><path class="a" d="M1752.487,278.324l-.068-.365,9.8-6.377c1.405-.915,2.228-1.474,2.447-1.663.063-.054.2-.186.155-.253-.022-.026-.194-.175-1.34-.419l-.372-.078-.068-.365,2.132-1.387.116-.032q.312.01.625.01a21.331,21.331,0,0,0,6.384-1.028l.1-.005,2.219.47.067.365-18.287,11.9-.15.029Z"/><path class="b" d="M1774.581,267.028l-18.287,11.9-3.766-.8,9.8-6.378q2.124-1.381,2.469-1.678t.188-.52a3.291,3.291,0,0,0-1.462-.5l-.373-.079,2.132-1.387a21.144,21.144,0,0,0,7.076-1.026Z"/><path class="a" d="M1765.681,281.223a8.5,8.5,0,0,1-1.755-.175,4.588,4.588,0,0,1-1.955-.765,1.042,1.042,0,0,1-.3-1.3,4.042,4.042,0,0,1,.98-1.326,21.122,21.122,0,0,1,2.623-1.9l6.382-4.151a34.464,34.464,0,0,1,4.157-2.392,12.768,12.768,0,0,1,3.491-1.023,11.315,11.315,0,0,1,1.619-.123,8.679,8.679,0,0,1,1.8.181,3.106,3.106,0,0,1,1.806.88,1.224,1.224,0,0,1,.21,1.355,4.037,4.037,0,0,1-1.1,1.319,33.342,33.342,0,0,1-2.875,2.02l-6.1,3.968c-1.381.9-2.469,1.552-3.232,1.941a14.962,14.962,0,0,1-2.581,1,11.655,11.655,0,0,1-2.65.479C1766.021,281.218,1765.85,281.223,1765.681,281.223Zm.926-2.443a1.015,1.015,0,0,0,.207.021,1.551,1.551,0,0,0,.606-.142,15.728,15.728,0,0,0,1.829-1.081l9.059-5.893a12.87,12.87,0,0,0,1.671-1.181s-.042-.013-.073-.02a.99.99,0,0,0-.2-.021,1.605,1.605,0,0,0-.62.145,16.29,16.29,0,0,0-1.906,1.127l-8.923,5.805a14.188,14.188,0,0,0-1.732,1.217C1766.542,278.764,1766.57,278.772,1766.607,278.78Z"/><path class="b" d="M1780.647,273.65l-6.1,3.968q-2.079,1.352-3.214,1.93a14.64,14.64,0,0,1-2.547.989,11.385,11.385,0,0,1-2.6.472,8.58,8.58,0,0,1-2.216-.158,4.456,4.456,0,0,1-1.868-.722.844.844,0,0,1-.246-1.069,3.839,3.839,0,0,1,.934-1.259,20.981,20.981,0,0,1,2.594-1.88l6.382-4.152a34.224,34.224,0,0,1,4.131-2.378,12.564,12.564,0,0,1,3.437-1.006,9.483,9.483,0,0,1,3.343.055,2.957,2.957,0,0,1,1.694.812,1.018,1.018,0,0,1,.181,1.144,3.818,3.818,0,0,1-1.048,1.248A32.747,32.747,0,0,1,1780.647,273.65Zm-2.23-1.8a13.929,13.929,0,0,0,1.708-1.211q.25-.264-.178-.354a1.564,1.564,0,0,0-.945.136,16.333,16.333,0,0,0-1.936,1.143l-8.923,5.805a13.5,13.5,0,0,0-1.795,1.276c-.134.16-.062.269.218.328a1.542,1.542,0,0,0,.934-.133,15.633,15.633,0,0,0,1.859-1.1Z"/><path class="a" d="M1777.826,283.794a8.5,8.5,0,0,1-1.755-.175,4.593,4.593,0,0,1-1.956-.765,1.043,1.043,0,0,1-.3-1.3,4.08,4.08,0,0,1,.981-1.326,20.936,20.936,0,0,1,2.623-1.9l6.381-4.152a34.592,34.592,0,0,1,4.157-2.392,12.783,12.783,0,0,1,3.492-1.022,11.167,11.167,0,0,1,1.618-.123,8.667,8.667,0,0,1,1.8.18,3.107,3.107,0,0,1,1.806.88,1.222,1.222,0,0,1,.21,1.355,4.042,4.042,0,0,1-1.1,1.319,32.859,32.859,0,0,1-2.875,2.02l-6.1,3.968c-1.384.9-2.471,1.553-3.231,1.941a15.077,15.077,0,0,1-2.583,1,11.7,11.7,0,0,1-2.648.479C1778.165,283.789,1777.994,283.794,1777.826,283.794Zm.838-2.466c.022.007.05.015.087.023a1,1,0,0,0,.206.022,1.551,1.551,0,0,0,.608-.144,15.618,15.618,0,0,0,1.829-1.079l9.058-5.893a13.121,13.121,0,0,0,1.672-1.182s-.044-.013-.075-.02a.972.972,0,0,0-.2-.02,1.588,1.588,0,0,0-.62.145,16.332,16.332,0,0,0-1.906,1.126l-8.923,5.8A14.418,14.418,0,0,0,1778.664,281.328Z"/><path class="b" d="M1792.791,276.221l-6.1,3.968q-2.079,1.352-3.214,1.93a14.728,14.728,0,0,1-2.547.99,11.436,11.436,0,0,1-2.6.471,8.58,8.58,0,0,1-2.216-.158,4.457,4.457,0,0,1-1.868-.721.845.845,0,0,1-.246-1.07,3.834,3.834,0,0,1,.934-1.258,20.955,20.955,0,0,1,2.594-1.881l6.382-4.152a34.237,34.237,0,0,1,4.131-2.378,12.567,12.567,0,0,1,3.437-1.006,9.482,9.482,0,0,1,3.343.056,2.957,2.957,0,0,1,1.694.811,1.018,1.018,0,0,1,.181,1.144,3.809,3.809,0,0,1-1.048,1.248A32.738,32.738,0,0,1,1792.791,276.221Zm-2.23-1.8a13.9,13.9,0,0,0,1.708-1.212c.167-.175.108-.294-.178-.354a1.571,1.571,0,0,0-.945.136,16.343,16.343,0,0,0-1.936,1.143l-8.923,5.8a13.5,13.5,0,0,0-1.8,1.276c-.134.16-.062.269.218.328a1.535,1.535,0,0,0,.934-.133,15.731,15.731,0,0,0,1.859-1.1Z"/></g><path class="k" d="M1394.662,331.084a26.594,26.594,0,0,0,17.741-1.261c28.61-10.009,57.126-18.131,81.891-36.332a25.517,25.517,0,0,1,4.143-2.685,23.374,23.374,0,0,1,4.679-1.445c15.666-3.659,31.036-8.363,46.59-12.5,49.067-13.057,98.427-26.337,148.118-36.839l25.9-5.473c-13.618-7.233-29.36-9.352-44.767-9.961-35.764-1.413-71.357,4.644-106.613,10.813-42.745,7.479-85.489,15.162-127.652,25.429-30.709,7.478-61.441,16.469-88.789,32.314-7.981,4.624-34.585,21.662-15.71,28.322C1356.772,327.315,1377.308,328.019,1394.662,331.084Z" transform="translate(-970.939 1074.142)"/><g transform="translate(-970.939 1072.142)"><path class="a" d="M1202.381,217.441c11.516,18.175,26.677,33.968,41.434,49.474,1.931,2.03,3.975,4.133,6.635,5.013,2.563.849,5.351.447,8.018.03A1928.161,1928.161,0,0,0,1453.2,230.69c63.282-16.712,127.329-30.045,189.955-49.806q68.343-21.564,136.781-43.534c7.83-2.535,15.847-5.169,22.283-10.3,1.862-1.484-27.875-14.9-30.389-15.927-12.015-4.882-23.284-11.393-34.178-18.385-13.058-8.382-25.563-17.585-38.544-26.081-5.524-3.616-14.091-11.36-20.572-12.61-6.683-1.29-15.17,4.29-21.5,6.9-63.209,26.008-128.559,39.111-194,58.141-30.221,8.788-62.092,12.354-92.985,18.733-16.829,3.474-33.424,8.035-50.254,11.254-16.883,3.23-33.6,7.286-50.559,10.128-24.151,4.048-47.556,3.33-71.857,1.386q-6.395-.512-12.776-1.164c1.576.178,2.227,16.628,2.538,18.639a95.177,95.177,0,0,0,11.293,32.8Q1200.325,214.2,1202.381,217.441Z"/><path class="b" d="M1723.8,97.677a271.929,271.929,0,0,1-24.684-17.435c-6.394-5.129-12.793-13.029-21.033-15.034-6.03-1.468-11.483,5.546-16.492,7.964-32.8,15.834-71.375,24.231-106.406,33.814-94.992,25.988-192.481,48.737-289.374,66.391-23.273,4.235-47.173,2.3-70.747.35.69.057,5.881,18.962,6.488,20.586,9.1,24.388,26.819,44.163,45.7,61.54,2.553,2.349,5.27,4.742,8.621,5.638,3.458.925,7.115.132,10.6-.662l128.864-29.318c112.291-25.547,226.246-50.12,334.709-89.385,9.866-3.571,20.15-6.831,29.644-11.309,3.631-1.713,12.14-8.354,16.489-6.659A304.385,304.385,0,0,1,1723.8,97.677Zm-100.59,64.887c-22.1,5.719-43.174,14.182-65.12,20.383-22,6.217-44.394,10.9-66.705,15.835-17.769,3.932-35.516,7.961-53.2,12.24-50.511,12.218-100.7,25.594-151.855,35.184-8.447,1.584-20.986,4.552-29.123,3.2-.391-11,19.2-8.215,22.606-17.5,2.04-5.562-2.847-11.276-7.973-14.25-4.975-2.886-10.739-4.684-16.464-4.141s-11.354,3.682-14.049,8.763a22.921,22.921,0,0,0-18.2-19.042c-2.111-.375-4.461-.53-5.984-2.04-2.672-2.651-.863-7.24,1.549-10.13a34.029,34.029,0,0,1,29.093-11.834c8.125.837,17.084,6.835,16.095,14.942,5.945,1.825,10.785-4.867,13.257-10.574s6.618-12.612,12.752-11.582c-1.09,1.572.1,3.894,1.854,4.664s3.765.454,5.649.125c30.811-5.388,60.714-13.5,91.352-19.834,10.049-2.079,20.521-4.582,30.4-7.288,58.047-15.9,117.055-28.321,174.685-45.074,6.262-1.82,21.189-1.452,21.666-10.62,3.8-.449,6.867,2.807,9.625,5.455s7.065,5,10.165,2.765c3-2.164,2.312-6.71,3.295-10.275,1.362-4.937,6.121-8.07,10.681-10.4,5.648-2.888,11.71-5.293,18.049-5.535s13.031,1.973,16.973,6.943c-3.273-2.119-8.055,1.146-8.253,5.04s2.971,7.322,6.614,8.714,7.671,1.2,11.566.991l9.907-.535a7.178,7.178,0,0,1,2.919.245c3.645,1.372,2.578,7.075-.257,9.745s-6.862,4.462-8.167,8.131c-1.259,3.542.71,7.6,3.731,9.841s6.855,3.024,10.578,3.547a103.3,103.3,0,0,0,33.639-.823C1705.378,139.916,1664.769,151.807,1623.207,162.564Z"/><path class="c" d="M1590.659,135.066c-.466,3.9,1.778,7.762,4.922,10.117s7.062,3.425,10.937,4.069c11.414,1.9,63.464-4.856,48.583-26.983-4.316-6.419-13.31-7.425-21.022-6.83C1622.442,116.336,1592.38,120.7,1590.659,135.066Z"/><path class="c" d="M1322.9,195.877c-.467,3.9,1.778,7.763,4.922,10.117s7.062,3.425,10.937,4.07c11.414,1.9,63.464-4.856,48.583-26.984-4.316-6.418-13.31-7.424-21.023-6.829C1354.678,177.148,1324.615,181.516,1322.9,195.877Z"/><path class="d" d="M1795.032,135.11a20.144,20.144,0,0,1-3.632-1.855c-3.727,1.577-7.617,2.85-11.463,4.1q-68.3,22.119-136.781,43.534c-62.626,19.761-126.673,33.094-189.955,49.806a1928.161,1928.161,0,0,1-194.733,41.268c-2.668.417-5.455.819-8.018-.03-2.66-.88-4.7-2.983-6.636-5.013-14.756-15.506-29.917-31.3-41.433-49.474q-2.052-3.24-3.943-6.583a95.125,95.125,0,0,1-11.221-32.388c-4.57.462-9.115.406-13.79.725,1.626,10.879,13.984,24.725,20.263,33.855,7.239,10.527,14.889,20.765,22.72,30.857,7.881,10.155,16.46,19.293,25.324,28.633a24.276,24.276,0,0,0,5.25,4.564c6.917,3.99,18.143,1.107,25.477-.581,29.986-6.9,59.741-14.987,89.764-21.116l78.755-16.08c34.21-6.985,66.755-19.546,100.764-27.515,45.012-10.547,89.647-22.629,134.189-34.993,22.274-6.182,44.527-12.439,66.8-18.61q16.709-4.629,33.438-9.176c9.64-2.615,19.443-2.746,27.855-8.558C1802.323,137.022,1798.413,136.383,1795.032,135.11Z"/><path class="e" d="M1803.78,140.635c-8.356,5.647-18.06,5.808-27.606,8.4q-16.732,4.537-33.438,9.176c-22.276,6.171-44.529,12.428-66.8,18.61-44.542,12.364-89.177,24.446-134.189,34.993-34.009,7.969-66.554,20.53-100.764,27.515l-78.755,16.08c-30.023,6.129-59.778,14.214-89.764,21.116-7.334,1.688-18.56,4.571-25.477.581a24.276,24.276,0,0,1-5.25-4.564c-8.864-9.34-17.443-18.478-25.324-28.633-7.831-10.092-15.481-20.33-22.72-30.857-4.368-6.351-11.67-14.984-16.262-23.313l-8.336,2.437q37.816,48.05,78.239,93.97c.552.627,25.222-4.119,28.564-5.038,37.6-10.335,75.4-20.044,113.643-27.7,44.743-8.96,88.133-19.016,131.982-31.935,68.668-20.231,138.445-35.861,207.389-54.92,16.143-4.463,32.169-9.316,48.512-13.033,4.5-1.023,9.1-1.75,13.558-2.9,4.558-1.182,9-2.978,13.417-4.6Q1804.089,143.326,1803.78,140.635Z"/><path class="f" d="M1804.985,148.444a4.091,4.091,0,0,0-.629-1.985,2.313,2.313,0,0,0-.336-.3c-4.3,1.58-8.612,3.306-13.041,4.455-4.457,1.155-9.062,1.882-13.558,2.9-16.343,3.717-32.369,8.57-48.512,13.033-68.944,19.059-138.721,34.689-207.389,54.92-43.849,12.919-87.239,22.975-131.982,31.935-38.245,7.659-76.045,17.368-113.643,27.7-3.342.919-28.012,5.665-28.564,5.038q-40.4-45.9-78.239-93.97l.47-.138-.832-.382a418.165,418.165,0,0,0-3.789,57.311,6.945,6.945,0,0,0,2.2,6.039l15.952,17.969c10.675,12.025,23.058,22.121,33.227,34.7,10.215,12.64,19.386,26.164,30.7,37.882a7.032,7.032,0,0,0,7.8,2.567c17.836-2.619,35.016-10.751,52.4-15.764q155.913-44.97,314.471-79.971c23.926-5.282,48.056-9.505,72.123-14.084,18.812-3.58,37.58-7.4,56.265-11.6q14.177-3.183,28.282-6.662c8.128-2.011,17.694-2.44,24.972-6.812a2.933,2.933,0,0,0,1.07-.921,2.971,2.971,0,0,0,.308-1.366c1.014-17.3.274-34.923.82-52.293A61.285,61.285,0,0,0,1804.985,148.444Z"/><path class="g" d="M1246.544,293.459a29.648,29.648,0,0,1,1.539-7.273c-.437.028-.7.017-.752-.042q-40.4-45.9-78.239-93.97l.47-.138-.832-.382a418.165,418.165,0,0,0-3.789,57.311,6.945,6.945,0,0,0,2.2,6.039l15.952,17.969c10.675,12.025,23.058,22.121,33.227,34.7,10.215,12.64,19.386,26.164,30.7,37.882a9.2,9.2,0,0,0,3.225,2.449,6.4,6.4,0,0,0,2.477.331A125.957,125.957,0,0,1,1246.544,293.459Z"/><path class="h" d="M1437.4,296.711q-9.248,2.4-18.489,4.827Q1428.169,299.194,1437.4,296.711Z"/><path class="a" d="M1282.456,251.223l-14.507-12.438c-2.078-1.779-3.385-2.842-3.888-3.158a3.813,3.813,0,0,0-1.664-.549,3.372,3.372,0,0,0-.349-.016,15.919,15.919,0,0,0-3.142.466l-.735.164-.419-.1-3.154-2.7.1-.8c2.7-1.314,3.874-2.963,3.582-5.042l.372-.536,4.377-.976.418.1,27.062,23.2-.209.835-7.429,1.658Z"/><path class="b" d="M1263.137,226l27.061,23.2-7.428,1.657-14.508-12.438q-3.142-2.692-3.944-3.2a4.264,4.264,0,0,0-1.871-.62,13.024,13.024,0,0,0-3.646.459l-.735.164-3.154-2.7q4.334-2.107,3.848-5.542Z"/><path class="a" d="M1301.535,247.1a16.018,16.018,0,0,1-4.7-.9,23.6,23.6,0,0,1-4.072-1.846,35.621,35.621,0,0,1-4.682-3.528l-9.445-8.1a28.334,28.334,0,0,1-4.965-5.046,3.114,3.114,0,0,1-.156-3.717c.739-1.067,2.137-1.819,4.276-2.295a16.683,16.683,0,0,1,3.646-.393q.816,0,1.654.073a19.534,19.534,0,0,1,4.905,1.009,19.234,19.234,0,0,1,3.919,1.923,49.561,49.561,0,0,1,4.872,3.8l9.027,7.738a35.747,35.747,0,0,1,4.173,3.985,4.942,4.942,0,0,1,1.2,2.869,2.855,2.855,0,0,1-1.234,2.539,8.7,8.7,0,0,1-3.307,1.359,20.752,20.752,0,0,1-4.508.533C1301.936,247.115,1301.736,247.11,1301.535,247.1Zm-18.788-21a1.913,1.913,0,0,0-.42.048.7.7,0,0,0-.264.1c.163.116.594.642,2.354,2.152l13.207,11.322a20.038,20.038,0,0,0,2.99,2.314,1.772,1.772,0,0,0,.793.186,1.99,1.99,0,0,0,.446-.051.713.713,0,0,0,.269-.1c-.166-.1-.582-.609-2.26-2.045l-13.405-11.494a21.945,21.945,0,0,0-2.841-2.2A1.79,1.79,0,0,0,1282.747,226.1Z"/><path class="b" d="M1296.472,228.457l9.027,7.738a35.994,35.994,0,0,1,4.112,3.922,4.463,4.463,0,0,1,1.1,2.591,2.391,2.391,0,0,1-1.04,2.129,8.231,8.231,0,0,1-3.125,1.276,19.7,19.7,0,0,1-4.991.509,15.47,15.47,0,0,1-4.56-.871,22.866,22.866,0,0,1-3.987-1.809,34.733,34.733,0,0,1-4.613-3.476l-9.445-8.1a28.181,28.181,0,0,1-4.875-4.944,2.652,2.652,0,0,1-.162-3.179q.987-1.429,3.984-2.1a16.837,16.837,0,0,1,5.154-.31,19.013,19.013,0,0,1,4.783.983,18.627,18.627,0,0,1,3.822,1.875A49.131,49.131,0,0,1,1296.472,228.457Zm-9.7-.292a22,22,0,0,0-2.927-2.261,2.277,2.277,0,0,0-1.621-.226q-.827.185-.518.739a14.2,14.2,0,0,0,2.4,2.344l13.206,11.322a21.57,21.57,0,0,0,3.09,2.381,2.3,2.3,0,0,0,1.56.172c.552-.123.723-.363.516-.726a13.494,13.494,0,0,0-2.3-2.251Z"/><path class="a" d="M1325.492,241.755a15.967,15.967,0,0,1-4.7-.9,23.557,23.557,0,0,1-4.071-1.847,34.864,34.864,0,0,1-4.684-3.529l-9.445-8.1a28.224,28.224,0,0,1-4.964-5.046,3.112,3.112,0,0,1-.155-3.716c.737-1.067,2.136-1.818,4.275-2.3a16.67,16.67,0,0,1,3.643-.392q.817,0,1.656.073a18.543,18.543,0,0,1,8.826,2.932,48.971,48.971,0,0,1,4.87,3.8l9.027,7.738a36.038,36.038,0,0,1,4.175,3.987,4.962,4.962,0,0,1,1.2,2.869,2.861,2.861,0,0,1-1.233,2.539,8.69,8.69,0,0,1-3.309,1.357,20.714,20.714,0,0,1-4.5.533C1325.9,241.767,1325.694,241.763,1325.492,241.755Zm-18.793-21a1.891,1.891,0,0,0-.417.047.7.7,0,0,0-.264.1c.163.116.594.642,2.355,2.152l13.206,11.322a20.262,20.262,0,0,0,2.99,2.316,1.785,1.785,0,0,0,.8.184,2.056,2.056,0,0,0,.447-.05.7.7,0,0,0,.267-.1c-.165-.1-.581-.61-2.26-2.047l-13.406-11.494a20.407,20.407,0,0,0-2.842-2.2A1.816,1.816,0,0,0,1306.7,220.753Z"/><path class="b" d="M1320.428,223.11l9.026,7.737a36.041,36.041,0,0,1,4.114,3.924,4.478,4.478,0,0,1,1.1,2.59,2.4,2.4,0,0,1-1.041,2.129,8.2,8.2,0,0,1-3.124,1.275,19.614,19.614,0,0,1-4.99.509,15.4,15.4,0,0,1-4.561-.869,23.091,23.091,0,0,1-3.988-1.809,34.769,34.769,0,0,1-4.612-3.478l-9.445-8.1a28.179,28.179,0,0,1-4.875-4.945,2.65,2.65,0,0,1-.161-3.178q.985-1.428,3.982-2.1a16.874,16.874,0,0,1,5.154-.309,18.978,18.978,0,0,1,4.784.981,18.669,18.669,0,0,1,3.821,1.876A48.791,48.791,0,0,1,1320.428,223.11Zm-9.7-.292a22.2,22.2,0,0,0-2.927-2.262,2.283,2.283,0,0,0-1.621-.226q-.827.185-.518.739a14.123,14.123,0,0,0,2.4,2.344l13.207,11.322a21.541,21.541,0,0,0,3.089,2.382,2.315,2.315,0,0,0,1.56.173q.829-.184.516-.728a13.424,13.424,0,0,0-2.3-2.25Z"/><path class="a" d="M1234.551,199.8l-6.6-5.659c-.945-.81-1.54-1.293-1.769-1.437a1.723,1.723,0,0,0-.757-.25,1.557,1.557,0,0,0-.159-.007,7.254,7.254,0,0,0-1.43.212l-.334.075-.19-.048-1.435-1.23.046-.363c1.23-.6,1.763-1.348,1.63-2.294l.169-.244,1.992-.444.19.048,12.313,10.554-.1.38-3.379.754Z"/><path class="b" d="M1225.762,188.327l12.312,10.555-3.38.754-6.6-5.659q-1.431-1.226-1.8-1.457a1.941,1.941,0,0,0-.852-.282,5.934,5.934,0,0,0-1.658.209l-.335.075-1.435-1.23q1.972-.959,1.751-2.521Z"/><path class="a" d="M1243.232,197.927a7.272,7.272,0,0,1-2.139-.408,10.824,10.824,0,0,1-1.853-.84,16.228,16.228,0,0,1-2.13-1.6l-4.3-3.685a12.874,12.874,0,0,1-2.259-2.3,1.417,1.417,0,0,1-.071-1.691,3.057,3.057,0,0,1,1.945-1.045,7.647,7.647,0,0,1,1.659-.178c.248,0,.5.011.753.033a8.872,8.872,0,0,1,2.231.459,8.7,8.7,0,0,1,1.784.875,22.553,22.553,0,0,1,2.216,1.731l4.107,3.52a16.287,16.287,0,0,1,1.9,1.814,2.25,2.25,0,0,1,.548,1.305,1.3,1.3,0,0,1-.562,1.155,3.962,3.962,0,0,1-1.505.618,9.437,9.437,0,0,1-2.051.243C1243.414,197.933,1243.323,197.93,1243.232,197.927Zm-8.549-9.556a.918.918,0,0,0-.191.022.325.325,0,0,0-.12.044c.074.053.271.292,1.072.979l6.008,5.151a9.117,9.117,0,0,0,1.361,1.053.8.8,0,0,0,.361.085.911.911,0,0,0,.2-.024.341.341,0,0,0,.122-.043c-.076-.046-.265-.278-1.028-.931l-6.1-5.23a10.2,10.2,0,0,0-1.293-1A.823.823,0,0,0,1234.683,188.371Z"/><path class="b" d="M1240.928,189.444l4.107,3.52a16.409,16.409,0,0,1,1.871,1.785,2.033,2.033,0,0,1,.5,1.178,1.088,1.088,0,0,1-.474.969,3.739,3.739,0,0,1-1.421.581,8.951,8.951,0,0,1-2.271.231,7.013,7.013,0,0,1-2.075-.4,10.443,10.443,0,0,1-1.814-.823,15.818,15.818,0,0,1-2.1-1.582l-4.3-3.684a12.832,12.832,0,0,1-2.218-2.249,1.208,1.208,0,0,1-.074-1.447,2.894,2.894,0,0,1,1.813-.955,7.662,7.662,0,0,1,2.345-.141,8.629,8.629,0,0,1,2.176.447,8.463,8.463,0,0,1,1.739.853A22.3,22.3,0,0,1,1240.928,189.444Zm-4.414-.133a9.984,9.984,0,0,0-1.332-1.029,1.036,1.036,0,0,0-.737-.1c-.251.056-.329.169-.236.336a6.462,6.462,0,0,0,1.092,1.067l6.009,5.151a9.8,9.8,0,0,0,1.4,1.083,1.044,1.044,0,0,0,.71.079c.251-.056.329-.165.235-.331a6.18,6.18,0,0,0-1.047-1.023Z"/><path class="a" d="M1254.132,195.494a7.252,7.252,0,0,1-2.14-.408,10.746,10.746,0,0,1-1.852-.84,15.87,15.87,0,0,1-2.131-1.606l-4.3-3.684a12.8,12.8,0,0,1-2.259-2.3,1.416,1.416,0,0,1-.07-1.69,3.061,3.061,0,0,1,1.945-1.045,7.629,7.629,0,0,1,1.657-.178q.372,0,.754.033a8.439,8.439,0,0,1,4.015,1.334,22.268,22.268,0,0,1,2.216,1.731l4.107,3.52a16.4,16.4,0,0,1,1.9,1.814,2.256,2.256,0,0,1,.547,1.3,1.3,1.3,0,0,1-.561,1.155,3.952,3.952,0,0,1-1.505.618,9.434,9.434,0,0,1-2.047.242C1254.317,195.5,1254.224,195.5,1254.132,195.494Zm-8.551-9.555a.89.89,0,0,0-.189.021.3.3,0,0,0-.12.044c.074.053.27.292,1.071.979l6.008,5.151a9.125,9.125,0,0,0,1.361,1.054.818.818,0,0,0,.362.084.97.97,0,0,0,.2-.023.312.312,0,0,0,.121-.044c-.075-.046-.264-.278-1.028-.932l-6.1-5.229a9.3,9.3,0,0,0-1.294-1A.827.827,0,0,0,1245.581,185.939Z"/><path class="b" d="M1251.828,187.011l4.106,3.52a16.251,16.251,0,0,1,1.872,1.786,2.033,2.033,0,0,1,.5,1.178,1.09,1.09,0,0,1-.473.969,3.736,3.736,0,0,1-1.422.579,8.857,8.857,0,0,1-2.27.232,7.039,7.039,0,0,1-2.075-.395,10.56,10.56,0,0,1-1.815-.823,15.852,15.852,0,0,1-2.1-1.583l-4.3-3.684a12.729,12.729,0,0,1-2.218-2.25,1.2,1.2,0,0,1-.074-1.445,2.886,2.886,0,0,1,1.812-.956,7.7,7.7,0,0,1,2.345-.14,8.6,8.6,0,0,1,2.177.446,8.485,8.485,0,0,1,1.738.854A22.223,22.223,0,0,1,1251.828,187.011Zm-4.415-.133a10.083,10.083,0,0,0-1.331-1.029,1.045,1.045,0,0,0-.738-.1c-.251.056-.329.169-.235.336a6.4,6.4,0,0,0,1.091,1.067l6.009,5.151a9.83,9.83,0,0,0,1.405,1.084,1.062,1.062,0,0,0,.71.079q.378-.084.235-.332a6.185,6.185,0,0,0-1.046-1.024Z"/><path class="a" d="M1691.751,144.6,1678.8,133.495c-1.855-1.588-3.022-2.538-3.471-2.819a3.385,3.385,0,0,0-1.486-.491,2.934,2.934,0,0,0-.311-.015,14.225,14.225,0,0,0-2.807.417l-.656.146-.373-.093-2.817-2.414.092-.712c2.414-1.174,3.46-2.646,3.2-4.5l.332-.478,3.908-.872.374.094,24.164,20.714-.187.746-6.633,1.48Z"/><path class="b" d="M1674.5,122.081l24.164,20.714-6.634,1.481-12.954-11.107q-2.806-2.4-3.521-2.858a3.826,3.826,0,0,0-1.672-.554,11.66,11.66,0,0,0-3.255.41l-.656.147-2.817-2.413q3.87-1.882,3.436-4.949Z"/><path class="a" d="M1708.787,140.923a14.3,14.3,0,0,1-4.2-.8,21.049,21.049,0,0,1-3.636-1.649,31.734,31.734,0,0,1-4.181-3.15l-8.434-7.23a25.307,25.307,0,0,1-4.433-4.506,2.779,2.779,0,0,1-.139-3.319c.659-.953,1.908-1.624,3.818-2.049a14.9,14.9,0,0,1,3.255-.351q.729,0,1.477.065a17.472,17.472,0,0,1,4.38.9,17.222,17.222,0,0,1,3.5,1.717,44.4,44.4,0,0,1,4.35,3.4l8.06,6.909a31.95,31.95,0,0,1,3.726,3.559,4.417,4.417,0,0,1,1.076,2.562,2.552,2.552,0,0,1-1.1,2.267,7.765,7.765,0,0,1-2.953,1.213,18.544,18.544,0,0,1-4.026.476C1709.146,140.933,1708.967,140.929,1708.787,140.923Zm-16.776-18.755a1.748,1.748,0,0,0-.375.043.646.646,0,0,0-.236.086c.145.1.531.573,2.1,1.922l11.792,10.109a17.936,17.936,0,0,0,2.67,2.067,1.59,1.59,0,0,0,.708.166,1.8,1.8,0,0,0,.4-.046.676.676,0,0,0,.24-.086c-.148-.089-.52-.544-2.018-1.827l-11.97-10.263a19.643,19.643,0,0,0-2.537-1.966A1.6,1.6,0,0,0,1692.011,122.168Z"/><path class="b" d="M1704.267,124.273l8.06,6.909a32.036,32.036,0,0,1,3.671,3.5,3.983,3.983,0,0,1,.981,2.313,2.133,2.133,0,0,1-.929,1.9,7.352,7.352,0,0,1-2.79,1.139,17.574,17.574,0,0,1-4.456.455,13.8,13.8,0,0,1-4.072-.778,20.413,20.413,0,0,1-3.56-1.615,30.981,30.981,0,0,1-4.119-3.1l-8.434-7.23a25.155,25.155,0,0,1-4.353-4.416,2.367,2.367,0,0,1-.145-2.838,5.673,5.673,0,0,1,3.557-1.875,15.043,15.043,0,0,1,4.6-.277,17.008,17.008,0,0,1,4.272.877,16.65,16.65,0,0,1,3.412,1.675A43.863,43.863,0,0,1,1704.267,124.273Zm-8.663-.26a19.694,19.694,0,0,0-2.614-2.02,2.034,2.034,0,0,0-1.448-.2c-.491.109-.646.33-.462.659a12.678,12.678,0,0,0,2.143,2.094l11.792,10.109a19.2,19.2,0,0,0,2.759,2.126,2.057,2.057,0,0,0,1.393.154c.493-.11.646-.324.46-.649a12.031,12.031,0,0,0-2.053-2.009Z"/><path class="a" d="M1730.179,136.147a14.265,14.265,0,0,1-4.2-.8,21.077,21.077,0,0,1-3.634-1.649,31.124,31.124,0,0,1-4.183-3.151l-8.433-7.231a25.244,25.244,0,0,1-4.433-4.505,2.777,2.777,0,0,1-.138-3.318c.658-.952,1.907-1.624,3.816-2.05a14.9,14.9,0,0,1,3.254-.35q.729,0,1.479.065a16.554,16.554,0,0,1,7.881,2.618,43.728,43.728,0,0,1,4.348,3.4l8.06,6.909a32.066,32.066,0,0,1,3.728,3.56,4.427,4.427,0,0,1,1.074,2.562,2.553,2.553,0,0,1-1.1,2.267,7.75,7.75,0,0,1-2.954,1.212,18.508,18.508,0,0,1-4.017.476C1730.544,136.158,1730.36,136.155,1730.179,136.147ZM1713.4,117.394a1.725,1.725,0,0,0-.372.042.609.609,0,0,0-.235.086c.145.1.53.573,2.1,1.921l11.792,10.11a18.039,18.039,0,0,0,2.67,2.068,1.593,1.593,0,0,0,.71.164,1.861,1.861,0,0,0,.4-.044.637.637,0,0,0,.238-.086c-.146-.09-.518-.545-2.018-1.828l-11.97-10.264a18.318,18.318,0,0,0-2.538-1.966A1.625,1.625,0,0,0,1713.4,117.394Z"/><path class="b" d="M1725.657,119.5l8.06,6.909a32.171,32.171,0,0,1,3.673,3.5,3.993,3.993,0,0,1,.98,2.313,2.14,2.14,0,0,1-.929,1.9,7.327,7.327,0,0,1-2.79,1.138,17.537,17.537,0,0,1-4.456.455,13.765,13.765,0,0,1-4.073-.777,20.561,20.561,0,0,1-3.56-1.615,31.132,31.132,0,0,1-4.119-3.105l-8.433-7.231a25.161,25.161,0,0,1-4.353-4.415,2.365,2.365,0,0,1-.144-2.837,5.671,5.671,0,0,1,3.556-1.876,15.106,15.106,0,0,1,4.6-.276,17.01,17.01,0,0,1,4.271.876,16.686,16.686,0,0,1,3.413,1.676A43.651,43.651,0,0,1,1725.657,119.5Zm-8.663-.261a19.771,19.771,0,0,0-2.614-2.019,2.042,2.042,0,0,0-1.447-.2c-.492.11-.646.331-.462.66a12.625,12.625,0,0,0,2.142,2.093l11.792,10.109a19.2,19.2,0,0,0,2.759,2.128,2.069,2.069,0,0,0,1.393.154q.74-.164.461-.65a12.007,12.007,0,0,0-2.054-2.009Z"/><path class="a" d="M1655.45,92.695l-5.224-4.478c-.748-.641-1.218-1.024-1.4-1.137a1.367,1.367,0,0,0-.6-.2,1.211,1.211,0,0,0-.126-.006,5.7,5.7,0,0,0-1.131.168l-.265.059-.151-.038-1.135-.973.037-.287c.973-.473,1.4-1.067,1.29-1.816l.133-.193,1.576-.351.151.038,9.743,8.352-.075.3-2.675.6Z"/><path class="b" d="M1648.494,83.614l9.743,8.352-2.675.6-5.223-4.478q-1.131-.969-1.42-1.152a1.534,1.534,0,0,0-.674-.224,4.722,4.722,0,0,0-1.312.166l-.265.059-1.135-.973q1.56-.759,1.385-2Z"/><path class="a" d="M1662.318,91.211a5.747,5.747,0,0,1-1.692-.323,8.472,8.472,0,0,1-1.466-.665,12.82,12.82,0,0,1-1.686-1.27l-3.4-2.915a10.211,10.211,0,0,1-1.788-1.817,1.12,1.12,0,0,1-.056-1.338,2.421,2.421,0,0,1,1.54-.826,5.994,5.994,0,0,1,1.312-.142c.2,0,.394.009.6.026a7.024,7.024,0,0,1,1.766.364,6.952,6.952,0,0,1,1.411.692,17.882,17.882,0,0,1,1.754,1.37l3.25,2.786a12.792,12.792,0,0,1,1.5,1.435,1.782,1.782,0,0,1,.434,1.032,1.029,1.029,0,0,1-.445.914,3.136,3.136,0,0,1-1.19.49,7.5,7.5,0,0,1-1.624.191C1662.463,91.215,1662.391,91.214,1662.318,91.211Zm-6.764-7.562a.662.662,0,0,0-.151.018.251.251,0,0,0-.095.034c.058.042.214.232.848.775l4.754,4.076a7.153,7.153,0,0,0,1.077.834.651.651,0,0,0,.285.067.7.7,0,0,0,.161-.019.274.274,0,0,0,.1-.035c-.06-.035-.21-.219-.814-.736l-4.826-4.138a7.945,7.945,0,0,0-1.023-.793A.64.64,0,0,0,1655.554,83.649Z"/><path class="b" d="M1660.5,84.5l3.25,2.786a12.927,12.927,0,0,1,1.48,1.412,1.6,1.6,0,0,1,.4.933.857.857,0,0,1-.374.766,2.957,2.957,0,0,1-1.125.46,7.127,7.127,0,0,1-1.8.183,5.545,5.545,0,0,1-1.642-.314,8.218,8.218,0,0,1-1.435-.651,12.4,12.4,0,0,1-1.661-1.251l-3.4-2.916a10.142,10.142,0,0,1-1.756-1.78.954.954,0,0,1-.058-1.144,2.282,2.282,0,0,1,1.434-.756,6.053,6.053,0,0,1,1.856-.112,6.873,6.873,0,0,1,1.722.354,6.688,6.688,0,0,1,1.376.675A17.686,17.686,0,0,1,1660.5,84.5ZM1657,84.393a8,8,0,0,0-1.054-.814.816.816,0,0,0-.584-.081q-.3.066-.186.266a5.152,5.152,0,0,0,.864.844l4.754,4.076a7.776,7.776,0,0,0,1.113.857.825.825,0,0,0,.561.062q.3-.066.186-.262a4.912,4.912,0,0,0-.828-.81Z"/><path class="a" d="M1670.944,89.286a5.754,5.754,0,0,1-1.693-.323,8.484,8.484,0,0,1-1.466-.665,12.588,12.588,0,0,1-1.686-1.27l-3.4-2.916a10.167,10.167,0,0,1-1.787-1.816,1.121,1.121,0,0,1-.056-1.338,2.424,2.424,0,0,1,1.539-.827,6.07,6.07,0,0,1,1.312-.141q.294,0,.6.027a6.661,6.661,0,0,1,3.178,1.055,17.629,17.629,0,0,1,1.753,1.369l3.25,2.786a12.8,12.8,0,0,1,1.5,1.436,1.775,1.775,0,0,1,.433,1.033,1.03,1.03,0,0,1-.443.914,3.145,3.145,0,0,1-1.192.488,7.423,7.423,0,0,1-1.619.192C1671.091,89.29,1671.017,89.289,1670.944,89.286Zm-6.766-7.561a.7.7,0,0,0-.15.016.248.248,0,0,0-.095.035c.058.042.213.231.847.775l4.755,4.076a7.185,7.185,0,0,0,1.077.834.634.634,0,0,0,.286.066.747.747,0,0,0,.16-.018.28.28,0,0,0,.1-.034c-.06-.037-.209-.22-.814-.738l-4.826-4.138a7.423,7.423,0,0,0-1.024-.793A.652.652,0,0,0,1664.178,81.725Z"/><path class="b" d="M1669.12,82.573l3.25,2.786a12.962,12.962,0,0,1,1.481,1.412,1.611,1.611,0,0,1,.4.933.859.859,0,0,1-.374.766,2.948,2.948,0,0,1-1.125.459,7.043,7.043,0,0,1-1.8.184,5.576,5.576,0,0,1-1.642-.313,8.379,8.379,0,0,1-1.436-.652,12.435,12.435,0,0,1-1.66-1.252l-3.4-2.915a10.2,10.2,0,0,1-1.755-1.78.955.955,0,0,1-.058-1.144,2.29,2.29,0,0,1,1.434-.757,6.111,6.111,0,0,1,1.855-.111,6.873,6.873,0,0,1,1.723.353,6.77,6.77,0,0,1,1.376.676A17.557,17.557,0,0,1,1669.12,82.573Zm-3.493-.1a7.986,7.986,0,0,0-1.053-.815.827.827,0,0,0-.584-.081q-.3.066-.186.266a5.047,5.047,0,0,0,.863.844l4.755,4.076a7.7,7.7,0,0,0,1.113.858.831.831,0,0,0,.561.062q.3-.066.186-.262a4.872,4.872,0,0,0-.828-.81Z"/><path class="i" d="M1614.178,219.277c-.041,6.418-.247,12.828-.048,19.056.111,3.458,2.037,11.424.37,14.575-1.866,3.53-10.54,4.677-14.11,5.736-34.5,10.231-70.144,22.9-106.354,26.675a.616.616,0,0,1-.8-.772c.068-10.845.341-21.627.1-32.552-.182-8.168-.373-16.4-2.2-24.367-3.913-17.086-17-28.139-29.531-39.3-13.912-12.386-28.408-24.123-43.475-35.075-8.85-6.433-19.048-12.161-26.786-19.9,8.253-3.62,18.034-4.746,26.747-7.417,9.076-2.783,18.077-5.821,27.27-8.207,20.312-5.271,40.524-10.872,61.092-15.011a51.98,51.98,0,0,0,10.273,12.113c13.21,11.744,29.753,19.816,43.873,30.693,15.775,12.153,31.259,25.242,46.4,38.205a14.112,14.112,0,0,1,2.307,2.308,13.35,13.35,0,0,1,1.781,4.076C1613.911,199.438,1614.242,209.369,1614.178,219.277Z"/><path class="j" d="M1614.178,219.277c.064-9.908-.267-19.839-3.092-29.163-.221-.728-.453-1.461-.744-2.165-39.921,12.95-81.575,20.339-122.4,30.492a45.009,45.009,0,0,1,3.191,9.187c1.824,7.964,2.015,16.2,2.2,24.367.244,10.924-.029,21.707-.1,32.552a.827.827,0,0,0,.211.684.816.816,0,0,0,.59.088c36.21-3.77,71.852-16.444,106.354-26.675,3.57-1.059,12.244-2.206,14.111-5.736,1.666-3.151-.26-11.117-.371-14.575C1613.931,232.1,1614.137,225.7,1614.178,219.277Z"/></g><g transform="translate(-1134.939 1195.142)"><ellipse class="l" cx="86.989" cy="16.538" rx="86.989" ry="16.538" transform="translate(1554.218 281.066)"/><path class="m" d="M1595.113,283.581c-24.554,2.923-40.9,8.109-40.9,14.023,0,8.371,32.716,15.285,75.16,16.382a133.49,133.49,0,0,1-16.831-11.319A79.465,79.465,0,0,1,1595.113,283.581Z"/><path class="n" d="M1728.2,297.6c0-8.533-34-15.555-77.648-16.442a129.355,129.355,0,0,0,22.021,21.7,147.872,147.872,0,0,0,12.987,8.968C1711.081,308.949,1728.2,303.658,1728.2,297.6Z"/><path class="o" d="M1641.208,281.066c-48.043,0-86.99,7.4-86.99,16.538s38.947,16.539,86.99,16.539,86.989-7.4,86.989-16.539S1689.25,281.066,1641.208,281.066Zm0,31.869c-45.873,0-83.06-7.07-83.06-15.791s37.187-15.791,83.06-15.791,83.059,7.07,83.059,15.791S1687.08,312.935,1641.208,312.935Z"/><ellipse class="p" cx="65.242" cy="10.24" rx="65.242" ry="10.24" transform="translate(1575.965 282.936)"/><ellipse class="q" cx="63.696" cy="8.027" rx="63.696" ry="8.027" transform="translate(1577.511 287.364)"/><path class="r" d="M1641.208,314.143c-48.043,0-86.99-7.4-86.99-16.539v15.147h.068c1.425,8.9,39.781,16.027,86.922,16.027s85.5-7.131,86.921-16.027h.068V297.6C1728.2,306.738,1689.25,314.143,1641.208,314.143Z"/><path class="s" d="M1626.729,313.91c-41.148-1.311-72.511-8.11-72.511-16.306v15.147h.068c1.223,7.637,29.668,13.967,67.513,15.608.108-.214.223-.425.328-.641A50.712,50.712,0,0,0,1626.729,313.91Z"/><path class="t" d="M1685.075,311.884a76.926,76.926,0,0,1-1.46,14.792c25.846-2.751,43.555-7.936,44.514-13.925h.068V297.6C1728.2,303.7,1710.864,309.014,1685.075,311.884Z"/></g><g transform="translate(-1114.939 1178.142)"><ellipse class="l" cx="86.989" cy="16.538" rx="86.989" ry="16.538" transform="translate(1554.218 281.066)"/><path class="m" d="M1595.113,283.581c-24.554,2.923-40.9,8.109-40.9,14.023,0,8.371,32.716,15.285,75.16,16.382a133.49,133.49,0,0,1-16.831-11.319A79.465,79.465,0,0,1,1595.113,283.581Z"/><path class="n" d="M1728.2,297.6c0-8.533-34-15.555-77.648-16.442a129.355,129.355,0,0,0,22.021,21.7,147.872,147.872,0,0,0,12.987,8.968C1711.081,308.949,1728.2,303.658,1728.2,297.6Z"/><path class="o" d="M1641.208,281.066c-48.043,0-86.99,7.4-86.99,16.538s38.947,16.539,86.99,16.539,86.989-7.4,86.989-16.539S1689.25,281.066,1641.208,281.066Zm0,31.869c-45.873,0-83.06-7.07-83.06-15.791s37.187-15.791,83.06-15.791,83.059,7.07,83.059,15.791S1687.08,312.935,1641.208,312.935Z"/><ellipse class="p" cx="65.242" cy="10.24" rx="65.242" ry="10.24" transform="translate(1575.965 282.936)"/><ellipse class="q" cx="63.696" cy="8.027" rx="63.696" ry="8.027" transform="translate(1577.511 287.364)"/><path class="r" d="M1641.208,314.143c-48.043,0-86.99-7.4-86.99-16.539v15.147h.068c1.425,8.9,39.781,16.027,86.922,16.027s85.5-7.131,86.921-16.027h.068V297.6C1728.2,306.738,1689.25,314.143,1641.208,314.143Z"/><path class="s" d="M1626.729,313.91c-41.148-1.311-72.511-8.11-72.511-16.306v15.147h.068c1.223,7.637,29.668,13.967,67.513,15.608.108-.214.223-.425.328-.641A50.712,50.712,0,0,0,1626.729,313.91Z"/><path class="t" d="M1685.075,311.884a76.926,76.926,0,0,1-1.46,14.792c25.846-2.751,43.555-7.936,44.514-13.925h.068V297.6C1728.2,303.7,1710.864,309.014,1685.075,311.884Z"/></g><g transform="translate(-1117.939 1161.142)"><ellipse class="l" cx="86.989" cy="16.538" rx="86.989" ry="16.538" transform="translate(1554.218 281.066)"/><path class="m" d="M1595.113,283.581c-24.554,2.923-40.9,8.109-40.9,14.023,0,8.371,32.716,15.285,75.16,16.382a133.49,133.49,0,0,1-16.831-11.319A79.465,79.465,0,0,1,1595.113,283.581Z"/><path class="n" d="M1728.2,297.6c0-8.533-34-15.555-77.648-16.442a129.355,129.355,0,0,0,22.021,21.7,147.872,147.872,0,0,0,12.987,8.968C1711.081,308.949,1728.2,303.658,1728.2,297.6Z"/><path class="o" d="M1641.208,281.066c-48.043,0-86.99,7.4-86.99,16.538s38.947,16.539,86.99,16.539,86.989-7.4,86.989-16.539S1689.25,281.066,1641.208,281.066Zm0,31.869c-45.873,0-83.06-7.07-83.06-15.791s37.187-15.791,83.06-15.791,83.059,7.07,83.059,15.791S1687.08,312.935,1641.208,312.935Z"/><ellipse class="p" cx="65.242" cy="10.24" rx="65.242" ry="10.24" transform="translate(1575.965 282.936)"/><ellipse class="q" cx="63.696" cy="8.027" rx="63.696" ry="8.027" transform="translate(1577.511 287.364)"/><path class="r" d="M1641.208,314.143c-48.043,0-86.99-7.4-86.99-16.539v15.147h.068c1.425,8.9,39.781,16.027,86.922,16.027s85.5-7.131,86.921-16.027h.068V297.6C1728.2,306.738,1689.25,314.143,1641.208,314.143Z"/><path class="s" d="M1626.729,313.91c-41.148-1.311-72.511-8.11-72.511-16.306v15.147h.068c1.223,7.637,29.668,13.967,67.513,15.608.108-.214.223-.425.328-.641A50.712,50.712,0,0,0,1626.729,313.91Z"/><path class="t" d="M1685.075,311.884a76.926,76.926,0,0,1-1.46,14.792c25.846-2.751,43.555-7.936,44.514-13.925h.068V297.6C1728.2,303.7,1710.864,309.014,1685.075,311.884Z"/></g><g transform="translate(-1136.939 1143.142)"><ellipse class="l" cx="86.989" cy="16.538" rx="86.989" ry="16.538" transform="translate(1554.218 281.066)"/><path class="m" d="M1595.113,283.581c-24.554,2.923-40.9,8.109-40.9,14.023,0,8.371,32.716,15.285,75.16,16.382a133.49,133.49,0,0,1-16.831-11.319A79.465,79.465,0,0,1,1595.113,283.581Z"/><path class="n" d="M1728.2,297.6c0-8.533-34-15.555-77.648-16.442a129.355,129.355,0,0,0,22.021,21.7,147.872,147.872,0,0,0,12.987,8.968C1711.081,308.949,1728.2,303.658,1728.2,297.6Z"/><path class="o" d="M1641.208,281.066c-48.043,0-86.99,7.4-86.99,16.538s38.947,16.539,86.99,16.539,86.989-7.4,86.989-16.539S1689.25,281.066,1641.208,281.066Zm0,31.869c-45.873,0-83.06-7.07-83.06-15.791s37.187-15.791,83.06-15.791,83.059,7.07,83.059,15.791S1687.08,312.935,1641.208,312.935Z"/><ellipse class="p" cx="65.242" cy="10.24" rx="65.242" ry="10.24" transform="translate(1575.965 282.936)"/><ellipse class="q" cx="63.696" cy="8.027" rx="63.696" ry="8.027" transform="translate(1577.511 287.364)"/><path class="r" d="M1641.208,314.143c-48.043,0-86.99-7.4-86.99-16.539v15.147h.068c1.425,8.9,39.781,16.027,86.922,16.027s85.5-7.131,86.921-16.027h.068V297.6C1728.2,306.738,1689.25,314.143,1641.208,314.143Z"/><path class="s" d="M1626.729,313.91c-41.148-1.311-72.511-8.11-72.511-16.306v15.147h.068c1.223,7.637,29.668,13.967,67.513,15.608.108-.214.223-.425.328-.641A50.712,50.712,0,0,0,1626.729,313.91Z"/><path class="t" d="M1685.075,311.884a76.926,76.926,0,0,1-1.46,14.792c25.846-2.751,43.555-7.936,44.514-13.925h.068V297.6C1728.2,303.7,1710.864,309.014,1685.075,311.884Z"/></g><g transform="translate(-1120.939 1125.142)"><ellipse class="l" cx="86.989" cy="16.538" rx="86.989" ry="16.538" transform="translate(1554.218 281.066)"/><path class="m" d="M1595.113,283.581c-24.554,2.923-40.9,8.109-40.9,14.023,0,8.371,32.716,15.285,75.16,16.382a133.49,133.49,0,0,1-16.831-11.319A79.465,79.465,0,0,1,1595.113,283.581Z"/><path class="n" d="M1728.2,297.6c0-8.533-34-15.555-77.648-16.442a129.355,129.355,0,0,0,22.021,21.7,147.872,147.872,0,0,0,12.987,8.968C1711.081,308.949,1728.2,303.658,1728.2,297.6Z"/><path class="o" d="M1641.208,281.066c-48.043,0-86.99,7.4-86.99,16.538s38.947,16.539,86.99,16.539,86.989-7.4,86.989-16.539S1689.25,281.066,1641.208,281.066Zm0,31.869c-45.873,0-83.06-7.07-83.06-15.791s37.187-15.791,83.06-15.791,83.059,7.07,83.059,15.791S1687.08,312.935,1641.208,312.935Z"/><ellipse class="p" cx="65.242" cy="10.24" rx="65.242" ry="10.24" transform="translate(1575.965 282.936)"/><ellipse class="q" cx="63.696" cy="8.027" rx="63.696" ry="8.027" transform="translate(1577.511 287.364)"/><path class="r" d="M1641.208,314.143c-48.043,0-86.99-7.4-86.99-16.539v15.147h.068c1.425,8.9,39.781,16.027,86.922,16.027s85.5-7.131,86.921-16.027h.068V297.6C1728.2,306.738,1689.25,314.143,1641.208,314.143Z"/><path class="s" d="M1626.729,313.91c-41.148-1.311-72.511-8.11-72.511-16.306v15.147h.068c1.223,7.637,29.668,13.967,67.513,15.608.108-.214.223-.425.328-.641A50.712,50.712,0,0,0,1626.729,313.91Z"/><path class="t" d="M1685.075,311.884a76.926,76.926,0,0,1-1.46,14.792c25.846-2.751,43.555-7.936,44.514-13.925h.068V297.6C1728.2,303.7,1710.864,309.014,1685.075,311.884Z"/></g><g transform="translate(-1138.939 1107.142)"><ellipse class="l" cx="86.989" cy="16.538" rx="86.989" ry="16.538" transform="translate(1554.218 281.066)"/><path class="m" d="M1595.113,283.581c-24.554,2.923-40.9,8.109-40.9,14.023,0,8.371,32.716,15.285,75.16,16.382a133.49,133.49,0,0,1-16.831-11.319A79.465,79.465,0,0,1,1595.113,283.581Z"/><path class="n" d="M1728.2,297.6c0-8.533-34-15.555-77.648-16.442a129.355,129.355,0,0,0,22.021,21.7,147.872,147.872,0,0,0,12.987,8.968C1711.081,308.949,1728.2,303.658,1728.2,297.6Z"/><path class="o" d="M1641.208,281.066c-48.043,0-86.99,7.4-86.99,16.538s38.947,16.539,86.99,16.539,86.989-7.4,86.989-16.539S1689.25,281.066,1641.208,281.066Zm0,31.869c-45.873,0-83.06-7.07-83.06-15.791s37.187-15.791,83.06-15.791,83.059,7.07,83.059,15.791S1687.08,312.935,1641.208,312.935Z"/><ellipse class="p" cx="65.242" cy="10.24" rx="65.242" ry="10.24" transform="translate(1575.965 282.936)"/><ellipse class="q" cx="63.696" cy="8.027" rx="63.696" ry="8.027" transform="translate(1577.511 287.364)"/><path class="r" d="M1641.208,314.143c-48.043,0-86.99-7.4-86.99-16.539v15.147h.068c1.425,8.9,39.781,16.027,86.922,16.027s85.5-7.131,86.921-16.027h.068V297.6C1728.2,306.738,1689.25,314.143,1641.208,314.143Z"/><path class="s" d="M1626.729,313.91c-41.148-1.311-72.511-8.11-72.511-16.306v15.147h.068c1.223,7.637,29.668,13.967,67.513,15.608.108-.214.223-.425.328-.641A50.712,50.712,0,0,0,1626.729,313.91Z"/><path class="t" d="M1685.075,311.884a76.926,76.926,0,0,1-1.46,14.792c25.846-2.751,43.555-7.936,44.514-13.925h.068V297.6C1728.2,303.7,1710.864,309.014,1685.075,311.884Z"/></g></g></svg>