<svg xmlns="http://www.w3.org/2000/svg" xmlns:xlink="http://www.w3.org/1999/xlink" width="157.099" height="157.107" viewBox="0 0 157.099 157.107"><defs><style>.a{fill:none;}.b{clip-path:url(#a);}.c{fill:url(#b);}.d{clip-path:url(#c);}.e{fill:url(#d);}.f{clip-path:url(#e);}.g{fill:#65380d;}.h{fill:#e0e1e3;}.i{fill:#b5b7ba;}.j{fill:#fff;}.k{fill:#65676a;}</style><clipPath id="a"><path class="a" d="M1.457,0h154.18a1.46,1.46,0,0,1,1.46,1.46V155.647a1.46,1.46,0,0,1-1.46,1.46H1.459A1.459,1.459,0,0,1,0,155.648V1.457A1.457,1.457,0,0,1,1.457,0Z"/></clipPath><linearGradient id="b" y1="1" x2="0.016" y2="1" gradientUnits="objectBoundingBox"><stop offset="0" stop-color="#f0aa67"/><stop offset="1" stop-color="#aa8e4e"/></linearGradient><clipPath id="c"><path class="a" d="M5.71,2.243A3.472,3.472,0,0,0,2.238,5.708V70.093H147.86V5.708A3.467,3.467,0,0,0,144.4,2.243Z" transform="translate(-2.238 -2.243)"/></clipPath><linearGradient id="d" x1="-0.039" y1="2.231" x2="-0.022" y2="2.231" gradientUnits="objectBoundingBox"><stop offset="0" stop-color="#d9b88b"/><stop offset="1" stop-color="#be9e56"/></linearGradient><clipPath id="e"><rect class="a" width="157.099" height="157.107"/></clipPath></defs><g transform="translate(0 0)"><g transform="translate(0 0)"><g class="b"><rect class="c" width="157.097" height="157.107" transform="translate(0 0)"/></g></g><g transform="translate(5.735 5.748)"><g class="d"><rect class="e" width="145.622" height="67.85" transform="translate(0 -0.001)"/></g></g><g transform="translate(0 0)"><g class="f"><rect class="g" width="20.395" height="24.054" transform="translate(68.35 133.053)"/><rect class="g" width="20.395" height="24.049" transform="translate(68.35)"/><path class="g" d="M50.636,39.806l4.028,0V25.658h2.3l-4.315-5.122L48.34,25.658h2.3Z" transform="translate(75.532 32.088)"/><path class="g" d="M55.47,39.806l4.028,0V25.658h2.288l-4.31-5.122-4.3,5.122h2.3Z" transform="translate(83.08 32.088)"/><rect class="g" width="21.1" height="1.494" transform="translate(123.82 73.523)"/><path class="g" d="M73.436,18.962H49.95a3.444,3.444,0,0,0-3.436,3.449V45.978a3.439,3.439,0,0,0,3.436,3.439H73.436a3.448,3.448,0,0,0,3.441-3.439V22.411a3.454,3.454,0,0,0-3.441-3.449m1.878,27.016a1.885,1.885,0,0,1-1.878,1.876H49.95a1.885,1.885,0,0,1-1.878-1.876V22.411a1.887,1.887,0,0,1,1.878-1.883H73.436a1.887,1.887,0,0,1,1.878,1.883Z" transform="translate(72.678 29.629)"/><path class="g" d="M59.785,6.872V5.219a.657.657,0,0,0-1.315,0V6.872c-5.325.349-9.64,4.851-10.314,10.609,0,0-.028.136.074.136.077,0,.128-.062.161-.136a3.629,3.629,0,0,1,6.727,0c.069.174.179.279.323.279s.249-.105.323-.279a3.758,3.758,0,0,1,2.429-2.145V25.445a1.353,1.353,0,1,1-2.706,0,.94.94,0,1,0-1.881,0,3.229,3.229,0,1,0,6.458,0V15.336a3.777,3.777,0,0,1,2.427,2.145.379.379,0,0,0,.328.279c.136,0,.251-.105.328-.279a3.626,3.626,0,0,1,6.721,0c.031.074.077.136.151.136.11,0,.077-.136.077-.136C69.43,11.723,65.11,7.221,59.785,6.872" transform="translate(75.239 7.143)"/><path class="g" d="M73.433,3.332H49.956a3.448,3.448,0,0,0-3.447,3.441v23.57a3.452,3.452,0,0,0,3.447,3.444H73.433a3.444,3.444,0,0,0,3.441-3.444V6.773a3.441,3.441,0,0,0-3.441-3.441m1.881,27.011a1.878,1.878,0,0,1-1.881,1.878H49.956a1.883,1.883,0,0,1-1.881-1.878V6.773A1.885,1.885,0,0,1,49.956,4.9H73.433a1.88,1.88,0,0,1,1.881,1.878Z" transform="translate(72.67 5.207)"/><path class="g" d="M55.467,43.583l-2.393-7.26h-4.82A10.664,10.664,0,0,0,57.51,46.855v8.894H52.19v2.165H65.758V55.749H60.431V46.855a10.662,10.662,0,0,0,9.256-10.532H55.467Z" transform="translate(75.397 56.756)"/><path class="g" d="M73.436,34.594H49.95a3.438,3.438,0,0,0-3.436,3.444v23.57a3.439,3.439,0,0,0,3.436,3.439H73.436a3.448,3.448,0,0,0,3.441-3.439V38.038a3.448,3.448,0,0,0-3.441-3.444m1.878,27.014a1.882,1.882,0,0,1-1.878,1.873H49.95a1.878,1.878,0,0,1-1.878-1.873V38.038a1.88,1.88,0,0,1,1.878-1.881H73.436a1.883,1.883,0,0,1,1.878,1.881Z" transform="translate(72.678 54.054)"/><rect class="g" width="93.893" height="65.218" transform="translate(16.918 35.985)"/><rect class="h" width="93.9" height="65.223" transform="translate(15.493 34.56)"/><rect class="i" width="28.544" height="4.391" transform="translate(30.644 85.668)"/><rect class="i" width="18.97" height="4.392" transform="translate(30.645 78.118)"/><rect class="j" width="29.73" height="21.58" transform="translate(72.662 68.478)"/><path class="k" d="M30.757,27.74l-.907.008V42.029l.907,0Z" transform="translate(46.641 43.345)"/><rect class="k" width="0.912" height="11.643" transform="translate(78.812 71.094) rotate(-0.483)"/><rect class="k" width="1.678" height="11.647" transform="translate(80.465 71.094)"/><rect class="k" width="0.479" height="11.645" transform="translate(84.002 71.096) rotate(-0.307)"/><rect class="k" width="0.487" height="11.647" transform="translate(82.958 71.094)"/><path class="k" d="M34.921,27.747l-1.368,0V39.388l1.368.008Z" transform="translate(52.427 43.351)"/><rect class="k" width="0.443" height="11.645" transform="translate(88.348 71.098)"/><rect class="k" width="0.505" height="11.649" transform="translate(90.72 71.099)"/><path class="k" d="M37.414,27.753l-.489-.008V39.394l.489.005Z" transform="translate(57.694 43.353)"/><path class="k" d="M37.811,27.75l-1.845-.005V39.394l1.845.005Z" transform="translate(56.198 43.353)"/><rect class="k" width="0.907" height="11.647" transform="translate(95.472 71.103)"/><path class="k" d="M39.088,27.75l-.9-.005V42.028l.9.01Z" transform="translate(59.661 43.353)"/><rect class="i" width="36.823" height="4.852" transform="translate(30.645 63.237)"/><rect class="i" width="36.823" height="4.852" transform="translate(30.645 54.441)"/><rect class="i" width="36.823" height="4.853" transform="translate(30.645 45.637)"/></g></g></g></svg>