<svg xmlns="http://www.w3.org/2000/svg" width="77.883" height="101.882" viewBox="0 0 77.883 101.882"><defs><style>.a{fill:#fff;}</style></defs><g transform="translate(-319.748 -240.742)"><path class="a" d="M324.9,330.661l-.217,7.6,39.721.869-.215-9.334,4.992-1.52-.651-11.937,3.57-.785,1.206-32.208-4.342-1.3-1.166-4.3-5.78-.694-2.387-2.822-10.173-.559-4.3-4.3-10.415-.227-3.982-23.131-8.923.265-2.364,45.535-6.295-1.085-.849-3.245-9.787-.662,1.184,9.945,4.243,1.342.218,4.559,4.341.651-.652,6.511,1.954,2.171,1.736,6.513,3.256,2.387,1.737,6.946Z" transform="translate(21 -1)"/><g transform="translate(21 -1)"><path d="M317.085,292.23v14.717h4.755V246.271h8.151v46.864h4.754v-24h11.319v-4.528H334.746V245.139h-3.4v-3.4H321.84v4.075h-4.755v41.659h-4.753v4.754Z"/><path d="M347.424,269.138v.227H345.16V292.23h4.3V273.665h9.509v-4.527Z"/><path d="M362.82,273.665h-3.851v23.772h3.851v-19.7h4.98v-4.076Z"/><path d="M376.63,282.269h-3.849v-4.527H367.8v5.66h4.074v31.7h-5.208V327.55h-4.073v9.283h-36v-8.378h-4.076v-8.377h-4.755v-9.056h-4.527V300.835h-4.528V296.76h-4.98v-9.283h8.6v-4.755H298.748v14.941h4.979v6.112h4.528v7.7h4.528v9.281h4.755v9.961h3.621v12.906h46.867v-6.791h-.906v-7.472H372.1V315.55h4.528Z"/></g></g></svg>