<svg xmlns="http://www.w3.org/2000/svg" xmlns:xlink="http://www.w3.org/1999/xlink" width="356.866" height="513.114" viewBox="0 0 356.866 513.114"><defs><style>.a{fill:url(#a);}.b{fill:#d5fcf4;}.c{fill:#c9c9c9;}.d{fill:#cccaca;}.e{fill:none;stroke:#aaa;}.f{fill:#9d9d9d;}.g{fill:#c6c6c6;}.h{filter:url(#b);}</style><linearGradient id="a" x1="0.5" x2="0.5" y2="1" gradientUnits="objectBoundingBox"><stop offset="0" stop-color="#fff"/><stop offset="1" stop-color="#d9d9d9"/></linearGradient><filter id="b" x="0" y="269.972" width="356.866" height="243.141" filterUnits="userSpaceOnUse"><feOffset dx="5" dy="5" input="SourceAlpha"/><feGaussianBlur stdDeviation="5" result="c"/><feFlood flood-opacity="0.161"/><feComposite operator="in" in2="c"/><feComposite in="SourceGraphic"/></filter></defs><g transform="translate(10 150.001)"><g class="h" transform="matrix(1, 0, 0, 1, -10, -150)"><path class="a" d="M321.922,167.5c0,.1,0,.194.006.292a79.691,79.691,0,0,1-8.6-4.057c-1.876-.978-3.84-2.041-4.951-3.843a1.712,1.712,0,0,1-.3-1.469,2,2,0,0,1,1.226-.938c2.793-1.141,8.289-4.605,12.219-4.711-.163-6.827-.293-13.121-.368-18.655-33.13-2.053-66.259-.759-99.388-2.812-10.329-.639-20.663-1.28-31.014-1.335C126.845,129.637,62.206,151.5,0,136.82c0,0,1.256,14.145,1.526,35.64.111,8.892,19.511,1.935,19.749,10.481.06,2.112-18.876,17.476-18.82,19.651.786,30.783,1.2,67.663.1,99.8C6.2,302.682,10.183,304,12.75,304.5l7.711,1.526a1.841,1.841,0,0,1,1.38.741,1.65,1.65,0,0,1-.106,1.367c-1.026,2.452-3.176,4.22-5.273,5.853q-4.3,3.35-8.742,6.5A22.352,22.352,0,0,1,2.291,323.6a7.15,7.15,0,0,1-.755.222C1.118,330.406.61,336.628,0,342.363c0,0,77.054,3.629,160.581-5.084S289.12,335.1,289.12,335.1l37.746-31.944s-1.321-31.258-2.707-68.6c-.06-1.655-5.533-7.869-5.591-9.547-.126-3.383,5.159-2.256,5.039-5.7-.625-17.492-1.228-35.546-1.685-51.8m-290.4-.332a7.813,7.813,0,1,1,7.812-7.814,7.815,7.815,0,0,1-7.812,7.814m254.942-7.814a7.814,7.814,0,1,1,7.814-7.813,7.81,7.81,0,0,1-7.814,7.813" transform="translate(10 150)"/></g><path class="b" d="M321.678,158.521c-.008-.178-.013-.353-.017-.531,0,.177.009.354.017.531"/><path class="c" d="M296.058,289.352c-3.531,8.638-7.331,17.328-8.857,26.533a47.287,47.287,0,0,0,.48,19.03c.954.117,1.44.187,1.44.187l37.726-31.925c-11.575-1.829-23.4-5.594-30.789-13.825"/><path class="d" d="M134.615,306.212a63.542,63.542,0,0,1,43.187,4.452c-1.85,1.877-4.773,2.273-7.375,1.853s-5.036-1.52-7.572-2.244c-11.914-3.407-24.025,1.627-35.739,3.5-2.368.38-14.552,2.811-10.307-2.359,1.371-1.672,5.685-1.713,7.652-2.242,3.4-.916,6.735-2.085,10.154-2.956"/><path class="d" d="M205.374,315.668a5.231,5.231,0,0,0,2.133-.331,1.785,1.785,0,0,0,1.126-1.7c-.121-1.067-1.383-1.532-2.428-1.773-1.9-.43-10.366-2.9-10.481.616-.1,3.28,7.627,3.212,9.65,3.185"/><path class="e" d="M119.283-149.59,2.073,129.435" transform="translate(30.5 23.5)"/><line class="e" x2="124" y2="272" transform="translate(157.5 -126.5)"/><path class="f" d="M168.912,14.408A14.41,14.41,0,1,1,154.5,0a14.409,14.409,0,0,1,14.409,14.409" transform="translate(0 -150)"/><path class="g" d="M157.175,9.853a6.1,6.1,0,1,1-6.1-6.1,6.1,6.1,0,0,1,6.1,6.1" transform="translate(0 -150)"/><path d="M51.074-32.764q0,11.914-.562,16.87A18.9,18.9,0,0,1,47-6.836a18.935,18.935,0,0,1-7.983,6.3,29.062,29.062,0,0,1-11.719,2.2,29.778,29.778,0,0,1-11.4-2.075,18.748,18.748,0,0,1-8.13-6.226A18.711,18.711,0,0,1,4.1-15.674a166.919,166.919,0,0,1-.586-17.09V-46.289q0-11.914.562-16.87a18.9,18.9,0,0,1,3.516-9.058,18.935,18.935,0,0,1,7.983-6.3,29.062,29.062,0,0,1,11.719-2.2,29.778,29.778,0,0,1,11.4,2.075,18.748,18.748,0,0,1,8.13,6.226,18.711,18.711,0,0,1,3.662,9.033,166.919,166.919,0,0,1,.586,17.09ZM30.518-58.74q0-5.518-.61-7.056a2.43,2.43,0,0,0-2.515-1.538,2.807,2.807,0,0,0-2.466,1.245q-.854,1.245-.854,7.349v36.914q0,6.885.562,8.5a2.449,2.449,0,0,0,2.612,1.611,2.529,2.529,0,0,0,2.686-1.855q.586-1.855.586-8.838ZM58.74-79.053h20.7q8.4,0,12.915,1.318a14.434,14.434,0,0,1,6.787,3.809,13.077,13.077,0,0,1,3.076,6.03,53.994,53.994,0,0,1,.806,10.962v6.885q0,7.568-1.562,11.035a10.7,10.7,0,0,1-5.737,5.322,27.14,27.14,0,0,1-10.913,1.855H79.3V0H58.74ZM79.3-65.527V-45.41q.879.049,1.514.049,2.832,0,3.931-1.392t1.1-5.786v-6.494q0-4.053-1.27-5.273T79.3-65.527Zm29.639-13.525h34.277v15.82H129.492v14.99h12.842V-33.2H129.492V-15.82H144.58V0H108.936Zm87.451,0V0H178.369L167.676-35.937V0H150.488V-79.053h17.188l11.523,35.6v-35.6Z" transform="matrix(0.999, -0.035, 0.035, 0.999, 70.32, 280.073)"/></g></svg>