<svg xmlns="http://www.w3.org/2000/svg" xmlns:xlink="http://www.w3.org/1999/xlink" width="518.22" height="380.53" viewBox="0 0 518.22 380.53"><defs><style>.a{fill:none;}.b{clip-path:url(#a);}.c{fill:#ffb680;}.d{fill:#e59e6e;}.e{fill:#ffdec7;}.f{clip-path:url(#b);}.g{opacity:0.6;}.h{clip-path:url(#c);}.i{fill:#fff5ed;}.j{fill:#ce7b42;}.k{fill:#e28f51;}.l{fill:#1d1d1b;}.m{fill:#d8b59e;}.n{fill:#fff6ef;}.o{fill:#e23737;}.p{clip-path:url(#e);}.q{clip-path:url(#f);}.r{clip-path:url(#g);}.s{clip-path:url(#h);}.t{clip-path:url(#i);}.u{clip-path:url(#j);}.v{clip-path:url(#k);}.w{fill:url(#l);}.x{clip-path:url(#m);}.y{fill:url(#n);}.z{clip-path:url(#o);}.aa{fill:url(#p);}.ab{clip-path:url(#q);}.ac{fill:url(#r);}.ad{clip-path:url(#s);}.ae{fill:url(#t);}.af{clip-path:url(#u);}.ag{fill:url(#v);}.ah{clip-path:url(#w);}.ai{fill:url(#x);}.aj{clip-path:url(#y);}.ak{fill:url(#z);}.al{clip-path:url(#aa);}.am{fill:url(#ab);}.an{clip-path:url(#ac);}.ao{fill:url(#ad);}.ap{fill:#bf0000;}.aq{fill:#d1d3d4;}.ar{fill:#b00000;}</style><clipPath id="a"><rect class="a" width="518.22" height="380.53"/></clipPath><clipPath id="b"><rect class="a" width="518.219" height="380.529"/></clipPath><clipPath id="c"><rect class="a" width="231.11" height="185.294"/></clipPath><clipPath id="e"><rect class="a" width="98.211" height="77.177"/></clipPath><clipPath id="f"><rect class="a" width="95.789" height="77.005"/></clipPath><clipPath id="g"><rect class="a" width="95.045" height="76.162"/></clipPath><clipPath id="h"><rect class="a" width="88.082" height="71.982"/></clipPath><clipPath id="i"><rect class="a" width="101.556" height="79.376"/></clipPath><clipPath id="j"><rect class="a" width="87.336" height="71.169"/></clipPath><clipPath id="k"><path class="a" d="M48.784,1.863,0,40.564H51.819l39.027-38.7Z" transform="translate(0 -1.863)"/></clipPath><linearGradient id="l" y1="4.13" x2="0.059" y2="4.13" gradientUnits="objectBoundingBox"><stop offset="0" stop-color="#ff0b0b"/><stop offset="1" stop-color="#b40000"/></linearGradient><clipPath id="m"><path class="a" d="M48.725,1.863,9.7,40.564H61.527l29.26-38.7Z" transform="translate(-9.698 -1.863)"/></clipPath><linearGradient id="n" x1="-0.639" y1="4.13" x2="-0.573" y2="4.13" gradientUnits="objectBoundingBox"><stop offset="0" stop-color="#f1f2f2"/><stop offset="1" stop-color="#d4d6d7"/></linearGradient><clipPath id="o"><path class="a" d="M48.658,1.863,19.4,40.564H71.211l19.514-38.7Z" transform="translate(-19.398 -1.863)"/></clipPath><linearGradient id="p" x1="-1.453" y1="4.13" x2="-1.378" y2="4.13" xlink:href="#l"/><clipPath id="q"><path class="a" d="M48.608,1.863l-19.513,38.7H80.919l9.757-38.7Z" transform="translate(-29.095 -1.863)"/></clipPath><linearGradient id="r" x1="-2.525" y1="4.13" x2="-2.438" y2="4.13" xlink:href="#n"/><clipPath id="s"><path class="a" d="M48.551,1.863l-9.757,38.7H90.613V1.863Z" transform="translate(-38.794 -1.863)"/></clipPath><linearGradient id="t" x1="-4" y1="4.13" x2="-3.897" y2="4.13" xlink:href="#l"/><clipPath id="u"><path class="a" d="M48.492,1.863v38.7h51.829l-9.757-38.7Z" transform="translate(-48.492 -1.863)"/></clipPath><linearGradient id="v" x1="-4.999" y1="4.13" x2="-4.896" y2="4.13" xlink:href="#n"/><clipPath id="w"><path class="a" d="M56.366,1.863l9.757,38.7h51.824L98.423,1.863Z" transform="translate(-56.366 -1.863)"/></clipPath><linearGradient id="x" x1="-4.891" y1="4.13" x2="-4.804" y2="4.13" xlink:href="#l"/><clipPath id="y"><path class="a" d="M64.237,1.863l19.524,38.7h51.8L106.31,1.863Z" transform="translate(-64.237 -1.863)"/></clipPath><linearGradient id="z" x1="-4.812" y1="4.13" x2="-4.737" y2="4.13" xlink:href="#n"/><clipPath id="aa"><path class="a" d="M72.111,1.863l29.254,38.7h51.829l-39.016-38.7Z" transform="translate(-72.111 -1.863)"/></clipPath><linearGradient id="ab" x1="-4.752" y1="4.13" x2="-4.686" y2="4.13" xlink:href="#l"/><clipPath id="ac"><path class="a" d="M79.984,1.863,119,40.564h51.835l-48.784-38.7Z" transform="translate(-79.984 -1.863)"/></clipPath><linearGradient id="ad" x1="-4.704" y1="4.13" x2="-4.645" y2="4.13" xlink:href="#n"/></defs><g class="b"><rect class="c" width="425.385" height="315.83" transform="translate(49.783 53.779)"/><rect class="d" width="13.684" height="12.402" transform="translate(49.783 323.636)"/><rect class="d" width="13.684" height="12.391" transform="translate(49.783 354.082)"/><rect class="d" width="24.183" height="12.391" transform="translate(77.263 307.638)"/><rect class="d" width="24.178" height="12.396" transform="translate(68.019 323.641)"/><rect class="d" width="24.183" height="12.391" transform="translate(77.263 338.72)"/><rect class="d" width="21.838" height="12.391" transform="translate(453.33 147.427)"/><rect class="d" width="21.838" height="12.396" transform="translate(453.33 178.508)"/><rect class="d" width="24.167" height="12.391" transform="translate(444.097 193.875)"/><rect class="d" width="2.346" height="12.391" transform="translate(472.822 163.44)"/><rect class="d" width="19.497" height="12.402" transform="translate(455.671 301.429)"/><rect class="d" width="19.497" height="12.391" transform="translate(455.671 332.522)"/><rect class="d" width="24.173" height="12.396" transform="translate(446.432 347.883)"/><rect class="d" width="14.619" height="12.391" transform="translate(49.783 141.453)"/><rect class="d" width="5.375" height="12.391" transform="translate(49.783 157.461)"/><rect class="d" width="14.619" height="12.396" transform="translate(49.783 172.535)"/><rect class="d" width="5.375" height="12.396" transform="translate(49.783 187.896)"/><rect class="d" width="24.189" height="12.396" transform="translate(443.584 229.659)"/><rect class="d" width="2.848" height="12.396" transform="translate(472.32 229.659)"/><rect class="d" width="2.848" height="12.391" transform="translate(472.32 260.746)"/><rect class="d" width="12.092" height="12.402" transform="translate(463.076 276.102)"/><rect class="d" width="24.178" height="12.402" transform="translate(254.76 337.053)"/><rect class="d" width="24.178" height="12.391" transform="translate(245.521 353.061)"/><rect class="d" width="24.183" height="1.469" transform="translate(254.755 368.139)"/><rect class="d" width="24.173" height="12.402" transform="translate(283.501 337.053)"/><rect class="d" width="24.178" height="1.469" transform="translate(283.496 368.139)"/><rect class="e" width="220.141" height="190.251" transform="translate(76.301 104.798)"/><g transform="translate(0 0.002)"><g class="f"><g class="g" transform="translate(72.715 115.499)"><g class="h"><path class="i" d="M225.281,31.159c-5.333,0-10.943-1.779-16.024-4.419-.326.005-.641.005-.972.005-5.792,0-11.915-2.105-17.323-5.13L14.464,161.951a33.382,33.382,0,0,1,1.988,17.077,34.279,34.279,0,0,1-2.843,9.372l8.774,8.271,1.432-.048,208.268-165.6c-2.2.1-4.467.134-6.8.134" transform="translate(-13.608 -21.617)"/><path class="i" d="M217.813,25.33,18.975,183.431A50.086,50.086,0,0,1,30.9,190.783L221.414,39.308a34.464,34.464,0,0,1-3.6-13.978" transform="translate(9.697 -5.486)"/></g></g></g></g><rect class="j" width="11.873" height="176.636" transform="translate(73.176 123.575)"/><rect class="j" width="234.322" height="9.586" transform="translate(70.873 293.484)"/><rect class="k" width="234.322" height="9.586" transform="translate(70.365 290.609)"/><rect class="k" width="11.867" height="176.636" transform="translate(70.37 123.575)"/><rect class="j" width="11.867" height="176.636" transform="translate(293.322 123.575)"/><rect class="k" width="11.867" height="176.636" transform="translate(290.506 123.575)"/><rect class="l" width="1.277" height="62.575" transform="translate(139.1 111.916)"/><rect class="l" width="1.282" height="70.905" transform="translate(234.461 111.916)"/><path class="m" d="M156.175,105.2H25.4L22.2,32.379l139.533,8.314Z" transform="translate(96.415 140.631)"/><path class="n" d="M155.86,104.8H25.085L21.879,31.979,161.412,40.3Z" transform="translate(95.024 138.892)"/><g transform="translate(0 0.002)"><g class="f"><path class="l" d="M48.252,35.994a2.346,2.346,0,1,1-2.346-2.346,2.345,2.345,0,0,1,2.346,2.346" transform="translate(189.195 146.139)"/><path class="l" d="M30.409,35.008a2.348,2.348,0,1,1-2.346-2.351,2.349,2.349,0,0,1,2.346,2.351" transform="translate(111.673 141.835)"/><path class="o" d="M26.313,77.3h-.871l-.534-14.063.876.027q2.068,11.7,9.912,11.723a5.931,5.931,0,0,0,4.483-1.806A6.2,6.2,0,0,0,41.872,68.5a8.2,8.2,0,0,0-2.827-5.819q-6.476-4.785-10.7-8.325A12.1,12.1,0,0,1,23.9,45.2a10.062,10.062,0,0,1,2.479-7.507,7.9,7.9,0,0,1,6.748-2.559,12.956,12.956,0,0,1,5.594,1.982,5.627,5.627,0,0,0,1.95.876c.844.059,1.384-.657,1.614-2.159l.9.064.321,13.695-.887-.048q-.858-6.107-3.5-8.934a8.809,8.809,0,0,0-5.867-3.083,4.918,4.918,0,0,0-4.039,1.512,5.587,5.587,0,0,0-1.56,4.307A7.543,7.543,0,0,0,28.947,47c.812,1.3,3.2,3.35,7.139,6.107q3.615,2.509,5.477,4.061A13.217,13.217,0,0,1,44.7,61.15a11.462,11.462,0,0,1,1.325,5.183,10.813,10.813,0,0,1-2.72,7.822A9.078,9.078,0,0,1,36.267,77.3a15.4,15.4,0,0,1-5.723-1.432,9.577,9.577,0,0,0-2.9-.9c-.769-.005-1.213.775-1.336,2.33" transform="translate(103.768 152.46)"/><path class="o" d="M62.451,74.44l-12.557-.032V73.382c2.159-.118,3.243-.871,3.243-2.255a13.293,13.293,0,0,0-.94-3.863l-1.934-5.423L37.8,61.515l-2.116,6.027a10.723,10.723,0,0,0-.737,3.366c.016,1.4,1.261,2.212,3.719,2.437l.005,1.047-10.024-.016-.021-1.069A5.6,5.6,0,0,0,31.3,72.1c.582-.54,1.395-2.367,2.453-5.482L44.871,35.568l.844.064,11.3,31.717a16.579,16.579,0,0,0,2.2,4.574,4.353,4.353,0,0,0,3.243,1.512ZM49.595,59.762,44.027,44.229,38.513,59.42Z" transform="translate(124.338 154.478)"/><path class="o" d="M62.978,63.236l-3.1,9.361L35.236,72.56l.016-1,1.192.005a2.925,2.925,0,0,0,2.725-1.154,9.324,9.324,0,0,0,.769-4.275l.385-23.366c.037-2.41-.246-3.938-.86-4.584a3.75,3.75,0,0,0-2.559-1.1L35.669,37l.016-1,14.908,1.106-.027.972a10.241,10.241,0,0,0-3.291.182,2.889,2.889,0,0,0-1.753,1.149c-.347.55-.545,1.956-.593,4.237L44.458,66.2c-.043,1.8.171,2.933.62,3.4s1.859.7,4.21.716l2.335.011a20.384,20.384,0,0,0,4.462-.342,6.281,6.281,0,0,0,3.12-1.87,16.814,16.814,0,0,0,3-5.076Z" transform="translate(153.038 156.363)"/><path class="o" d="M68.6,62.718l-3.34,8.095L40.734,70.77l.037-.94,1.133.005a3.569,3.569,0,0,0,2.6-.9c.614-.6.972-1.988,1.074-4.136L46.622,42.7c.107-2.308-.118-3.735-.684-4.291a4.037,4.037,0,0,0-2.629-.962l-1.176-.086.043-.94,25.37,1.886-.134,7.133-.951-.053q-.409-3.342-1.534-4.456c-.764-.732-2.25-1.181-4.462-1.336l-9.009-.636-.695,13.294,7.123.3a6.8,6.8,0,0,0,3.772-.673q1.274-.769,1.646-3.868l.876.037-.764,11.392-.86-.027c-.064-2.217-.518-3.6-1.373-4.146a6.574,6.574,0,0,0-3.409-.914l-7.1-.273-.588,11.093a6.326,6.326,0,0,0,.315,3.078c.278.46.989.689,2.127.695l5.4.032a10.915,10.915,0,0,0,5.322-1.058q1.98-1.082,4.424-5.231Z" transform="translate(176.917 158.196)"/><rect class="e" width="102.371" height="218.848" transform="translate(328.561 125.037)"/><g class="g" transform="translate(328.666 115.661)"><g class="p"><path class="i" d="M159.516,21.646c-4.419,2.987-8.9,3.4-14.277,3.4a15.513,15.513,0,0,1-6.968-1.918L61.511,84.167a14.526,14.526,0,0,1,1,7.769,15.493,15.493,0,0,1-.716,2.832l4.312,4.056L159.72,24.4a13.953,13.953,0,0,1-.2-2.752" transform="translate(-61.509 -21.649)"/></g></g><g class="g" transform="translate(337.344 124.234)"><g class="q"><path class="i" d="M156.609,25.346a14.947,14.947,0,0,1-1.619-2.095L63.135,96.282l4.226,3.975,91.562-72.807a17.944,17.944,0,0,1-2.314-2.105" transform="translate(-63.134 -23.251)"/></g></g><g class="g" transform="translate(329.175 194.903)"><g class="r"><path class="i" d="M153.7,40.629a15.582,15.582,0,0,1-6.978-1.924c-.144.005-.283.005-.422.005a16.017,16.017,0,0,1-7.529-2.233L61.98,97.523a14.575,14.575,0,0,1,.86,7.438,14.849,14.849,0,0,1-1.234,4.077l3.81,3.6c.214-.011.422-.016.631-.021l90.605-72.043c-.951.043-1.945.053-2.955.053" transform="translate(-61.606 -36.477)"/></g></g><g class="g" transform="translate(341.643 203.54)"><g class="s"><path class="i" d="M150.451,38.093,63.939,106.871a22.3,22.3,0,0,1,5.2,3.206l82.879-65.9a14.834,14.834,0,0,1-1.571-6.081" transform="translate(-63.942 -38.095)"/></g></g><g class="g" transform="translate(328.515 268.957)"><g class="t"><path class="i" d="M160.77,52.074a36.184,36.184,0,0,1-8.02.689,16.172,16.172,0,0,1-7.876-2.426l-83.392,66.3a14.628,14.628,0,0,1,1.154,8.138,13.3,13.3,0,0,1-.593,2.458l2.634,2.479a30.179,30.179,0,0,1,3.965-.443l94.393-75.051Z" transform="translate(-61.484 -50.334)"/></g></g><g class="g" transform="translate(344.044 280.818)"><g class="u"><path class="i" d="M69.716,123.723l82.008-65.2a14.97,14.97,0,0,1-1.715-5.963l-85.62,68.078a21.268,21.268,0,0,1,5.327,3.088" transform="translate(-64.387 -52.552)"/></g></g><rect class="j" width="8.635" height="240.579" transform="translate(324.751 114.025)"/><rect class="k" width="8.635" height="240.579" transform="translate(322.56 114.025)"/><rect class="j" width="95.425" height="6.38" transform="translate(331.195 196.449)"/><rect class="k" width="95.425" height="6.385" transform="translate(331.195 194.194)"/><rect class="j" width="95.425" height="11.675" transform="translate(331.195 116.29)"/><rect class="k" width="95.425" height="11.67" transform="translate(331.195 114.025)"/><rect class="k" width="95.425" height="12.979" transform="translate(331.195 341.716)"/><rect class="j" width="95.425" height="6.38" transform="translate(332.034 270.271)"/><rect class="k" width="95.425" height="6.374" transform="translate(331.195 268.016)"/><rect class="j" width="8.635" height="240.579" transform="translate(428.8 114.025)"/><rect class="k" width="8.635" height="240.579" transform="translate(426.62 114.025)"/></g></g><g transform="translate(0 60.99)"><g class="v" transform="translate(0 0)"><rect class="w" width="90.846" height="38.701" transform="translate(0 0)"/></g></g><g transform="translate(51.819 60.99)"><g class="x" transform="translate(0 0)"><rect class="y" width="81.089" height="38.701" transform="translate(0 0)"/></g></g><g transform="translate(103.648 60.99)"><g class="z" transform="translate(0 0)"><rect class="aa" width="71.327" height="38.701" transform="translate(0 0)"/></g></g><g transform="translate(155.461 60.99)"><g class="ab" transform="translate(0 0)"><rect class="ac" width="61.581" height="38.701" transform="translate(0 0)"/></g></g><g transform="translate(207.285 60.99)"><g class="ad" transform="translate(0 0)"><rect class="ae" width="51.819" height="38.701" transform="translate(0 0)"/></g></g><g transform="translate(259.104 60.99)"><g class="af" transform="translate(0 0)"><rect class="ag" width="51.829" height="38.701" transform="translate(0 0)"/></g></g><g transform="translate(301.177 60.99)"><g class="ah" transform="translate(0 0)"><rect class="ai" width="61.581" height="38.701" transform="translate(0 0)"/></g></g><g transform="translate(343.233 60.99)"><g class="aj" transform="translate(0 0)"><rect class="ak" width="71.327" height="38.701" transform="translate(0 0)"/></g></g><g transform="translate(385.306 60.99)"><g class="al" transform="translate(0 0)"><rect class="am" width="81.084" height="38.701" transform="translate(0 0)"/></g></g><g transform="translate(427.373 60.99)"><g class="an" transform="translate(0 0)"><rect class="ao" width="90.851" height="38.701" transform="translate(0 0)"/></g></g><g transform="translate(0 0.002)"><g class="f"><path class="ap" d="M0,18.658V55.307c8.154,16.65,43.66,16.65,51.824,0V18.658Z" transform="translate(0 81.034)"/><path class="aq" d="M9.7,18.658V55.307c8.154,16.65,43.665,16.65,51.824,0V18.658Z" transform="translate(42.125 81.034)"/><path class="ap" d="M19.4,18.658V55.307c8.154,16.65,43.66,16.65,51.819,0V18.658Z" transform="translate(84.246 81.034)"/><path class="aq" d="M29.095,18.658V55.307c8.154,16.65,43.67,16.65,51.824,0V18.658Z" transform="translate(126.366 81.034)"/><path class="ap" d="M38.794,18.658V55.307c8.154,16.65,43.67,16.65,51.819,0V18.658Z" transform="translate(168.491 81.034)"/><path class="aq" d="M48.492,18.658V55.307c8.159,16.65,43.665,16.65,51.829,0V18.658Z" transform="translate(210.612 81.034)"/><path class="ap" d="M58.192,18.658V55.307c8.159,16.65,43.66,16.65,51.824,0V18.658Z" transform="translate(252.741 81.034)"/><path class="aq" d="M67.891,18.658V55.307c8.159,16.65,43.654,16.65,51.808,0V18.658Z" transform="translate(294.866 81.034)"/><path class="ap" d="M77.586,18.658V55.307c8.17,16.65,43.665,16.65,51.829,0V18.658Z" transform="translate(336.974 81.034)"/><path class="aq" d="M87.287,18.658V55.307c8.159,16.65,43.67,16.65,51.829,0V18.658Z" transform="translate(379.108 81.034)"/><rect class="ar" width="439.442" height="11.039" transform="translate(39.415 51)"/></g></g></g></svg>