<svg xmlns="http://www.w3.org/2000/svg" xmlns:xlink="http://www.w3.org/1999/xlink" width="165.052" height="89.699" viewBox="0 0 165.052 89.699"><defs><style>.a{fill:url(#a);}.b{fill:url(#b);}.c{fill:url(#c);}.d{fill:url(#d);}.e{fill:url(#e);}.f{fill:url(#f);}.g{fill:url(#g);}.h{fill:url(#h);}.i{fill:url(#i);}.j{fill:url(#j);}.k{fill:#1a1a1a;}.l{fill:url(#l);}.m{fill:url(#m);}.n{fill:url(#n);}.o{fill:url(#o);}.p{fill:url(#p);}.q{fill:url(#q);}.r{fill:url(#r);}.s{fill:url(#s);}.t{fill:url(#t);}.u{fill:url(#u);}.v{fill:url(#v);}.w{fill:url(#w);}.x{fill:url(#z);}.y{fill:url(#aa);}.z{fill:#000947;}.aa{fill:#ffb500;fill-rule:evenodd;}</style><linearGradient id="a" x1="-0.291" y1="0.339" x2="1.882" y2="0.783" gradientUnits="objectBoundingBox"><stop offset="0.004" stop-color="#a9e0fa"/><stop offset="1" stop-color="#4096b8"/></linearGradient><linearGradient id="b" x1="0.5" y1="-0.056" x2="0.5" y2="0.326" gradientUnits="objectBoundingBox"><stop offset="0.434" stop-color="#acb7be"/><stop offset="1" stop-color="#69767e"/></linearGradient><linearGradient id="c" x1="0.5" y1="0.644" x2="0.5" y2="-0.097" gradientUnits="objectBoundingBox"><stop offset="0.434" stop-color="#6e7b84"/><stop offset="1" stop-color="#2a3339"/></linearGradient><linearGradient id="d" x1="0.5" y1="0.288" x2="0.5" y2="-3.766" gradientUnits="objectBoundingBox"><stop offset="0.401" stop-color="#e1e7ea"/><stop offset="1" stop-color="#6e7b84"/></linearGradient><linearGradient id="e" x1="0.5" y1="1.301" x2="0.5" y2="-2.939" gradientUnits="objectBoundingBox"><stop offset="0.434" stop-color="#ffa800"/><stop offset="1" stop-color="#833800"/></linearGradient><linearGradient id="f" x1="0.5" y1="1.546" x2="0.5" y2="-0.233" gradientUnits="objectBoundingBox"><stop offset="0.434" stop-color="#e50019"/><stop offset="1" stop-color="#640000"/></linearGradient><linearGradient id="g" x1="0.5" y1="0.289" x2="0.5" y2="1.333" gradientUnits="objectBoundingBox"><stop offset="0.434" stop-color="#43494d"/><stop offset="1" stop-color="#161619"/></linearGradient><linearGradient id="h" x1="0.5" y1="1.449" x2="0.5" y2="0.302" xlink:href="#g"/><linearGradient id="i" x1="0.5" y1="1.913" x2="0.5" y2="0.5" xlink:href="#g"/><linearGradient id="j" x1="0.5" y1="0.381" x2="0.5" y2="0.869" xlink:href="#g"/><radialGradient id="l" cx="0.5" cy="0.5" r="0.5" gradientTransform="translate(0)" gradientUnits="objectBoundingBox"><stop offset="0.592" stop-color="#0d0d0d"/><stop offset="0.837" stop-color="#262626"/><stop offset="1" stop-color="#1a1a1a"/></radialGradient><linearGradient id="m" x1="0.5" y1="-0.181" x2="0.5" y2="1.042" gradientUnits="objectBoundingBox"><stop offset="0.434" stop-color="#c3cfd6"/><stop offset="1" stop-color="#8e9aa2"/></linearGradient><linearGradient id="n" x1="0.5" y1="0.917" x2="0.5" y2="-0.028" gradientUnits="objectBoundingBox"><stop offset="0" stop-color="#e1e7ea"/><stop offset="0.434" stop-color="#6e7b84"/><stop offset="1" stop-color="#2a3339"/></linearGradient><linearGradient id="o" x1="0.5" y1="-0.057" x2="0.5" y2="1.22" xlink:href="#g"/><linearGradient id="p" x1="0.5" y1="-0.426" x2="0.5" y2="0.711" gradientUnits="objectBoundingBox"><stop offset="0" stop-color="#c6cbcf"/><stop offset="1" stop-color="#43494d"/></linearGradient><linearGradient id="q" x1="0.5" y1="0.417" x2="0.5" y2="0.961" gradientUnits="objectBoundingBox"><stop offset="0" stop-color="#84009c"/><stop offset="0.434" stop-color="#60009c"/><stop offset="1" stop-color="#370047"/></linearGradient><linearGradient id="r" x1="0.5" y1="-0.318" x2="0.5" y2="0.851" gradientUnits="objectBoundingBox"><stop offset="0" stop-color="#e299d7"/><stop offset="1" stop-color="#72009c"/></linearGradient><radialGradient id="s" cx="0.5" cy="0.5" r="0.489" gradientTransform="translate(-0.023) scale(1.047 1)" gradientUnits="objectBoundingBox"><stop offset="0.592" stop-color="#0d0d0d"/><stop offset="0.837" stop-color="#0d0d0d"/><stop offset="1"/></radialGradient><linearGradient id="t" x1="0.182" y1="0.197" x2="0.7" y2="0.691" xlink:href="#a"/><linearGradient id="u" x1="0.5" y1="0.031" x2="0.5" y2="0.653" xlink:href="#g"/><radialGradient id="v" cx="0.5" cy="0.5" r="0.354" gradientTransform="translate(-11.121) scale(23.242 1)" xlink:href="#s"/><radialGradient id="w" cx="0.5" cy="0.5" r="0.5" xlink:href="#l"/><linearGradient id="z" x1="0.5" y1="0.438" x2="0.5" y2="1.355" gradientUnits="objectBoundingBox"><stop offset="0" stop-color="#96009c"/><stop offset="0.434" stop-color="#9c009c"/><stop offset="1" stop-color="#000947"/></linearGradient><linearGradient id="aa" x1="0.5" y1="-0.108" x2="0.5" y2="1.236" gradientUnits="objectBoundingBox"><stop offset="0" stop-color="#d199e2"/><stop offset="0.434" stop-color="#7e009c"/><stop offset="1" stop-color="#0e0047"/></linearGradient></defs><g transform="translate(-234.229 -227.234)"><path class="a" d="M236.352,297.738h0a1.068,1.068,0,0,1-1.071-1.068v-8.341a1.07,1.07,0,0,1,1.071-1.073h0a1.074,1.074,0,0,1,1.072,1.073v9.409Z"/><path class="b" d="M237.25,297.738h0a1.069,1.069,0,0,1-1.072-1.068v-9.275a1.09,1.09,0,0,1,1.072-1.073h0a1.074,1.074,0,0,1,1.072,1.073v10.343Z"/><path class="c" d="M388.7,301.129v-9.885h-4.176v9.2Z"/><rect class="d" width="2.716" height="1.806" transform="translate(385.985 297.091)"/><rect class="e" width="2.716" height="1.726" transform="translate(385.985 295.365)"/><rect class="f" width="2.716" height="4.121" transform="translate(385.985 291.244)"/><rect class="g" width="104.123" height="7.842" transform="translate(280.402 291.244)"/><rect class="h" width="101.094" height="9.861" transform="translate(283.432 287.531)"/><path class="i" d="M337.563,306.1v-8.292l6.266-4.8h12.248l6.268,4.8V306.1Z"/><path class="j" d="M363.939,296.434l-6.562-5.03h-14.85l-6.565,5.03V306.1h1.6v-8.292l6.266-4.8h12.248l6.268,4.8v8.273h1.6Z"/><path class="i" d="M254.637,302.4v-3.262l7.061-5.409h14.246l2.8,5.409V302.4Z"/><path class="k" d="M277.217,307.576l-.005-2.43h-.657a8.871,8.871,0,0,0-.18-1l.617-.227-.842-2.279-.612.221c-.155-.3-.327-.591-.513-.881l.5-.418-1.567-1.855-.5.422a8.823,8.823,0,0,0-.779-.653l.324-.564-2.111-1.209-.325.561c-.309-.124-.629-.241-.955-.338l.11-.647-2.4-.413-.112.642c-.167,0-.335-.011-.507-.008s-.34.008-.51.015l-.112-.644-2.394.431.116.643a8.456,8.456,0,0,0-.956.352l-.328-.567-2.1,1.227.33.564a8.687,8.687,0,0,0-.775.658l-.5-.423-1.553,1.873.5.416a8.9,8.9,0,0,0-.507.888l-.615-.23L256.472,304l.614.223a9.075,9.075,0,0,0-.17,1l-.655,0,.01,2.429.655,0a8.161,8.161,0,0,0,.177,1l-.617.228.846,2.276.61-.223a9.368,9.368,0,0,0,.511.879l-.5.424,1.57,1.856.5-.422c.243.224.51.449.78.654l-.329.565,2.112,1.209.324-.567a9.847,9.847,0,0,0,.956.342l-.11.645,2.4.415.108-.643c.17,0,.336,0,.509,0s.341,0,.51-.012l.115.644,2.4-.429-.118-.641a9.148,9.148,0,0,0,.954-.354l.33.563,2.1-1.222-.33-.564c.272-.21.528-.427.778-.659l.5.422,1.552-1.871-.5-.418a9.741,9.741,0,0,0,.5-.881l.62.22.824-2.284-.617-.225a9.8,9.8,0,0,0,.171-1Z"/><path class="l" d="M276.992,306.367A10.253,10.253,0,1,1,266.7,296.145,10.246,10.246,0,0,1,276.992,306.367Z"/><path d="M272.048,306.379a5.307,5.307,0,1,1-5.329-5.285A5.313,5.313,0,0,1,272.048,306.379Z"/><path class="m" d="M271.151,306.387a4.409,4.409,0,1,1-4.424-4.394A4.411,4.411,0,0,1,271.151,306.387Z"/><path class="n" d="M270.557,306.387a3.817,3.817,0,1,1-3.83-3.8A3.807,3.807,0,0,1,270.557,306.387Z"/><path d="M268.066,306.391a1.325,1.325,0,1,1-1.334-1.315A1.327,1.327,0,0,1,268.066,306.391Z"/><path d="M267.184,303.613a.446.446,0,1,1-.445-.445A.445.445,0,0,1,267.184,303.613Z"/><path d="M267.184,309.184a.446.446,0,1,1-.445-.444A.446.446,0,0,1,267.184,309.184Z"/><path d="M265.088,304.115a.445.445,0,1,1-.631.628.442.442,0,0,1-.005-.628A.457.457,0,0,1,265.088,304.115Z"/><path d="M263.953,305.955a.443.443,0,0,1,0,.886.455.455,0,0,1-.452-.443A.447.447,0,0,1,263.953,305.955Z"/><path d="M269.021,308.051a.445.445,0,0,1-.625.634.452.452,0,0,1,0-.634A.445.445,0,0,1,269.021,308.051Z"/><path d="M269.523,305.955a.443.443,0,1,1-.443.443A.444.444,0,0,1,269.523,305.955Z"/><path d="M264.452,308.051a.448.448,0,0,1,.629,0,.444.444,0,1,1-.629,0Z"/><path d="M268.391,304.115a.447.447,0,0,1,.63,0,.444.444,0,1,1-.627.628A.449.449,0,0,1,268.391,304.115Z"/><path class="o" d="M252.835,307.047H236.641a2.414,2.414,0,0,1-2.412-2.41v-4.491a2.412,2.412,0,0,1,2.412-2.408h16.194Z"/><path class="p" d="M252.411,298.018H236.76a2,2,0,0,0-2,2v2h17.656Z"/><path class="q" d="M280.4,254.346v43.238l-2.992-5.664H260.23l-7.4,5.664v.154H236.641l.064-16.16,3.944-29.793a2.328,2.328,0,0,1,2.361-1.365l33.572-1.584S280.4,248.939,280.4,254.346Z"/><path class="r" d="M278.881,252.084c0-2.05-3.451-2.149-3.451-2.149l-31.8,1.135c-1.943.1-1.932,1.537-1.932,1.537l-1.931,20.459,39.052.075Z"/><path class="s" d="M254.56,272.521l14.338-3.992c1.133-.388,1.843-.824,1.843-1.838v-11.62a1.843,1.843,0,0,0-1.843-1.839H245.766a1.839,1.839,0,0,0-1.846,1.839l-3.508,28.06a1.838,1.838,0,0,0,1.84,1.843h8.131a1.841,1.841,0,0,0,1.569-.876Z"/><path class="t" d="M245.34,254.49l-3.615,28.884a.181.181,0,0,0,.191.182h0l8.223,0c.07,0,.118-.037.209-.166h0l2.619-10.726.547-.8,15.894-4.4a.186.186,0,0,0,.184-.181h0v-12.8a.194.194,0,0,0-.184-.181H245.525a.186.186,0,0,0-.185.181Z"/><path class="u" d="M280.4,297.584l-2.992-5.664H260.23l-7.4,5.664v9.463c0-.005-18.516,0-18.516,0v2.336h20.318V299.139l7.06-5.41h14.246l2.8,5.41v5.046h1.66Z"/><rect class="v" width="0.867" height="20.155" transform="translate(252.718 254.309)"/><path class="k" d="M360.4,307.576l-.009-2.43h-.654a9.1,9.1,0,0,0-.181-1l.613-.227-.838-2.279-.612.221c-.156-.3-.328-.591-.512-.881l.5-.418-1.57-1.855-.5.422a8.985,8.985,0,0,0-.78-.653l.323-.564-2.112-1.209-.324.561c-.31-.124-.626-.241-.955-.338l.106-.647-2.393-.413-.113.642c-.164,0-.333-.011-.506-.008s-.34.008-.507.015l-.114-.644-2.393.431.113.643a9,9,0,0,0-.957.352l-.326-.567-2.1,1.227.334.564a8.7,8.7,0,0,0-.776.658l-.506-.423-1.552,1.873.5.416a9.987,9.987,0,0,0-.505.888l-.619-.23L339.656,304l.614.223a9.074,9.074,0,0,0-.169,1l-.654,0,.006,2.429.659,0a9,9,0,0,0,.175,1l-.617.228.846,2.276.609-.223a9.834,9.834,0,0,0,.512.879l-.5.424,1.566,1.856.5-.422c.244.224.508.449.775.654l-.322.565,2.109,1.209.325-.567a10.061,10.061,0,0,0,.957.342l-.111.645,2.4.415.109-.643c.168,0,.336,0,.51,0s.342,0,.51-.012l.114.644,2.393-.429-.116-.641a9.5,9.5,0,0,0,.954-.354l.328.563,2.1-1.222-.33-.564c.27-.21.527-.427.775-.659l.508.422,1.551-1.871-.5-.418c.179-.286.351-.58.5-.881l.619.22.822-2.284-.617-.225a9.262,9.262,0,0,0,.17-1Z"/><path class="w" d="M360.176,306.367a10.253,10.253,0,1,1-10.287-10.222A10.244,10.244,0,0,1,360.176,306.367Z"/><path d="M355.232,306.379a5.306,5.306,0,1,1-5.33-5.285A5.313,5.313,0,0,1,355.232,306.379Z"/><path class="m" d="M354.334,306.387a4.409,4.409,0,1,1-4.424-4.394A4.41,4.41,0,0,1,354.334,306.387Z"/><path class="n" d="M353.739,306.387a3.815,3.815,0,1,1-3.829-3.8A3.8,3.8,0,0,1,353.739,306.387Z"/><path d="M351.25,306.391a1.324,1.324,0,1,1-1.331-1.315A1.326,1.326,0,0,1,351.25,306.391Z"/><path d="M350.367,303.613a.445.445,0,1,1-.448-.445A.446.446,0,0,1,350.367,303.613Z"/><path d="M350.367,309.184a.445.445,0,1,1-.443-.444A.444.444,0,0,1,350.367,309.184Z"/><path d="M348.269,304.115a.45.45,0,0,1,0,.628.446.446,0,0,1-.634-.628A.455.455,0,0,1,348.269,304.115Z"/><path d="M352.207,308.051a.447.447,0,1,1-.629,0A.448.448,0,0,1,352.207,308.051Z"/><path d="M347.137,305.955a.443.443,0,0,1,0,.886.451.451,0,0,1-.45-.443A.445.445,0,0,1,347.137,305.955Z"/><path d="M352.709,305.955a.443.443,0,0,1,0,.886.443.443,0,1,1,0-.886Z"/><path d="M347.639,308.051a.446.446,0,1,1,0,.632A.445.445,0,0,1,347.639,308.051Z"/><path d="M351.571,304.115a.45.45,0,0,1,.632,0,.444.444,0,1,1-.632,0Z"/><rect class="x" width="115.85" height="64.01" transform="translate(283.432 227.234)"/><rect class="y" width="111.973" height="57.286" transform="translate(285.574 228.55)"/><rect class="z" width="111.973" height="0.775" transform="translate(285.574 228.55)"/><path class="aa" d="M4.159,26.946A9.909,9.909,0,0,1,.578,18.984V3.337A28.252,28.252,0,0,1,13.9.388,28.255,28.255,0,0,1,27.216,3.337V18.984a9.908,9.908,0,0,1-3.581,7.962C21.491,28.7,14.68,31.682,13.9,32.022c-.782-.34-7.594-3.322-9.738-5.076Zm14.9-13.382a3.072,3.072,0,0,1,3.109-3.013,3.974,3.974,0,0,1,2.543.751v2.011a3.107,3.107,0,0,0-2.076-.951c-.656-.006-1.34.283-1.363,1.1-.023.842.66,1.174,1.524,1.68,1.936,1.136,2.31,2.156,2.266,3.5A3.13,3.13,0,0,1,21.7,21.745a5.079,5.079,0,0,1-2.547-.718V18.9a3.694,3.694,0,0,0,2.215.941A1.231,1.231,0,0,0,22.76,18.55c-.017-.726-.428-1.12-1.447-1.718-1.911-1.119-2.254-2.039-2.258-3.269Zm-5.617,6.12a2.2,2.2,0,0,0,.752.139c1.334,0,1.97-1.221,1.97-3.749,0-2.59-.557-3.662-1.9-3.662a2.028,2.028,0,0,0-.821.166Zm0,6.759H11.121V11.373a5.607,5.607,0,0,1,3.123-.822c2.766,0,4.286,2.094,4.286,5.465s-1.476,5.69-4.048,5.69a3.675,3.675,0,0,1-1.043-.132ZM2.985,18.053V10.784H5.3v7.371c0,.656.159,1.627,1.221,1.627a1.944,1.944,0,0,0,1.1-.283V10.784H9.932V20.816a6.175,6.175,0,0,1-3.491.928c-2.293,0-3.455-1.242-3.455-3.692ZM25.992,3.667c-1.645-.152-3.354-.253-5.094-.253-6.455,0-13.375,1.385-19.1,6.621v8.95A8.705,8.705,0,0,0,4.935,26c1.812,1.474,7.389,3.992,8.962,4.685,1.553-.682,7.116-3.17,8.96-4.685a8.67,8.67,0,0,0,3.135-7.018V3.667Z" transform="translate(329.651 242.195)"/><path class="c" d="M388.7,301.129v-9.885h-4.176v9.2Z"/><rect class="d" width="2.716" height="1.806" transform="translate(385.985 297.091)"/><rect class="e" width="2.716" height="1.726" transform="translate(385.985 295.365)"/><rect class="f" width="2.716" height="4.121" transform="translate(385.985 291.244)"/></g></svg>