<svg xmlns="http://www.w3.org/2000/svg" width="9.705" height="17.599" viewBox="0 0 9.705 17.599"><defs><style>.a{fill:#505282;}.b{fill:#41466d;}</style></defs><g transform="translate(-157.988 -108)"><path class="a" d="M160.82,118.122c2.645,6.036,3.577,7.8,5.363,7.43,3.16-.65.623-5.706-.95-9.646-3.075-7.7-4.047-8.383-6.295-7.705C156.563,108.916,159.2,114.262,160.82,118.122Z"/><path class="b" d="M166.88,125.049c-1.786.368-2.718-1.4-5.363-7.43-1.414-3.361-3.59-7.845-2.564-9.423l-.015,0c-2.375.715.257,6.061,1.882,9.921,2.645,6.036,3.577,7.8,5.363,7.43a1.393,1.393,0,0,0,.9-.562A1.649,1.649,0,0,1,166.88,125.049Z"/><path class="b" d="M162.919,122.676c1.009,1.935,1.861,3.165,3.264,2.876,2.461-.506,1.374-3.818.4-6.326a3.513,3.513,0,0,0-.682-.024C164.3,119.309,163.385,121.117,162.919,122.676Z"/></g></svg>