<svg xmlns="http://www.w3.org/2000/svg" xmlns:xlink="http://www.w3.org/1999/xlink" version="1.1" x="0px" y="0px" viewBox="0 0 66 82.5" enable-background="new 0 0 66 66" xml:space="preserve"><g><g><path d="M43.6,41.2c-0.8,0-1.5,0.2-2,0.6c-0.6-1-1.7-1.7-3-1.7c-0.8,0-1.5,0.2-2,0.7c-0.6-1-1.7-1.7-3-1.7c-0.5,0-1,0.1-1.5,0.3    v-7.7c0-4.6-7-4.7-7,0.1v22.6l-2.9-2.9c-1.5-1.5-3.9-1.3-5.1,0.2c-1.2,1.4-1.1,3.5,0.3,4.9l7.2,7.2c0.7,0.8,1.7,1.2,2.8,1.2h16    c2.2,0,3.9-1.8,3.9-3.9V44.7C47.1,42.8,45.6,41.2,43.6,41.2z"/></g><g><path d="M58.5,25.1c-2.7,0-4.9,1.9-5.3,4.4H38.5c0.1-1,0.1-2,0-2.8l15.7-8.7c0.8,1,2,1.7,3.5,1.7c2.4,0,4.3-2,4.3-4.3    c0-2.4-2-4.3-4.3-4.3c-2.7,0-4.8,2.5-4.3,5.1L38,24.7c-0.2-0.6-0.5-1.2-0.8-1.7l5.3-11c2.5,0.7,5.4-1.3,5.4-4.2    c0-2.4-2-4.3-4.3-4.3c-2.4,0-4.3,1.9-4.3,4.3c0,1.3,0.6,2.5,1.5,3.3l-4.8,10.1c-1.6-1.7-3.8-2.9-6.3-3.1V9.6    c1.9-0.4,3.4-2.2,3.4-4.2c0-2.4-1.9-4.3-4.3-4.3c-2.4,0-4.3,1.9-4.3,4.3c0,2,1.4,3.8,3.3,4.2v8.6c-1.1,0.1-2.1,0.4-3.1,0.8    l-6.9-6.7c0.4-0.7,0.7-1.5,0.7-2.3c0-2.4-1.9-4.3-4.3-4.3c-2.4,0-4.3,1.9-4.3,4.3c0,2.4,1.9,4.3,4.3,4.3c0.8,0,1.6-0.2,2.2-0.6    l6.6,6.4c-1.7,1.2-3,3-3.7,5l-6.8-1.9v0c0-2.8-2.3-5-5-5c-2.8,0-5,2.3-5,5c0,2.8,2.3,5,5,5c2.1,0,3.9-1.3,4.6-3.1l6.8,1.9    c-0.1,1.3,0,2.6,0.3,3.7c0,0,0,0,0,0l-7.6,7.4c-0.9-0.6-1.9-0.9-3-0.9c-3,0-5.4,2.4-5.4,5.4c0,3,2.4,5.4,5.4,5.4    c3,0,5.4-2.4,5.4-5.4c0-1.1-0.3-2.2-1-3.1l7-6.8c0.8,1.5,1.9,2.8,3.3,3.7v-4.6c0-5,6-7.5,9.4-4c1,1,1.6,2.4,1.6,3.9v4.7    c1.8-1.2,3.2-2.9,3.9-4.9h15.2c0.5,2.5,2.7,4.4,5.3,4.4c3,0,5.4-2.4,5.4-5.4C63.9,27.6,61.5,25.1,58.5,25.1z"/></g></g><text x="0" y="81" fill="#000000" font-size="5px" font-weight="bold" font-family="'Helvetica Neue', Helvetica, Arial-Unicode, Arial, Sans-serif">Created by ProSymbols</text><text x="0" y="86" fill="#000000" font-size="5px" font-weight="bold" font-family="'Helvetica Neue', Helvetica, Arial-Unicode, Arial, Sans-serif">from the Noun Project</text></svg>