<svg xmlns="http://www.w3.org/2000/svg" xmlns:xlink="http://www.w3.org/1999/xlink" version="1.1" x="0px" y="0px" viewBox="0 0 53 66.25" enable-background="new 0 0 53 53" xml:space="preserve"><g><g><g><g><g><path d="M45.75188,35.93914c0,4.99105-7.26244,5.70829-8.2088,0.80693c-2.41088-0.46819-3.4071-1.57404-4.76193-2.35105       v-2.25146c1.83306,0.75713,2.61008,2.04223,4.85156,2.59013C39.02744,30.16112,45.75188,31.20713,45.75188,35.93914z"/><path d="M45.75188,24.65202c0,4.76193-6.74439,5.74818-8.12914,1.20544c-2.09203,0.51805-3.0185,1.79317-4.84159,2.57025       v-2.23157c1.34486-0.78699,2.35105-1.8828,4.75196-2.35105C38.47947,18.9537,45.75188,19.65107,45.75188,24.65202z"/><path d="M51.5,14.98873c0,2.44074-1.98246,4.42319-4.42319,4.42319c-2.09203,0-3.84537-1.46441-4.29368-3.42698       c-1.12572,0.13948-4.00474-0.61765-6.47539,1.83306l-1.92269,1.93266c-0.48814,0.48814-1.02607,0.90653-1.60389,1.24527       v-1.54412c0-0.28894-0.0498-0.55788-0.13948-0.8169c0.83685-0.7173,1.48435-1.56406,2.26143-2.23151       c3.1879-3.1381,6.81407-2.26143,7.88003-2.41088c0.44831-1.96251,2.20166-3.42692,4.29368-3.42692       C49.51754,10.5656,51.5,12.54805,51.5,14.98873z"/><path d="M51.5,45.60244c0,2.44074-1.98246,4.42319-4.42319,4.42319c-2.102,0-3.85534-1.46447-4.30359-3.42698       c-1.06596-0.14946-4.71214,0.71724-7.86015-2.41082c-0.78705-0.67748-1.43455-1.51426-2.2714-2.23157       c0.08969-0.24905,0.13948-0.52796,0.13948-0.80693v-1.55409c2.94881,1.80315,3.85534,5.01099,7.96972,5.01099h2.02234       c0.44825-1.96257,2.2016-3.42698,4.30359-3.42698C49.51754,41.17924,51.5,43.1617,51.5,45.60244z"/></g></g></g></g><g><rect x="14.22372" y="29.35565" width="10.74141" height="1.88006"/><circle cx="9.11719" cy="24.80969" r="0.94003"/><rect x="14.22372" y="34.8421" width="10.74141" height="1.88006"/><circle cx="9.11719" cy="30.29593" r="0.93979"/><path d="M30.28442,18.94373h-2.9127v-4.73202c0-6.25188-5.05118-11.23733-11.22735-11.23733    c-6.19642,0-11.22729,5.04084-11.22729,11.23733v4.73202H1.9944c-0.27307,0-0.4944,0.22133-0.4944,0.49434v21.71497    c0,0.27307,0.22133,0.4944,0.4944,0.4944h28.29999c0.27301,0,0.49434-0.22132,0.49434-0.4944v-21.705    C30.78872,19.17065,30.56174,18.94373,30.28442,18.94373z M9.53946,14.21171c0-3.64612,2.95879-6.61488,6.60491-6.61488    c3.61766,0,6.60491,2.91817,6.60491,6.61488v4.73202H9.53946V14.21171z M9.11717,37.7184c-1.06723,0-1.936-0.86877-1.936-1.93649    s0.86877-1.936,1.936-1.936c1.06821,0,1.93698,0.86828,1.93698,1.936S10.18538,37.7184,9.11717,37.7184z M9.11717,32.23192    c-1.06723,0-1.936-0.86828-1.936-1.936s0.86877-1.936,1.936-1.936c1.06821,0,1.93698,0.86828,1.93698,1.936    S10.18538,32.23192,9.11717,32.23192z M9.11717,26.74593c-1.06723,0-1.936-0.86828-1.936-1.936s0.86877-1.93649,1.936-1.93649    c1.06821,0,1.93698,0.86877,1.93698,1.93649S10.18538,26.74593,9.11717,26.74593z M25.96137,37.22029    c0,0.27532-0.22279,0.49811-0.49811,0.49811H13.72564c-0.27532,0-0.49811-0.22279-0.49811-0.49811v-2.87628    c0-0.27532,0.22279-0.4981,0.49811-0.4981h11.73762c0.27532,0,0.49811,0.22279,0.49811,0.4981V37.22029z M25.96137,31.73381    c0,0.27532-0.22279,0.49811-0.49811,0.49811H13.72564c-0.27532,0-0.49811-0.22279-0.49811-0.49811v-2.87628    c0-0.27532,0.22279-0.49811,0.49811-0.49811h11.73762c0.27532,0,0.49811,0.22279,0.49811,0.49811V31.73381z M25.96137,26.24782    c0,0.27532-0.22279,0.49811-0.49811,0.49811H13.72564c-0.27532,0-0.49811-0.22279-0.49811-0.49811v-2.87628    c0-0.27532,0.22279-0.49811,0.49811-0.49811h11.73762c0.27532,0,0.49811,0.22279,0.49811,0.49811V26.24782z"/><circle cx="9.11719" cy="35.78214" r="0.94003"/><rect x="14.22372" y="23.86966" width="10.74141" height="1.88006"/></g></g><text x="0" y="68" fill="#000000" font-size="5px" font-weight="bold" font-family="'Helvetica Neue', Helvetica, Arial-Unicode, Arial, Sans-serif">Created by Vectors Point</text><text x="0" y="73" fill="#000000" font-size="5px" font-weight="bold" font-family="'Helvetica Neue', Helvetica, Arial-Unicode, Arial, Sans-serif">from the Noun Project</text></svg>