<svg xmlns="http://www.w3.org/2000/svg" xmlns:xlink="http://www.w3.org/1999/xlink" version="1.1" x="0px" y="0px" viewBox="0 0 70 87.5" style="enable-background:new 0 0 70 70;" xml:space="preserve"><g><g><path d="M67.25,14.60174V10.2354c0-2.76001-2.23999-5-5-5H7.75c-2.75995,0-5,2.23999-5,5v4.36633H67.25z"/></g><g><path d="M2.75,20.99541v18.95996c0,2.76001,2.24005,5,5,5h30.51001c0.02002-0.64996,0.21002-1.28998,0.54999-1.87    c0.73004-1.26996,2.04004-2.04999,3.51001-2.07996c0.09003-0.01001,0.17004-0.08002,0.17004-0.18005    c0.06-2.27997,1.89996-4.06995,4.17999-4.06995c0.69,0,1.38,0.16998,1.98999,0.50995h0.01001    c0.02997,0,0.06,0.01001,0.08997,0.01001c0.06,0,0.10999-0.01996,0.15002-0.08002c0.76001-1.25,2.09998-2,3.56-2    c1.46997,0,2.79999,0.75,3.56,2c0.06,0.08002,0.14001,0.09003,0.15997,0.09003l0.01001,0.02002l0.08002-0.04004    c0.60999-0.33997,1.29999-0.50995,1.98999-0.50995c2.28003,0,4.12,1.78998,4.17999,4.06995    c0,0.10004,0.08002,0.17004,0.17999,0.18005c1.46002,0.02997,2.77002,0.81,3.51001,2.07996v0.01001    c0.71002-0.87,1.10999-1.96997,1.10999-3.14001V20.99541H2.75z M13.26001,38.95538c0,0.55005-0.44,1-1,1H8.75    c-0.54999,0-1-0.44995-1-1v-3.51001c0-0.54999,0.45001-1,1-1h3.51001c0.56,0,1,0.45001,1,1V38.95538z M22.35004,38.95538    c0,0.55005-0.45001,1-1,1h-3.51001c-0.54999,0-1-0.44995-1-1v-3.51001c0-0.54999,0.45001-1,1-1h3.51001c0.54999,0,1,0.45001,1,1    V38.95538z M31.42999,38.95538c0,0.55005-0.43994,1-1,1h-3.5c-0.56,0-1-0.44995-1-1v-3.51001c0-0.54999,0.44-1,1-1h3.5    c0.56006,0,1,0.45001,1,1V38.95538z M40.52002,38.95538c0,0.55005-0.45001,1-1,1h-3.51001c-0.54999,0-1-0.44995-1-1v-3.51001    c0-0.54999,0.45001-1,1-1h3.51001c0.54999,0,1,0.45001,1,1V38.95538z M44.85004,29.71539H7.75c-0.54999,0-1-0.45001-1-1    s0.45001-1,1-1h37.10004c0.54999,0,1,0.45001,1,1S45.40002,29.71539,44.85004,29.71539z"/><path d="M49.59003,47.0454c0,0.62-0.14001,1.08002-0.41998,1.41998c-0.09003,0.10999-0.27002,0.34003-0.95001,0.34003    c-0.66998,0-0.85999-0.23004-0.95001-0.34003c-0.27997-0.33997-0.40997-0.79999-0.40997-1.41998    c0-0.60999,0.13-1.08002,0.40997-1.41003c0.09003-0.10999,0.28003-0.33997,0.95001-0.33997    c0.67999,0,0.85999,0.22998,0.95001,0.33997C49.45001,45.96539,49.59003,46.43542,49.59003,47.0454z"/><path d="M58.08002,54.9154c0,0.60999-0.13,1.07001-0.40997,1.40997c-0.09003,0.11005-0.28003,0.34003-0.95001,0.34003    c-0.67999,0-0.85999-0.22998-0.95001-0.34003c-0.27997-0.32996-0.41998-0.79999-0.41998-1.40997    c0-0.62,0.14001-1.08002,0.40997-1.41998c0.10004-0.11005,0.28003-0.34003,0.96002-0.34003    c0.66998,0,0.85999,0.22998,0.95001,0.34003C57.95001,53.83538,58.08002,54.2954,58.08002,54.9154z"/><path d="M65.21503,49.12334l-0.00677-0.00415c-0.98773-0.6059-1.32855-1.87885-0.77582-2.89722l0.00128-0.00232    c0.77649-1.4306-0.23254-3.17664-1.8598-3.2182c-1.16003-0.0296-2.09338-0.96301-2.12299-2.12299v-0.00031    c-0.04156-1.62726-1.78754-2.63623-3.21814-1.8598l-0.00262,0.0014c-1.01837,0.55267-2.29126,0.21179-2.89716-0.77582    l-0.00421-0.00696c-0.85052-1.38629-2.86487-1.38629-3.71533,0.00006l-0.00409,0.00671    c-0.60596,0.98773-1.87885,1.32861-2.89728,0.77576l-0.00226-0.00116c-1.43066-0.77655-3.17664,0.23248-3.2182,1.85974    c-0.02966,1.16003-0.96301,2.09338-2.12305,2.12299l-0.00031,0.00006c-1.6272,0.0415-2.63617,1.78741-1.8598,3.21808    l0.0014,0.00262c0.55273,1.01843,0.21185,2.29126-0.77576,2.89716l-0.00696,0.00427c-1.38629,0.85046-1.38629,2.86481,0,3.71527    l0.00677,0.00415c0.98767,0.6059,1.32855,1.87878,0.77576,2.89722l-0.00122,0.00226    c-0.77649,1.43066,0.23254,3.1767,1.8598,3.21826c1.15997,0.02954,2.09332,0.96295,2.12299,2.12299v0.00024    c0.0415,1.62726,1.78748,2.63629,3.21814,1.85986l0.00262-0.00146c1.01843-0.55261,2.2912-0.21179,2.89716,0.77588    l0.00427,0.00696c0.85046,1.38629,2.86481,1.38623,3.71521-0.00006l0.00415-0.00671    c0.60596-0.98773,1.87878-1.32861,2.89722-0.77582l0.00226,0.00122c1.43066,0.77649,3.1767-0.23248,3.21826-1.85974    c0.0296-1.16003,0.96301-2.09344,2.12305-2.12299l0.00024-0.00006c1.6272-0.0415,2.63629-1.78748,1.85986-3.21814    l-0.00146-0.00262c-0.55267-1.01837-0.21185-2.2912,0.77582-2.89709l0.00696-0.00427    C66.60132,51.98815,66.60132,49.97381,65.21503,49.12334z M45.73462,49.74413c-0.58551-0.70575-0.87744-1.60388-0.87744-2.69434    c0-1.09052,0.29193-1.98859,0.87744-2.69434c0.58551-0.70569,1.41614-1.0589,2.49036-1.0589    c1.07263,0,1.90326,0.35321,2.48883,1.0589c0.58545,0.70575,0.87744,1.60382,0.87744,2.69434    c0,1.09045-0.29199,1.98859-0.87744,2.69434c-0.58557,0.70569-1.4162,1.05896-2.48883,1.05896    C47.15076,50.80309,46.32013,50.44982,45.73462,49.74413z M49.60114,58.59978c-0.26074,0.48688-0.86676,0.67023-1.35364,0.40948    c-0.48688-0.26068-0.67017-0.86676-0.40948-1.35364l7.63092-14.25018c0.26074-0.48688,0.86676-0.67017,1.35364-0.40948    c0.48688,0.26074,0.67017,0.86676,0.40948,1.35364L49.60114,58.59978z M59.20593,57.60632    c-0.58545,0.70575-1.4162,1.05902-2.48877,1.05902c-1.07422,0-1.90332-0.35327-2.49036-1.05902    c-0.58557-0.70563-0.8775-1.60376-0.8775-2.69427s0.29193-1.98779,0.8775-2.69427    c0.58704-0.70575,1.41614-1.05902,2.49036-1.05902c1.07257,0,1.90332,0.35327,2.48877,1.05902    c0.58551,0.70648,0.87909,1.60376,0.87909,2.69427S59.79144,56.90069,59.20593,57.60632z"/></g></g><text x="0" y="85" fill="#000000" font-size="5px" font-weight="bold" font-family="'Helvetica Neue', Helvetica, Arial-Unicode, Arial, Sans-serif">Created by Vectors Point</text><text x="0" y="90" fill="#000000" font-size="5px" font-weight="bold" font-family="'Helvetica Neue', Helvetica, Arial-Unicode, Arial, Sans-serif">from the Noun Project</text></svg>