<svg xmlns="http://www.w3.org/2000/svg" xmlns:xlink="http://www.w3.org/1999/xlink" version="1.1" x="0px" y="0px" viewBox="0 0 128 160" style="enable-background:new 0 0 128 128;" xml:space="preserve"><g><g><g><path d="M43.999,65.397v-4.676c0-3.118-2.516-5.654-5.609-5.654H9.609C6.516,55.066,4,57.603,4,60.721v4.676H43.999z"/><path d="M4,112.322v8.024C4,123.464,6.516,126,9.609,126H38.39c3.093,0,5.609-2.536,5.609-5.654v-8.024H4z M27.949,120.197     h-7.804c-0.845,0-1.53-0.69-1.53-1.542c0-0.852,0.685-1.542,1.53-1.542h7.804c0.845,0,1.53,0.69,1.53,1.542     C29.479,119.507,28.794,120.197,27.949,120.197z"/><rect x="4" y="68.481" width="39.999" height="40.757"/></g><g><rect x="84.001" y="68.481" width="39.999" height="40.757"/><path d="M124,65.397v-4.676c0-3.118-2.516-5.654-5.609-5.654H89.61c-3.093,0-5.609,2.536-5.609,5.654v4.676H124z"/><path d="M84.001,112.322v8.024c0,3.118,2.516,5.654,5.609,5.654h28.781c3.093,0,5.609-2.536,5.609-5.654v-8.024H84.001z      M107.951,120.197h-7.804c-0.845,0-1.53-0.69-1.53-1.542c0-0.852,0.685-1.542,1.53-1.542h7.804c0.845,0,1.53,0.69,1.53,1.542     C109.48,119.507,108.796,120.197,107.951,120.197z"/></g><g><path d="M21.815,48.708l-2.957-0.793c0.359-1.36,0.786-2.724,1.269-4.052l2.872,1.062C22.548,46.165,22.15,47.438,21.815,48.708z      M24.522,41.266l-2.765-1.321c0.599-1.273,1.265-2.536,1.979-3.754l2.633,1.57C25.703,38.898,25.082,40.077,24.522,41.266z      M28.526,34.437l-2.483-1.802c0.816-1.143,1.696-2.264,2.616-3.333l2.31,2.021C30.111,32.322,29.288,33.37,28.526,34.437z      M33.683,28.443l-2.123-2.221c1.005-0.977,2.07-1.922,3.165-2.807l1.915,2.404C35.618,26.647,34.622,27.53,33.683,28.443z      M39.821,23.473l-1.694-2.568c1.167-0.782,2.382-1.519,3.613-2.191l1.457,2.712C42.047,22.054,40.911,22.743,39.821,23.473z"/><path d="M106.83,51.137c-0.263-1.293-0.589-2.588-0.968-3.85l2.928-0.893c0.406,1.351,0.755,2.738,1.037,4.123L106.83,51.137z      M104.548,43.544c-0.491-1.218-1.045-2.432-1.647-3.608l2.719-1.415c0.644,1.258,1.237,2.558,1.763,3.862L104.548,43.544z      M100.937,36.496c-0.705-1.114-1.467-2.207-2.267-3.249l2.42-1.886c0.855,1.115,1.672,2.284,2.426,3.477L100.937,36.496z      M96.122,30.218c-0.888-0.965-1.832-1.903-2.807-2.787l2.048-2.292c1.042,0.946,2.052,1.949,3.003,2.981L96.122,30.218z      M90.272,24.909c-1.049-0.793-2.145-1.545-3.255-2.236l1.607-2.624c1.189,0.739,2.36,1.545,3.483,2.392L90.272,24.909z"/></g><path d="M64,2c-9.012,0-16.344,7.331-16.344,16.343S54.988,34.687,64,34.687s16.344-7.332,16.344-16.344S73.012,2,64,2z     M65.447,27.992v3.22h-2.941v-3.058c-1.652-0.117-3.311-0.647-4.358-1.397l-0.324-0.234l1.08-3.031l0.563,0.377    c1.14,0.764,2.604,1.202,4.016,1.202c1.785,0,3.032-0.993,3.032-2.414c0-1.309-0.884-2.203-3.052-3.084    c-2.734-1.078-5.266-2.514-5.266-5.692c0-2.598,1.769-4.658,4.518-5.278V5.475h2.91v2.944c1.375,0.109,2.563,0.468,3.63,1.095    l0.385,0.227l-1.125,2.984l-0.537-0.309c-0.499-0.286-1.66-0.952-3.508-0.952c-1.952,0-2.644,1.106-2.644,2.054    c0,1.186,0.76,1.845,3.385,2.936c3.479,1.426,4.964,3.218,4.964,5.992C70.176,25.131,68.281,27.346,65.447,27.992z"/></g></g><text x="0" y="143" fill="#000000" font-size="5px" font-weight="bold" font-family="'Helvetica Neue', Helvetica, Arial-Unicode, Arial, Sans-serif">Created by SBTS</text><text x="0" y="148" fill="#000000" font-size="5px" font-weight="bold" font-family="'Helvetica Neue', Helvetica, Arial-Unicode, Arial, Sans-serif">from the Noun Project</text></svg>