<svg xmlns="http://www.w3.org/2000/svg" xmlns:xlink="http://www.w3.org/1999/xlink" version="1.1" x="0px" y="0px" viewBox="0 0 841.889 744.1012499999999" enable-background="new 0 0 841.889 595.281" xml:space="preserve"><g><path fill="#000000" d="M518.417,131.763l-12.004,40.863c-2.576,8.249-3.83,15.775-3.83,23.095c0,0.114,0,0.248,0.02,0.398   c0.266,40.446,31.838,73.781,72.035,77.819v108.14c-0.131,0.037-0.283,0.019-0.416,0.075l-50.93,20.062   c-3.662,1.44-5.795,5.281-5.055,9.158c0.74,3.878,4.113,6.685,8.059,6.685h113.098c3.943,0,7.318-2.816,8.059-6.685   c0.75-3.849-1.375-7.718-5.053-9.158l-50.932-20.062c-0.143-0.057-0.275-0.038-0.418-0.095v-108.11   c40.303-4.048,71.924-37.525,72.055-78.132c0-0.039,0-0.076,0-0.114c0-0.038,0-0.075,0-0.095c0-7.243-1.26-14.771-3.82-22.849   l-12.002-40.996c-1.043-3.488-4.248-5.896-7.889-5.896H526.306C522.665,125.867,519.441,128.274,518.417,131.763z M633.269,142.288   l9.861,33.6H522.552l9.887-33.6H633.269z"/><path fill="#000000" d="M230.587,408.946c19.92,0,36.132-16.193,36.132-36.121c0-4.609-0.949-8.951-2.513-12.989   c17.369-2.636,30.765-17.54,30.765-35.611c0-4.835-0.986-9.461-2.73-13.652c17.482-2.531,30.983-17.454,30.983-35.601   c0-19.928-16.203-36.16-36.141-36.16c-11.492,0-21.626,5.508-28.253,13.917c-4.874-6.2-11.7-10.77-19.55-12.77   c0.455-11.056,0.208-37.867-0.872-46.722c-3.185-25.958-12.998-45.47-29.135-57.909c-3.48-2.673-8.485-2.048-11.178,1.422   c-2.683,3.488-2.028,8.495,1.441,11.187c12.648,9.766,20.422,25.655,23.067,47.253c0.957,7.793,1.194,34.928,0.758,44.522   c-8.466,1.764-15.843,6.466-21.038,13.036c-6.618-8.399-16.762-13.899-28.253-13.899c-19.919,0-36.132,16.213-36.132,36.141   c0,18.157,13.51,33.079,30.975,35.601c-1.736,4.21-2.731,8.817-2.731,13.651c0,18.071,13.406,32.976,30.785,35.611   c-1.575,4.039-2.513,8.381-2.513,12.989C194.455,392.753,210.668,408.946,230.587,408.946z M230.587,393.018   c-11.14,0-20.204-9.082-20.204-20.192c0-11.132,9.064-20.214,20.204-20.214c11.14,0,20.204,9.082,20.204,20.214   C250.791,383.954,241.727,393.018,230.587,393.018z M287.103,254.759c11.13,0,20.194,9.073,20.194,20.213   c0,11.121-9.064,20.203-20.194,20.203c-11.14,0-20.194-9.082-20.194-20.203C266.908,263.823,275.963,254.759,287.103,254.759z    M258.85,304.041c11.131,0,20.194,9.054,20.194,20.184c0,11.131-9.063,20.214-20.194,20.214c-11.13,0-20.194-9.083-20.194-20.214   C238.656,313.095,247.709,304.041,258.85,304.041z M230.587,254.759c11.14,0,20.204,9.073,20.204,20.213   c0,11.121-9.064,20.203-20.204,20.203c-11.14,0-20.204-9.082-20.204-20.203C210.393,263.823,219.448,254.759,230.587,254.759z    M174.081,295.167c-11.14,0-20.204-9.083-20.204-20.205c0-11.14,9.063-20.213,20.204-20.213c11.141,0,20.194,9.073,20.194,20.213   C194.275,286.093,185.222,295.167,174.081,295.167z M182.131,324.225c0-11.13,9.063-20.184,20.204-20.184   c11.14,0,20.204,9.054,20.204,20.184c0,11.131-9.064,20.214-20.204,20.214C191.194,344.438,182.131,335.375,182.131,324.225z"/><path fill="#000000" d="M268.681,216.456c14.781,10.675,49.897,15.824,53.842,16.392l12.269,1.717l-3.508-11.87   c-0.114-0.352-2.011-6.713-5.025-15.066c21.285-3.28,40.371-7.527,41.28-7.737l15.89-3.583l-12.571-10.335   c-0.702-0.588-15.284-12.571-32.33-24.708c6.684-5.916,11.396-10.523,11.662-10.788l9.12-8.95l-12.06-4.248   c-1.081-0.38-27.077-9.443-50.997-9.443c-3.641,0-7.12,0.209-10.306,0.625c-15.292,2.01-35.8,6.485-37.374,22.053   c-0.815,8.304,6.466,12.932,13.88,16.421c-0.948-0.02-1.887-0.038-2.806-0.038c-3.963,0-14.496,0-17.776,8.551   C235.461,192.195,268.341,216.21,268.681,216.456z M266.151,183.055c2.455,0.113,4.911,0.228,7.167,0.228   c3.745,0,15.16,0,17.464-9.652c2.512-10.561-9.074-15.625-17.521-19.303c-2.209-0.968-5.46-2.39-7.585-3.603   c2.114-1.708,7.746-4.57,22.347-6.467c13.387-1.763,29.704,1.384,40.881,4.229c-2.55,2.276-5.451,4.778-8.475,7.282l-8.182,6.789   l8.798,5.954c9.557,6.465,19.095,13.576,26.424,19.228c-9.311,1.801-21.408,3.943-33.25,5.518l-10.163,1.328l3.821,9.537   c1.507,3.735,2.863,7.405,4.029,10.685c-11.889-2.417-27.086-6.362-33.903-11.273c-7.689-5.557-16.876-15.245-19.985-20.688   C260.063,182.771,263.267,182.902,266.151,183.055z"/><path fill="#000000" d="M678.189,532.064c-11.234,0-20.695,7.245-24.215,17.294h-54.078c-3.516-10.049-12.979-17.294-24.215-17.294   c-11.234,0-20.705,7.245-24.213,17.294h-38.861l-73.014-32.15c0.152-1.11,0.342-2.209,0.342-3.364c0-0.826-0.115-1.622-0.189-2.428   l72.861-32.064h143.35c4.447,7.716,12.686,12.971,22.232,12.971c14.221,0,25.76-11.528,25.76-25.75   c0-14.223-11.539-25.751-25.76-25.751c-11.906,0-21.834,8.116-24.773,19.113H508.529l-77.809,34.244   c-2.01-1.687-4.275-3.09-6.74-4.095l0.018-191.296c9.367-3.869,15.957-13.045,15.957-23.778c0-10.733-6.59-19.919-15.939-23.788   l0.02-190.168c6.23-2.683,11.121-7.727,13.672-14.021h122.352c2.465,6.077,7.156,10.969,13.111,13.719l0.02,34.823   c0,5.385,4.354,9.709,9.707,9.709c0,0,0,0,0.021,0c5.346,0,9.688-4.333,9.688-9.709l-0.018-33.999   c9.926-3.564,17.084-12.979,17.084-24.138c0-14.25-11.539-25.741-25.74-25.741c-10.742,0-19.959,6.589-23.799,15.947H437.659   c-3.85-9.357-13.045-15.947-23.798-15.947c-14.24,0-25.768,11.51-25.768,25.741c0,10.969,6.873,20.261,16.544,23.987   l-0.029,189.721c-9.48,3.802-16.174,13.037-16.174,23.864c0,10.817,6.694,20.071,16.174,23.873l-0.019,191.125   c-6.522,2.635-11.699,7.85-14.296,14.372l-136.563-0.036c-2.55-6.391-7.546-11.548-13.899-14.204l-0.019-45.451   c0-5.365-4.352-9.708-9.708-9.708h-0.019c-5.347,0-9.708,4.361-9.69,9.736l0.02,45.215c-9.557,3.793-16.345,13.026-16.345,23.912   c0,14.259,11.538,25.769,25.759,25.769c10.722,0,19.891-6.544,23.778-15.854l136.81,0.02c3.878,9.311,13.055,15.834,23.778,15.834   c5.935,0,11.331-2.087,15.682-5.461l78.652,34.624h43.926c4.123,8.722,12.941,14.809,23.227,14.809   c10.289,0,19.105-6.087,23.23-14.809h56.051c4.123,8.722,12.941,14.809,23.227,14.809c14.221,0,25.76-11.548,25.76-25.769   C703.948,543.594,692.409,532.064,678.189,532.064z"/></g><text x="0" y="610.281" fill="#000000" font-size="5px" font-weight="bold" font-family="'Helvetica Neue', Helvetica, Arial-Unicode, Arial, Sans-serif">Created by Martin Markstein</text><text x="0" y="615.281" fill="#000000" font-size="5px" font-weight="bold" font-family="'Helvetica Neue', Helvetica, Arial-Unicode, Arial, Sans-serif">from the Noun Project</text></svg>