<?xml version="1.0" encoding="UTF-8"?>
<svg width="866px" height="165px" viewBox="0 0 866 165" version="1.1" xmlns="http://www.w3.org/2000/svg" xmlns:xlink="http://www.w3.org/1999/xlink">
    <title>Page 1</title>
    <defs>
        <linearGradient x1="50%" y1="0%" x2="50%" y2="100%" id="linearGradient-1">
            <stop stop-color="#EEEEEE" offset="0%"></stop>
            <stop stop-color="#D8D8D8" offset="100%"></stop>
        </linearGradient>
    </defs>
    <g id="Page-1" stroke="none" stroke-width="1" fill="none" fill-rule="evenodd">
        <g id="Desktop-HD" transform="translate(-269.000000, -1002.000000)">
            <rect id="Rectangle" fill="url(#linearGradient-1)" x="269" y="1009" width="162" height="151" rx="8"></rect>
            <polygon id="Rectangle" fill="#D8D8D8" points="454 1042.82759 557.971561 1067.76534 549.072117 1036 618 1084.83431 549.072117 1135 557.971561 1102.56897 454 1128.17241 479.894737 1085.5"></polygon>
            <polygon id="Rectangle-Copy-2" fill="#D8D8D8" points="830 1042.82759 933.971561 1067.76534 925.072117 1036 994 1084.83431 925.072117 1135 933.971561 1102.56897 830 1128.17241 855.894737 1085.5"></polygon>
            <path d="M724,1002 C769.287349,1002 806,1038.93651 806,1084.5 C806,1130.06349 769.287349,1167 724,1167 C678.712651,1167 642,1130.06349 642,1084.5 C642,1038.93651 678.712651,1002 724,1002 Z M724,1028 C693.072054,1028 668,1053.29591 668,1084.5 C668,1115.70409 693.072054,1141 724,1141 C754.927946,1141 780,1115.70409 780,1084.5 C780,1053.29591 754.927946,1028 724,1028 Z" id="Combined-Shape" fill="#D8D8D8"></path>
            <ellipse id="Combined-Shape" fill="#EF0A7E" cx="724" cy="1084.5" rx="39" ry="39.5"></ellipse>
            <path d="M699.948875,1081.231 C702.972875,1081.231 704.820875,1079.887 704.820875,1077.682 C704.820875,1076.758 704.379875,1075.897 703.644875,1075.351 C703.014875,1074.889 702.237875,1074.616 700.305875,1074.196 C699.045875,1073.923 698.541875,1073.755 698.058875,1073.503 C697.617875,1073.272 697.365875,1072.852 697.365875,1072.39 C697.365875,1071.34 698.394875,1070.626 699.864875,1070.626 C700.788875,1070.626 701.502875,1070.899 701.964875,1071.403 C702.237875,1071.697 702.342875,1071.949 702.468875,1072.474 L704.442875,1072.18 C704.148875,1071.214 703.875875,1070.71 703.308875,1070.227 C702.531875,1069.534 701.334875,1069.156 699.843875,1069.156 C698.352875,1069.156 697.176875,1069.534 696.378875,1070.311 C695.790875,1070.857 695.454875,1071.613 695.454875,1072.411 C695.454875,1073.419 695.916875,1074.259 696.777875,1074.805 C697.512875,1075.267 698.226875,1075.498 699.864875,1075.834 C701.460875,1076.191 701.796875,1076.275 702.258875,1076.569 C702.678875,1076.821 702.888875,1077.262 702.888875,1077.808 C702.888875,1078.963 701.775875,1079.698 700.053875,1079.698 C699.024875,1079.698 698.247875,1079.446 697.722875,1078.984 C697.323875,1078.606 697.155875,1078.27 697.008875,1077.493 L694.950875,1077.808 C695.160875,1078.69 695.328875,1079.068 695.664875,1079.53 C696.483875,1080.643 697.974875,1081.231 699.948875,1081.231 Z M711.392125,1081 C711.476125,1080.58 711.665125,1079.929 711.875125,1079.299 L713.786125,1073.545 C713.849125,1073.356 714.038125,1072.726 714.185125,1072.159 C714.437125,1073.041 714.521125,1073.335 714.563125,1073.503 L716.495125,1079.299 C716.705125,1079.95 716.873125,1080.559 716.957125,1081 L718.679125,1081 C718.763125,1080.538 718.868125,1080.202 719.141125,1079.299 L721.430125,1071.97 C721.892125,1070.458 722.060125,1069.996 722.270125,1069.45 L720.023125,1069.45 C719.981125,1070.08 719.834125,1070.878 719.561125,1071.802 L718.448125,1075.603 C718.154125,1076.674 718.028125,1077.241 717.734125,1078.669 C717.482125,1077.43 717.314125,1076.737 717.104125,1076.128 L715.466125,1071.151 C715.256125,1070.542 715.067125,1069.828 715.025125,1069.45 L713.366125,1069.45 C713.303125,1069.849 713.135125,1070.542 712.925125,1071.151 L711.329125,1075.897 C711.140125,1076.485 710.846125,1077.577 710.594125,1078.648 C710.405125,1077.619 710.174125,1076.59 709.964125,1075.813 L708.788125,1071.802 C708.515125,1070.899 708.368125,1070.101 708.305125,1069.45 L706.058125,1069.45 C706.310125,1070.143 706.646125,1071.13 706.919125,1071.97 L709.187125,1079.278 C709.481125,1080.265 709.544125,1080.496 709.649125,1081 L711.392125,1081 Z M729.135375,1081.315 C730.752375,1081.315 732.096375,1080.79 733.104375,1079.782 C733.608375,1079.299 733.881375,1078.879 734.280375,1077.997 L732.516375,1077.346 C732.306375,1077.955 732.159375,1078.228 731.844375,1078.564 C731.193375,1079.32 730.269375,1079.719 729.156375,1079.719 C727.938375,1079.719 726.951375,1079.257 726.300375,1078.375 C725.754375,1077.64 725.544375,1076.947 725.460375,1075.582 L734.385375,1075.582 C734.322375,1074.532 734.280375,1074.091 734.238375,1073.881 C733.818375,1070.941 731.823375,1069.156 728.988375,1069.156 C725.712375,1069.156 723.570375,1071.55 723.570375,1075.225 C723.570375,1078.963 725.733375,1081.315 729.135375,1081.315 Z M732.411375,1074.049 L725.523375,1074.049 C725.649375,1073.293 725.754375,1072.957 726.048375,1072.453 C726.678375,1071.34 727.707375,1070.731 728.946375,1070.731 C729.933375,1070.731 730.731375,1071.025 731.361375,1071.634 C731.970375,1072.243 732.285375,1072.957 732.411375,1074.049 Z M740.935625,1081.315 C742.552625,1081.315 743.896625,1080.79 744.904625,1079.782 C745.408625,1079.299 745.681625,1078.879 746.080625,1077.997 L744.316625,1077.346 C744.106625,1077.955 743.959625,1078.228 743.644625,1078.564 C742.993625,1079.32 742.069625,1079.719 740.956625,1079.719 C739.738625,1079.719 738.751625,1079.257 738.100625,1078.375 C737.554625,1077.64 737.344625,1076.947 737.260625,1075.582 L746.185625,1075.582 C746.122625,1074.532 746.080625,1074.091 746.038625,1073.881 C745.618625,1070.941 743.623625,1069.156 740.788625,1069.156 C737.512625,1069.156 735.370625,1071.55 735.370625,1075.225 C735.370625,1078.963 737.533625,1081.315 740.935625,1081.315 Z M744.211625,1074.049 L737.323625,1074.049 C737.449625,1073.293 737.554625,1072.957 737.848625,1072.453 C738.478625,1071.34 739.507625,1070.731 740.746625,1070.731 C741.733625,1070.731 742.531625,1071.025 743.161625,1071.634 C743.770625,1072.243 744.085625,1072.957 744.211625,1074.049 Z M752.063875,1081.21 C752.945875,1081.21 753.617875,1081.084 754.499875,1080.727 L754.037875,1079.026 C753.386875,1079.404 752.966875,1079.53 752.399875,1079.53 C751.958875,1079.53 751.601875,1079.404 751.391875,1079.215 C751.181875,1079.005 751.097875,1078.711 751.097875,1078.102 L751.097875,1071.046 L752.084875,1071.046 C753.050875,1071.046 753.533875,1071.067 754.205875,1071.172 L754.205875,1069.324 C753.582175,1069.4185 753.145585,1069.44496 752.344981,1069.44931 L751.097875,1069.45 L751.097875,1068.694 C751.097875,1067.791 751.160875,1066.972 751.244875,1066.3 L749.039875,1066.3 C749.123875,1067.014 749.186875,1067.854 749.186875,1068.694 L749.186875,1069.45 L748.367875,1069.45 C747.485875,1069.45 747.065875,1069.429 746.477875,1069.324 L746.477875,1071.172 C747.149875,1071.088 747.611875,1071.046 748.346875,1071.046 L749.186875,1071.046 L749.186875,1078.417 C749.186875,1079.488 749.375875,1080.118 749.837875,1080.559 C750.299875,1080.979 751.055875,1081.21 752.063875,1081.21 Z M707.8125,1105.231 C710.8365,1105.231 712.6845,1103.887 712.6845,1101.682 C712.6845,1100.758 712.2435,1099.897 711.5085,1099.351 C710.8785,1098.889 710.1015,1098.616 708.1695,1098.196 C706.9095,1097.923 706.4055,1097.755 705.9225,1097.503 C705.4815,1097.272 705.2295,1096.852 705.2295,1096.39 C705.2295,1095.34 706.2585,1094.626 707.7285,1094.626 C708.6525,1094.626 709.3665,1094.899 709.8285,1095.403 C710.1015,1095.697 710.2065,1095.949 710.3325,1096.474 L712.3065,1096.18 C712.0125,1095.214 711.7395,1094.71 711.1725,1094.227 C710.3955,1093.534 709.1985,1093.156 707.7075,1093.156 C706.2165,1093.156 705.0405,1093.534 704.2425,1094.311 C703.6545,1094.857 703.3185,1095.613 703.3185,1096.411 C703.3185,1097.419 703.7805,1098.259 704.6415,1098.805 C705.3765,1099.267 706.0905,1099.498 707.7285,1099.834 C709.3245,1100.191 709.6605,1100.275 710.1225,1100.569 C710.5425,1100.821 710.7525,1101.262 710.7525,1101.808 C710.7525,1102.963 709.6395,1103.698 707.9175,1103.698 C706.8885,1103.698 706.1115,1103.446 705.5865,1102.984 C705.1875,1102.606 705.0195,1102.27 704.8725,1101.493 L702.8145,1101.808 C703.0245,1102.69 703.1925,1103.068 703.5285,1103.53 C704.3475,1104.643 705.8385,1105.231 707.8125,1105.231 Z M716.33675,1109.305 C716.23175,1108.528 716.18975,1107.877 716.18975,1106.806 L716.18975,1104.58 C716.18975,1104.013 716.16875,1103.698 716.12675,1103.131 C717.19775,1104.496 718.60475,1105.168 720.43175,1105.168 C723.66575,1105.168 725.74475,1102.837 725.74475,1099.183 C725.74475,1095.466 723.72875,1093.219 720.38975,1093.219 C718.52075,1093.219 717.13475,1093.912 716.12675,1095.34 C716.15825,1095.00925 716.166125,1094.85569 716.168094,1094.69327 L716.16875,1093.45 L714.17375,1093.45 C714.27875,1094.248 714.32075,1094.899 714.32075,1095.97 L714.32075,1106.827 C714.32075,1107.772 714.27875,1108.465 714.17375,1109.305 L716.33675,1109.305 Z M720.17975,1103.551 C719.12975,1103.551 718.05875,1103.131 717.38675,1102.438 C716.65175,1101.703 716.21075,1100.485 716.21075,1099.204 C716.21075,1096.642 717.82775,1094.857 720.20075,1094.857 C722.48975,1094.857 723.79175,1096.432 723.79175,1099.183 C723.79175,1101.913 722.42675,1103.551 720.17975,1103.551 Z M732.568,1105.294 C736.033,1105.294 738.301,1102.9 738.301,1099.204 C738.301,1095.508 736.054,1093.156 732.526,1093.156 C728.998,1093.156 726.751,1095.529 726.751,1099.225 C726.751,1102.942 728.998,1105.294 732.568,1105.294 Z M732.526,1103.698 C730.153,1103.698 728.683,1101.976 728.683,1099.204 C728.683,1096.432 730.174,1094.731 732.568,1094.731 C734.92,1094.731 736.369,1096.453 736.369,1099.246 C736.369,1102.018 734.92,1103.698 732.526,1103.698 Z M744.20025,1105.21 C745.08225,1105.21 745.75425,1105.084 746.63625,1104.727 L746.17425,1103.026 C745.52325,1103.404 745.10325,1103.53 744.53625,1103.53 C744.09525,1103.53 743.73825,1103.404 743.52825,1103.215 C743.31825,1103.005 743.23425,1102.711 743.23425,1102.102 L743.23425,1095.046 L744.22125,1095.046 C745.18725,1095.046 745.67025,1095.067 746.34225,1095.172 L746.34225,1093.324 C745.71855,1093.4185 745.28196,1093.44496 744.481356,1093.44931 L743.23425,1093.45 L743.23425,1092.694 C743.23425,1091.791 743.29725,1090.972 743.38125,1090.3 L741.17625,1090.3 C741.26025,1091.014 741.32325,1091.854 741.32325,1092.694 L741.32325,1093.45 L740.50425,1093.45 C739.62225,1093.45 739.20225,1093.429 738.61425,1093.324 L738.61425,1095.172 C739.28625,1095.088 739.74825,1095.046 740.48325,1095.046 L741.32325,1095.046 L741.32325,1102.417 C741.32325,1103.488 741.51225,1104.118 741.97425,1104.559 C742.43625,1104.979 743.19225,1105.21 744.20025,1105.21 Z" id="sweetspot" fill="#FFFFFF" fill-rule="nonzero"></path>
            <path d="M323.9615,1081.504 C327.0215,1081.504 329.4695,1080.424 331.0895,1078.3 C331.7015,1077.508 332.0615,1076.824 332.5655,1075.456 L329.3615,1074.664 C329.0735,1075.564 328.8935,1075.996 328.6055,1076.464 C327.6695,1077.904 326.0495,1078.696 324.0695,1078.696 C320.1455,1078.696 317.6615,1075.744 317.6615,1071.1 C317.6615,1066.384 320.0735,1063.396 323.9255,1063.396 C326.4815,1063.396 328.1735,1064.692 329.1455,1067.428 L332.3135,1066.528 C331.9175,1065.484 331.5935,1064.872 331.0535,1064.116 C329.4695,1061.848 326.9495,1060.66 323.8175,1060.66 C318.0935,1060.66 314.3495,1064.836 314.3495,1071.172 C314.3495,1077.472 318.1295,1081.504 323.9615,1081.504 Z M338.8985,1081 C338.7185,1079.524 338.6465,1078.48 338.6465,1076.752 L338.6465,1057.492 C338.6465,1055.62 338.7185,1054.576 338.8985,1053.244 L335.0825,1053.244 C335.2625,1054.54 335.3345,1055.584 335.3345,1057.492 L335.3345,1076.752 C335.3345,1078.588 335.2625,1079.596 335.0825,1081 L338.8985,1081 Z M346.3835,1056.844 L346.3835,1053.244 L342.3875,1053.244 L342.3875,1056.844 L346.3835,1056.844 Z M346.2755,1081 C346.0955,1079.488 346.0235,1078.48 346.0235,1076.752 L346.0235,1065.484 C346.0235,1063.54 346.0955,1062.496 346.2755,1061.2 L342.4595,1061.2 C342.6395,1062.46 342.7115,1063.648 342.7115,1065.448 L342.7115,1076.752 C342.7115,1078.408 342.6395,1079.416 342.4595,1081 L346.2755,1081 Z M358.5845,1081.504 C361.6445,1081.504 364.0925,1080.424 365.7125,1078.3 C366.3245,1077.508 366.6845,1076.824 367.1885,1075.456 L363.9845,1074.664 C363.6965,1075.564 363.5165,1075.996 363.2285,1076.464 C362.2925,1077.904 360.6725,1078.696 358.6925,1078.696 C354.7685,1078.696 352.2845,1075.744 352.2845,1071.1 C352.2845,1066.384 354.6965,1063.396 358.5485,1063.396 C361.1045,1063.396 362.7965,1064.692 363.7685,1067.428 L366.9365,1066.528 C366.5405,1065.484 366.2165,1064.872 365.6765,1064.116 C364.0925,1061.848 361.5725,1060.66 358.4405,1060.66 C352.7165,1060.66 348.9725,1064.836 348.9725,1071.172 C348.9725,1077.472 352.7525,1081.504 358.5845,1081.504 Z M373.4135,1081 C373.2335,1079.74 373.1615,1078.516 373.1615,1076.824 L373.1615,1073.944 L376.2215,1071.064 L380.7215,1077.4 C382.2335,1079.488 382.5935,1080.064 383.0255,1081 L387.7775,1081 L387.633883,1080.85585 C386.924508,1080.14026 386.672409,1079.81745 384.6095,1077.112 L378.5255,1069.12 L383.5655,1064.368 C383.6015,1064.332 383.8535,1064.08 384.2135,1063.756 C384.7175,1063.252 385.1495,1062.856 385.5095,1062.532 C386.4815,1061.668 386.4815,1061.668 386.9855,1061.2 L381.9815,1061.2 C381.4775,1062.028 380.8655,1062.676 379.3535,1064.152 L373.1615,1070.164 L373.1615,1057.492 C373.1615,1055.584 373.2335,1054.54 373.4135,1053.244 L369.7055,1053.244 C369.8855,1054.576 369.9575,1055.584 369.9575,1057.492 L369.9575,1076.752 C369.9575,1078.588 369.8855,1079.74 369.7055,1081 L373.4135,1081 Z M318.002,1117 C317.822,1115.56 317.75,1114.336 317.75,1112.752 L317.75,1105.732 C318.182,1104.22 318.686,1103.284 319.658,1102.132 C321.026,1100.512 322.646,1099.684 324.482,1099.684 C325.778,1099.684 326.858,1100.116 327.578,1100.908 C328.262,1101.664 328.622,1102.816 328.622,1104.4 L328.622,1112.752 C328.622,1114.624 328.55,1115.74 328.334,1117 L332.15,1117 C331.97,1115.704 331.898,1114.48 331.898,1112.788 L331.898,1103.716 C331.898,1099.396 329.342,1096.84 325.022,1096.84 C321.746,1096.84 319.406,1098.172 317.642,1100.944 C317.7092,1099.936 317.74504,1099.77472 317.74952,1099.28939 L317.75,1093.528 C317.75,1091.62 317.786,1090.612 318.002,1089.244 L314.258,1089.244 C314.474,1090.612 314.546,1091.62 314.546,1093.492 L314.546,1112.752 C314.546,1114.624 314.474,1115.596 314.258,1117 L318.002,1117 Z M344.243,1117.54 C347.015,1117.54 349.319,1116.64 351.047,1114.912 C351.911,1114.084 352.379,1113.364 353.063,1111.852 L350.039,1110.736 C349.679,1111.78 349.427,1112.248 348.887,1112.824 C347.771,1114.12 346.187,1114.804 344.279,1114.804 C342.191,1114.804 340.499,1114.012 339.383,1112.5 C338.447,1111.24 338.087,1110.052 337.943,1107.712 L353.243,1107.712 C353.135,1105.912 353.063,1105.156 352.991,1104.796 C352.271,1099.756 348.851,1096.696 343.991,1096.696 C338.375,1096.696 334.703,1100.8 334.703,1107.1 C334.703,1113.508 338.411,1117.54 344.243,1117.54 Z M349.859,1105.084 L338.051,1105.084 C338.267,1103.788 338.447,1103.212 338.951,1102.348 C340.031,1100.44 341.795,1099.396 343.919,1099.396 C345.611,1099.396 346.979,1099.9 348.059,1100.944 C349.103,1101.988 349.643,1103.212 349.859,1105.084 Z M359.612,1117 C359.432,1115.524 359.36,1114.48 359.36,1112.752 L359.36,1105.624 C359.54,1103.968 359.864,1103.104 360.728,1101.988 C361.808,1100.62 363.248,1099.936 365.12,1099.936 C366.056,1099.936 366.74,1100.044 368.072,1100.476 L369.008,1097.2 C367.532,1096.948 366.812,1096.876 365.696,1096.876 C363.824,1096.876 362.168,1097.38 360.944,1098.352 C360.332,1098.784 359.9,1099.324 359.288,1100.26 C359.324,1099.972 359.324,1099.9 359.36,1099.648 L359.36,1097.2 L355.832,1097.2 C356,1098.4432 356.07392,1099.40416 356.083029,1101.07804 L356.084,1112.752 C356.084,1114.372 356.048,1115.236 355.832,1117 L359.612,1117 Z M379.121,1117.54 C381.893,1117.54 384.197,1116.64 385.925,1114.912 C386.789,1114.084 387.257,1113.364 387.941,1111.852 L384.917,1110.736 C384.557,1111.78 384.305,1112.248 383.765,1112.824 C382.649,1114.12 381.065,1114.804 379.157,1114.804 C377.069,1114.804 375.377,1114.012 374.261,1112.5 C373.325,1111.24 372.965,1110.052 372.821,1107.712 L388.121,1107.712 C388.013,1105.912 387.941,1105.156 387.869,1104.796 C387.149,1099.756 383.729,1096.696 378.869,1096.696 C373.253,1096.696 369.581,1100.8 369.581,1107.1 C369.581,1113.508 373.289,1117.54 379.121,1117.54 Z M384.737,1105.084 L372.929,1105.084 C373.145,1103.788 373.325,1103.212 373.829,1102.348 C374.909,1100.44 376.673,1099.396 378.797,1099.396 C380.489,1099.396 381.857,1099.9 382.937,1100.944 C383.981,1101.988 384.521,1103.212 384.737,1105.084 Z" id="clickhere" fill="#5B5B5B" fill-rule="nonzero"></path>
            <path d="M1047.86606,1051 L1114.13394,1051 C1116.79315,1051 1119.27855,1052.32135 1120.76579,1054.52579 L1133.58422,1073.52579 C1136.05526,1077.18846 1135.08925,1082.16082 1131.42658,1084.63185 C1130.10483,1085.52357 1128.54679,1086 1126.95237,1086 L1035.04763,1086 C1030.62935,1086 1027.04763,1082.41828 1027.04763,1078 C1027.04763,1076.40558 1027.52406,1074.84753 1028.41578,1073.52579 L1041.23421,1054.52579 C1042.72145,1052.32135 1045.20685,1051 1047.86606,1051 Z" id="Rectangle" fill="#B2B2B2"></path>
            <path d="M1081,1013 C1083.53409,1013 1085.8976,1014.27685 1087.2867,1016.39629 L1099.88258,1035.61469 C1102.30452,1039.31001 1101.27224,1044.26903 1097.57692,1046.69097 C1096.27381,1047.54504 1094.74966,1048 1093.19161,1048 L1068.80839,1048 C1064.39011,1048 1060.80839,1044.41828 1060.80839,1040 C1060.80839,1038.44195 1061.26335,1036.9178 1062.11742,1035.61469 L1074.7133,1016.39629 C1076.1024,1014.27685 1078.46591,1013 1081,1013 Z" id="Rectangle-Copy-5" fill="#D8D8D8"></path>
            <path d="M1112.88882,1089 C1117.22679,1089 1120.77437,1092.4573 1120.88617,1096.79383 L1121.78845,1131.79383 C1121.90231,1136.21064 1118.41408,1139.88348 1113.99727,1139.99734 C1113.92857,1139.99911 1113.85984,1140 1113.79111,1140 L1089.93,1140 L1089.76996,1109.95724 C1089.74688,1105.63876 1086.30529,1102.13448 1082.01832,1102.00378 L1081.77007,1102 L1081.22993,1102 C1076.82834,1102 1073.25357,1105.55572 1073.23004,1109.95724 L1073.23004,1109.95724 L1073.069,1140 L1048.20889,1140 C1043.79062,1140 1040.20889,1136.41828 1040.20889,1132 C1040.20889,1131.93127 1040.20978,1131.86254 1040.21155,1131.79383 L1041.11383,1096.79383 C1041.22563,1092.4573 1044.77321,1089 1049.11118,1089 L1112.88882,1089 Z" id="Combined-Shape" fill="#D8D8D8"></path>
        </g>
    </g>
</svg>