<svg xmlns="http://www.w3.org/2000/svg" xmlns:xlink="http://www.w3.org/1999/xlink" width="480.507" height="169.054" viewBox="0 0 480.507 169.054"><defs><style>.a{fill:#fff;}.b{fill:url(#a);}</style><radialGradient id="a" cx="0.5" cy="0.5" r="0.776" gradientTransform="matrix(0.633, -0.774, 0.682, 0.558, -0.158, 0.608)" gradientUnits="objectBoundingBox"><stop offset="0" stop-color="#e93577"/><stop offset="1" stop-color="#8000b4"/></radialGradient></defs><g transform="translate(-268.203 -355.946)"><path class="a" d="M79.3-34.32c0-19.76-15.47-35.75-36.53-35.75S6.11-53.82,6.11-34.06c0,19.63,15.47,35.62,36.4,35.62C63.7,1.56,79.3-14.69,79.3-34.32Zm-15.73.26c0,12.09-8.06,21.97-20.8,21.97-12.22,0-20.93-10.01-20.93-22.23,0-12.09,8.06-21.97,20.67-21.97C54.86-56.29,63.57-46.28,63.57-34.06Zm75.79-23.92c-3.64-7.28-10.53-12.09-20.41-12.09-10.53,0-16.51,5.72-20.93,11.83v-10.4H82.29V0H98.02V-38.61c0-10.66,5.98-17.16,14.69-17.16s13.91,5.98,13.91,16.64V0h15.73V-38.74c0-11.05,6.11-17.03,14.69-17.03,8.84,0,13.91,5.85,13.91,16.77V0h15.73V-43.81c0-16.77-9.1-26.26-24.05-26.26C152.23-70.07,144.95-65.26,139.36-57.98ZM263.77-34.32c0-22.88-15.73-35.75-31.98-35.75-11.05,0-18.2,5.72-23.27,12.87V-94.9H192.79V0h15.73V-10.66c4.81,6.37,11.96,12.09,23.27,12.09C248.17,1.43,263.77-11.44,263.77-34.32Zm-15.99,0c0,13.65-8.84,22.1-19.63,22.1-10.66,0-20.02-8.71-20.02-22.1s9.36-22.1,20.02-22.1S247.78-47.84,247.78-34.32Zm36.27-44.85V-94.12h-16.9v14.95ZM283.53,0V-68.64H267.8V0Zm24.18,0V-94.9H291.98V0Z" transform="translate(441 495)"/><path class="b" d="M132.423,180.554c0-8.561,7.748-15.5,17.306-15.5s17.306,6.939,17.306,15.5-7.748,15.5-17.306,15.5S132.423,189.114,132.423,180.554Zm-98.825,0c0-8.561,7.748-15.5,17.306-15.5s17.306,6.939,17.306,15.5-7.748,15.5-17.306,15.5S33.6,189.114,33.6,180.554Zm16.986-44.523L98.72,64.517h41.864L71.892,165.18Zm56.226-1.612L178.209,27h56.768L215.829,58.1H196.546L127.908,163.79ZM0,64.8H84.395L43.987,125.92Z" transform="translate(268.203 328.946)"/></g></svg>