<svg xmlns="http://www.w3.org/2000/svg" xmlns:xlink="http://www.w3.org/1999/xlink" width="144.589" height="73.859" viewBox="0 0 144.589 73.859"><defs><style>.a{fill:none;}.b{clip-path:url(#a);}.c{fill:#fff;}.d{fill:#d744dd;}</style><clipPath id="a"><rect class="a" width="144.589" height="73.859" transform="translate(0 0)"/></clipPath></defs><g transform="translate(0 0)"><g class="b"><path class="c" d="M1.324,47.651C7.07,65.1,29.873,73.267,52.256,65.9c1.136-.373,2.242-.789,3.332-1.227L73.6,73.108c4.145,1.941,6.324-.014,4.843-4.345l-4.917-14.38a7.926,7.926,0,0,0-.532-1.2c9.012-9.247,13-21.262,9.387-32.225C76.633,3.509,53.831-4.659,31.448,2.713S-4.422,30.2,1.324,47.651m51.02-21.914a5.65,5.65,0,1,1,5.65,5.65,5.649,5.649,0,0,1-5.65-5.65m-18.064,6.6a5.65,5.65,0,1,1,5.65,5.65,5.651,5.651,0,0,1-5.65-5.65M15.873,39.108a5.65,5.65,0,1,1,5.65,5.65,5.649,5.649,0,0,1-5.65-5.65"/><path class="d" d="M119.29,12.107c-18.008-5.93-36.35.641-40.974,14.678-2.9,8.819.3,18.485,7.552,25.924a6.422,6.422,0,0,0-.429.966L81.483,65.244c-1.19,3.484.563,5.057,3.9,3.494L99.869,61.95c.877.352,1.767.686,2.681.987,18.007,5.93,36.351-.641,40.974-14.677S137.3,18.037,119.29,12.107M97.934,35.175a4.545,4.545,0,1,1,4.545-4.545,4.545,4.545,0,0,1-4.545,4.545m14.532,5.309a4.545,4.545,0,1,1,4.545-4.546,4.545,4.545,0,0,1-4.545,4.546m14.808,5.448a4.545,4.545,0,1,1,4.545-4.545,4.545,4.545,0,0,1-4.545,4.545"/></g></g></svg>