<svg xmlns="http://www.w3.org/2000/svg" xmlns:xlink="http://www.w3.org/1999/xlink" width="155" height="155" viewBox="0 0 155 155"><defs><style>.a{fill:none;}.b{clip-path:url(#a);}.c{fill:#1877f2;}.d{fill:#fff;}</style><clipPath id="a"><rect class="a" width="155" height="155"/></clipPath></defs><g class="b"><path class="c" d="M155.205,77.6a77.6,77.6,0,1,0-89.728,76.66V100.035h-19.7V77.6h19.7v-17.1c0-19.449,11.586-30.192,29.312-30.192a119.319,119.319,0,0,1,17.372,1.516v19.1h-9.786c-9.64,0-12.646,5.982-12.646,12.119V77.6h21.523l-3.441,22.432H89.728v54.227A77.621,77.621,0,0,0,155.205,77.6"/><path class="d" d="M169.683,141.01l3.441-22.432H151.6V104.021c0-6.137,3.006-12.119,12.646-12.119h9.785V72.8a119.31,119.31,0,0,0-17.371-1.516c-17.726,0-29.312,10.743-29.312,30.192v17.1h-19.7V141.01h19.7v54.227a78.418,78.418,0,0,0,24.251,0V141.01Z" transform="translate(-61.873 -40.975)"/></g></svg>