<svg xmlns="http://www.w3.org/2000/svg" xmlns:xlink="http://www.w3.org/1999/xlink" width="279.132" height="205.453" viewBox="0 0 279.132 205.453"><defs><style>.a,.c{fill:none;}.b{clip-path:url(#a);}.c{stroke:#fff;stroke-miterlimit:10;stroke-width:4.031px;}.d{fill:#f9fbf6;}.d,.e{fill-rule:evenodd;}.e{fill:#f94d32;}.f{fill:#fff;}.g{opacity:0.2;}.h{clip-path:url(#c);}.i{fill:#fe9c00;}.j{fill:#f04025;}</style><clipPath id="a"><rect class="a" width="279.132" height="205.453"/></clipPath><clipPath id="c"><rect class="a" width="124.657" height="64.792" transform="translate(91.88 15.721)"/></clipPath></defs><g class="b"><g class="b"><path class="c" d="M6,122.52,25.78,103.352,44.666,117.3,64.4,92.993l37.867,17.215,18.552-56.784,20.129,22.921,17.936-18.1,19.931,13.6,37.9-56.36L235.858,6"/><path class="d" d="M12,122.52a6,6,0,1,1-6-6,6,6,0,0,1,6,6"/><path class="e" d="M6,127.024a4.5,4.5,0,1,1,4.5-4.5,4.508,4.508,0,0,1-4.5,4.5"/><path class="d" d="M31.781,103.352a6,6,0,1,1-6-6,6,6,0,0,1,6,6"/><path class="e" d="M25.78,107.856a4.5,4.5,0,1,1,4.5-4.5,4.509,4.509,0,0,1-4.5,4.5"/><path class="d" d="M50.667,117.3a6,6,0,1,1-6-6,6,6,0,0,1,6,6"/><path class="e" d="M44.666,121.807a4.505,4.505,0,1,1,4.5-4.506,4.51,4.51,0,0,1-4.5,4.506"/><path class="d" d="M70.4,92.992a6,6,0,1,1-6-6,6,6,0,0,1,6,6"/><path class="e" d="M64.4,97.5a4.5,4.5,0,1,1,4.5-4.5,4.511,4.511,0,0,1-4.5,4.5"/><path class="d" d="M108.268,110.208a6,6,0,1,1-6-6,6,6,0,0,1,6,6"/><path class="e" d="M102.267,114.713a4.5,4.5,0,1,1,4.5-4.5,4.51,4.51,0,0,1-4.5,4.5"/><path class="d" d="M126.82,53.424a6,6,0,1,1-6-6,6,6,0,0,1,6,6"/><path class="e" d="M120.819,57.929a4.505,4.505,0,1,1,4.5-4.505,4.51,4.51,0,0,1-4.5,4.505"/><path class="d" d="M146.949,76.345a6,6,0,1,1-6-6,6,6,0,0,1,6,6"/><path class="e" d="M140.948,80.849a4.5,4.5,0,1,1,4.5-4.5,4.51,4.51,0,0,1-4.5,4.5"/><path class="d" d="M164.885,58.241a6,6,0,1,1-6-6,6,6,0,0,1,6,6"/><path class="e" d="M158.884,62.744a4.5,4.5,0,1,1,4.5-4.5,4.508,4.508,0,0,1-4.5,4.5"/><path class="d" d="M184.816,71.841a6,6,0,1,1-6-6,6,6,0,0,1,6,6"/><path class="e" d="M178.815,76.345a4.5,4.5,0,1,1,4.5-4.5,4.509,4.509,0,0,1-4.5,4.5"/><path class="d" d="M222.712,15.481a6,6,0,1,1-6-6,6,6,0,0,1,6,6"/><path class="e" d="M216.71,19.988a4.5,4.5,0,1,1,4.5-4.507,4.51,4.51,0,0,1-4.5,4.507"/><path class="d" d="M241.86,6a6,6,0,1,1-6-6,6,6,0,0,1,6,6"/><path class="e" d="M235.858,10.505a4.5,4.5,0,1,1,4.5-4.5,4.508,4.508,0,0,1-4.5,4.5"/><path class="f" d="M194.1,129.952l19.445,19.98,11.385-11.081L205.416,118.8A65.414,65.414,0,1,0,194.1,129.952m-77.851-14.976a52.957,52.957,0,1,1,74.886,1.031,53.02,53.02,0,0,1-74.886-1.031"/><g class="g"><g class="h"><path d="M210.266,78.821A56.062,56.062,0,1,0,98.147,77.96l-6.22,2.553a62.331,62.331,0,1,1,124.6-1.247Z"/></g></g><rect class="i" width="27.557" height="84.574" transform="translate(196.707 140.889) rotate(-44.219)"/><path class="j" d="M255.686,201.505a13.787,13.787,0,0,0,19.751-19.22Z"/><rect class="j" width="27.555" height="6.259" transform="translate(196.711 140.884) rotate(-44.213)"/></g></g></svg>