<svg xmlns="http://www.w3.org/2000/svg" xmlns:xlink="http://www.w3.org/1999/xlink" width="220.65" height="34.71" viewBox="0 0 220.65 34.71"><defs><style>.a{fill:none;}.b{clip-path:url(#a);}.c{fill:#f7efe5;}.d{fill:#4c3f66;}.e{fill:#fff;fill-rule:evenodd;}.f{font-size:16.892px;font-family:Helvetica;}.g{letter-spacing:0.006em;}.h{letter-spacing:-0.01em;}</style><clipPath id="a"><rect class="a" width="220.65" height="34.71" transform="translate(0 0)"/></clipPath></defs><g class="b"><path class="c" d="M8.995,0A9.022,9.022,0,0,0,0,8.994V25.716A9.021,9.021,0,0,0,8.995,34.71H182.417V0Z"/><path class="d" d="M211.656,0H182.417V34.71h29.239a9.021,9.021,0,0,0,8.995-8.994V8.994A9.022,9.022,0,0,0,211.656,0"/><path class="e" d="M209.687,22.68a2.261,2.261,0,1,1-3.161,3.233l-2.7-2.635a2.317,2.317,0,0,1-.184-.223,9.044,9.044,0,1,1,3.12-3.191,1.858,1.858,0,0,1,.227.181Zm-6.528-11.654a6.031,6.031,0,1,0,.1,8.528,6.034,6.034,0,0,0-.1-8.528"/></g><text class="f" transform="translate(14.61 22.106)"><tspan class="g" x="0" y="0">S</tspan><tspan y="0">ea</tspan><tspan class="h" y="0">r</tspan><tspan y="0">ch...</tspan></text></svg>