<svg xmlns="http://www.w3.org/2000/svg" xmlns:xlink="http://www.w3.org/1999/xlink" width="87.444" height="75.792" viewBox="0 0 87.444 75.792"><defs><style>.a{fill:#0093ff;}.b{clip-path:url(#a);}</style><clipPath id="a"><rect class="a" width="87.444" height="75.793"/></clipPath></defs><g class="b" transform="translate(0 0)"><path class="a" d="M79.973,21.339l7.471-4.305-7.235-1.618,5.939-6.8L75.573,10.244A24.533,24.533,0,0,0,32.035,31.288c-6.773-5.6-10.658-15.222-10.658-15.222C16.2,22.219,20.4,32.229,20.4,32.229c-3.886-.679-5.83-5.478-5.83-5.478-4.533,8.1,1.3,16.2,1.3,16.2-2.265.007-6.154-3.9-6.154-3.9C8.421,51.688,20.08,54.8,20.08,54.8H0S15.222,79.541,46.315,75.3c41.271-7.841,33.894-50.738,33.894-50.738a24.883,24.883,0,0,0-.236-3.227m-21.12-8.515a3.564,3.564,0,1,1-3.564,3.564,3.563,3.563,0,0,1,3.564-3.564" transform="translate(0 0)"/></g></svg>